<svg width="40" height="40" viewBox="0 0 40 40" fill="none" xmlns="http://www.w3.org/2000/svg">
<path d="M30.4325 17.6925H21.1725C20.6225 17.6925 20.1725 18.1425 20.1725 18.6925C20.1725 18.9625 20.2825 19.2125 20.4625 19.4025L27.2325 26.1725C29.3125 23.8425 30.4625 20.8225 30.4425 17.7025L30.4325 17.6925Z" fill="white"/>
<path d="M30.3325 16.1825C29.9425 13.0525 28.3925 10.1725 25.9825 8.13251L19.6325 14.4825C19.2425 14.8725 19.2425 15.5025 19.6325 15.8925C19.8225 16.0825 20.0725 16.1825 20.3425 16.1825H30.3225H30.3325Z" fill="white"/>
<path d="M26.1625 27.2225L19.3925 20.4525C19.0025 20.0625 18.3725 20.0625 17.9825 20.4525C17.7925 20.6425 17.6925 20.8925 17.6925 21.1625V30.4225C20.8125 30.4425 23.8325 29.3025 26.1625 27.2225Z" fill="white"/>
<path d="M16.1825 30.3325V20.3425C16.1825 19.7925 15.7325 19.3425 15.1825 19.3425C14.9125 19.3425 14.6625 19.4525 14.4725 19.6325L8.11249 25.9925C10.1625 28.4025 13.0425 29.9525 16.1825 30.3225V30.3325Z" fill="white"/>
<path d="M29.2425 6.2925C28.8525 5.9025 28.2225 5.9025 27.8325 6.2925L27.0625 7.0625C32.9725 12.2025 33.5825 21.1625 28.4425 27.0725C23.3025 32.9825 14.3425 33.5925 8.4325 28.4525C7.9425 28.0225 7.4825 27.5625 7.0525 27.0725L6.2925 27.8325C5.9025 28.2225 5.9025 28.8525 6.2925 29.2425C12.6325 35.5825 22.9025 35.5825 29.2425 29.2425C35.5825 22.9025 35.5825 12.6325 29.2425 6.2925Z" fill="white"/>
</svg>
