<svg width="36" height="36" viewBox="1 1 34 34" fill="none" xmlns="http://www.w3.org/2000/svg">
<path d="M27.3893 15.9232H19.0553C18.5603 15.9232 18.1553 16.3282 18.1553 16.8232C18.1553 17.0662 18.2543 17.2912 18.4163 17.4622L24.5093 23.5552C26.3813 21.4582 27.4163 18.7402 27.3983 15.9322L27.3893 15.9232Z" fill="white"/>
<path d="M27.2993 14.5642C26.9483 11.7472 25.5533 9.15524 23.3843 7.31924L17.6693 13.0342C17.3183 13.3852 17.3183 13.9522 17.6693 14.3032C17.8403 14.4742 18.0653 14.5642 18.3083 14.5642H27.2903H27.2993Z" fill="white"/>
<path d="M23.5463 24.5002L17.4533 18.4072C17.1023 18.0562 16.5353 18.0562 16.1843 18.4072C16.0133 18.5782 15.9233 18.8032 15.9233 19.0462V27.3802C18.7313 27.3982 21.4493 26.3722 23.5463 24.5002Z" fill="white"/>
<path d="M14.5643 27.2992V18.3082C14.5643 17.8132 14.1593 17.4082 13.6643 17.4082C13.4213 17.4082 13.1963 17.5072 13.0253 17.6692L7.30127 23.3932C9.14627 25.5622 11.7383 26.9572 14.5643 27.2902V27.2992Z" fill="white"/>
<path d="M26.3183 5.66324C25.9673 5.31224 25.4003 5.31224 25.0493 5.66324L24.3563 6.35624C29.6753 10.9822 30.2243 19.0462 25.5983 24.3652C20.9723 29.6842 12.9083 30.2332 7.58927 25.6072C7.14827 25.2202 6.73427 24.8062 6.34727 24.3652L5.66327 25.0492C5.31227 25.4002 5.31227 25.9672 5.66327 26.3182C11.3693 32.0242 20.6123 32.0242 26.3183 26.3182C32.0243 20.6122 32.0243 11.3692 26.3183 5.66324Z" fill="white"/>
</svg>
