<svg width="32" height="32" viewBox="0 0 32 32" fill="none" xmlns="http://www.w3.org/2000/svg">
<path d="M27.9893 16.5233H19.6552C19.1602 16.5233 18.7552 16.9283 18.7552 17.4233C18.7552 17.6663 18.8542 17.8913 19.0162 18.0623L25.1093 24.1553C26.9812 22.0583 28.0162 19.3403 27.9982 16.5323L27.9893 16.5233Z" fill="white"/>
<path d="M27.8992 15.1643C27.5482 12.3472 26.1532 9.75525 23.9842 7.91925L18.2692 13.6343C17.9182 13.9853 17.9182 14.5523 18.2692 14.9033C18.4402 15.0743 18.6652 15.1643 18.9082 15.1643H27.8902H27.8992Z" fill="white"/>
<path d="M24.1463 25.1002L18.0533 19.0072C17.7023 18.6562 17.1353 18.6562 16.7843 19.0072C16.6133 19.1782 16.5233 19.4032 16.5233 19.6462V27.9802C19.3313 27.9982 22.0493 26.9722 24.1463 25.1002Z" fill="white"/>
<path d="M15.1642 27.8992V18.9082C15.1642 18.4132 14.7592 18.0082 14.2642 18.0082C14.0212 18.0082 13.7962 18.1072 13.6252 18.2692L7.90125 23.9932C9.74625 26.1622 12.3382 27.5572 15.1642 27.8902V27.8992Z" fill="white"/>
<path d="M26.9183 6.26325C26.5673 5.91225 26.0003 5.91225 25.6493 6.26325L24.9563 6.95625C30.2753 11.5823 30.8243 19.6463 26.1983 24.9653C21.5722 30.2843 13.5083 30.8333 8.18925 26.2073C7.74825 25.8203 7.33425 25.4063 6.94725 24.9653L6.26325 25.6493C5.91225 26.0003 5.91225 26.5673 6.26325 26.9183C11.9693 32.6243 21.2123 32.6243 26.9183 26.9183C32.6243 21.2123 32.6243 11.9693 26.9183 6.26325Z" fill="white"/>
</svg>
