<svg width="20" height="19" viewBox="0 0 20 19" fill="none" xmlns="http://www.w3.org/2000/svg">
<g clip-path="url(#clip0_21_172)">
<path d="M18.8398 1.17375C18.1031 0.430985 17.081 0 16.0405 0H3.95948C2.90055 0 1.90608 0.412645 1.16022 1.17375C0.414365 1.92568 0 2.93436 0 3.99807V16.2215C0 16.7717 0.156538 17.3036 0.460405 17.7621C0.764273 18.2206 1.18785 18.5782 1.69429 18.7891C2.02578 18.9266 2.3849 19 2.74401 19C2.92818 19 3.10313 18.9817 3.27808 18.945C3.81215 18.8349 4.30018 18.5782 4.68692 18.1839L6.29834 16.5516H16.0405C17.081 16.5516 18.1031 16.1207 18.8398 15.3779C19.5856 14.626 20 13.6173 20 12.5536V3.99807C20 2.93436 19.5856 1.92568 18.8398 1.17375ZM3.07551 3.99807C3.07551 3.75965 3.16759 3.53041 3.33333 3.36535C3.49908 3.20029 3.72007 3.10859 3.95028 3.10859H16.0313C16.2615 3.10859 16.4825 3.20029 16.6483 3.36535C16.814 3.53041 16.9061 3.75965 16.9061 3.99807V12.5536C16.9061 12.792 16.814 13.0212 16.6483 13.1863C16.4825 13.3514 16.2615 13.4431 16.0313 13.4431H5.24862C5.1105 13.4431 4.97238 13.4981 4.87109 13.5989L3.08471 15.4054V3.99807H3.07551Z" fill="white"/>
</g>
<defs>
<clipPath id="clip0_21_172">
<rect width="20" height="19" fill="white"/>
</clipPath>
</defs>
</svg>
