<svg width="22" height="22" viewBox="0 0 22 22" fill="none" xmlns="http://www.w3.org/2000/svg">
<path d="M22 16.565V6.72967C22 6.02624 22.001 5.4207 21.9605 4.92407C21.9187 4.41244 21.8264 3.9034 21.5768 3.41367H21.5769C21.2047 2.68314 20.611 2.08947 19.8805 1.71726C19.3908 1.46772 18.8817 1.37544 18.37 1.33365C17.8734 1.29309 17.2679 1.29411 16.5645 1.29411H14.2351C13.5203 1.29411 12.9409 1.8735 12.9409 2.58821C12.9409 3.30293 13.5203 3.88236 14.2351 3.88236H16.5645C17.3106 3.88236 17.7925 3.88333 18.1593 3.91329C18.5111 3.94203 18.6415 3.99083 18.7055 4.0234H18.7055C18.949 4.14746 19.1466 4.34516 19.2707 4.58865V4.58869C19.3033 4.65259 19.3521 4.783 19.3808 5.1348C19.4108 5.50162 19.4118 5.98356 19.4118 6.72967V16.565C19.4118 17.3111 19.4108 17.7928 19.3808 18.1593C19.3521 18.5108 19.3034 18.641 19.2707 18.705H19.2707C19.1501 18.9417 18.9605 19.1349 18.7282 19.2591L18.7056 19.2709L18.7054 19.271C18.6417 19.3035 18.5116 19.3522 18.1605 19.3808C17.7944 19.4108 17.3134 19.4118 16.5687 19.4118H6.72539C5.98068 19.4118 5.5 19.4108 5.13415 19.3808C4.78352 19.3522 4.65357 19.3035 4.58975 19.271L4.5896 19.2709C4.34592 19.1468 4.14706 18.9479 4.0232 18.7048L4.02313 18.7046C3.99063 18.6408 3.94194 18.5109 3.91326 18.1601C3.88334 17.7942 3.88236 17.3134 3.88236 16.5687V14.2353C3.88235 13.5206 3.30293 12.9412 2.58821 12.9412C1.8735 12.9412 1.29411 13.5206 1.29411 14.2353V16.5687C1.29411 17.2707 1.2931 17.8752 1.33365 18.371C1.37543 18.882 1.4677 19.3903 1.717 19.8796C2.0893 20.6104 2.68446 21.2051 3.41473 21.5771L3.41477 21.5771C3.90401 21.8264 4.41225 21.9187 4.9232 21.9605C5.41901 22.001 6.02341 22 6.72539 22H16.5687C17.2707 22 17.8753 22.001 18.3714 21.9605C18.8824 21.9187 19.3911 21.8265 19.8805 21.5771V21.577C20.6004 21.2103 21.1865 20.6283 21.5593 19.9142L21.5768 19.8801C21.8263 19.3905 21.9186 18.8817 21.9605 18.3701C22.001 17.8737 22 17.2684 22 16.565ZM0 7.76471C5.72205e-06 8.47943 0.579388 9.05882 1.29411 9.05882C2.00882 9.05882 2.58821 8.47943 2.58821 7.76471V4.41838L9.43784 11.268C9.94323 11.7734 10.7626 11.7734 11.268 11.268C11.7734 10.7626 11.7734 9.94323 11.268 9.43784L4.41838 2.58821H7.76471C8.47943 2.58821 9.05882 2.00882 9.05882 1.29411C9.05882 0.579388 8.47943 6.56327e-06 7.76471 0H1.29411C0.579384 4.00228e-07 0 0.579384 0 1.29411V7.76471Z" fill="white"/>
</svg>
