<svg width="20" height="20" viewBox="0 0 20 20" fill="none" xmlns="http://www.w3.org/2000/svg">
<path d="M16.4657 7.87988C16.5129 7.78563 16.937 6.46617 18.6805 4.95822C19.5759 4.20424 18.9162 2.79054 17.7852 3.02616C14.2981 3.78013 10.2454 6.04206 10.481 12.5451C10.481 15.1369 12.6959 17.1161 15.2877 17.1161C17.8794 17.1161 20 14.9955 20 12.4037C19.9529 10.2361 18.4921 8.39824 16.4657 7.87988Z" fill="white"/>
<path d="M5.9945 7.87988C6.04163 7.78563 6.46574 6.46617 8.20931 4.95822C9.10465 4.20424 8.44493 2.79054 7.31396 3.02616C3.82682 3.78013 -0.225805 6.04206 0.00981258 12.5451C0.00981258 15.1369 2.22462 17.1161 4.81641 17.1161C7.40821 17.1161 9.52877 14.9955 9.52877 12.4037C9.52877 10.2361 8.02081 8.39824 5.9945 7.87988Z" fill="white"/>
</svg>
