<svg width="23" height="20" viewBox="0 0 23 20" fill="none" xmlns="http://www.w3.org/2000/svg">
<path d="M9.18607 11.8832C9.51685 11.8832 9.79674 11.7814 10.0766 11.6033L13.1809 9.49142C13.9187 8.98253 14.1223 7.96475 13.6134 7.25231C13.1045 6.51442 12.0867 6.31086 11.3743 6.81975L8.29552 8.9062C7.55763 9.41509 7.35407 10.4329 7.86296 11.1453C8.16829 11.6288 8.67718 11.8832 9.18607 11.8832Z" fill="white"/>
<path d="M6.61619 9.28787C6.94697 9.28787 7.22686 9.18609 7.53219 9.00798L10.5855 6.92153C11.3234 6.41264 11.5015 5.39486 11.0181 4.68241C10.5092 3.94452 9.49142 3.76641 8.77897 4.24986L5.72563 6.33631C4.98774 6.84519 4.80963 7.86298 5.29308 8.57542C5.59841 9.03342 6.08186 9.28787 6.61619 9.28787Z" fill="white"/>
<path d="M11.756 14.4531C12.0868 14.4531 12.3666 14.3513 12.6465 14.1732L15.7253 12.0868C16.4632 11.5779 16.6668 10.5601 16.1579 9.84765C15.649 9.10976 14.6312 8.9062 13.9188 9.41509L10.84 11.4761C10.1021 11.985 9.89853 13.0028 10.4074 13.7152C10.7382 14.1987 11.2471 14.4531 11.756 14.4531Z" fill="white"/>
<path d="M8.42276 20C10.3311 20 12.2903 19.3639 13.8679 18.0917C14.4531 17.6082 15.191 17.1248 16.107 16.5395L22.1119 12.7992C22.8752 12.3158 23.1042 11.3234 22.6462 10.5601C22.1882 9.79676 21.1705 9.56776 20.4071 10.0258L14.4022 13.7661C13.3844 14.3768 12.5448 14.962 11.8069 15.5218C9.74588 17.1757 6.81976 17.1502 4.93687 15.42C3.53742 14.1223 3.00309 12.1377 3.51198 10.3056C4.50431 6.6162 4.37709 3.76641 3.07942 0.942077C2.69775 0.127853 1.73086 -0.228369 0.942084 0.153298C0.127861 0.534965 -0.228362 1.50186 0.153305 2.29063C1.1202 4.37708 1.17108 6.48898 0.40775 9.41509C-0.431918 12.4175 0.45864 15.6235 2.74864 17.7609C4.35165 19.2367 6.36176 20 8.42276 20Z" fill="white"/>
</svg>
