<svg width="18" height="20" viewBox="0 0 18 20" fill="none" xmlns="http://www.w3.org/2000/svg">
<path d="M16.0352 8.11791C16.8237 8.11808 17.4883 8.70721 17.582 9.48998V11.4831C17.582 14.8189 14.8533 17.5476 11.5176 17.5476H5.99316V19.5603C5.99316 19.7272 5.9061 19.8709 5.75879 19.948C5.6104 20.0251 5.44428 20.0153 5.30664 19.9206L0.189453 16.3884C0.0676321 16.3046 0.000140374 16.1772 0 16.029C0 15.8807 0.0674907 15.7526 0.189453 15.6687L5.30664 12.1365C5.44428 12.0418 5.61139 12.032 5.75879 12.1091C5.90611 12.1872 5.99316 12.3299 5.99316 12.4968V14.4519H11.5176C13.1449 14.4519 14.4873 13.1095 14.4873 11.4822V9.48998C14.581 8.70709 15.2464 8.11791 16.0352 8.11791ZM11.8242 0.0515075C11.9726 -0.02561 12.1387 -0.0158394 12.2764 0.0788513L17.3936 3.6101C17.5156 3.69403 17.583 3.82211 17.583 3.97045C17.583 4.11883 17.5156 4.24685 17.3936 4.3308L12.2764 7.86303C12.1388 7.95759 11.9715 7.96744 11.8242 7.89037C11.6769 7.81232 11.5899 7.66949 11.5898 7.50268V5.5476H6.06543C4.43821 5.5476 3.0959 6.88922 3.0957 8.51635V10.5095C3.00183 11.2922 2.33647 11.8816 1.54785 11.8816C0.759382 11.8814 0.094857 11.2921 0.000976562 10.5095V8.51635C0.00115355 5.1808 2.72984 2.45287 6.06543 2.45287L11.5898 2.4519V0.438226C11.59 0.271594 11.6771 0.128595 11.8242 0.0515075Z" fill="white"/>
</svg>
