<svg width="32" height="32" viewBox="0 0 32 32" fill="none" xmlns="http://www.w3.org/2000/svg">
<path d="M10 16C11.1046 16 12 15.1046 12 14C12 12.8954 11.1046 12 10 12C8.89543 12 8 12.8954 8 14C8 15.1046 8.89543 16 10 16Z" fill="white"/>
<path d="M22 16C23.1046 16 24 15.1046 24 14C24 12.8954 23.1046 12 22 12C20.8954 12 20 12.8954 20 14C20 15.1046 20.8954 16 22 16Z" fill="white"/>
<path d="M16.36 18C15.8053 17.9499 15.2462 18.0161 14.7185 18.1946C14.1909 18.373 13.7063 18.6597 13.2958 19.0363C12.8854 19.4128 12.5581 19.871 12.335 20.3813C12.1118 20.8917 11.9977 21.443 12 22V23C12 23.2652 12.1054 23.5196 12.2929 23.7071C12.4804 23.8946 12.7348 24 13 24H19C19.2652 24 19.5196 23.8946 19.7071 23.7071C19.8946 23.5196 20 23.2652 20 23V22.205C20.0236 21.1773 19.6641 20.1775 18.9912 19.4003C18.3184 18.623 17.3805 18.1239 16.36 18Z" fill="white"/>
<path d="M16 0C12.8355 0 9.74207 0.938384 7.11088 2.69649C4.4797 4.45459 2.42894 6.95345 1.21793 9.87706C0.0069325 12.8007 -0.309921 16.0177 0.307443 19.1214C0.924806 22.2251 2.44866 25.0761 4.6863 27.3137C6.92394 29.5513 9.77486 31.0752 12.8786 31.6926C15.9823 32.3099 19.1993 31.9931 22.1229 30.7821C25.0466 29.5711 27.5454 27.5203 29.3035 24.8891C31.0616 22.2579 32 19.1645 32 16C32 11.7565 30.3143 7.68687 27.3137 4.68629C24.3131 1.68571 20.2435 0 16 0ZM16 28C13.6266 28 11.3066 27.2962 9.33316 25.9776C7.35977 24.6591 5.8217 22.7849 4.91345 20.5922C4.0052 18.3995 3.76756 15.9867 4.23058 13.6589C4.6936 11.3311 5.83649 9.19295 7.51472 7.51472C9.19295 5.83649 11.3311 4.6936 13.6589 4.23058C15.9867 3.76755 18.3995 4.00519 20.5922 4.91344C22.7849 5.8217 24.6591 7.35976 25.9776 9.33315C27.2962 11.3065 28 13.6266 28 16C28 19.1826 26.7357 22.2348 24.4853 24.4853C22.2348 26.7357 19.1826 28 16 28Z" fill="white"/>
</svg>
