<svg xmlns="http://www.w3.org/2000/svg" viewBox="0 0 201 226" fill="none" role="img" aria-label="Sidecar">
  <path d="M200.381 0C200.381 55.1291 155.609 99.8203 100.381 99.8203C45.1539 99.8203 0.381226 55.1281 0.381226 0H200.381Z" fill="white"/>
  <path d="M200.381 0H100.929V99.807C155.904 99.5108 200.381 54.9449 200.381 0Z" fill="#D0D1D3"/>
  <path d="M194.685 33.2253H6.07739C19.1073 70.0701 53.1779 96.9858 93.8872 99.5944V213.036H62.2426C58.6556 213.036 55.7495 215.937 55.7495 219.518C55.7495 223.098 58.6556 225.999 62.2426 225.999H138.52C142.107 225.999 145.013 223.098 145.013 219.518C145.013 215.937 142.107 213.036 138.52 213.036H106.876V99.5944C147.584 96.9858 181.655 70.0701 194.685 33.2253Z" fill="#FFA01B"/>
  <path d="M194.685 33.2253H100.927V226H138.519C142.106 226 145.012 223.099 145.012 219.519C145.012 215.938 142.106 213.037 138.519 213.037H106.874V99.5944C147.584 96.9858 181.655 70.0701 194.685 33.2253Z" fill="#EA772F"/>
</svg>
