<svg width="100" height="100" viewBox="0 0 100 100" fill="none" xmlns="http://www.w3.org/2000/svg">
<path d="M50 0C22.449 0 0 22.449 0 50C0 77.551 22.449 100 50 100C77.551 100 100 77.551 100 50C100 22.449 77.551 0 50 0ZM50 93.1973C26.1905 93.1973 6.80272 73.8095 6.80272 50C6.80272 26.1905 26.1905 6.80272 50 6.80272C73.8095 6.80272 93.1973 26.1905 93.1973 50C93.1973 73.8095 73.8095 93.1973 50 93.1973Z" fill="#EA772F"/>
<path d="M64.9787 43.3578H53.2654C52.3406 43.3578 52.0324 42.4187 52.3406 42.1056L62.821 19.2522C63.2834 18.7826 62.3586 18 61.8963 18H42.785C42.3226 18 41.8603 18.4696 41.8603 18.9392L34 54.1584C34 55.0976 34.4624 55.4106 34.9247 55.4106H45.4051C45.8675 55.4106 46.3298 55.8802 46.3298 56.3498L43.5556 80.612C43.4015 82.0207 45.251 82.4903 45.8675 81.3946L65.9034 44.9231C66.2117 44.297 65.7493 43.3578 64.9787 43.3578Z" fill="#EA772F"/>
</svg>
