<svg width="16" height="20" viewBox="0 0 16 20" fill="none" xmlns="http://www.w3.org/2000/svg">
<path d="M15.9025 6.11111C15.7069 5.64316 15.2505 5.34188 14.7353 5.34188H12.3358L14.6919 1.9359C14.9549 1.55342 14.9831 1.0641 14.7636 0.660256C14.5441 0.254273 14.1181 0 13.6486 0H6.9109C6.48925 0 6.09585 0.207265 5.86112 0.551282L0.212306 8.88462C-0.046335 9.26496 -0.070243 9.75214 0.149276 10.156C0.368795 10.5598 0.794793 10.8098 1.25991 10.8098H4.65485L0.996924 18.2179C0.727416 18.7628 0.894772 19.4124 1.39684 19.7671C1.61201 19.9188 1.86631 20 2.13147 20C2.46401 20 2.77699 19.8739 3.01607 19.6453L15.6221 7.46581C15.9894 7.11111 16.1003 6.57906 15.9047 6.11325L15.9025 6.11111ZM11.2687 2.47863L8.91265 5.88462C8.64967 6.26709 8.62141 6.75641 8.84093 7.16026C9.06045 7.56624 9.48645 7.82051 9.95591 7.82051H11.6556L6.45447 12.8462L7.80419 10.1154C7.99546 9.72863 7.97155 9.27991 7.73899 8.91667C7.50643 8.55128 7.10869 8.33547 6.66965 8.33547H3.61594L7.58685 2.48077H11.2687V2.47863Z" fill="white"/>
</svg>
