<svg width="3015" height="3000" viewBox="0 0 3015 3000" fill="none" xmlns="http://www.w3.org/2000/svg">
<g clip-path="url(#clip0_2_43)">
<path d="M1973.77 2992.88L2041.07 2925.94L1973.77 2859L1906.83 2925.94L1973.77 2992.88ZM2407.48 1499.82L2339.82 1567.83L2369.37 1597.38L2466.94 1499.81L2478.33 1499.81L2375.07 1603.07L2486.52 1714.52L2543.85 1499.8L2553.11 1499.8L2610.44 1714.52L2721.89 1603.07L2618.63 1499.81L2630.02 1499.81L2727.59 1597.38L2757.5 1567.83L2689.49 1499.82L2700.88 1499.82L2763.19 1562.13L2792.74 1532.22L2760.34 1499.82L2771.73 1499.82L2798.44 1526.53L2825.15 1499.82L2846.51 1499.82L2873.22 1526.53L2899.93 1499.82L2911.32 1499.82L2878.92 1532.22L2908.47 1562.13L2970.78 1499.82L2982.17 1499.82L2914.16 1567.83L2944.07 1597.38L3014.96 1526.53L3014.96 1537.92L2949.8 1603.08L3014.96 1668.25L3014.96 1680L2944.1 1609.14L2841.55 1711.34L2898.52 1768.67L3014.96 1884.75L3014.96 1896.14L2878.94 2032.16L2908.49 2062.07L2976.5 1994.06L3014.96 1955.61L3014.96 1967L2982.2 1999.76L2914.19 2067.77L2944.1 2097.68L3014.96 2026.47L3014.96 2038.22L2949.8 2103.38L3014.96 2168.55L3014.96 2179.94L2944.1 2109.08L2841.55 2211.28L2898.52 2268.61L3014.96 2384.69L3014.96 2396.44L2878.94 2532.46L2908.49 2562.01L2976.5 2494L3014.96 2455.55L3014.96 2467.3L2982.2 2499.7L2914.19 2567.71L2944.1 2597.62L3014.96 2526.77L3014.96 2538.16L2949.8 2603.32L3014.96 2668.49L3014.96 2679.88L2944.1 2609.02L2841.55 2711.57L2898.52 2768.54L3014.96 2884.99L3014.96 2896.38L2911.34 3000L2899.95 3000L3009.26 2890.68L2897.81 2779.23L2840.48 2993.95L2846.53 3000L2825.17 3000L2831.22 2993.95L2773.89 2779.23L2662.44 2890.68L2771.76 3000L2760.37 3000L2656.75 2896.38L2626.84 2925.93L2695.2 2993.95L2700.9 3000L2689.51 3000L2689.15 2999.64L2621.14 2931.63L2591.59 2961.54L2630.03 3000L2618.64 3000L2585.88 2967.24L2553.12 3000L2543.86 3000L2511.1 2967.24L2478.34 3000L2466.95 3000L2505.41 2961.54L2475.86 2931.63L2407.84 2999.64L2407.48 3000L2396.09 3000L2402.14 2993.95L2470.15 2925.94L2440.24 2896.39L2336.62 3000L2325.23 3000L2434.55 2890.68L2323.1 2779.23L2265.76 2993.95L2271.81 3000L2250.45 3000L2256.86 2993.95L2199.17 2779.23L2087.72 2890.68L2197.39 3000L2185.64 3000L2082.02 2896.38L2052.47 2925.93L2120.48 2993.95L2126.53 3000L2114.78 3000L2114.78 2999.64L2046.77 2931.63L2016.86 2961.54L2055.32 3000L2043.93 3000L2011.17 2967.24L1978.4 3000L1969.5 3000L1936.74 2967.24L1903.98 3000L1892.23 3000L1931.04 2961.54L1901.13 2931.63L1833.12 2999.64L1832.76 3000L1821.37 3000L1827.42 2993.95L1895.43 2925.94L1865.88 2896.39L1761.9 3000L1750.51 3000L1859.83 2890.68L1748.73 2779.23L1691.04 2993.95L1697.09 3000L1676.08 3000L1682.13 2993.95L1624.44 2779.23L1513.34 2890.68L1622.67 3000L1611.28 3000L1507.66 2896.38L1507.66 2884.99L1680.72 2711.58L1578.52 2609.03L1507.66 2679.89L1507.66 2668.5L1572.82 2603.34L1507.66 2538.18L1507.66 2526.79L1578.52 2597.65L1608.07 2567.74L1540.06 2499.73L1507.66 2467.33L1507.66 2455.58L1545.76 2494.04L1613.77 2562.05L1643.68 2532.5L1507.66 2396.48L1507.66 2384.73L1680.72 2211.32L1578.52 2109.12L1507.66 2179.98L1507.66 2168.59L1572.82 2103.43L1507.66 2038.27L1507.66 2026.52L1578.52 2097.74L1608.07 2067.83L1540.06 1999.82L1507.66 1967.06L1507.66 1955.67L1545.76 1994.13L1613.77 2062.14L1643.68 2032.59L1507.66 1896.21L1507.66 1884.82L1680.72 1711.41L1578.52 1609.21L1507.66 1680.07L1507.66 1668.32L1572.82 1603.16L1507.66 1538L1507.66 1526.61L1578.52 1597.47L1608.07 1567.92L1540.41 1499.91L1551.8 1499.91L1613.76 1562.22L1643.67 1532.31L1611.27 1499.91L1622.66 1499.91L1649.37 1526.62L1676.08 1499.91L1697.09 1499.91L1723.8 1526.62L1750.51 1499.91L1761.9 1499.91L1729.5 1532.31L1759.41 1562.22L1821.37 1499.91L1832.76 1499.91L1765.1 1567.92L1794.65 1597.47L1892.22 1499.9L1903.97 1499.9L1800.71 1603.16L1911.81 1714.61L1969.5 1499.89L1978.4 1499.89L2036.09 1714.61L2147.19 1603.16L2043.93 1499.9L2055.32 1499.9L2152.89 1597.47L2182.8 1567.92L2114.79 1499.91L2126.54 1499.91L2188.5 1562.22L2218.05 1532.31L2185.65 1499.91L2197.4 1499.91L2223.75 1526.62L2250.46 1499.91L2271.82 1499.91L2298.53 1526.62L2325.24 1499.91L2336.63 1499.91L2304.23 1532.31L2334.14 1562.22L2396.1 1499.91L2407.49 1499.91L2407.48 1499.82ZM2334.13 1573.53L2265.41 1642.25L2265.41 1701.72L2363.69 1603.09L2334.14 1573.54L2334.13 1573.53ZM2261.13 1634.78L2328.07 1567.84L2261.13 1500.9L2194.19 1567.84L2261.13 1634.78ZM2407.84 2499.7L2339.83 2567.71L2369.38 2597.62L2505.4 2461.6L2475.85 2431.69L2407.84 2499.7ZM2334.13 2573.41L2265.41 2642.13L2265.41 2701.6L2363.69 2603.32L2334.14 2573.41L2334.13 2573.41ZM2261.13 2634.66L2328.07 2567.72L2261.13 2500.78L2194.19 2567.72L2261.13 2634.66ZM2334.13 2562.02L2402.14 2494.01L2470.15 2426L2440.24 2396.44L2304.22 2532.46L2334.13 2562.01L2334.13 2562.02ZM2407.84 1999.76L2339.83 2067.77L2369.38 2097.68L2505.4 1961.3L2475.85 1931.74L2407.84 1999.75L2407.84 1999.76ZM2334.13 2073.47L2265.41 2142.19L2265.41 2201.66L2363.69 2103.38L2334.14 2073.47L2334.13 2073.47ZM2261.13 2134.72L2328.07 2067.78L2261.13 2000.84L2194.19 2067.78L2261.13 2134.72ZM2334.13 2062.08L2402.14 1994.07L2470.15 1926.06L2440.24 1896.15L2304.22 2032.17L2334.13 2062.08ZM1759.41 1573.53L1690.69 1642.25L1690.69 1701.72L1788.97 1603.09L1759.42 1573.54L1759.41 1573.53ZM1686.77 1634.78L1753.71 1567.84L1686.77 1500.9L1619.47 1567.84L1686.77 1634.78ZM1833.12 2499.7L1765.11 2567.71L1794.66 2597.62L1931.04 2461.6L1901.13 2431.69L1833.12 2499.7ZM1759.41 2573.41L1690.69 2642.13L1690.69 2701.6L1788.97 2603.32L1759.42 2573.41L1759.41 2573.41ZM1686.77 2634.66L1753.71 2567.72L1686.77 2500.78L1619.47 2567.72L1686.77 2634.66ZM1759.41 2562.02L1827.42 2494.01L1895.43 2426L1865.88 2396.44L1729.5 2532.46L1759.41 2562.01L1759.41 2562.02ZM1833.12 1999.76L1765.11 2067.77L1794.66 2097.68L1931.04 1961.3L1901.13 1931.74L1833.12 1999.75L1833.12 1999.76ZM1759.41 2073.47L1690.69 2142.19L1690.69 2201.66L1788.97 2103.38L1759.42 2073.47L1759.41 2073.47ZM1686.77 2134.72L1753.71 2067.78L1686.77 2000.84L1619.47 2067.78L1686.77 2134.72ZM1759.41 2062.08L1827.42 1994.07L1895.43 1926.06L1865.88 1896.15L1729.5 2032.53L1759.41 2062.08ZM2908.49 1573.53L2839.77 1642.25L2839.77 1701.72L2938.41 1603.09L2908.5 1573.54L2908.49 1573.53ZM2835.85 1634.78L2902.79 1567.84L2835.85 1500.9L2768.91 1567.84L2835.85 1634.78ZM2908.49 2573.41L2839.77 2642.13L2839.77 2701.6L2938.41 2603.32L2908.5 2573.41L2908.49 2573.41ZM2835.85 2634.66L2902.79 2567.72L2835.85 2500.78L2768.91 2567.72L2835.85 2634.66ZM2908.49 2073.47L2839.77 2142.19L2839.77 2201.66L2938.41 2103.38L2908.5 2073.47L2908.49 2073.47ZM2835.85 2134.72L2902.79 2067.78L2835.85 2000.84L2768.91 2067.78L2835.85 2134.72ZM2982.2 2999.64L2982.2 3000L2970.81 3000L2976.51 2993.95L3014.96 2955.85L3014.96 2967.24L2982.2 2999.64ZM1540.06 2999.64L1507.66 2967.24L1507.66 2955.85L1545.76 2993.95L1551.81 3000L1540.42 3000L1540.06 2999.64ZM2689.14 2499.7L2621.13 2431.69L2591.58 2461.6L2727.6 2597.62L2757.51 2567.71L2689.14 2499.7ZM2615.43 2425.99L2548.49 2359.05L2481.55 2425.99L2548.49 2492.93L2615.43 2425.99ZM2552.41 2351.57L2621.13 2420.29L2651.04 2390.38L2552.4 2292.1L2552.4 2351.57L2552.41 2351.57ZM2626.83 2425.99L2695.2 2494L2763.21 2562.01L2792.76 2532.46L2656.74 2396.44L2626.83 2426L2626.83 2425.99ZM2689.14 1999.76L2621.13 1931.75L2591.58 1961.31L2727.6 2097.69L2757.51 2067.78L2689.14 1999.77L2689.14 1999.76ZM2615.43 1926.05L2548.49 1859.11L2481.55 1926.05L2548.49 1992.99L2615.43 1926.05ZM2552.41 1851.63L2621.13 1920.35L2651.04 1890.44L2552.4 1792.16L2552.4 1851.63L2552.41 1851.63ZM2626.83 1926.05L2695.2 1994.06L2763.21 2062.07L2792.76 2032.16L2656.74 1896.14L2626.83 1926.05ZM2615.43 2925.93L2548.49 2858.99L2481.55 2925.93L2548.49 2992.88L2615.43 2925.94L2615.43 2925.93ZM2552.41 2851.51L2621.13 2920.23L2651.04 2890.67L2552.4 2792.04L2552.4 2851.51L2552.41 2851.51ZM2114.78 2499.7L2046.77 2431.69L2016.86 2461.6L2152.88 2597.62L2182.79 2567.71L2114.78 2499.7ZM2041.07 2425.99L1973.77 2359.05L1906.83 2425.99L1973.77 2492.93L2041.07 2425.99ZM1978.05 2351.57L2046.77 2420.29L2076.32 2390.38L1978.04 2292.1L1978.04 2351.57L1978.05 2351.57ZM2052.47 2425.99L2120.48 2494L2188.49 2562.01L2218.04 2532.46L2082.02 2396.44L2052.47 2426L2052.47 2425.99ZM2114.78 1999.76L2046.77 1931.75L2016.86 1961.31L2152.88 2097.69L2182.79 2067.78L2114.78 1999.77L2114.78 1999.76ZM2041.07 1926.05L1973.77 1859.11L1906.83 1926.05L1973.77 1992.99L2041.07 1926.05ZM1978.05 1851.63L2046.77 1920.35L2076.32 1890.44L1978.04 1792.16L1978.04 1851.63L1978.05 1851.63ZM2052.47 1926.05L2120.48 1994.06L2188.49 2062.07L2218.04 2032.16L2082.02 1896.14L2052.47 1926.05ZM2046.77 2920.24L2076.32 2890.68L1978.04 2792.05L1978.04 2851.52L2046.76 2920.24L2046.77 2920.24ZM1513.36 2390.39L1649.38 2526.77L1682.14 2494.01L1624.45 2279.29L1513.35 2390.39L1513.36 2390.39ZM1513.36 1890.45L1649.38 2026.47L1682.14 1993.71L1624.45 1779.35L1513.35 1890.45L1513.36 1890.45ZM2492.94 1721.31L2544.57 1772.59L2544.57 1529.39L2492.94 1721.32L2492.94 1721.31ZM2552.41 1772.58L2604.04 1721.3L2552.41 1529.37L2552.41 1772.57L2552.41 1772.58ZM2611.16 1725.22L2554.19 1782.19L2656.74 1884.74L2830.15 1711.33L2727.6 1609.13L2611.16 1725.21L2611.16 1725.22ZM2542.79 1782.2L2369.38 1609.14L2266.83 1711.34L2324.16 1768.67L2440.24 1884.75L2542.79 1782.2ZM2255.43 1711.34L2152.88 1609.14L2036.8 1725.22L2036.44 1725.22L1979.47 1782.19L2082.02 1884.74L2255.43 1711.33L2255.43 1711.34ZM2158.58 1603.09L2257.22 1701.72L2257.22 1642.25L2188.5 1573.53L2158.59 1603.08L2158.58 1603.09ZM2511.1 2467.3L2375.08 2603.32L2486.53 2714.42L2543.86 2500.06L2511.1 2467.3ZM2492.94 2721.19L2544.57 2772.47L2544.57 2529.62L2492.94 2721.19ZM2552.41 2772.46L2604.04 2721.18L2552.41 2529.61L2552.41 2772.46ZM2611.16 2725.46L2554.19 2782.43L2656.74 2884.98L2830.15 2711.57L2727.6 2609.02L2611.16 2725.1L2611.16 2725.46ZM2542.79 2782.43L2369.38 2609.02L2266.83 2711.57L2324.16 2768.54L2440.24 2884.98L2542.79 2782.43ZM2255.43 2711.57L2152.88 2609.02L2036.8 2725.1L2036.8 2725.46L2036.44 2725.46L1979.47 2782.43L2082.02 2884.98L2255.43 2711.57ZM2147.19 2603.32L2011.17 2467.3L1978.41 2500.06L2036.1 2714.42L2147.2 2603.32L2147.19 2603.32ZM2158.58 2603.32L2257.22 2701.6L2257.22 2642.13L2188.5 2573.41L2158.59 2603.32L2158.58 2603.32ZM2298.52 2526.77L2434.54 2390.39L2323.09 2279.29L2265.76 2493.65L2298.52 2526.77ZM2324.16 2268.61L2440.24 2384.69L2542.79 2282.49L2369.38 2109.08L2266.83 2211.28L2324.16 2268.61ZM2554.19 2282.49L2656.74 2384.69L2830.15 2211.28L2727.6 2109.08L2611.16 2225.16L2611.16 2225.52L2554.19 2282.49ZM2662.44 2390.39L2798.46 2526.77L2831.22 2493.65L2773.89 2279.29L2662.44 2390.39ZM2544.57 2292.11L2445.93 2390.39L2475.84 2420.3L2544.56 2351.58L2544.56 2292.11L2544.57 2292.11ZM2316.68 2272.52L2265.4 2221.24L2265.4 2464.44L2316.68 2272.51L2316.68 2272.52ZM2257.22 2221.25L2205.94 2272.53L2257.22 2464.46L2257.22 2221.26L2257.22 2221.25ZM2199.17 2279.29L2087.72 2390.39L2223.74 2526.77L2256.86 2493.65L2199.17 2279.29ZM2082.02 2384.69L2255.43 2211.28L2152.88 2109.08L2036.8 2225.16L2036.44 2225.52L1979.47 2282.49L2082.02 2384.69ZM2511.1 1967L2375.08 2103.38L2486.53 2214.48L2543.86 2000.12L2511.1 1967ZM2492.94 2221.25L2544.57 2272.53L2544.57 2029.68L2492.94 2221.25ZM2552.41 2272.52L2604.04 2221.24L2552.41 2029.67L2552.41 2272.52ZM2147.19 2103.38L2011.17 1967L1978.41 2000.12L2036.1 2214.48L2147.2 2103.38L2147.19 2103.38ZM2158.58 2103.38L2257.22 2201.66L2257.22 2142.19L2188.5 2073.47L2158.59 2103.38L2158.58 2103.38ZM2298.52 2026.47L2434.54 1890.45L2323.09 1779.35L2265.76 1993.71L2298.52 2026.47ZM2662.44 1890.45L2798.46 2026.47L2831.22 1993.71L2773.89 1779.35L2662.44 1890.45ZM2544.57 1792.17L2445.93 1890.45L2475.84 1920.36L2544.56 1851.64L2544.56 1792.17L2544.57 1792.17ZM2316.68 1772.58L2265.4 1721.3L2265.4 1964.15L2316.68 1772.58ZM2257.22 1721.31L2205.94 1772.59L2257.22 1964.16L2257.22 1721.31ZM2199.17 1779.35L2087.72 1890.45L2223.74 2026.47L2256.86 1993.71L2199.17 1779.35ZM2544.57 2792.05L2445.93 2890.68L2475.84 2920.24L2544.56 2851.52L2544.56 2792.05L2544.57 2792.05ZM2316.68 2772.46L2265.4 2721.18L2265.4 2964.39L2316.68 2772.46ZM2257.22 2721.19L2205.94 2772.47L2257.22 2964.4L2257.22 2721.2L2257.22 2721.19ZM1918.58 1721.31L1969.86 1772.59L1969.86 1529.39L1918.58 1721.32L1918.58 1721.31ZM1978.05 1772.58L2029.33 1721.3L1978.05 1529.37L1978.05 1772.57L1978.05 1772.58ZM1968.08 1782.2L1794.67 1609.14L1692.47 1711.34L1749.44 1768.67L1865.88 1884.75L1968.08 1782.2ZM1584.22 1603.09L1682.5 1701.72L1682.5 1642.25L1613.78 1573.53L1584.23 1603.08L1584.22 1603.09ZM1936.74 2467.3L1800.72 2603.32L1911.82 2714.42L1969.51 2500.06L1936.75 2467.3L1936.74 2467.3ZM1918.58 2721.19L1969.86 2772.47L1969.86 2529.62L1918.58 2721.19ZM1978.05 2772.46L2029.33 2721.18L1978.05 2529.61L1978.05 2772.46ZM1968.08 2782.43L1794.67 2609.02L1692.47 2711.57L1749.44 2768.54L1865.88 2884.98L1968.08 2782.43ZM1584.22 2603.32L1682.5 2701.6L1682.5 2642.13L1613.78 2573.41L1584.23 2603.32L1584.22 2603.32ZM1723.8 2526.77L1859.82 2390.39L1748.72 2279.29L1691.03 2494.01L1723.79 2526.77L1723.8 2526.77ZM1749.44 2268.61L1865.88 2384.69L1968.08 2282.49L1794.67 2109.08L1692.47 2211.28L1749.44 2268.61ZM1969.86 2292.11L1871.58 2390.39L1901.13 2420.3L1969.85 2351.58L1969.85 2292.11L1969.86 2292.11ZM1631.22 2272.52L1682.5 2464.45L1682.5 2221.25L1631.22 2272.53L1631.22 2272.52ZM1690.69 2221.25L1690.69 2464.45L1741.97 2272.52L1690.69 2221.24L1690.69 2221.25ZM1936.74 1967L1800.72 2103.38L1911.82 2214.48L1969.51 2000.12L1936.75 1967L1936.74 1967ZM1918.58 2221.25L1969.86 2272.53L1969.86 2029.68L1918.58 2221.25ZM1978.05 2272.52L2029.33 2221.24L1978.05 2029.67L1978.05 2272.52ZM1584.22 2103.38L1682.5 2201.66L1682.5 2142.19L1613.78 2073.47L1584.23 2103.38L1584.22 2103.38ZM1723.8 2026.47L1859.82 1890.45L1748.72 1779.35L1691.03 1993.71L1723.79 2026.47L1723.8 2026.47ZM1969.86 1792.17L1871.58 1890.45L1901.13 1920.36L1969.85 1851.64L1969.85 1792.17L1969.86 1792.17ZM1631.22 1772.58L1682.5 1964.15L1682.5 1721.3L1631.22 1772.58ZM1690.69 1721.31L1690.69 1964.16L1741.97 1772.59L1690.69 1721.31ZM1969.86 2792.05L1871.58 2890.68L1901.13 2920.24L1969.85 2851.52L1969.85 2792.05L1969.86 2792.05ZM1631.22 2772.46L1682.5 2964.39L1682.5 2721.19L1631.22 2772.47L1631.22 2772.46ZM1690.69 2721.19L1690.69 2964.39L1741.97 2772.46L1690.69 2721.18L1690.69 2721.19ZM2733.3 1603.09L2831.94 1701.72L2831.94 1642.25L2763.22 1573.53L2733.31 1603.08L2733.3 1603.09ZM2721.9 2603.32L2585.88 2467.3L2553.12 2500.06L2610.45 2714.42L2721.9 2603.32ZM2733.3 2603.32L2831.94 2701.6L2831.94 2642.13L2763.22 2573.41L2733.31 2603.32L2733.3 2603.32ZM2873.24 2526.77L3009.26 2390.39L2897.81 2279.29L2840.48 2493.65L2873.24 2526.77ZM2891.4 2272.52L2839.77 2221.24L2839.77 2464.09L2891.4 2272.52ZM2831.93 2221.25L2780.3 2272.53L2831.93 2464.1L2831.93 2221.25ZM2721.9 2103.38L2585.88 1967L2553.12 2000.12L2610.45 2214.48L2721.9 2103.38ZM2733.3 2103.38L2831.94 2201.66L2831.94 2142.19L2763.22 2073.47L2733.31 2103.38L2733.3 2103.38ZM2873.24 2026.47L3009.26 1890.45L2897.81 1779.35L2840.48 1993.71L2873.24 2026.47ZM2891.4 1772.58L2839.77 1721.3L2839.77 1964.15L2891.4 1772.58ZM2831.93 1721.31L2780.3 1772.59L2831.93 1964.16L2831.93 1721.31ZM2891.4 2772.46L2839.77 2721.18L2839.77 2964.39L2891.4 2772.46ZM2831.93 2721.19L2780.3 2772.47L2831.93 2964.4L2831.93 2721.2L2831.93 2721.19Z" fill="#D7CAAC" fill-opacity="0.6"/>
<path d="M1973.77 1493.06L2041.07 1426.12L1973.77 1358.82L1906.83 1426.12L1973.77 1493.06ZM2407.48 0.000313103L2339.82 67.6602L2369.37 97.5704L2466.94 0.000318302L2478.33 0.000319297L2375.07 103.26L2486.52 214.71L2543.85 -0.00968474L2553.11 -0.00968393L2610.44 214.71L2721.89 103.26L2618.63 0.000331563L2630.02 0.000332558L2727.59 97.5704L2757.5 67.6603L2689.49 0.000337757L2700.88 0.000338753L2763.19 61.9603L2792.74 32.4103L2760.34 0.0103537L2771.73 0.0103547L2798.44 26.7203L2825.15 0.0103594L2846.51 0.0103613L2873.22 26.7203L2899.93 0.0103659L2911.32 0.0103669L2878.92 32.4103L2908.47 61.9603L2970.78 0.000362349L2982.17 0.000363344L2914.16 67.6603L2944.07 97.5704L3014.96 26.7103L3014.96 38.1005L2949.8 103.26L3014.96 168.43L3014.96 179.82L2944.1 108.96L2841.55 211.51L2898.52 268.48L3014.96 384.93L3014.96 396.32L2878.94 532.34L2908.49 561.89L2976.5 493.88L3014.96 455.78L3014.96 467.17L2982.2 499.93L2914.19 567.94L2944.1 597.5L3014.96 526.65L3014.96 538.04L2949.8 603.2L3014.96 668.37L3014.96 679.76L2944.1 608.9L2841.55 711.45L2898.52 768.42L3014.96 884.87L3014.96 896.26L2878.94 1032.28L2908.49 1062.19L2976.5 994.18L3014.96 955.73L3014.96 967.12L2982.2 999.88L2914.19 1067.89L2944.1 1097.44L3014.96 1026.59L3014.96 1037.98L2949.8 1103.14L3014.96 1168.31L3014.96 1179.7L2944.1 1108.84L2841.55 1211.39L2898.52 1268.36L3014.96 1384.81L3014.96 1396.2L2911.34 1499.82L2899.95 1499.82L3009.27 1390.5L2897.82 1279.05L2840.49 1493.77L2846.54 1499.82L2825.18 1499.82L2831.23 1493.77L2773.9 1279.05L2662.45 1390.5L2771.77 1499.82L2760.38 1499.82L2656.76 1396.2L2626.85 1426.11L2695.22 1494.12L2700.92 1499.82L2689.17 1499.82L2621.16 1431.81L2591.61 1461.36L2630.07 1499.82L2618.68 1499.82L2585.92 1467.06L2553.16 1499.82L2543.9 1499.82L2511.14 1467.06L2478.38 1499.82L2466.99 1499.82L2505.45 1461.36L2475.9 1431.81L2407.89 1499.82L2396.14 1499.82L2402.19 1494.12L2470.2 1426.11L2440.29 1396.2L2336.67 1499.82L2325.28 1499.82L2434.6 1390.5L2323.15 1279.05L2265.82 1493.77L2271.87 1499.82L2250.51 1499.82L2256.92 1493.77L2199.23 1279.05L2087.78 1390.5L2197.45 1499.82L2185.7 1499.82L2082.08 1396.2L2052.53 1426.11L2120.54 1494.12L2126.59 1499.82L2114.84 1499.82L2046.83 1431.81L2016.92 1461.36L2055.38 1499.82L2043.99 1499.82L2011.23 1467.06L1978.47 1499.82L1969.57 1499.82L1936.81 1467.06L1904.05 1499.82L1892.3 1499.82L1931.11 1461.36L1901.2 1431.81L1833.19 1499.82L1821.44 1499.82L1827.49 1494.12L1895.5 1426.11L1865.95 1396.2L1761.97 1499.82L1750.58 1499.82L1859.9 1390.5L1748.8 1279.05L1691.11 1493.77L1697.16 1499.82L1676.15 1499.82L1682.2 1493.77L1624.51 1279.05L1513.41 1390.5L1622.73 1499.82L1611.34 1499.82L1507.72 1396.2L1507.72 1384.81L1680.78 1211.4L1578.58 1108.85L1507.72 1180.07L1507.72 1168.32L1572.88 1103.16L1507.72 1038L1507.72 1026.61L1578.58 1097.47L1608.13 1067.92L1540.12 999.91L1507.72 967.15L1507.72 955.76L1545.82 994.22L1613.83 1062.23L1643.74 1032.32L1507.72 896.3L1507.72 884.91L1680.78 711.5L1578.58 608.95L1507.72 679.81L1507.72 668.42L1572.88 603.26L1507.72 538.1L1507.72 526.71L1578.58 597.57L1608.13 568.01L1540.12 500L1507.72 467.24L1507.72 455.85L1545.82 493.95L1613.83 561.96L1643.74 532.41L1507.72 396.39L1507.72 385L1680.78 211.59L1578.58 109.04L1507.72 179.9L1507.72 168.51L1572.88 103.35L1507.72 38.1902L1507.72 26.8003L1578.58 97.6602L1608.13 67.7502L1540.47 0.0903252L1551.86 0.0903262L1613.82 62.0503L1643.73 32.5002L1611.33 0.100341L1622.72 0.100342L1649.43 26.8103L1676.14 0.100347L1697.15 0.100349L1723.86 26.8103L1750.57 0.100353L1761.96 0.100354L1729.56 32.5003L1759.47 62.0503L1821.43 0.0903498L1832.82 0.0903508L1765.16 67.7503L1794.71 97.6602L1892.28 0.090356L1904.03 0.090357L1800.77 103.35L1911.87 214.8L1969.56 0.0803529L1978.46 0.0803537L2036.15 214.8L2147.25 103.35L2043.99 0.0903692L2055.38 0.0903702L2152.95 97.6602L2182.86 67.7503L2114.85 0.0903754L2126.6 0.0903764L2188.56 62.0503L2218.11 32.5003L2185.71 0.100391L2197.46 0.100392L2223.81 26.8104L2250.52 0.100397L2271.88 0.100399L2298.59 26.8104L2325.3 0.100404L2336.69 0.100405L2304.29 32.5003L2334.2 62.0504L2396.16 0.0904L2407.55 0.090401L2407.48 0.000313103ZM2334.13 73.7103L2265.41 142.08L2265.41 201.55L2363.69 103.27L2334.14 73.7103L2334.13 73.7103ZM2261.13 134.96L2328.07 67.6602L2261.13 0.720271L2194.19 67.6602L2261.13 134.96ZM2407.84 999.88L2339.83 1067.89L2369.38 1097.44L2505.4 961.42L2475.85 931.86L2407.84 999.87L2407.84 999.88ZM2334.13 1073.59L2265.41 1142.31L2265.41 1201.78L2363.69 1103.14L2334.14 1073.59L2334.13 1073.59ZM2261.13 1134.84L2328.07 1067.9L2261.13 1000.96L2194.19 1067.9L2261.13 1134.84ZM2334.13 1062.2L2402.14 994.19L2470.15 926.18L2440.24 896.27L2304.22 1032.29L2334.13 1062.2ZM2407.84 499.94L2339.83 567.95L2369.38 597.51L2505.4 461.49L2475.85 431.58L2407.84 499.95L2407.84 499.94ZM2334.13 573.65L2265.41 642.37L2265.41 701.84L2363.69 603.2L2334.14 573.65L2334.13 573.65ZM2261.13 634.9L2328.07 567.96L2261.13 500.66L2194.19 567.96L2261.13 634.9ZM2334.13 561.9L2402.14 493.89L2470.15 425.88L2440.24 396.33L2304.22 532.35L2334.13 561.9ZM1759.41 73.7102L1690.69 142.08L1690.69 201.55L1788.97 103.27L1759.42 73.7102L1759.41 73.7102ZM1686.77 134.96L1753.71 67.6602L1686.77 0.720221L1619.47 67.6602L1686.77 134.96ZM1833.12 999.88L1765.11 1067.89L1794.66 1097.44L1931.04 961.42L1901.13 931.86L1833.12 999.87L1833.12 999.88ZM1759.41 1073.59L1690.69 1142.31L1690.69 1201.78L1788.97 1103.14L1759.42 1073.59L1759.41 1073.59ZM1686.77 1134.84L1753.71 1067.9L1686.77 1000.96L1619.47 1067.9L1686.77 1134.84ZM1759.41 1062.2L1827.42 994.19L1895.43 926.18L1865.88 896.27L1729.5 1032.29L1759.41 1062.2ZM1833.12 499.94L1765.11 567.95L1794.66 597.51L1931.04 461.49L1901.13 431.58L1833.12 499.95L1833.12 499.94ZM1759.41 573.65L1690.69 642.37L1690.69 701.84L1788.97 603.2L1759.42 573.65L1759.41 573.65ZM1686.77 634.9L1753.71 567.96L1686.77 500.66L1619.47 567.96L1686.77 634.9ZM1759.41 561.9L1827.42 493.89L1895.43 425.88L1865.88 396.33L1729.5 532.35L1759.41 561.9ZM2908.49 73.3505L2839.77 142.07L2839.77 201.54L2938.41 103.26L2908.5 73.3505L2908.49 73.3505ZM2835.85 134.96L2902.79 67.6603L2835.85 0.720321L2768.91 67.6603L2835.85 134.96ZM2908.49 1073.59L2839.77 1142.31L2839.77 1201.78L2938.41 1103.14L2908.5 1073.59L2908.49 1073.59ZM2835.85 1134.84L2902.79 1067.9L2835.85 1000.96L2768.91 1067.9L2835.85 1134.84ZM2908.49 573.65L2839.77 642.37L2839.77 701.84L2938.41 603.2L2908.5 573.65L2908.49 573.65ZM2835.85 634.9L2902.79 567.96L2835.85 500.66L2768.91 567.96L2835.85 634.9ZM2982.2 1499.82L2970.81 1499.82L2976.51 1494.12L3014.96 1455.67L3014.96 1467.06L2982.2 1499.82ZM1540.06 1499.82L1507.66 1467.06L1507.66 1455.67L1545.76 1494.13L1551.81 1499.83L1540.06 1499.83L1540.06 1499.82ZM2689.14 999.88L2621.13 931.87L2591.58 961.43L2727.6 1097.45L2757.51 1067.9L2689.14 999.89L2689.14 999.88ZM2615.43 926.17L2548.49 858.87L2481.55 926.17L2548.49 993.11L2615.43 926.17ZM2552.41 851.39L2621.13 920.11L2651.04 890.56L2552.4 792.28L2552.4 851.39L2552.41 851.39ZM2626.83 926.17L2695.2 994.18L2763.21 1062.19L2792.76 1032.28L2656.74 896.26L2626.83 926.17ZM2689.14 499.58L2621.13 431.57L2591.58 461.48L2727.6 597.5L2757.51 567.94L2689.14 499.57L2689.14 499.58ZM2615.43 425.88L2548.49 358.94L2481.55 425.88L2548.49 493.18L2615.43 425.88ZM2552.41 351.45L2621.13 420.17L2651.04 390.62L2552.4 291.99L2552.4 351.46L2552.41 351.45ZM2626.83 425.88L2695.2 493.89L2763.21 561.9L2792.76 532.35L2656.74 396.33L2626.83 425.88ZM2615.43 1426.11L2548.49 1358.81L2481.55 1426.11L2548.49 1493.05L2615.43 1426.11ZM2552.41 1351.69L2621.13 1420.41L2651.04 1390.5L2552.4 1292.22L2552.4 1351.69L2552.41 1351.69ZM2114.78 999.88L2046.77 931.87L2016.86 961.43L2152.88 1097.45L2182.79 1067.9L2114.78 999.89L2114.78 999.88ZM2041.07 926.17L1973.77 858.87L1906.83 926.17L1973.77 993.11L2041.07 926.17ZM1978.05 851.75L2046.77 920.12L2076.32 890.57L1978.04 792.29L1978.04 851.76L1978.05 851.75ZM2052.47 926.17L2120.48 994.18L2188.49 1062.19L2218.04 1032.28L2082.02 896.26L2052.47 926.17ZM2114.78 499.94L2046.77 431.57L2016.86 461.48L2152.88 597.5L2182.79 567.94L2114.78 499.93L2114.78 499.94ZM2041.07 425.88L1973.77 358.94L1906.83 425.88L1973.77 493.18L2041.07 425.88ZM1978.05 351.45L2046.77 420.17L2076.32 390.62L1978.04 291.99L1978.04 351.46L1978.05 351.45ZM2052.47 425.88L2120.48 493.89L2188.49 561.9L2218.04 532.35L2082.02 396.33L2052.47 425.88ZM2046.77 1420.42L2076.32 1390.51L1978.04 1292.23L1978.04 1351.7L2046.76 1420.42L2046.77 1420.42ZM1513.36 890.56L1649.38 1026.58L1682.14 993.82L1624.45 779.1L1513.35 890.55L1513.36 890.56ZM1513.36 390.62L1649.38 526.64L1682.14 493.88L1624.45 279.16L1513.35 390.61L1513.36 390.62ZM2492.94 221.13L2544.57 272.41L2544.57 29.5604L2492.94 221.13ZM2552.41 272.4L2604.04 221.12L2552.41 29.5504L2552.41 272.4ZM2611.16 225.4L2554.19 282.37L2656.74 384.92L2830.15 211.51L2727.6 108.96L2611.16 225.4ZM2542.79 282.37L2369.38 108.96L2266.83 211.51L2324.16 268.48L2440.24 384.92L2542.79 282.37ZM2255.43 211.51L2152.88 108.96L2036.8 225.4L2036.44 225.4L1979.47 282.37L2082.02 384.92L2255.43 211.51ZM2158.58 103.26L2257.22 201.54L2257.22 142.07L2188.5 73.7002L2158.59 103.26L2158.58 103.26ZM2511.1 967.12L2375.08 1103.14L2486.53 1214.59L2543.86 999.87L2511.1 967.11L2511.1 967.12ZM2492.94 1221.36L2544.57 1272.64L2544.57 1029.44L2492.94 1221.37L2492.94 1221.36ZM2552.41 1272.64L2604.04 1221.36L2552.41 1029.43L2552.41 1272.63L2552.41 1272.64ZM2611.16 1225.28L2554.19 1282.25L2656.74 1384.8L2830.15 1211.39L2727.6 1108.84L2611.16 1225.28ZM2542.79 1282.26L2369.38 1108.85L2266.83 1211.4L2324.16 1268.37L2440.24 1384.81L2542.79 1282.26ZM2255.43 1211.39L2152.88 1108.84L2036.8 1225.28L2036.44 1225.28L1979.47 1282.25L2082.02 1384.8L2255.43 1211.39ZM2147.19 1103.15L2011.17 967.13L1978.41 999.89L2036.1 1214.61L2147.2 1103.16L2147.19 1103.15ZM2158.58 1103.15L2257.22 1201.79L2257.22 1142.32L2188.5 1073.6L2158.59 1103.15L2158.58 1103.15ZM2298.52 1026.59L2434.54 890.57L2323.09 779.12L2265.76 993.84L2298.52 1026.6L2298.52 1026.59ZM2324.16 768.43L2440.24 884.87L2542.79 782.32L2369.38 608.91L2266.83 711.46L2324.16 768.43ZM2554.19 782.31L2656.74 884.86L2830.15 711.45L2727.6 608.9L2611.16 725.34L2554.19 782.31ZM2662.44 890.56L2798.46 1026.58L2831.22 993.82L2773.89 779.1L2662.44 890.55L2662.44 890.56ZM2544.57 792.28L2445.93 890.56L2475.84 920.11L2544.56 851.39L2544.56 792.28L2544.57 792.28ZM2316.68 772.7L2265.4 721.07L2265.4 964.27L2316.68 772.7ZM2257.22 721.07L2205.94 772.7L2257.22 964.27L2257.22 721.07ZM2199.17 779.11L2087.72 890.56L2223.74 1026.58L2256.86 993.82L2199.17 779.1L2199.17 779.11ZM2082.02 884.87L2255.43 711.46L2152.88 608.91L2036.8 725.35L2036.44 725.35L1979.47 782.32L2082.02 884.87ZM2511.1 467.18L2375.08 603.2L2486.53 714.65L2543.86 499.93L2511.1 467.17L2511.1 467.18ZM2492.94 721.07L2544.57 772.7L2544.57 529.5L2492.94 721.07ZM2552.41 772.7L2604.04 721.07L2552.41 529.5L2552.41 772.7ZM2147.19 603.2L2011.17 467.18L1978.41 499.94L2036.1 714.66L2147.2 603.21L2147.19 603.2ZM2158.58 603.2L2257.22 701.84L2257.22 642.37L2188.5 573.65L2158.59 603.2L2158.58 603.2ZM2298.52 526.65L2434.54 390.63L2323.09 279.18L2265.76 493.9L2298.52 526.66L2298.52 526.65ZM2662.44 390.62L2798.46 526.64L2831.22 493.88L2773.89 279.16L2662.44 390.61L2662.44 390.62ZM2544.57 291.99L2445.93 390.62L2475.84 420.17L2544.56 351.45L2544.56 291.98L2544.57 291.99ZM2316.68 272.76L2265.4 221.13L2265.4 464.33L2316.68 272.76ZM2257.22 221.13L2205.94 272.76L2257.22 464.33L2257.22 221.13ZM2199.17 279.17L2087.72 390.62L2223.74 526.64L2256.86 493.88L2199.17 279.16L2199.17 279.17ZM2544.57 1292.23L2445.93 1390.51L2475.84 1420.42L2544.56 1351.7L2544.56 1292.23L2544.57 1292.23ZM2316.68 1272.64L2265.4 1221.36L2265.4 1464.21L2316.68 1272.64ZM2257.22 1221.36L2205.94 1272.64L2257.22 1464.21L2257.22 1221.36ZM1918.58 221.13L1969.86 272.41L1969.86 29.5603L1918.58 221.13ZM1978.05 272.4L2029.33 221.12L1978.05 29.5503L1978.05 272.4ZM1968.08 282.37L1794.67 108.96L1692.47 211.51L1749.44 268.48L1865.88 384.92L1968.08 282.37ZM1584.22 103.26L1682.5 201.54L1682.5 142.07L1613.78 73.7002L1584.23 103.26L1584.22 103.26ZM1936.74 967.12L1800.72 1103.14L1911.82 1214.59L1969.51 999.87L1936.75 967.11L1936.74 967.12ZM1918.58 1221.36L1969.86 1272.64L1969.86 1029.44L1918.58 1221.37L1918.58 1221.36ZM1978.05 1272.64L2029.33 1221.36L1978.05 1029.43L1978.05 1272.63L1978.05 1272.64ZM1968.08 1282.26L1794.67 1108.85L1692.47 1211.4L1749.44 1268.37L1865.88 1384.81L1968.08 1282.26ZM1584.22 1103.15L1682.5 1201.79L1682.5 1142.32L1613.78 1073.6L1584.23 1103.15L1584.22 1103.15ZM1723.8 1026.59L1859.82 890.57L1748.72 779.12L1691.03 993.84L1723.79 1026.6L1723.8 1026.59ZM1749.44 768.43L1865.88 884.87L1968.08 782.32L1794.67 608.91L1692.47 711.46L1749.44 768.43ZM1969.86 792.28L1871.58 890.56L1901.13 920.11L1969.85 851.74L1969.85 792.27L1969.86 792.28ZM1631.22 772.7L1682.5 964.27L1682.5 721.07L1631.22 772.7ZM1690.69 721.07L1690.69 964.27L1741.97 772.7L1690.69 721.07ZM1936.74 467.18L1800.72 603.2L1911.82 714.65L1969.51 499.93L1936.75 467.17L1936.74 467.18ZM1918.58 721.07L1969.86 772.7L1969.86 529.5L1918.58 721.07ZM1978.05 772.7L2029.33 721.07L1978.05 529.5L1978.05 772.7ZM1584.22 603.2L1682.5 701.84L1682.5 642.37L1613.78 573.65L1584.23 603.2L1584.22 603.2ZM1723.8 526.65L1859.82 390.63L1748.72 279.18L1691.03 493.9L1723.79 526.66L1723.8 526.65ZM1969.86 291.99L1871.58 390.62L1901.13 420.17L1969.85 351.45L1969.85 291.98L1969.86 291.99ZM1631.22 272.76L1682.5 464.33L1682.5 221.13L1631.22 272.76ZM1690.69 221.13L1690.69 464.33L1741.97 272.76L1690.69 221.13ZM1969.86 1292.23L1871.58 1390.51L1901.13 1420.42L1969.85 1351.7L1969.85 1292.23L1969.86 1292.23ZM1631.22 1272.64L1682.5 1464.21L1682.5 1221.36L1631.22 1272.64ZM1690.69 1221.36L1690.69 1464.21L1741.97 1272.64L1690.69 1221.36ZM2733.3 103.26L2831.94 201.54L2831.94 142.07L2763.22 73.3504L2733.31 103.26L2733.3 103.26ZM2721.9 1103.15L2585.88 967.13L2553.12 999.89L2610.45 1214.61L2721.9 1103.16L2721.9 1103.15ZM2733.3 1103.15L2831.94 1201.79L2831.94 1142.32L2763.22 1073.6L2733.31 1103.15L2733.3 1103.15ZM2873.24 1026.59L3009.26 890.56L2897.81 779.11L2840.48 993.83L2873.24 1026.59ZM2891.4 772.7L2839.77 721.07L2839.77 964.27L2891.4 772.7ZM2831.93 721.07L2780.3 772.7L2831.93 964.27L2831.93 721.07ZM2721.9 603.2L2585.88 467.18L2553.12 499.94L2610.45 714.66L2721.9 603.21L2721.9 603.2ZM2733.3 603.2L2831.94 701.84L2831.94 642.37L2763.22 573.65L2733.31 603.2L2733.3 603.2ZM2873.24 526.65L3009.26 390.62L2897.81 279.17L2840.48 493.89L2873.24 526.65ZM2891.4 272.76L2839.77 221.13L2839.77 464.33L2891.4 272.76ZM2831.93 221.13L2780.3 272.76L2831.93 464.33L2831.93 221.13ZM2891.4 1272.64L2839.77 1221.36L2839.77 1464.21L2891.4 1272.64ZM2831.93 1221.36L2780.3 1272.64L2831.93 1464.21L2831.93 1221.36Z" fill="#D7CAAC" fill-opacity="0.6"/>
<path d="M466.47 2992.88L533.41 2925.94L466.47 2859L399.53 2925.94L466.47 2992.88ZM900.18 1499.82L832.17 1567.83L862.08 1597.38L959.65 1499.81L971.04 1499.81L867.78 1603.07L979.23 1714.52L1036.56 1499.8L1045.46 1499.8L1103.15 1714.52L1214.6 1603.07L1111.34 1499.81L1122.73 1499.81L1220.3 1597.38L1249.86 1567.83L1182.2 1499.82L1193.59 1499.82L1255.55 1562.13L1285.46 1532.22L1253.06 1499.82L1264.45 1499.82L1291.16 1526.53L1317.87 1499.82L1339.24 1499.82L1365.59 1526.53L1392.3 1499.82L1403.69 1499.82L1371.29 1532.22L1401.2 1562.13L1463.16 1499.82L1474.55 1499.82L1406.89 1567.83L1436.44 1597.38L1507.66 1526.52L1507.66 1537.91L1442.5 1603.07L1507.66 1668.23L1507.66 1679.98L1436.44 1609.12L1334.24 1711.32L1391.21 1768.65L1507.65 1884.73L1507.65 1896.12L1371.27 2032.14L1401.18 2062.05L1469.19 1994.04L1507.65 1955.58L1507.65 1966.97L1474.89 1999.73L1406.88 2067.74L1436.43 2097.65L1507.65 2026.43L1507.65 2038.18L1442.49 2103.34L1507.65 2168.5L1507.65 2179.89L1436.43 2109.03L1334.23 2211.23L1391.2 2268.56L1507.64 2384.64L1507.64 2396.39L1371.26 2532.41L1401.17 2561.96L1469.18 2493.95L1507.64 2455.49L1507.64 2467.24L1474.88 2499.64L1406.87 2567.65L1436.42 2597.56L1507.64 2526.7L1507.64 2538.09L1442.48 2603.25L1507.64 2668.41L1507.64 2679.8L1436.42 2608.94L1334.22 2711.49L1391.19 2768.46L1507.63 2884.9L1507.63 2896.29L1403.68 3000L1392.29 3000L1501.61 2890.68L1390.51 2779.23L1332.82 2993.95L1339.23 3000L1317.86 3000L1323.91 2993.95L1266.22 2779.23L1155.12 2890.68L1264.46 3000L1253.07 3000L1149.45 2896.38L1119.54 2925.93L1187.55 2993.94L1193.6 2999.99L1182.21 2999.99L1181.85 2999.63L1113.84 2931.62L1084.29 2961.53L1122.73 3000L1111.34 3000L1078.22 2967.24L1045.46 3000L1036.56 3000L1003.8 2967.24L971.04 3000L959.65 3000L998.11 2961.54L968.2 2931.63L900.18 2999.64L900.18 3000L888.79 3000L894.49 2993.95L962.5 2925.94L932.95 2896.39L829.32 3000L817.57 3000L927.24 2890.68L815.79 2779.23L758.46 2993.95L764.51 3000L743.15 3000L749.2 2993.95L691.87 2779.23L580.42 2890.68L689.74 3000L678.35 3000L574.73 2896.38L544.82 2925.93L613.19 2993.94L618.89 2999.99L607.5 2999.99L607.14 2999.63L539.13 2931.62L509.58 2961.53L548.04 2999.99L536.65 2999.99L503.89 2967.23L471.13 2999.99L461.87 2999.99L429.11 2967.23L396.35 2999.99L384.96 2999.99L423.42 2961.53L393.87 2931.62L325.82 2999.64L325.46 3000L314.07 3000L320.12 2993.95L388.13 2925.94L358.22 2896.39L254.6 3000L243.21 3000L352.53 2890.68L241.08 2779.23L183.75 2993.95L189.8 3000L168.43 3000L174.84 2993.95L117.15 2779.23L5.7002 2890.68L115.38 3000L103.63 3000L0.010263 2896.38L0.010264 2884.99L173.42 2711.58L70.8702 2609.03L0.0102819 2679.89L0.0102829 2668.5L65.1702 2603.34L0.0102943 2538.18L0.0102953 2526.79L70.8702 2597.65L100.78 2567.74L32.7703 2499.73L0.0103005 2467.33L0.0103015 2455.58L38.4703 2494.04L106.48 2562.05L136.03 2532.5L0.0103067 2396.48L0.0103077 2384.73L173.42 2211.32L70.8702 2109.12L0.0103256 2179.98L0.0103266 2168.59L65.1702 2103.43L0.010338 2038.27L0.010339 2026.52L70.8702 2097.74L100.78 2067.83L32.7704 1999.82L0.0103442 1967.06L0.0103452 1955.67L38.4703 1994.13L106.48 2062.14L136.03 2032.59L0.0103504 1896.21L0.0103514 1884.82L173.42 1711.41L70.8702 1609.21L0.0103693 1680.07L0.0103703 1668.32L65.1703 1603.16L0.0103817 1538L0.0103827 1526.61L70.8702 1597.47L100.78 1567.92L32.7704 1499.91L44.1603 1499.91L106.47 1562.22L136.02 1532.31L103.62 1499.91L115.37 1499.91L141.72 1526.62L168.43 1499.91L189.8 1499.91L216.51 1526.62L243.22 1499.91L254.61 1499.91L222.21 1532.31L252.12 1562.22L314.08 1499.91L325.47 1499.91L257.81 1567.92L287.36 1597.47L384.93 1499.9L396.32 1499.9L293.06 1603.16L404.51 1714.61L461.84 1499.89L471.1 1499.89L528.43 1714.61L639.88 1603.16L536.62 1499.9L548.01 1499.9L645.58 1597.47L675.13 1567.92L607.47 1499.91L618.86 1499.91L681.17 1562.22L710.73 1532.31L678.33 1499.91L689.72 1499.91L716.43 1526.62L743.14 1499.91L764.5 1499.91L791.21 1526.62L817.92 1499.91L829.31 1499.91L796.91 1532.31L826.46 1562.22L888.77 1499.91L900.16 1499.91L900.18 1499.82ZM826.47 1573.53L757.75 1642.25L757.75 1701.72L856.38 1603.09L826.47 1573.54L826.47 1573.53ZM753.83 1634.78L820.77 1567.84L753.83 1500.9L686.89 1567.84L753.83 1634.78ZM900.18 2499.7L832.17 2567.71L862.08 2597.62L998.1 2461.6L968.19 2431.69L900.18 2499.7ZM826.47 2573.41L757.75 2642.13L757.75 2701.6L856.38 2603.32L826.47 2573.41ZM753.83 2634.66L820.77 2567.72L753.83 2500.78L686.89 2567.72L753.83 2634.66ZM826.47 2562.02L894.48 2494.01L962.49 2426L932.94 2396.44L796.92 2532.46L826.47 2562.01L826.47 2562.02ZM900.18 1999.76L832.17 2067.77L862.08 2097.68L998.1 1961.3L968.19 1931.74L900.18 1999.75L900.18 1999.76ZM826.47 2073.47L757.75 2142.19L757.75 2201.66L856.38 2103.38L826.47 2073.47ZM753.83 2134.72L820.77 2067.78L753.83 2000.84L686.89 2067.78L753.83 2134.72ZM826.47 2062.08L894.48 1994.07L962.49 1926.06L932.94 1896.15L796.92 2032.17L826.47 2062.08ZM252.11 1573.53L183.39 1642.25L183.39 1701.72L281.67 1603.09L252.12 1573.54L252.11 1573.53ZM179.11 1634.78L246.05 1567.84L179.11 1500.9L112.17 1567.84L179.11 1634.78ZM325.82 2499.7L257.81 2567.71L287.36 2597.62L423.38 2461.6L393.83 2431.69L325.82 2499.7ZM252.11 2573.41L183.39 2642.13L183.39 2701.6L281.67 2603.32L252.12 2573.41L252.11 2573.41ZM179.11 2634.66L246.05 2567.72L179.11 2500.78L112.17 2567.72L179.11 2634.66ZM252.11 2562.02L320.12 2494.01L388.13 2426L358.22 2396.44L222.2 2532.46L252.11 2562.01L252.11 2562.02ZM325.82 1999.76L257.81 2067.77L287.36 2097.68L423.38 1961.3L393.83 1931.74L325.82 1999.75L325.82 1999.76ZM252.11 2073.47L183.39 2142.19L183.39 2201.66L281.67 2103.38L252.12 2073.47L252.11 2073.47ZM179.11 2134.72L246.05 2067.78L179.11 2000.84L112.17 2067.78L179.11 2134.72ZM252.11 2062.08L320.12 1994.07L388.13 1926.06L358.22 1896.15L222.2 2032.53L252.11 2062.08ZM1401.19 1573.53L1332.47 1642.25L1332.47 1701.72L1430.75 1603.09L1401.2 1573.54L1401.19 1573.53ZM1328.55 1634.78L1395.49 1567.84L1328.55 1500.9L1261.25 1567.84L1328.55 1634.78ZM1401.19 2573.41L1332.47 2642.13L1332.47 2701.6L1430.75 2603.32L1401.2 2573.41L1401.19 2573.41ZM1328.55 2634.66L1395.49 2567.72L1328.55 2500.78L1261.25 2567.72L1328.55 2634.66ZM1401.19 2073.47L1332.47 2142.19L1332.47 2201.66L1430.75 2103.38L1401.2 2073.47L1401.19 2073.47ZM1328.55 2134.72L1395.49 2067.78L1328.55 2000.84L1261.25 2067.78L1328.55 2134.72ZM1474.9 2999.64L1474.54 3000L1463.15 3000L1469.2 2993.95L1507.66 2955.85L1507.66 2967.24L1474.9 2999.64ZM32.7603 2999.64L0.000247005 2967.24L0.000248 2955.85L38.4602 2993.95L44.1602 3000L32.7703 3000L32.7703 2999.64L32.7603 2999.64ZM1181.84 2499.7L1113.83 2431.69L1084.28 2461.6L1220.3 2597.62L1249.86 2567.71L1181.85 2499.7L1181.84 2499.7ZM1108.13 2425.99L1041.19 2359.05L974.25 2425.99L1041.19 2492.93L1108.13 2425.99ZM1045.11 2351.57L1113.83 2420.29L1143.74 2390.38L1045.1 2292.1L1045.1 2351.57L1045.11 2351.57ZM1119.53 2425.99L1187.54 2494L1255.55 2562.01L1285.46 2532.46L1149.44 2396.44L1119.53 2426L1119.53 2425.99ZM1181.84 1999.76L1113.83 1931.75L1084.28 1961.31L1220.3 2097.69L1249.86 2067.78L1181.85 1999.77L1181.84 1999.76ZM1108.13 1926.05L1041.19 1859.11L974.25 1926.05L1041.19 1992.99L1108.13 1926.05ZM1045.11 1851.63L1113.83 1920.35L1143.74 1890.44L1045.1 1792.16L1045.1 1851.63L1045.11 1851.63ZM1119.53 1926.05L1187.54 1994.06L1255.55 2062.07L1285.46 2032.16L1149.44 1896.14L1119.53 1926.05ZM1108.13 2925.93L1041.19 2858.99L974.25 2925.93L1041.19 2992.87L1108.13 2925.93ZM1045.11 2851.51L1113.83 2920.23L1143.74 2890.67L1045.1 2792.04L1045.1 2851.51L1045.11 2851.51ZM607.13 2499.7L539.12 2431.69L509.57 2461.6L645.59 2597.62L675.14 2567.71L607.13 2499.7ZM533.42 2425.99L466.48 2359.05L399.54 2425.99L466.48 2492.93L533.42 2425.99ZM470.39 2351.57L539.11 2420.29L569.02 2390.38L470.38 2292.1L470.38 2351.57L470.39 2351.57ZM544.81 2425.99L613.18 2494L681.19 2562.01L710.75 2532.46L574.73 2396.44L544.82 2426L544.81 2425.99ZM607.13 1999.76L539.12 1931.75L509.57 1961.31L645.59 2097.69L675.14 2067.78L607.13 1999.77L607.13 1999.76ZM533.42 1926.05L466.48 1859.11L399.54 1926.05L466.48 1992.99L533.42 1926.05ZM470.39 1851.63L539.11 1920.35L569.02 1890.44L470.38 1792.16L470.38 1851.63L470.39 1851.63ZM544.81 1926.05L613.18 1994.06L681.19 2062.07L710.75 2032.16L574.73 1896.14L544.82 1926.05L544.81 1926.05ZM539.11 2920.24L569.02 2890.68L470.38 2792.05L470.38 2851.52L539.1 2920.24L539.11 2920.24ZM5.70025 2390.39L141.72 2526.77L174.84 2494.01L117.15 2279.29L5.70025 2390.39ZM5.70029 1890.45L141.72 2026.47L174.84 1993.71L117.15 1779.35L5.70029 1890.45ZM985.64 1721.31L1036.92 1772.59L1036.92 1529.39L985.64 1721.32L985.64 1721.31ZM1045.11 1772.58L1096.39 1721.3L1045.11 1529.37L1045.11 1772.57L1045.11 1772.58ZM1103.86 1725.22L1046.89 1782.19L1149.44 1884.74L1322.5 1711.33L1220.3 1609.13L1103.86 1725.21L1103.86 1725.22ZM1035.49 1782.2L862.08 1609.14L759.53 1711.34L816.5 1768.67L932.94 1884.75L1035.49 1782.2ZM748.13 1711.34L645.58 1609.14L529.14 1725.22L472.17 1782.19L574.72 1884.74L748.13 1711.33L748.13 1711.34ZM651.28 1603.09L749.92 1701.72L749.92 1642.25L681.2 1573.53L651.29 1603.08L651.28 1603.09ZM1003.8 2467.3L867.78 2603.32L979.23 2714.42L1036.56 2500.06L1003.8 2467.3ZM985.64 2721.19L1036.92 2772.47L1036.92 2529.62L985.64 2721.19ZM1045.11 2772.46L1096.39 2721.18L1045.11 2529.61L1045.11 2772.46ZM1103.86 2725.46L1046.89 2782.43L1149.44 2884.98L1322.5 2711.57L1220.3 2609.02L1103.86 2725.1L1103.86 2725.46ZM1035.49 2782.43L862.08 2609.02L759.53 2711.57L816.5 2768.54L932.94 2884.98L1035.49 2782.43ZM748.13 2711.57L645.58 2609.02L529.14 2725.1L529.14 2725.46L472.17 2782.43L574.72 2884.98L748.13 2711.57ZM639.89 2603.32L503.87 2467.3L471.11 2500.06L528.44 2714.42L639.89 2603.32ZM651.28 2603.32L749.92 2701.6L749.92 2642.13L681.2 2573.41L651.29 2603.32L651.28 2603.32ZM791.22 2526.77L927.24 2390.39L815.79 2279.29L758.46 2493.65L791.22 2526.77ZM816.5 2268.61L932.94 2384.69L1035.49 2282.49L862.08 2109.08L759.53 2211.28L816.5 2268.61ZM1046.89 2282.49L1149.44 2384.69L1322.5 2211.28L1220.3 2109.08L1103.86 2225.16L1103.86 2225.52L1046.89 2282.49ZM1155.14 2390.39L1291.16 2526.77L1323.92 2493.65L1266.23 2279.29L1155.13 2390.39L1155.14 2390.39ZM1036.92 2292.11L938.64 2390.39L968.19 2420.3L1036.91 2351.58L1036.91 2292.11L1036.92 2292.11ZM809.38 2272.52L757.75 2221.24L757.75 2464.44L809.38 2272.51L809.38 2272.52ZM749.92 2221.25L698.29 2272.53L749.92 2464.46L749.92 2221.26L749.92 2221.25ZM691.87 2279.29L580.42 2390.39L716.44 2526.77L749.2 2493.65L691.87 2279.29ZM574.72 2384.69L748.13 2211.28L645.58 2109.08L529.14 2225.16L529.14 2225.52L472.17 2282.49L574.72 2384.69ZM1003.8 1967L867.78 2103.38L979.23 2214.48L1036.56 2000.12L1003.8 1967ZM985.64 2221.25L1036.92 2272.53L1036.92 2029.68L985.64 2221.25ZM1045.11 2272.52L1096.39 2221.24L1045.11 2029.67L1045.11 2272.52ZM639.89 2103.38L503.87 1967L471.11 2000.12L528.44 2214.48L639.89 2103.38ZM651.28 2103.38L749.92 2201.66L749.92 2142.19L681.2 2073.47L651.29 2103.38L651.28 2103.38ZM791.22 2026.47L927.24 1890.45L815.79 1779.35L758.46 1993.71L791.22 2026.47ZM1155.14 1890.45L1291.16 2026.47L1323.92 1993.71L1266.23 1779.35L1155.13 1890.45L1155.14 1890.45ZM1036.92 1792.17L938.64 1890.45L968.19 1920.36L1036.91 1851.64L1036.91 1792.17L1036.92 1792.17ZM809.38 1772.58L757.75 1721.3L757.75 1964.15L809.38 1772.58ZM749.92 1721.31L698.29 1772.59L749.92 1964.16L749.92 1721.31ZM691.87 1779.35L580.42 1890.45L716.44 2026.47L749.2 1993.71L691.87 1779.35ZM1036.92 2792.05L938.64 2890.68L968.19 2920.24L1036.91 2851.52L1036.91 2792.05L1036.92 2792.05ZM809.38 2772.46L757.75 2721.18L757.75 2964.39L809.38 2772.46ZM749.92 2721.19L698.29 2772.47L749.92 2964.4L749.92 2721.2L749.92 2721.19ZM410.92 1721.31L462.55 1772.59L462.55 1529.39L410.92 1721.32L410.92 1721.31ZM470.39 1772.58L522.02 1721.3L470.39 1529.37L470.39 1772.57L470.39 1772.58ZM460.78 1782.2L287.37 1609.14L184.82 1711.34L242.15 1768.67L358.23 1884.75L460.78 1782.2ZM76.5604 1603.09L175.2 1701.72L175.2 1642.25L106.48 1573.53L76.5704 1603.08L76.5604 1603.09ZM429.08 2467.3L293.06 2603.32L404.51 2714.42L461.84 2500.06L429.08 2467.3ZM410.92 2721.19L462.55 2772.47L462.55 2529.62L410.92 2721.19ZM470.39 2772.46L522.02 2721.18L470.39 2529.61L470.39 2772.46ZM460.78 2782.43L287.37 2609.02L184.82 2711.57L242.15 2768.54L358.23 2884.98L460.78 2782.43ZM76.5603 2603.32L175.2 2701.6L175.2 2642.13L106.48 2573.41L76.5703 2603.32L76.5603 2603.32ZM216.5 2526.77L352.52 2390.39L241.07 2279.29L183.74 2494.01L216.5 2526.77ZM242.14 2268.61L358.22 2384.69L460.77 2282.49L287.36 2109.08L184.81 2211.28L242.14 2268.61ZM462.56 2292.11L363.93 2390.39L393.84 2420.3L462.56 2351.58L462.56 2292.11ZM123.92 2272.52L175.2 2464.45L175.2 2221.25L123.92 2272.53L123.92 2272.52ZM183.39 2221.25L183.39 2464.45L234.67 2272.52L183.39 2221.24L183.39 2221.25ZM429.08 1967L293.06 2103.38L404.51 2214.48L461.84 2000.12L429.08 1967ZM410.92 2221.25L462.55 2272.53L462.55 2029.68L410.92 2221.25ZM470.39 2272.52L522.02 2221.24L470.39 2029.67L470.39 2272.52ZM76.5604 2103.38L175.2 2201.66L175.2 2142.19L106.48 2073.47L76.5704 2103.38L76.5604 2103.38ZM216.5 2026.47L352.52 1890.45L241.07 1779.35L183.74 1993.71L216.5 2026.47ZM462.56 1792.17L363.93 1890.45L393.84 1920.36L462.56 1851.64L462.56 1792.17ZM123.92 1772.58L175.2 1964.15L175.2 1721.3L123.92 1772.58ZM183.39 1721.31L183.39 1964.16L234.67 1772.59L183.39 1721.31ZM462.56 2792.05L363.93 2890.68L393.84 2920.24L462.56 2851.52L462.56 2792.05ZM123.92 2772.46L175.2 2964.39L175.2 2721.19L123.92 2772.47L123.92 2772.46ZM183.39 2721.19L183.39 2964.39L234.67 2772.46L183.39 2721.18L183.39 2721.19ZM1226 1603.09L1324.28 1701.72L1324.28 1642.25L1255.56 1573.53L1226.01 1603.08L1226 1603.09ZM1214.6 2603.32L1078.58 2467.3L1045.46 2500.06L1103.15 2714.42L1214.6 2603.32ZM1226 2603.32L1324.28 2701.6L1324.28 2642.13L1255.56 2573.41L1226.01 2603.32L1226 2603.32ZM1365.58 2526.77L1501.6 2390.39L1390.5 2279.29L1332.81 2493.65L1365.57 2526.77L1365.58 2526.77ZM1383.74 2272.52L1332.46 2221.24L1332.46 2464.09L1383.74 2272.52ZM1324.28 2221.25L1273 2272.53L1324.28 2464.1L1324.28 2221.25ZM1214.6 2103.38L1078.58 1967L1045.46 2000.12L1103.15 2214.48L1214.6 2103.38ZM1226 2103.38L1324.28 2201.66L1324.28 2142.19L1255.56 2073.47L1226.01 2103.38L1226 2103.38ZM1365.58 2026.47L1501.6 1890.45L1390.5 1779.35L1332.81 1993.71L1365.57 2026.47L1365.58 2026.47ZM1383.74 1772.58L1332.46 1721.3L1332.46 1964.15L1383.74 1772.58ZM1324.28 1721.31L1273 1772.59L1324.28 1964.16L1324.28 1721.31ZM1383.74 2772.46L1332.46 2721.18L1332.46 2964.39L1383.74 2772.46ZM1324.28 2721.19L1273 2772.47L1324.28 2964.4L1324.28 2721.2L1324.28 2721.19Z" fill="#D7CAAC" fill-opacity="0.6"/>
<path d="M466.47 1493.06L533.41 1426.12L466.47 1358.82L399.53 1426.12L466.47 1493.06ZM900.18 0.000191033L832.17 67.6601L862.08 97.5703L959.65 0.000196232L971.04 0.000197228L867.78 103.26L979.23 214.71L1036.56 -0.00980681L1045.46 -0.00980603L1103.15 214.71L1214.6 103.26L1111.34 0.000209493L1122.73 0.000210489L1220.3 97.5703L1249.86 67.6601L1182.2 0.000215688L1193.59 0.000216684L1255.55 61.9602L1285.46 32.4101L1253.06 0.0102316L1264.45 0.0102326L1291.16 26.7202L1317.87 0.0102373L1339.24 0.0102392L1365.59 26.7202L1392.3 0.0102438L1403.69 0.0102448L1371.29 32.4101L1401.2 61.9602L1463.16 0.00024025L1474.55 0.000241246L1406.89 67.6601L1436.44 97.5703L1507.66 26.7102L1507.66 38.1003L1442.5 103.26L1507.66 168.42L1507.66 179.81L1436.44 108.95L1334.24 211.5L1391.21 268.47L1507.65 384.91L1507.65 396.3L1371.27 532.32L1401.18 561.87L1469.19 493.86L1507.65 455.76L1507.65 467.15L1474.89 499.91L1406.88 567.92L1436.43 597.48L1507.65 526.62L1507.65 538.01L1442.49 603.17L1507.65 668.33L1507.65 679.72L1436.43 608.86L1334.23 711.41L1391.2 768.38L1507.64 884.82L1507.64 896.21L1371.26 1032.23L1401.17 1062.14L1469.18 994.13L1507.64 955.67L1507.64 967.06L1474.88 999.82L1406.87 1067.83L1436.42 1097.38L1507.64 1026.52L1507.64 1037.91L1442.48 1103.07L1507.64 1168.23L1507.64 1179.62L1436.42 1108.76L1334.22 1211.31L1391.19 1268.28L1507.63 1384.72L1507.63 1396.11L1403.65 1499.73L1392.26 1499.73L1501.58 1390.41L1390.48 1278.96L1332.79 1493.68L1339.2 1499.73L1317.83 1499.73L1323.88 1493.68L1266.19 1278.96L1155.09 1390.41L1264.41 1499.73L1253.02 1499.73L1149.4 1396.11L1119.49 1426.02L1187.5 1494.03L1193.55 1499.73L1181.8 1499.73L1113.79 1431.72L1084.24 1461.27L1122.7 1499.73L1111.31 1499.73L1078.19 1466.97L1045.43 1499.73L1036.53 1499.73L1003.77 1466.97L971.01 1499.73L959.62 1499.73L998.08 1461.27L968.17 1431.72L900.16 1499.73L888.77 1499.73L894.47 1494.03L962.48 1426.02L932.93 1396.11L829.31 1499.73L817.56 1499.73L927.23 1390.41L815.78 1278.96L758.45 1493.68L764.5 1499.73L743.14 1499.73L749.19 1493.68L691.86 1278.96L580.41 1390.41L689.73 1499.73L678.34 1499.73L574.72 1396.11L544.81 1426.02L613.18 1494.03L618.88 1499.73L607.13 1499.73L539.12 1431.72L509.57 1461.27L548.03 1499.73L536.64 1499.73L503.88 1466.97L471.12 1499.73L461.86 1499.73L429.1 1466.97L396.34 1499.73L384.95 1499.73L423.41 1461.27L393.86 1431.72L325.85 1499.73L314.1 1499.73L320.15 1494.03L388.16 1426.02L358.25 1396.11L254.63 1499.73L243.24 1499.73L352.56 1390.41L241.11 1278.96L183.78 1493.68L189.83 1499.73L168.46 1499.73L174.87 1493.68L117.18 1278.96L5.73023 1390.41L115.4 1499.73L103.65 1499.73L0.0302825 1396.11L0.0302835 1384.72L173.44 1211.31L70.8902 1108.76L0.0303014 1179.98L0.0303024 1168.23L65.1902 1103.07L0.0303138 1037.91L0.0303148 1026.52L70.8902 1097.38L100.8 1067.83L32.7903 999.82L0.03032 967.06L0.030321 955.67L38.4903 994.13L106.5 1062.14L136.05 1032.23L0.0303262 896.21L0.0303272 884.82L173.44 711.41L70.8902 608.86L0.0303451 679.72L0.0303461 668.33L65.1903 603.17L0.0303575 538.01L0.0303585 526.62L70.8902 597.48L100.8 567.92L32.7904 499.91L0.0303637 467.15L0.0303647 455.76L38.4903 493.86L106.5 561.87L136.05 532.32L0.0303699 396.3L0.0303709 384.91L173.44 211.5L70.8903 108.95L0.0303888 179.81L0.0303898 168.42L65.1903 103.26L0.0304012 38.1002L0.0304022 26.7101L70.8903 97.5702L100.8 67.66L32.7904 0.000115203L44.1803 0.000116199L106.49 61.9601L136.04 32.41L103.64 0.0101312L115.39 0.0101322L141.74 26.7201L168.45 0.0101368L189.82 0.0101387L216.53 26.7201L243.24 0.0101434L254.63 0.0101444L222.23 32.41L252.14 61.9601L314.1 0.000139796L325.49 0.000140792L257.83 67.66L287.38 97.5702L384.95 0.00014599L396.34 0.000146986L293.08 103.26L404.53 214.71L461.86 -0.00985705L471.12 -0.00985624L528.45 214.71L639.9 103.26L536.64 0.000159251L548.03 0.000160247L645.6 97.5702L675.15 67.6601L607.49 0.000165445L618.88 0.000166441L681.19 61.9601L710.75 32.4101L678.35 0.0101814L689.74 0.0101824L716.45 26.7201L743.16 0.0101871L764.52 0.0101889L791.23 26.7202L817.94 0.0101936L829.33 0.0101946L796.93 32.4101L826.48 61.9601L888.79 0.000190037L900.18 0.000191033ZM826.47 73.7101L757.75 142.08L757.75 201.55L856.38 103.27L826.47 73.7101ZM753.83 134.96L820.77 67.6601L753.83 0.720149L686.89 67.6601L753.83 134.96ZM900.18 999.88L832.17 1067.89L862.08 1097.44L998.1 961.42L968.19 931.86L900.18 999.87L900.18 999.88ZM826.47 1073.59L757.75 1142.31L757.75 1201.78L856.38 1103.14L826.47 1073.59ZM753.83 1134.84L820.77 1067.9L753.83 1000.96L686.89 1067.9L753.83 1134.84ZM826.47 1062.2L894.48 994.19L962.49 926.18L932.94 896.27L796.92 1032.29L826.47 1062.2ZM900.18 499.94L832.17 567.95L862.08 597.51L998.1 461.49L968.19 431.58L900.18 499.95L900.18 499.94ZM826.47 573.65L757.75 642.37L757.75 701.84L856.38 603.2L826.47 573.65ZM753.83 634.9L820.77 567.96L753.83 500.66L686.89 567.96L753.83 634.9ZM826.47 561.9L894.48 493.89L962.49 425.88L932.94 396.33L796.92 532.35L826.47 561.9ZM252.11 73.7101L183.39 142.08L183.39 201.55L281.67 103.27L252.12 73.7101L252.11 73.7101ZM179.11 134.96L246.05 67.66L179.11 0.720099L112.17 67.66L179.11 134.96ZM325.82 999.88L257.81 1067.89L287.36 1097.44L423.38 961.42L393.83 931.86L325.82 999.87L325.82 999.88ZM252.11 1073.59L183.39 1142.31L183.39 1201.78L281.67 1103.14L252.12 1073.59L252.11 1073.59ZM179.11 1134.84L246.05 1067.9L179.11 1000.96L112.17 1067.9L179.11 1134.84ZM252.11 1062.2L320.12 994.19L388.13 926.18L358.22 896.27L222.2 1032.29L252.11 1062.2ZM325.82 499.94L257.81 567.95L287.36 597.51L423.38 461.49L393.83 431.58L325.82 499.95L325.82 499.94ZM252.11 573.65L183.39 642.37L183.39 701.84L281.67 603.2L252.12 573.65L252.11 573.65ZM179.11 634.9L246.05 567.96L179.11 500.66L112.17 567.96L179.11 634.9ZM252.11 561.9L320.12 493.89L388.13 425.88L358.22 396.33L222.2 532.35L252.11 561.9ZM1401.19 73.3503L1332.47 142.07L1332.47 201.54L1430.75 103.26L1401.2 73.3503L1401.19 73.3503ZM1328.55 134.96L1395.49 67.6601L1328.55 0.720199L1261.25 67.6601L1328.55 134.96ZM1401.19 1073.59L1332.47 1142.31L1332.47 1201.78L1430.75 1103.14L1401.2 1073.59L1401.19 1073.59ZM1328.55 1134.84L1395.49 1067.9L1328.55 1000.96L1261.25 1067.9L1328.55 1134.84ZM1401.19 573.65L1332.47 642.37L1332.47 701.84L1430.75 603.2L1401.2 573.65L1401.19 573.65ZM1328.55 634.9L1395.49 567.96L1328.55 500.66L1261.25 567.96L1328.55 634.9ZM1474.9 1499.82L1463.15 1499.82L1469.2 1494.12L1507.66 1455.66L1507.66 1467.05L1474.9 1499.81L1474.9 1499.82ZM32.7603 1499.82L0.000247005 1467.06L0.000248001 1455.67L38.4602 1494.13L44.1602 1499.83L32.7703 1499.83L32.7603 1499.82ZM1181.84 999.88L1113.83 931.87L1084.28 961.43L1220.3 1097.45L1249.86 1067.9L1181.85 999.89L1181.84 999.88ZM1108.13 926.17L1041.19 858.87L974.25 926.17L1041.19 993.11L1108.13 926.17ZM1045.11 851.39L1113.83 920.11L1143.74 890.56L1045.1 792.28L1045.1 851.39L1045.11 851.39ZM1119.53 926.17L1187.54 994.18L1255.55 1062.19L1285.46 1032.28L1149.44 896.26L1119.53 926.17ZM1181.84 499.58L1113.83 431.57L1084.28 461.48L1220.3 597.5L1249.86 567.94L1181.85 499.57L1181.84 499.58ZM1108.13 425.88L1041.19 358.94L974.25 425.88L1041.19 493.18L1108.13 425.88ZM1045.11 351.45L1113.83 420.17L1143.74 390.62L1045.1 291.99L1045.1 351.46L1045.11 351.45ZM1119.53 425.88L1187.54 493.89L1255.55 561.9L1285.46 532.35L1149.44 396.33L1119.53 425.88ZM1108.13 1426.11L1041.19 1358.81L974.25 1426.11L1041.19 1493.05L1108.13 1426.11ZM1045.11 1351.69L1113.83 1420.41L1143.74 1390.5L1045.1 1292.22L1045.1 1351.69L1045.11 1351.69ZM607.13 999.88L539.12 931.87L509.57 961.43L645.59 1097.45L675.14 1067.9L607.13 999.89L607.13 999.88ZM533.42 926.17L466.48 858.87L399.54 926.17L466.48 993.11L533.42 926.17ZM470.39 851.75L539.11 920.12L569.02 890.57L470.38 792.29L470.38 851.76L470.39 851.75ZM544.81 926.17L613.18 994.18L681.19 1062.19L710.75 1032.28L574.73 896.26L544.82 926.17L544.81 926.17ZM607.13 499.94L539.12 431.57L509.57 461.48L645.59 597.5L675.14 567.94L607.13 499.93L607.13 499.94ZM533.42 425.88L466.48 358.94L399.54 425.88L466.48 493.18L533.42 425.88ZM470.39 351.45L539.11 420.17L569.02 390.62L470.38 291.99L470.38 351.46L470.39 351.45ZM544.81 425.88L613.18 493.89L681.19 561.9L710.75 532.35L574.73 396.33L544.82 425.88L544.81 425.88ZM539.11 1420.42L569.02 1390.51L470.38 1292.23L470.38 1351.7L539.1 1420.42L539.11 1420.42ZM5.70025 890.56L141.72 1026.58L174.84 993.82L117.15 779.1L5.70025 890.55L5.70025 890.56ZM5.70029 390.62L141.72 526.64L174.84 493.88L117.15 279.16L5.70029 390.61L5.70029 390.62ZM985.64 221.13L1036.92 272.41L1036.92 29.5603L985.64 221.13ZM1045.11 272.4L1096.39 221.12L1045.11 29.5503L1045.11 272.4ZM1103.86 225.4L1046.89 282.37L1149.44 384.92L1322.5 211.51L1220.3 108.96L1103.86 225.4ZM1035.49 282.37L862.08 108.96L759.53 211.51L816.5 268.48L932.94 384.92L1035.49 282.37ZM748.13 211.51L645.58 108.96L529.14 225.4L472.17 282.37L574.72 384.92L748.13 211.51ZM651.28 103.26L749.92 201.54L749.92 142.07L681.2 73.7001L651.29 103.26L651.28 103.26ZM1003.8 967.12L867.78 1103.14L979.23 1214.59L1036.56 999.87L1003.8 967.11L1003.8 967.12ZM985.64 1221.36L1036.92 1272.64L1036.92 1029.44L985.64 1221.37L985.64 1221.36ZM1045.11 1272.64L1096.39 1221.36L1045.11 1029.43L1045.11 1272.63L1045.11 1272.64ZM1103.86 1225.28L1046.89 1282.25L1149.44 1384.8L1322.5 1211.39L1220.3 1108.84L1103.86 1225.28ZM1035.49 1282.26L862.08 1108.85L759.53 1211.4L816.5 1268.37L932.94 1384.81L1035.49 1282.26ZM748.13 1211.39L645.58 1108.84L529.14 1225.28L472.17 1282.25L574.72 1384.8L748.13 1211.39ZM639.89 1103.15L503.87 967.13L471.11 999.89L528.44 1214.61L639.89 1103.16L639.89 1103.15ZM651.28 1103.15L749.92 1201.79L749.92 1142.32L681.2 1073.6L651.29 1103.15L651.28 1103.15ZM791.22 1026.59L927.24 890.57L815.79 779.12L758.46 993.84L791.22 1026.6L791.22 1026.59ZM816.5 768.43L932.94 884.87L1035.49 782.32L862.08 608.91L759.53 711.46L816.5 768.43ZM1046.89 782.31L1149.44 884.86L1322.5 711.45L1220.3 608.9L1103.86 725.34L1046.89 782.31ZM1155.14 890.56L1291.16 1026.58L1323.92 993.82L1266.23 779.1L1155.13 890.55L1155.14 890.56ZM1036.92 792.28L938.64 890.56L968.19 920.11L1036.91 851.39L1036.91 792.28L1036.92 792.28ZM809.38 772.7L757.75 721.07L757.75 964.27L809.38 772.7ZM749.92 721.07L698.29 772.7L749.92 964.27L749.92 721.07ZM691.87 779.11L580.42 890.56L716.44 1026.58L749.2 993.82L691.87 779.1L691.87 779.11ZM574.72 884.87L748.13 711.46L645.58 608.91L529.14 725.35L472.17 782.32L574.72 884.87ZM1003.8 467.18L867.78 603.2L979.23 714.65L1036.56 499.93L1003.8 467.17L1003.8 467.18ZM985.64 721.07L1036.92 772.7L1036.92 529.5L985.64 721.07ZM1045.11 772.7L1096.39 721.07L1045.11 529.5L1045.11 772.7ZM639.89 603.2L503.87 467.18L471.11 499.94L528.44 714.66L639.89 603.21L639.89 603.2ZM651.28 603.2L749.92 701.84L749.92 642.37L681.2 573.65L651.29 603.2L651.28 603.2ZM791.22 526.65L927.24 390.63L815.79 279.18L758.46 493.9L791.22 526.66L791.22 526.65ZM1155.14 390.62L1291.16 526.64L1323.92 493.88L1266.23 279.16L1155.13 390.61L1155.14 390.62ZM1036.92 291.99L938.64 390.62L968.19 420.17L1036.91 351.45L1036.91 291.98L1036.92 291.99ZM809.38 272.76L757.75 221.13L757.75 464.33L809.38 272.76ZM749.92 221.13L698.29 272.76L749.92 464.33L749.92 221.13ZM691.87 279.17L580.42 390.62L716.44 526.64L749.2 493.88L691.87 279.16L691.87 279.17ZM1036.92 1292.23L938.64 1390.51L968.19 1420.42L1036.91 1351.7L1036.91 1292.23L1036.92 1292.23ZM809.38 1272.64L757.75 1221.36L757.75 1464.21L809.38 1272.64ZM749.92 1221.36L698.29 1272.64L749.92 1464.21L749.92 1221.36ZM410.92 221.13L462.55 272.41L462.55 29.5602L410.92 221.13ZM470.39 272.4L522.02 221.12L470.39 29.5502L470.39 272.4ZM460.78 282.37L287.37 108.96L184.82 211.51L242.15 268.48L358.23 384.92L460.78 282.37ZM76.5604 103.26L175.2 201.54L175.2 142.07L106.48 73.7001L76.5704 103.26L76.5604 103.26ZM429.08 967.12L293.06 1103.14L404.51 1214.59L461.84 999.87L429.08 967.11L429.08 967.12ZM410.92 1221.36L462.55 1272.64L462.55 1029.44L410.92 1221.37L410.92 1221.36ZM470.39 1272.64L522.02 1221.36L470.39 1029.43L470.39 1272.63L470.39 1272.64ZM460.78 1282.26L287.37 1108.85L184.82 1211.4L242.15 1268.37L358.23 1384.81L460.78 1282.26ZM76.5603 1103.15L175.2 1201.79L175.2 1142.32L106.48 1073.6L76.5703 1103.15L76.5603 1103.15ZM216.5 1026.59L352.52 890.57L241.07 779.12L183.74 993.84L216.5 1026.6L216.5 1026.59ZM242.14 768.43L358.22 884.87L460.77 782.32L287.36 608.91L184.81 711.46L242.14 768.43ZM462.56 792.28L363.93 890.56L393.84 920.11L462.56 851.74L462.56 792.27L462.56 792.28ZM123.92 772.7L175.2 964.27L175.2 721.07L123.92 772.7ZM183.39 721.07L183.39 964.27L234.67 772.7L183.39 721.07ZM429.08 467.18L293.06 603.2L404.51 714.65L461.84 499.93L429.08 467.17L429.08 467.18ZM410.92 721.07L462.55 772.7L462.55 529.5L410.92 721.07ZM470.39 772.7L522.02 721.07L470.39 529.5L470.39 772.7ZM76.5604 603.2L175.2 701.84L175.2 642.37L106.48 573.65L76.5704 603.2L76.5604 603.2ZM216.5 526.65L352.52 390.63L241.07 279.18L183.74 493.9L216.5 526.66L216.5 526.65ZM462.56 291.99L363.93 390.62L393.84 420.17L462.56 351.45L462.56 291.98L462.56 291.99ZM123.92 272.76L175.2 464.33L175.2 221.13L123.92 272.76ZM183.39 221.13L183.39 464.33L234.67 272.76L183.39 221.13ZM462.56 1292.23L363.93 1390.51L393.84 1420.42L462.56 1351.7L462.56 1292.23ZM123.92 1272.64L175.2 1464.21L175.2 1221.36L123.92 1272.64ZM183.39 1221.36L183.39 1464.21L234.67 1272.64L183.39 1221.36ZM1226 103.26L1324.28 201.54L1324.28 142.07L1255.56 73.3503L1226.01 103.26L1226 103.26ZM1214.6 1103.15L1078.58 967.13L1045.46 999.89L1103.15 1214.61L1214.6 1103.16L1214.6 1103.15ZM1226 1103.15L1324.28 1201.79L1324.28 1142.32L1255.56 1073.6L1226.01 1103.15L1226 1103.15ZM1365.58 1026.59L1501.6 890.57L1390.5 779.12L1332.81 993.84L1365.57 1026.6L1365.58 1026.59ZM1383.74 772.7L1332.46 721.07L1332.46 964.27L1383.74 772.7ZM1324.28 721.07L1273 772.7L1324.28 964.27L1324.28 721.07ZM1214.6 603.2L1078.58 467.18L1045.46 499.94L1103.15 714.66L1214.6 603.21L1214.6 603.2ZM1226 603.2L1324.28 701.84L1324.28 642.37L1255.56 573.65L1226.01 603.2L1226 603.2ZM1365.58 526.65L1501.6 390.63L1390.5 279.18L1332.81 493.9L1365.57 526.66L1365.58 526.65ZM1383.74 272.76L1332.46 221.13L1332.46 464.33L1383.74 272.76ZM1324.28 221.13L1273 272.76L1324.28 464.33L1324.28 221.13ZM1383.74 1272.64L1332.46 1221.36L1332.46 1464.21L1383.74 1272.64ZM1324.28 1221.36L1273 1272.64L1324.28 1464.21L1324.28 1221.36Z" fill="#D7CAAC" fill-opacity="0.6"/>
</g>
<defs>
<clipPath id="clip0_2_43">
<rect width="3014.96" height="3000" fill="white" transform="translate(3014.96 3000) rotate(-180)"/>
</clipPath>
</defs>
</svg>
