<svg width="1508" height="1500" viewBox="0 0 1508 1500" fill="none" xmlns="http://www.w3.org/2000/svg">
<path d="M466.47 1493.07L533.41 1426.13L466.47 1358.83L399.53 1426.13L466.47 1493.07ZM900.18 0.0100787L832.17 67.67L862.08 97.5801L959.65 0.0100839L971.04 0.0100849L867.78 103.27L979.23 214.72L1036.56 8.08854e-05L1045.46 8.16635e-05L1103.15 214.72L1214.6 103.27L1111.34 0.0100972L1122.73 0.0100982L1220.3 97.5802L1249.86 67.67L1182.2 0.0101034L1193.59 0.0101044L1255.55 61.9701L1285.46 32.42L1253.06 0.0201193L1264.45 0.0201203L1291.16 26.7301L1317.87 0.020125L1339.24 0.0201269L1365.59 26.7301L1392.3 0.0201315L1403.69 0.0201325L1371.29 32.42L1401.2 61.9701L1463.16 0.0101279L1474.55 0.0101289L1406.89 67.67L1436.44 97.5802L1507.66 26.7201L1507.66 38.1102L1442.5 103.27L1507.66 168.43L1507.66 179.82L1436.44 108.96L1334.24 211.51L1391.21 268.48L1507.65 384.92L1507.65 396.31L1371.27 532.33L1401.18 561.88L1469.19 493.87L1507.65 455.77L1507.65 467.16L1474.89 499.92L1406.88 567.93L1436.43 597.49L1507.65 526.63L1507.65 538.02L1442.49 603.18L1507.65 668.34L1507.65 679.73L1436.43 608.87L1334.23 711.42L1391.2 768.39L1507.64 884.83L1507.64 896.22L1371.26 1032.24L1401.17 1062.15L1469.18 994.14L1507.64 955.68L1507.64 967.07L1474.88 999.83L1406.87 1067.84L1436.42 1097.39L1507.64 1026.53L1507.64 1037.92L1442.48 1103.08L1507.64 1168.24L1507.64 1179.63L1436.42 1108.77L1334.22 1211.32L1391.19 1268.29L1507.63 1384.73L1507.63 1396.12L1403.65 1499.74L1392.26 1499.74L1501.58 1390.42L1390.48 1278.97L1332.79 1493.69L1339.2 1499.74L1317.83 1499.74L1323.88 1493.69L1266.19 1278.97L1155.09 1390.42L1264.41 1499.74L1253.02 1499.74L1149.4 1396.12L1119.49 1426.03L1187.5 1494.04L1193.55 1499.74L1181.8 1499.74L1113.79 1431.73L1084.24 1461.28L1122.7 1499.74L1111.31 1499.74L1078.19 1466.98L1045.43 1499.74L1036.53 1499.74L1003.77 1466.98L971.01 1499.74L959.62 1499.74L998.08 1461.28L968.17 1431.73L900.16 1499.74L888.77 1499.74L894.47 1494.04L962.48 1426.03L932.93 1396.12L829.31 1499.74L817.56 1499.74L927.23 1390.42L815.78 1278.97L758.45 1493.69L764.5 1499.74L743.14 1499.74L749.19 1493.69L691.86 1278.97L580.41 1390.42L689.73 1499.74L678.34 1499.74L574.72 1396.12L544.81 1426.03L613.18 1494.04L618.88 1499.74L607.13 1499.74L539.12 1431.73L509.57 1461.28L548.03 1499.74L536.64 1499.74L503.88 1466.98L471.12 1499.74L461.86 1499.74L429.1 1466.98L396.34 1499.74L384.95 1499.74L423.41 1461.28L393.86 1431.73L325.85 1499.74L314.1 1499.74L320.15 1494.04L388.16 1426.03L358.25 1396.12L254.63 1499.74L243.24 1499.74L352.56 1390.42L241.11 1278.97L183.78 1493.69L189.83 1499.74L168.46 1499.74L174.87 1493.69L117.18 1278.97L5.72999 1390.42L115.4 1499.74L103.65 1499.74L0.0300384 1396.12L0.0300394 1384.73L173.44 1211.32L70.8899 1108.77L0.0300573 1179.99L0.0300583 1168.24L65.19 1103.08L0.0300697 1037.92L0.0300707 1026.53L70.8899 1097.39L100.8 1067.84L32.7901 999.83L0.0300759 967.07L0.0300769 955.68L38.49 994.14L106.5 1062.15L136.05 1032.24L0.0300821 896.22L0.0300831 884.83L173.44 711.42L70.89 608.87L0.030101 679.73L0.030102 668.34L65.19 603.18L0.0301134 538.02L0.0301144 526.63L70.89 597.49L100.8 567.93L32.7901 499.92L0.0301196 467.16L0.0301206 455.77L38.4901 493.87L106.5 561.88L136.05 532.33L0.0301258 396.31L0.0301268 384.92L173.44 211.51L70.89 108.96L0.0301447 179.82L0.0301457 168.43L65.1901 103.27L0.0301571 38.1101L0.0301581 26.72L70.89 97.5801L100.8 67.6699L32.7902 0.0100029L44.1801 0.0100039L106.49 61.97L136.04 32.4199L103.64 0.0200189L115.39 0.0200199L141.74 26.73L168.45 0.0200245L189.82 0.0200264L216.53 26.73L243.24 0.0200311L254.63 0.0200321L222.23 32.4199L252.14 61.97L314.1 0.0100275L325.49 0.0100285L257.83 67.6699L287.38 97.5801L384.95 0.0100337L396.34 0.0100347L293.08 103.27L404.53 214.72L461.86 3.06436e-05L471.12 3.14531e-05L528.45 214.72L639.9 103.27L536.64 0.0100469L548.03 0.0100479L645.6 97.5801L675.15 67.67L607.49 0.0100531L618.88 0.0100541L681.19 61.97L710.75 32.42L678.35 0.0200691L689.74 0.0200701L716.45 26.73L743.16 0.0200748L764.52 0.0200766L791.23 26.73L817.94 0.0200813L829.33 0.0200823L796.93 32.42L826.48 61.97L888.79 0.0100777L900.18 0.0100787ZM826.47 73.72L757.75 142.09L757.75 201.56L856.38 103.28L826.47 73.72ZM753.83 134.97L820.77 67.67L753.83 0.730037L686.89 67.67L753.83 134.97ZM900.18 999.89L832.17 1067.9L862.08 1097.45L998.1 961.43L968.19 931.87L900.18 999.88L900.18 999.89ZM826.47 1073.6L757.75 1142.32L757.75 1201.79L856.38 1103.15L826.47 1073.6ZM753.83 1134.85L820.77 1067.91L753.83 1000.97L686.89 1067.91L753.83 1134.85ZM826.47 1062.21L894.48 994.2L962.49 926.19L932.94 896.28L796.92 1032.3L826.47 1062.21ZM900.18 499.95L832.17 567.96L862.08 597.52L998.1 461.5L968.19 431.59L900.18 499.96L900.18 499.95ZM826.47 573.66L757.75 642.38L757.75 701.85L856.38 603.21L826.47 573.66ZM753.83 634.91L820.77 567.97L753.83 500.67L686.89 567.97L753.83 634.91ZM826.47 561.91L894.48 493.9L962.49 425.89L932.94 396.34L796.92 532.36L826.47 561.91ZM252.11 73.72L183.39 142.09L183.39 201.56L281.67 103.28L252.12 73.72L252.11 73.72ZM179.11 134.97L246.05 67.6699L179.11 0.729986L112.17 67.6699L179.11 134.97ZM325.82 999.89L257.81 1067.9L287.36 1097.45L423.38 961.43L393.83 931.87L325.82 999.88L325.82 999.89ZM252.11 1073.6L183.39 1142.32L183.39 1201.79L281.67 1103.15L252.12 1073.6L252.11 1073.6ZM179.11 1134.85L246.05 1067.91L179.11 1000.97L112.17 1067.91L179.11 1134.85ZM252.11 1062.21L320.12 994.2L388.13 926.19L358.22 896.28L222.2 1032.3L252.11 1062.21ZM325.82 499.95L257.81 567.96L287.36 597.52L423.38 461.5L393.83 431.59L325.82 499.96L325.82 499.95ZM252.11 573.66L183.39 642.38L183.39 701.85L281.67 603.21L252.12 573.66L252.11 573.66ZM179.11 634.91L246.05 567.97L179.11 500.67L112.17 567.97L179.11 634.91ZM252.11 561.91L320.12 493.9L388.13 425.89L358.22 396.34L222.2 532.36L252.11 561.91ZM1401.19 73.3602L1332.47 142.08L1332.47 201.55L1430.75 103.27L1401.2 73.3602L1401.19 73.3602ZM1328.55 134.97L1395.49 67.67L1328.55 0.730087L1261.25 67.67L1328.55 134.97ZM1401.19 1073.6L1332.47 1142.32L1332.47 1201.79L1430.75 1103.15L1401.2 1073.6L1401.19 1073.6ZM1328.55 1134.85L1395.49 1067.91L1328.55 1000.97L1261.25 1067.91L1328.55 1134.85ZM1401.19 573.66L1332.47 642.38L1332.47 701.85L1430.75 603.21L1401.2 573.66L1401.19 573.66ZM1328.55 634.91L1395.49 567.97L1328.55 500.67L1261.25 567.97L1328.55 634.91ZM1474.9 1499.83L1463.15 1499.83L1469.2 1494.13L1507.66 1455.67L1507.66 1467.06L1474.9 1499.82L1474.9 1499.83ZM32.76 1499.83L2.86484e-06 1467.07L3.86058e-06 1455.68L38.46 1494.14L44.1599 1499.84L32.77 1499.84L32.76 1499.83ZM1181.84 999.89L1113.83 931.88L1084.28 961.44L1220.3 1097.46L1249.86 1067.91L1181.85 999.9L1181.84 999.89ZM1108.13 926.18L1041.19 858.88L974.25 926.18L1041.19 993.12L1108.13 926.18ZM1045.11 851.4L1113.83 920.12L1143.74 890.57L1045.1 792.29L1045.1 851.4L1045.11 851.4ZM1119.53 926.18L1187.54 994.19L1255.55 1062.2L1285.46 1032.29L1149.44 896.27L1119.53 926.18ZM1181.84 499.59L1113.83 431.58L1084.28 461.49L1220.3 597.51L1249.86 567.95L1181.85 499.58L1181.84 499.59ZM1108.13 425.89L1041.19 358.95L974.25 425.89L1041.19 493.19L1108.13 425.89ZM1045.11 351.46L1113.83 420.18L1143.74 390.63L1045.1 292L1045.1 351.47L1045.11 351.46ZM1119.53 425.89L1187.54 493.9L1255.55 561.91L1285.46 532.36L1149.44 396.34L1119.53 425.89ZM1108.13 1426.12L1041.19 1358.82L974.25 1426.12L1041.19 1493.06L1108.13 1426.12ZM1045.11 1351.7L1113.83 1420.42L1143.74 1390.51L1045.1 1292.23L1045.1 1351.7L1045.11 1351.7ZM607.13 999.89L539.12 931.88L509.57 961.44L645.59 1097.46L675.14 1067.91L607.13 999.9L607.13 999.89ZM533.42 926.18L466.48 858.88L399.54 926.18L466.48 993.12L533.42 926.18ZM470.39 851.76L539.11 920.13L569.02 890.58L470.38 792.3L470.38 851.77L470.39 851.76ZM544.81 926.18L613.18 994.19L681.19 1062.2L710.75 1032.29L574.73 896.27L544.82 926.18L544.81 926.18ZM607.13 499.95L539.12 431.58L509.57 461.49L645.59 597.51L675.14 567.95L607.13 499.94L607.13 499.95ZM533.42 425.89L466.48 358.95L399.54 425.89L466.48 493.19L533.42 425.89ZM470.39 351.46L539.11 420.18L569.02 390.63L470.38 292L470.38 351.47L470.39 351.46ZM544.81 425.89L613.18 493.9L681.19 561.91L710.75 532.36L574.73 396.34L544.82 425.89L544.81 425.89ZM539.11 1420.43L569.02 1390.52L470.38 1292.24L470.38 1351.71L539.1 1420.43L539.11 1420.43ZM5.7 890.57L141.72 1026.59L174.84 993.83L117.15 779.11L5.7 890.56L5.7 890.57ZM5.70005 390.63L141.72 526.65L174.84 493.89L117.15 279.17L5.70005 390.62L5.70005 390.63ZM985.64 221.14L1036.92 272.42L1036.92 29.5701L985.64 221.14ZM1045.11 272.41L1096.39 221.13L1045.11 29.5601L1045.11 272.41ZM1103.86 225.41L1046.89 282.38L1149.44 384.93L1322.5 211.52L1220.3 108.97L1103.86 225.41ZM1035.49 282.38L862.08 108.97L759.53 211.52L816.5 268.49L932.94 384.93L1035.49 282.38ZM748.13 211.52L645.58 108.97L529.14 225.41L472.17 282.38L574.72 384.93L748.13 211.52ZM651.28 103.27L749.92 201.55L749.92 142.08L681.2 73.71L651.29 103.27L651.28 103.27ZM1003.8 967.13L867.78 1103.15L979.23 1214.6L1036.56 999.88L1003.8 967.12L1003.8 967.13ZM985.64 1221.37L1036.92 1272.65L1036.92 1029.45L985.64 1221.38L985.64 1221.37ZM1045.11 1272.65L1096.39 1221.37L1045.11 1029.44L1045.11 1272.64L1045.11 1272.65ZM1103.86 1225.29L1046.89 1282.26L1149.44 1384.81L1322.5 1211.4L1220.3 1108.85L1103.86 1225.29ZM1035.49 1282.27L862.08 1108.86L759.53 1211.41L816.5 1268.38L932.94 1384.82L1035.49 1282.27ZM748.13 1211.4L645.58 1108.85L529.14 1225.29L472.17 1282.26L574.72 1384.81L748.13 1211.4ZM639.89 1103.16L503.87 967.14L471.11 999.9L528.44 1214.62L639.89 1103.17L639.89 1103.16ZM651.28 1103.16L749.92 1201.8L749.92 1142.33L681.2 1073.61L651.29 1103.16L651.28 1103.16ZM791.22 1026.6L927.24 890.58L815.79 779.13L758.46 993.85L791.22 1026.61L791.22 1026.6ZM816.5 768.44L932.94 884.88L1035.49 782.33L862.08 608.92L759.53 711.47L816.5 768.44ZM1046.89 782.32L1149.44 884.87L1322.5 711.46L1220.3 608.91L1103.86 725.35L1046.89 782.32ZM1155.14 890.57L1291.16 1026.59L1323.92 993.83L1266.23 779.11L1155.13 890.56L1155.14 890.57ZM1036.92 792.29L938.64 890.57L968.19 920.12L1036.91 851.4L1036.91 792.29L1036.92 792.29ZM809.38 772.71L757.75 721.08L757.75 964.28L809.38 772.71ZM749.92 721.08L698.29 772.71L749.92 964.28L749.92 721.08ZM691.87 779.12L580.42 890.57L716.44 1026.59L749.2 993.83L691.87 779.11L691.87 779.12ZM574.72 884.88L748.13 711.47L645.58 608.92L529.14 725.36L472.17 782.33L574.72 884.88ZM1003.8 467.19L867.78 603.21L979.23 714.66L1036.56 499.94L1003.8 467.18L1003.8 467.19ZM985.64 721.08L1036.92 772.71L1036.92 529.51L985.64 721.08ZM1045.11 772.71L1096.39 721.08L1045.11 529.51L1045.11 772.71ZM639.89 603.21L503.87 467.19L471.11 499.95L528.44 714.67L639.89 603.22L639.89 603.21ZM651.28 603.21L749.92 701.85L749.92 642.38L681.2 573.66L651.29 603.21L651.28 603.21ZM791.22 526.66L927.24 390.64L815.79 279.19L758.46 493.91L791.22 526.67L791.22 526.66ZM1155.14 390.63L1291.16 526.65L1323.92 493.89L1266.23 279.17L1155.13 390.62L1155.14 390.63ZM1036.92 292L938.64 390.63L968.19 420.18L1036.91 351.46L1036.91 291.99L1036.92 292ZM809.38 272.77L757.75 221.14L757.75 464.34L809.38 272.77ZM749.92 221.14L698.29 272.77L749.92 464.34L749.92 221.14ZM691.87 279.18L580.42 390.63L716.44 526.65L749.2 493.89L691.87 279.17L691.87 279.18ZM1036.92 1292.24L938.64 1390.52L968.19 1420.43L1036.91 1351.71L1036.91 1292.24L1036.92 1292.24ZM809.38 1272.65L757.75 1221.37L757.75 1464.22L809.38 1272.65ZM749.92 1221.37L698.29 1272.65L749.92 1464.22L749.92 1221.37ZM410.92 221.14L462.55 272.42L462.55 29.5701L410.92 221.14ZM470.39 272.41L522.02 221.13L470.39 29.5601L470.39 272.41ZM460.78 282.38L287.37 108.97L184.82 211.52L242.15 268.49L358.23 384.93L460.78 282.38ZM76.5602 103.27L175.2 201.55L175.2 142.08L106.48 73.71L76.5702 103.27L76.5602 103.27ZM429.08 967.13L293.06 1103.15L404.51 1214.6L461.84 999.88L429.08 967.12L429.08 967.13ZM410.92 1221.37L462.55 1272.65L462.55 1029.45L410.92 1221.38L410.92 1221.37ZM470.39 1272.65L522.02 1221.37L470.39 1029.44L470.39 1272.64L470.39 1272.65ZM460.78 1282.27L287.37 1108.86L184.82 1211.41L242.15 1268.38L358.23 1384.82L460.78 1282.27ZM76.5601 1103.16L175.2 1201.8L175.2 1142.33L106.48 1073.61L76.5701 1103.16L76.5601 1103.16ZM216.5 1026.6L352.52 890.58L241.07 779.13L183.74 993.85L216.5 1026.61L216.5 1026.6ZM242.14 768.44L358.22 884.88L460.77 782.33L287.36 608.92L184.81 711.47L242.14 768.44ZM462.56 792.29L363.93 890.57L393.84 920.12L462.56 851.75L462.56 792.28L462.56 792.29ZM123.92 772.71L175.2 964.28L175.2 721.08L123.92 772.71ZM183.39 721.08L183.39 964.28L234.67 772.71L183.39 721.08ZM429.08 467.19L293.06 603.21L404.51 714.66L461.84 499.94L429.08 467.18L429.08 467.19ZM410.92 721.08L462.55 772.71L462.55 529.51L410.92 721.08ZM470.39 772.71L522.02 721.08L470.39 529.51L470.39 772.71ZM76.5601 603.21L175.2 701.85L175.2 642.38L106.48 573.66L76.5701 603.21L76.5601 603.21ZM216.5 526.66L352.52 390.64L241.07 279.19L183.74 493.91L216.5 526.67L216.5 526.66ZM462.56 292L363.93 390.63L393.84 420.18L462.56 351.46L462.56 291.99L462.56 292ZM123.92 272.77L175.2 464.34L175.2 221.14L123.92 272.77ZM183.39 221.14L183.39 464.34L234.67 272.77L183.39 221.14ZM462.56 1292.24L363.93 1390.52L393.84 1420.43L462.56 1351.71L462.56 1292.24ZM123.92 1272.65L175.2 1464.22L175.2 1221.37L123.92 1272.65ZM183.39 1221.37L183.39 1464.22L234.67 1272.65L183.39 1221.37ZM1226 103.27L1324.28 201.55L1324.28 142.08L1255.56 73.3602L1226.01 103.27L1226 103.27ZM1214.6 1103.16L1078.58 967.14L1045.46 999.9L1103.15 1214.62L1214.6 1103.17L1214.6 1103.16ZM1226 1103.16L1324.28 1201.8L1324.28 1142.33L1255.56 1073.61L1226.01 1103.16L1226 1103.16ZM1365.58 1026.6L1501.6 890.58L1390.5 779.13L1332.81 993.85L1365.57 1026.61L1365.58 1026.6ZM1383.74 772.71L1332.46 721.08L1332.46 964.28L1383.74 772.71ZM1324.28 721.08L1273 772.71L1324.28 964.28L1324.28 721.08ZM1214.6 603.21L1078.58 467.19L1045.46 499.95L1103.15 714.67L1214.6 603.22L1214.6 603.21ZM1226 603.21L1324.28 701.85L1324.28 642.38L1255.56 573.66L1226.01 603.21L1226 603.21ZM1365.58 526.66L1501.6 390.64L1390.5 279.19L1332.81 493.91L1365.57 526.67L1365.58 526.66ZM1383.74 272.77L1332.46 221.14L1332.46 464.34L1383.74 272.77ZM1324.28 221.14L1273 272.77L1324.28 464.34L1324.28 221.14ZM1383.74 1272.65L1332.46 1221.37L1332.46 1464.22L1383.74 1272.65ZM1324.28 1221.37L1273 1272.65L1324.28 1464.22L1324.28 1221.37Z" fill="#d7caac" fill-opacity="0.4"/>
</svg>
