<!-- Sidecar, Film Noir background: the damage a worn print carries.
     Generated by scripts/gen-film-noir-film.py; edit the script, not this file.
     Every mark is faint white, and the strongest is a measured ceiling: see
     test/theme-svg-assets.test.js. -->
<svg xmlns="http://www.w3.org/2000/svg" width="420" height="1100" viewBox="0 0 420 1100"><path d="M24.2 345.9v6.6" stroke="#FFFFFF" stroke-opacity="0.020" stroke-width="0.6"/><path d="M114.3 721.1v13.9" stroke="#FFFFFF" stroke-opacity="0.032" stroke-width="0.6"/><path d="M159.8 233.9v8.2" stroke="#FFFFFF" stroke-opacity="0.027" stroke-width="0.6"/><path d="M321.6 429.2v16.1" stroke="#FFFFFF" stroke-opacity="0.030" stroke-width="0.6"/><path d="M66.3 815.2v9.2" stroke="#FFFFFF" stroke-opacity="0.019" stroke-width="0.6"/><path d="M75.8 724.2v15.1" stroke="#FFFFFF" stroke-opacity="0.024" stroke-width="0.6"/><path d="M352.2 970.5v15.0" stroke="#FFFFFF" stroke-opacity="0.030" stroke-width="0.6"/><path d="M114.1 926.0v20.7" stroke="#FFFFFF" stroke-opacity="0.027" stroke-width="0.6"/><path d="M88.8 632.0v21.6" stroke="#FFFFFF" stroke-opacity="0.032" stroke-width="0.6"/><path d="M162.1 1087.1v16.4" stroke="#FFFFFF" stroke-opacity="0.031" stroke-width="0.6"/><path d="M356.6 608.7v10.2" stroke="#FFFFFF" stroke-opacity="0.025" stroke-width="0.6"/><path d="M196.4 633.3v11.0" stroke="#FFFFFF" stroke-opacity="0.028" stroke-width="0.6"/><path d="M226.3 801.5v21.5" stroke="#FFFFFF" stroke-opacity="0.019" stroke-width="0.6"/><path d="M31.7 61.7v9.5" stroke="#FFFFFF" stroke-opacity="0.027" stroke-width="0.6"/><path d="M97.8 1013.1v18.6" stroke="#FFFFFF" stroke-opacity="0.028" stroke-width="0.6"/><path d="M381.8 674.8v17.5" stroke="#FFFFFF" stroke-opacity="0.019" stroke-width="0.6"/><path d="M127.0 295.2v10.8" stroke="#FFFFFF" stroke-opacity="0.022" stroke-width="0.6"/><path d="M29.9 170.8v16.8" stroke="#FFFFFF" stroke-opacity="0.019" stroke-width="0.6"/><path d="M329.4 218.1v21.0" stroke="#FFFFFF" stroke-opacity="0.020" stroke-width="0.6"/><path d="M411.9 173.4v18.4" stroke="#FFFFFF" stroke-opacity="0.019" stroke-width="0.6"/><path d="M134.4 619.2v8.7" stroke="#FFFFFF" stroke-opacity="0.020" stroke-width="0.6"/><path d="M108.4 518.4v10.6" stroke="#FFFFFF" stroke-opacity="0.030" stroke-width="0.6"/><path d="M154.0 676.9v23.1" stroke="#FFFFFF" stroke-opacity="0.029" stroke-width="0.6"/><path d="M227.0 271.4v13.9" stroke="#FFFFFF" stroke-opacity="0.018" stroke-width="0.6"/><path d="M372.8 138.1v20.7" stroke="#FFFFFF" stroke-opacity="0.018" stroke-width="0.6"/><path d="M166.7 667.1v13.2" stroke="#FFFFFF" stroke-opacity="0.019" stroke-width="0.6"/><path d="M243.2 463.4v17.4" stroke="#FFFFFF" stroke-opacity="0.031" stroke-width="0.6"/><path d="M270.4 519.3v18.0" stroke="#FFFFFF" stroke-opacity="0.029" stroke-width="0.6"/><path d="M406.0 790.3v12.0" stroke="#FFFFFF" stroke-opacity="0.030" stroke-width="0.6"/><path d="M4.3 738.2v10.1" stroke="#FFFFFF" stroke-opacity="0.025" stroke-width="0.6"/><path d="M168.7 438.1v8.8" stroke="#FFFFFF" stroke-opacity="0.030" stroke-width="0.6"/><path d="M159.9 417.1v20.6" stroke="#FFFFFF" stroke-opacity="0.030" stroke-width="0.6"/><path d="M373.7 799.4v10.5" stroke="#FFFFFF" stroke-opacity="0.021" stroke-width="0.6"/><path d="M219.0 207.9v16.4" stroke="#FFFFFF" stroke-opacity="0.022" stroke-width="0.6"/><path d="M175.1 803.2v13.8" stroke="#FFFFFF" stroke-opacity="0.021" stroke-width="0.6"/><path d="M275.5 872.7v7.2" stroke="#FFFFFF" stroke-opacity="0.032" stroke-width="0.6"/><path d="M98.5 596.8v25.2" stroke="#FFFFFF" stroke-opacity="0.024" stroke-width="0.6"/><path d="M97.0 167.5v21.3" stroke="#FFFFFF" stroke-opacity="0.029" stroke-width="0.6"/><path d="M176.6 803.6v19.0" stroke="#FFFFFF" stroke-opacity="0.032" stroke-width="0.6"/><path d="M350.7 746.8v6.1" stroke="#FFFFFF" stroke-opacity="0.020" stroke-width="0.6"/><path d="M165.9 701.2v13.5" stroke="#FFFFFF" stroke-opacity="0.026" stroke-width="0.6"/><path d="M355.5 308.2v8.4" stroke="#FFFFFF" stroke-opacity="0.024" stroke-width="0.6"/><path d="M156.4 486.1v18.5" stroke="#FFFFFF" stroke-opacity="0.023" stroke-width="0.6"/><path d="M260.7 115.2v10.3" stroke="#FFFFFF" stroke-opacity="0.029" stroke-width="0.6"/><path d="M231.6 905.5v24.5" stroke="#FFFFFF" stroke-opacity="0.032" stroke-width="0.6"/><path d="M5.9 658.8v20.1" stroke="#FFFFFF" stroke-opacity="0.024" stroke-width="0.6"/><path d="M59.3 162.7v8.7" stroke="#FFFFFF" stroke-opacity="0.029" stroke-width="0.6"/><path d="M5.3 186.0v16.2" stroke="#FFFFFF" stroke-opacity="0.023" stroke-width="0.6"/><path d="M341.3 859.2v10.0" stroke="#FFFFFF" stroke-opacity="0.024" stroke-width="0.6"/><path d="M380.1 785.7v10.8" stroke="#FFFFFF" stroke-opacity="0.032" stroke-width="0.6"/><path d="M83.0 288.8v24.2" stroke="#FFFFFF" stroke-opacity="0.020" stroke-width="0.6"/><path d="M363.3 95.0v12.0" stroke="#FFFFFF" stroke-opacity="0.027" stroke-width="0.6"/><path d="M94.4 189.4v13.6" stroke="#FFFFFF" stroke-opacity="0.027" stroke-width="0.6"/><path d="M328.8 973.0v12.4" stroke="#FFFFFF" stroke-opacity="0.027" stroke-width="0.6"/><path d="M34.9 300.7v17.2" stroke="#FFFFFF" stroke-opacity="0.021" stroke-width="0.6"/><path d="M60.5 282.6v14.4" stroke="#FFFFFF" stroke-opacity="0.022" stroke-width="0.6"/><path d="M360.0 696.1v14.9" stroke="#FFFFFF" stroke-opacity="0.021" stroke-width="0.6"/><path d="M195.7 812.3v17.6" stroke="#FFFFFF" stroke-opacity="0.018" stroke-width="0.6"/><path d="M175.3 828.2v13.5" stroke="#FFFFFF" stroke-opacity="0.023" stroke-width="0.6"/><path d="M213.8 923.5v25.0" stroke="#FFFFFF" stroke-opacity="0.031" stroke-width="0.6"/><path d="M268.5 698.4L268.4 710.4L268.6 722.4L268.3 734.4L268.0 746.4L267.8 758.4L267.8 770.4L267.3 782.4L267.6 794.4L267.8 806.4L267.9 818.4L268.1 830.4L267.9 842.4L267.3 854.4L267.3 866.4L266.9 878.4L266.4 890.4L266.4 902.4L266.8 914.4L266.4 926.4L266.2 938.4L265.8 950.4L265.9 962.4L265.9 974.4L265.8 986.4L264.7 998.4L264.4 1010.4L264.7 1022.4L264.4 1034.4L264.2 1046.4L264.6 1058.4L264.5 1070.4L264.7 1082.4L264.6 1094.4L264.5 1106.4L264.8 1118.4L264.7 1130.4L264.8 1142.4L265.0 1154.4L265.7 1166.4L265.7 1178.4L265.6 1190.4L266.1 1202.4L265.8 1214.4L266.2 1226.4L266.1 1238.4L266.1 1250.4L266.1 1262.4L265.7 1274.4L266.4 1286.4L266.7 1298.4L266.4 1310.4L266.1 1322.4L266.0 1334.4L265.5 1346.4L265.5 1358.4L265.6 1370.4L265.4 1382.4L265.4 1394.4L265.1 1406.4L265.2 1418.4L265.0 1430.4" stroke="#FFFFFF" stroke-opacity="0.028" stroke-width="0.9" fill="none"/><path d="M374.5 1095.0L375.4 1107.0L375.3 1119.0L375.3 1131.0L375.6 1143.0L375.5 1155.0L375.3 1167.0L375.2 1179.0L375.0 1191.0L375.1 1203.0L375.5 1215.0L375.5 1227.0L375.7 1239.0L375.9 1251.0L376.1 1263.0L376.6 1275.0L377.0 1287.0L377.0 1299.0L377.1 1311.0" stroke="#FFFFFF" stroke-opacity="0.033" stroke-width="0.9" fill="none"/><path d="M166.2 418.9L166.5 430.9L166.9 442.9L167.4 454.9L167.1 466.9L166.6 478.9L166.3 490.9L166.0 502.9L166.2 514.9L166.2 526.9L166.4 538.9L166.1 550.9L165.4 562.9L165.2 574.9L164.9 586.9L164.8 598.9L164.9 610.9L164.7 622.9L164.5 634.9L164.6 646.9L164.3 658.9L164.2 670.9L163.7 682.9L163.5 694.9L163.4 706.9L163.0 718.9L163.3 730.9L163.1 742.9L163.1 754.9L163.3 766.9L163.3 778.9L163.5 790.9L163.8 802.9L163.9 814.9L163.8 826.9L163.4 838.9L163.3 850.9L163.1 862.9L163.4 874.9" stroke="#FFFFFF" stroke-opacity="0.025" stroke-width="0.9" fill="none"/><path d="M162.4 231.5L162.2 243.5L162.1 255.5L161.6 267.5L161.4 279.5L161.5 291.5L161.3 303.5L161.0 315.5L161.0 327.5L161.1 339.5L160.8 351.5L161.2 363.5L161.7 375.5L161.2 387.5L161.3 399.5L161.3 411.5L160.9 423.5L160.7 435.5L160.4 447.5L160.0 459.5L159.3 471.5L159.5 483.5L159.2 495.5L159.0 507.5L159.0 519.5" stroke="#FFFFFF" stroke-opacity="0.027" stroke-width="0.6" fill="none"/><path d="M149.2 421.7L149.3 433.7L148.9 445.7L149.1 457.7L149.1 469.7L148.6 481.7L148.3 493.7L148.1 505.7L147.7 517.7L147.7 529.7L147.7 541.7L148.1 553.7L147.5 565.7L147.0 577.7L146.9 589.7L147.6 601.7L147.8 613.7L147.3 625.7L147.5 637.7L147.6 649.7L147.3 661.7L146.9 673.7L146.7 685.7L147.2 697.7L147.1 709.7L146.8 721.7L147.0 733.7L147.0 745.7L146.8 757.7L147.4 769.7L147.8 781.7L147.7 793.7L148.1 805.7L147.9 817.7L148.0 829.7L148.0 841.7L148.2 853.7L148.3 865.7L148.3 877.7" stroke="#FFFFFF" stroke-opacity="0.037" stroke-width="0.6" fill="none"/><path d="M392.9 689.4L392.4 701.4L392.1 713.4L391.9 725.4L392.2 737.4L392.2 749.4L392.4 761.4L392.4 773.4L392.7 785.4L392.6 797.4L393.3 809.4L393.7 821.4L393.8 833.4L393.8 845.4L394.1 857.4L394.3 869.4L394.2 881.4L394.7 893.4L394.6 905.4L394.9 917.4L394.8 929.4L394.6 941.4L394.6 953.4L393.9 965.4L394.5 977.4L394.4 989.4L394.2 1001.4L394.0 1013.4L394.0 1025.4L394.2 1037.4L394.2 1049.4L394.0 1061.4L394.0 1073.4L394.0 1085.4L394.0 1097.4L393.9 1109.4L394.4 1121.4L394.3 1133.4L394.6 1145.4L395.1 1157.4L395.5 1169.4L395.6 1181.4L395.8 1193.4L395.7 1205.4L396.1 1217.4L396.5 1229.4L396.2 1241.4L396.4 1253.4L396.8 1265.4L396.7 1277.4L396.6 1289.4L396.2 1301.4L396.3 1313.4L396.6 1325.4L396.6 1337.4L396.5 1349.4L396.0 1361.4" stroke="#FFFFFF" stroke-opacity="0.027" stroke-width="0.9" fill="none"/><circle cx="308.9" cy="1025.3" r="1.4" fill="#FFFFFF" fill-opacity="0.027"/><circle cx="361.3" cy="872.1" r="1.0" fill="#FFFFFF" fill-opacity="0.037"/><circle cx="178.0" cy="291.9" r="0.5" fill="#FFFFFF" fill-opacity="0.026"/><circle cx="159.0" cy="100.9" r="2.0" fill="#FFFFFF" fill-opacity="0.039"/><circle cx="263.5" cy="838.3" r="0.5" fill="#FFFFFF" fill-opacity="0.031"/><circle cx="206.4" cy="91.2" r="0.8" fill="#FFFFFF" fill-opacity="0.039"/><circle cx="145.3" cy="564.6" r="0.5" fill="#FFFFFF" fill-opacity="0.029"/><circle cx="28.0" cy="409.1" r="2.0" fill="#FFFFFF" fill-opacity="0.036"/><circle cx="292.3" cy="55.8" r="1.0" fill="#FFFFFF" fill-opacity="0.026"/><circle cx="61.1" cy="598.1" r="0.6" fill="#FFFFFF" fill-opacity="0.038"/><circle cx="66.2" cy="771.3" r="1.0" fill="#FFFFFF" fill-opacity="0.029"/><circle cx="249.9" cy="1029.9" r="1.4" fill="#FFFFFF" fill-opacity="0.037"/><circle cx="52.1" cy="475.1" r="1.4" fill="#FFFFFF" fill-opacity="0.030"/><circle cx="204.0" cy="874.7" r="0.8" fill="#FFFFFF" fill-opacity="0.030"/><circle cx="160.1" cy="788.8" r="1.4" fill="#FFFFFF" fill-opacity="0.034"/><circle cx="104.0" cy="578.6" r="0.5" fill="#FFFFFF" fill-opacity="0.038"/><circle cx="40.2" cy="547.7" r="2.0" fill="#FFFFFF" fill-opacity="0.034"/><circle cx="413.0" cy="292.5" r="1.0" fill="#FFFFFF" fill-opacity="0.039"/><circle cx="180.3" cy="1043.6" r="1.0" fill="#FFFFFF" fill-opacity="0.034"/><circle cx="95.9" cy="831.5" r="0.6" fill="#FFFFFF" fill-opacity="0.027"/><circle cx="229.0" cy="1010.8" r="0.8" fill="#FFFFFF" fill-opacity="0.039"/><circle cx="403.4" cy="466.3" r="2.0" fill="#FFFFFF" fill-opacity="0.036"/><circle cx="288.3" cy="269.5" r="1.0" fill="#FFFFFF" fill-opacity="0.036"/><circle cx="291.3" cy="909.5" r="1.0" fill="#FFFFFF" fill-opacity="0.036"/><circle cx="234.6" cy="0.0" r="2.0" fill="#FFFFFF" fill-opacity="0.036"/><circle cx="82.5" cy="328.6" r="0.6" fill="#FFFFFF" fill-opacity="0.036"/><circle cx="295.3" cy="965.6" r="0.6" fill="#FFFFFF" fill-opacity="0.026"/><circle cx="240.6" cy="620.2" r="0.5" fill="#FFFFFF" fill-opacity="0.035"/><circle cx="8.0" cy="241.5" r="0.5" fill="#FFFFFF" fill-opacity="0.026"/><circle cx="70.8" cy="404.5" r="1.4" fill="#FFFFFF" fill-opacity="0.034"/><circle cx="17.2" cy="134.6" r="0.6" fill="#FFFFFF" fill-opacity="0.034"/><circle cx="154.9" cy="456.0" r="0.6" fill="#FFFFFF" fill-opacity="0.035"/><circle cx="30.5" cy="344.0" r="0.5" fill="#FFFFFF" fill-opacity="0.033"/><circle cx="302.9" cy="173.1" r="0.6" fill="#FFFFFF" fill-opacity="0.027"/><circle cx="276.7" cy="971.4" r="0.5" fill="#FFFFFF" fill-opacity="0.037"/><circle cx="340.0" cy="461.9" r="0.8" fill="#FFFFFF" fill-opacity="0.032"/><circle cx="351.4" cy="623.2" r="1.0" fill="#FFFFFF" fill-opacity="0.040"/><circle cx="45.9" cy="59.6" r="2.0" fill="#FFFFFF" fill-opacity="0.032"/><circle cx="207.6" cy="367.7" r="0.8" fill="#FFFFFF" fill-opacity="0.026"/><circle cx="69.8" cy="96.8" r="0.8" fill="#FFFFFF" fill-opacity="0.035"/><circle cx="374.4" cy="61.4" r="1.0" fill="#FFFFFF" fill-opacity="0.040"/><circle cx="25.0" cy="111.0" r="0.5" fill="#FFFFFF" fill-opacity="0.039"/><circle cx="287.6" cy="248.3" r="0.8" fill="#FFFFFF" fill-opacity="0.033"/><circle cx="416.8" cy="277.4" r="1.0" fill="#FFFFFF" fill-opacity="0.034"/><circle cx="267.8" cy="340.8" r="0.5" fill="#FFFFFF" fill-opacity="0.036"/><circle cx="255.0" cy="51.3" r="1.0" fill="#FFFFFF" fill-opacity="0.039"/><circle cx="68.3" cy="1081.2" r="2.0" fill="#FFFFFF" fill-opacity="0.028"/><circle cx="410.1" cy="809.4" r="2.0" fill="#FFFFFF" fill-opacity="0.033"/><circle cx="330.5" cy="51.0" r="1.0" fill="#FFFFFF" fill-opacity="0.028"/><circle cx="219.5" cy="328.1" r="2.0" fill="#FFFFFF" fill-opacity="0.032"/><circle cx="395.9" cy="315.9" r="0.6" fill="#FFFFFF" fill-opacity="0.033"/><circle cx="417.8" cy="888.8" r="1.0" fill="#FFFFFF" fill-opacity="0.028"/><circle cx="159.2" cy="159.3" r="0.5" fill="#FFFFFF" fill-opacity="0.030"/><circle cx="30.2" cy="834.5" r="2.0" fill="#FFFFFF" fill-opacity="0.040"/><circle cx="395.4" cy="622.6" r="0.8" fill="#FFFFFF" fill-opacity="0.033"/><circle cx="224.5" cy="815.0" r="2.0" fill="#FFFFFF" fill-opacity="0.031"/><circle cx="364.5" cy="1001.3" r="0.6" fill="#FFFFFF" fill-opacity="0.027"/><circle cx="20.7" cy="48.3" r="0.6" fill="#FFFFFF" fill-opacity="0.036"/><circle cx="248.7" cy="352.6" r="1.0" fill="#FFFFFF" fill-opacity="0.040"/><circle cx="36.2" cy="998.5" r="0.6" fill="#FFFFFF" fill-opacity="0.032"/><circle cx="91.5" cy="1027.3" r="0.8" fill="#FFFFFF" fill-opacity="0.029"/><circle cx="340.9" cy="761.1" r="0.8" fill="#FFFFFF" fill-opacity="0.036"/><circle cx="39.4" cy="812.9" r="0.6" fill="#FFFFFF" fill-opacity="0.026"/><circle cx="152.8" cy="542.7" r="0.6" fill="#FFFFFF" fill-opacity="0.027"/><circle cx="243.6" cy="520.6" r="0.6" fill="#FFFFFF" fill-opacity="0.037"/><circle cx="173.2" cy="472.3" r="0.5" fill="#FFFFFF" fill-opacity="0.029"/><circle cx="3.7" cy="829.8" r="1.4" fill="#FFFFFF" fill-opacity="0.027"/><circle cx="98.9" cy="280.1" r="1.4" fill="#FFFFFF" fill-opacity="0.029"/><circle cx="368.0" cy="463.4" r="1.4" fill="#FFFFFF" fill-opacity="0.027"/><circle cx="301.3" cy="25.5" r="2.0" fill="#FFFFFF" fill-opacity="0.032"/><circle cx="87.7" cy="393.2" r="1.4" fill="#FFFFFF" fill-opacity="0.029"/><circle cx="376.3" cy="528.3" r="1.0" fill="#FFFFFF" fill-opacity="0.031"/><circle cx="382.0" cy="897.8" r="0.8" fill="#FFFFFF" fill-opacity="0.037"/><circle cx="235.0" cy="328.0" r="2.0" fill="#FFFFFF" fill-opacity="0.030"/><circle cx="236.6" cy="162.9" r="1.0" fill="#FFFFFF" fill-opacity="0.028"/><circle cx="324.4" cy="1088.4" r="0.8" fill="#FFFFFF" fill-opacity="0.031"/><circle cx="404.0" cy="30.6" r="0.5" fill="#FFFFFF" fill-opacity="0.031"/><circle cx="98.6" cy="443.7" r="0.8" fill="#FFFFFF" fill-opacity="0.039"/><circle cx="126.8" cy="735.0" r="2.0" fill="#FFFFFF" fill-opacity="0.038"/><circle cx="409.0" cy="630.5" r="0.6" fill="#FFFFFF" fill-opacity="0.035"/><circle cx="359.3" cy="318.0" r="1.4" fill="#FFFFFF" fill-opacity="0.036"/><circle cx="140.3" cy="426.5" r="0.6" fill="#FFFFFF" fill-opacity="0.032"/><circle cx="220.3" cy="379.1" r="0.6" fill="#FFFFFF" fill-opacity="0.035"/><circle cx="169.8" cy="351.5" r="1.0" fill="#FFFFFF" fill-opacity="0.036"/><circle cx="365.5" cy="562.7" r="2.0" fill="#FFFFFF" fill-opacity="0.025"/><circle cx="53.3" cy="1036.1" r="1.0" fill="#FFFFFF" fill-opacity="0.035"/><circle cx="26.0" cy="789.6" r="0.5" fill="#FFFFFF" fill-opacity="0.027"/><circle cx="181.4" cy="351.8" r="0.6" fill="#FFFFFF" fill-opacity="0.031"/><circle cx="307.4" cy="887.1" r="2.0" fill="#FFFFFF" fill-opacity="0.036"/><circle cx="371.3" cy="81.1" r="0.6" fill="#FFFFFF" fill-opacity="0.035"/><circle cx="409.3" cy="489.2" r="0.5" fill="#FFFFFF" fill-opacity="0.040"/><circle cx="414.3" cy="759.1" r="0.6" fill="#FFFFFF" fill-opacity="0.029"/><circle cx="335.4" cy="518.5" r="2.0" fill="#FFFFFF" fill-opacity="0.025"/><circle cx="184.9" cy="470.6" r="0.5" fill="#FFFFFF" fill-opacity="0.034"/><circle cx="179.7" cy="605.3" r="0.6" fill="#FFFFFF" fill-opacity="0.038"/><circle cx="271.7" cy="773.9" r="0.6" fill="#FFFFFF" fill-opacity="0.038"/><circle cx="346.5" cy="663.1" r="0.6" fill="#FFFFFF" fill-opacity="0.034"/><circle cx="15.7" cy="796.4" r="0.6" fill="#FFFFFF" fill-opacity="0.028"/><circle cx="195.2" cy="314.3" r="1.4" fill="#FFFFFF" fill-opacity="0.028"/><circle cx="227.7" cy="682.1" r="0.6" fill="#FFFFFF" fill-opacity="0.036"/><circle cx="402.7" cy="150.2" r="0.5" fill="#FFFFFF" fill-opacity="0.029"/><circle cx="222.3" cy="98.0" r="0.8" fill="#FFFFFF" fill-opacity="0.027"/><circle cx="90.0" cy="589.4" r="1.0" fill="#FFFFFF" fill-opacity="0.032"/><circle cx="74.0" cy="262.6" r="0.5" fill="#FFFFFF" fill-opacity="0.032"/><circle cx="76.1" cy="653.8" r="0.6" fill="#FFFFFF" fill-opacity="0.039"/><circle cx="117.0" cy="429.7" r="1.4" fill="#FFFFFF" fill-opacity="0.029"/><circle cx="153.0" cy="213.9" r="0.5" fill="#FFFFFF" fill-opacity="0.032"/><circle cx="20.8" cy="249.8" r="1.0" fill="#FFFFFF" fill-opacity="0.035"/><circle cx="48.5" cy="995.4" r="0.5" fill="#FFFFFF" fill-opacity="0.028"/><circle cx="78.9" cy="487.7" r="0.8" fill="#FFFFFF" fill-opacity="0.031"/><path d="M237.2 144.4Q236.1 156.7 243.5 166.9" stroke="#FFFFFF" stroke-opacity="0.036" stroke-width="0.6" fill="none"/><path d="M275.1 49.0Q265.8 62.0 272.3 67.7" stroke="#FFFFFF" stroke-opacity="0.036" stroke-width="0.6" fill="none"/><path d="M196.8 683.8Q188.3 677.7 182.2 689.2" stroke="#FFFFFF" stroke-opacity="0.036" stroke-width="0.6" fill="none"/><path d="M37.5 751.9Q28.2 764.6 14.7 763.0" stroke="#FFFFFF" stroke-opacity="0.036" stroke-width="0.6" fill="none"/><path d="M205.5 161.9Q202.0 174.4 205.0 174.6" stroke="#FFFFFF" stroke-opacity="0.036" stroke-width="0.6" fill="none"/><path d="M408.8 189.8Q412.3 190.9 429.3 197.7" stroke="#FFFFFF" stroke-opacity="0.036" stroke-width="0.6" fill="none"/><path d="M102.6 319.4Q109.4 329.8 110.9 342.8" stroke="#FFFFFF" stroke-opacity="0.036" stroke-width="0.6" fill="none"/><path d="M362.6 235.3Q362.3 251.2 376.4 249.9" stroke="#FFFFFF" stroke-opacity="0.036" stroke-width="0.6" fill="none"/></svg>
