<svg xmlns="http://www.w3.org/2000/svg" width="900" height="356" viewBox="0 0 900 356"><path d="M0 -3.4C2.2 -1.6 2.2 1.6 0 3.4C-2.2 1.6 -2.2 -1.6 0 -3.4Z" fill="#8A4A26" fill-opacity="0.3" transform="translate(283.9 96.8) rotate(282.6) scale(1.2)"/><path d="M0 -3.4C2.2 -1.6 2.2 1.6 0 3.4C-2.2 1.6 -2.2 -1.6 0 -3.4Z" fill="#9C5A2A" fill-opacity="0.4" transform="translate(239.8 90) rotate(180) scale(1)"/><path d="M0 -3.4C2.2 -1.6 2.2 1.6 0 3.4C-2.2 1.6 -2.2 -1.6 0 -3.4Z" fill="#B5652E" fill-opacity="0.4" transform="translate(883.1 123.3) rotate(263.6) scale(1)"/><path d="M0 -3.4C2.2 -1.6 2.2 1.6 0 3.4C-2.2 1.6 -2.2 -1.6 0 -3.4Z" fill="#9C5A2A" fill-opacity="0.4" transform="translate(107.9 145.2) rotate(272.5) scale(1)"/><path d="M0 -3.4C2.2 -1.6 2.2 1.6 0 3.4C-2.2 1.6 -2.2 -1.6 0 -3.4Z" fill="#8A4A26" fill-opacity="0.3" transform="translate(472.6 274.8) rotate(249.8) scale(0.9)"/><path d="M0 -3.4C2.2 -1.6 2.2 1.6 0 3.4C-2.2 1.6 -2.2 -1.6 0 -3.4Z" fill="#C2893E" fill-opacity="0.3" transform="translate(647.6 248.1) rotate(212.7) scale(0.8)"/><path d="M0 -3.4C2.2 -1.6 2.2 1.6 0 3.4C-2.2 1.6 -2.2 -1.6 0 -3.4Z" fill="#C2893E" fill-opacity="0.3" transform="translate(772.4 264.6) rotate(207.2) scale(1.2)"/><path d="M0 -3.4C2.2 -1.6 2.2 1.6 0 3.4C-2.2 1.6 -2.2 -1.6 0 -3.4Z" fill="#B5652E" fill-opacity="0.3" transform="translate(58 141.2) rotate(248.8) scale(1.1)"/><path d="M0 -3.4C2.2 -1.6 2.2 1.6 0 3.4C-2.2 1.6 -2.2 -1.6 0 -3.4Z" fill="#9C5A2A" fill-opacity="0.3" transform="translate(765.9 277.5) rotate(0.7) scale(1.3)"/><path d="M0 -3.4C2.2 -1.6 2.2 1.6 0 3.4C-2.2 1.6 -2.2 -1.6 0 -3.4Z" fill="#9C5A2A" fill-opacity="0.3" transform="translate(166.5 251.6) rotate(48.4) scale(1.1)"/><path d="M0 -3.4C2.2 -1.6 2.2 1.6 0 3.4C-2.2 1.6 -2.2 -1.6 0 -3.4Z" fill="#9C5A2A" fill-opacity="0.3" transform="translate(112.1 281.9) rotate(308.4) scale(0.9)"/><path d="M0 -3.4C2.2 -1.6 2.2 1.6 0 3.4C-2.2 1.6 -2.2 -1.6 0 -3.4Z" fill="#B5652E" fill-opacity="0.3" transform="translate(264 72.9) rotate(38.5) scale(0.9)"/><path d="M0 -3.4C2.2 -1.6 2.2 1.6 0 3.4C-2.2 1.6 -2.2 -1.6 0 -3.4Z" fill="#B5652E" fill-opacity="0.4" transform="translate(32.5 169.2) rotate(142.7) scale(0.7)"/><path d="M0 -3.4C2.2 -1.6 2.2 1.6 0 3.4C-2.2 1.6 -2.2 -1.6 0 -3.4Z" fill="#9C5A2A" fill-opacity="0.4" transform="translate(384 194.8) rotate(213.5) scale(1.1)"/><path d="M0 -3.4C2.2 -1.6 2.2 1.6 0 3.4C-2.2 1.6 -2.2 -1.6 0 -3.4Z" fill="#8A4A26" fill-opacity="0.4" transform="translate(630.3 169.9) rotate(17.8) scale(1)"/><path d="M0 -3.4C2.2 -1.6 2.2 1.6 0 3.4C-2.2 1.6 -2.2 -1.6 0 -3.4Z" fill="#8A4A26" fill-opacity="0.4" transform="translate(104.3 195.8) rotate(350.8) scale(1)"/><path d="M0 -3.4C2.2 -1.6 2.2 1.6 0 3.4C-2.2 1.6 -2.2 -1.6 0 -3.4Z" fill="#9C5A2A" fill-opacity="0.4" transform="translate(150.6 155.8) rotate(142.7) scale(1.2)"/><path d="M0 -3.4C2.2 -1.6 2.2 1.6 0 3.4C-2.2 1.6 -2.2 -1.6 0 -3.4Z" fill="#8A4A26" fill-opacity="0.3" transform="translate(219.5 251) rotate(264.4) scale(0.8)"/><path d="M0 -3.4C2.2 -1.6 2.2 1.6 0 3.4C-2.2 1.6 -2.2 -1.6 0 -3.4Z" fill="#C2893E" fill-opacity="0.3" transform="translate(428.1 87.9) rotate(162.8) scale(1)"/><path d="M0 -3.4C2.2 -1.6 2.2 1.6 0 3.4C-2.2 1.6 -2.2 -1.6 0 -3.4Z" fill="#C2893E" fill-opacity="0.4" transform="translate(416.9 95.7) rotate(252.8) scale(0.8)"/><path d="M0 -3.4C2.2 -1.6 2.2 1.6 0 3.4C-2.2 1.6 -2.2 -1.6 0 -3.4Z" fill="#9C5A2A" fill-opacity="0.4" transform="translate(584.2 155.3) rotate(328) scale(1.3)"/><path d="M0 -3.4C2.2 -1.6 2.2 1.6 0 3.4C-2.2 1.6 -2.2 -1.6 0 -3.4Z" fill="#8A4A26" fill-opacity="0.4" transform="translate(455.3 183.4) rotate(355.6) scale(1.1)"/><path d="M0 -3.4C2.2 -1.6 2.2 1.6 0 3.4C-2.2 1.6 -2.2 -1.6 0 -3.4Z" fill="#8A4A26" fill-opacity="0.3" transform="translate(58.2 169.2) rotate(21.8) scale(0.9)"/><path d="M0 -3.4C2.2 -1.6 2.2 1.6 0 3.4C-2.2 1.6 -2.2 -1.6 0 -3.4Z" fill="#8A4A26" fill-opacity="0.3" transform="translate(669.2 217.4) rotate(87.7) scale(1.1)"/><path d="M0 -3.4C2.2 -1.6 2.2 1.6 0 3.4C-2.2 1.6 -2.2 -1.6 0 -3.4Z" fill="#B5652E" fill-opacity="0.3" transform="translate(754.8 241.2) rotate(168) scale(0.8)"/><path d="M0 -3.4C2.2 -1.6 2.2 1.6 0 3.4C-2.2 1.6 -2.2 -1.6 0 -3.4Z" fill="#8A4A26" fill-opacity="0.3" transform="translate(59.9 243.7) rotate(1.8) scale(1.1)"/><path d="M0 -3.4C2.2 -1.6 2.2 1.6 0 3.4C-2.2 1.6 -2.2 -1.6 0 -3.4Z" fill="#8A4A26" fill-opacity="0.3" transform="translate(13.2 251.6) rotate(239.7) scale(0.7)"/><path d="M0 -3.4C2.2 -1.6 2.2 1.6 0 3.4C-2.2 1.6 -2.2 -1.6 0 -3.4Z" fill="#B5652E" fill-opacity="0.4" transform="translate(114.1 200.9) rotate(328.5) scale(0.9)"/><path d="M0 -3.4C2.2 -1.6 2.2 1.6 0 3.4C-2.2 1.6 -2.2 -1.6 0 -3.4Z" fill="#C2893E" fill-opacity="0.3" transform="translate(280.8 150.5) rotate(297.8) scale(1.3)"/><path d="M0 -3.4C2.2 -1.6 2.2 1.6 0 3.4C-2.2 1.6 -2.2 -1.6 0 -3.4Z" fill="#9C5A2A" fill-opacity="0.4" transform="translate(599.2 79.4) rotate(10.5) scale(1.2)"/></svg>
