<svg xmlns="http://www.w3.org/2000/svg" width="900" height="210" viewBox="0 0 900 210"><defs><radialGradient id="moon" cx="0.42" cy="0.4" r="0.62"><stop offset="0" stop-color="#F2DCA8"/><stop offset="0.75" stop-color="#F2DCA8"/><stop offset="1" stop-color="#DDB06A"/></radialGradient><radialGradient id="ember"><stop offset="0" stop-color="#F09A3E" stop-opacity="0.55"/><stop offset="1" stop-color="#F09A3E" stop-opacity="0"/></radialGradient><linearGradient id="mist" x1="0" y1="0" x2="0" y2="1"><stop offset="0" stop-color="#B9B3D6" stop-opacity="0"/><stop offset="0.55" stop-color="#B9B3D6" stop-opacity="0.07"/><stop offset="1" stop-color="#B9B3D6" stop-opacity="0"/></linearGradient></defs><path d="M0 210L0 114.8L6 114.3L12 113.6L18 113L24 112.3L30 111.6L36 111L42 110.4L48 109.8L54 109.3L60 108.9L66 108.6L72 108.3L78 108.2L84 108.2L90 108.3L96 108.5L102 108.8L108 109.3L114 109.8L120 110.4L126 111.1L132 111.9L138 112.7L144 113.6L150 114.5L156 115.4L162 116.3L168 117.1L174 117.9L180 118.6L186 119.3L192 119.8L198 120.3L204 120.6L210 120.8L216 120.9L222 120.9L228 120.7L234 120.4L240 120L246 119.5L252 118.9L258 118.2L264 117.5L270 116.6L276 115.7L282 114.8L288 113.9L294 112.9L300 112L306 111.1L312 110.2L318 109.3L324 108.5L330 107.8L336 107.1L342 106.4L348 105.9L354 105.3L360 104.8L366 104.4L372 104L378 103.6L384 103.2L390 102.9L396 102.5L402 102.1L408 101.7L414 101.2L420 100.7L426 100.1L432 99.5L438 98.8L444 98L450 97.1L456 96.2L462 95.2L468 94.2L474 93.1L480 91.9L486 90.8L492 89.6L498 88.5L504 87.3L510 86.2L516 85.2L522 84.2L528 83.3L534 82.5L540 81.8L546 81.2L552 80.8L558 80.5L564 80.4L570 80.4L576 80.5L582 80.9L588 81.3L594 81.9L600 82.6L606 83.5L612 84.4L618 85.4L624 86.5L630 87.6L636 88.8L642 90L648 91.2L654 92.4L660 93.5L666 94.6L672 95.7L678 96.6L684 97.5L690 98.3L696 99.1L702 99.7L708 100.2L714 100.6L720 101L726 101.3L732 101.5L738 101.7L744 101.8L750 101.8L756 101.9L762 101.9L768 102L774 102.1L780 102.2L786 102.3L792 102.5L798 102.7L804 103L810 103.3L816 103.7L822 104.1L828 104.6L834 105.2L840 105.8L846 106.4L852 107L858 107.7L864 108.3L870 108.9L876 109.5L882 110.1L888 110.6L894 111L900 111.4L900 210L0 210Z" fill="#141127"/><g fill="none" stroke="#0C0A17" stroke-linecap="round"><g transform="translate(1271.1 0) scale(-1 1)"><path d="M635.5 90.7Q635.8 86.7 637.2 83.5" stroke-width="2.4"/><path d="M637.2 83.5Q638 79.9 638.4 76.8" stroke-width="1.6"/><path d="M638.4 76.8Q638.6 74.1 639.8 72" stroke-width="1.5"/><path d="M639.8 72Q640.7 69 637.5 66.1" stroke-width="1.1"/><path d="M637.5 66.1Q637.8 63.8 637.8 61.9" stroke-width="1"/><path d="M637.8 61.9Q638 59.8 639.4 58.3" stroke-width="0.7"/><path d="M639.4 58.3Q639.8 56.9 640.7 56" stroke-width="0.6"/><path d="M640.7 56Q641.5 54.6 640.8 52.9" stroke-width="0.4"/><path d="M640.8 52.9L642.5 50.5" stroke-width="0.6"/><path d="M640.8 52.9L641.6 50.6" stroke-width="0.6"/><path d="M640.8 52.9L641.9 50.6" stroke-width="0.6"/><path d="M639.4 58.3Q639.1 57 639.4 55.8" stroke-width="0.5"/><path d="M639.4 55.8Q639.4 54.6 637.8 54" stroke-width="0.3"/><path d="M637.8 54L636.8 52.3" stroke-width="0.6"/><path d="M637.8 54L636.9 52.8" stroke-width="0.6"/><path d="M637.8 54L637.1 52.5" stroke-width="0.6"/><path d="M639.4 58.3Q640.3 57.4 641.2 56.9" stroke-width="0.4"/><path d="M641.2 56.9Q641.9 56.3 642.5 56.1" stroke-width="0.3"/><path d="M642.5 56.1L643.7 55" stroke-width="0.6"/><path d="M642.5 56.1L643.4 55.1" stroke-width="0.6"/><path d="M642.5 56.1L643.9 55.5" stroke-width="0.6"/><path d="M637.5 66.1Q636.6 64.6 635.3 63.7" stroke-width="0.7"/><path d="M635.3 63.7Q634.4 62.6 634.5 61" stroke-width="0.5"/><path d="M634.5 61Q633.9 60.1 634 59.1" stroke-width="0.5"/><path d="M634 59.1Q633.7 58 631.9 57.8" stroke-width="0.3"/><path d="M631.9 57.8L631.1 55.7" stroke-width="0.6"/><path d="M631.9 57.8L630.8 57.2" stroke-width="0.6"/><path d="M631.9 57.8L630.1 56.8" stroke-width="0.6"/><path d="M634.5 61Q634.5 60.1 634.8 59.4" stroke-width="0.4"/><path d="M634.8 59.4Q634.9 58.3 634.8 57.4" stroke-width="0.2"/><path d="M634.8 57.4L635.5 55.7" stroke-width="0.6"/><path d="M634.8 57.4L634.6 55.7" stroke-width="0.6"/><path d="M634.8 57.4L634.4 56.1" stroke-width="0.6"/><path d="M638.4 76.8Q637.8 74.3 636.9 72.4" stroke-width="1.3"/><path d="M636.9 72.4Q636.2 70.6 635.8 69" stroke-width="0.9"/><path d="M635.8 69Q635.5 67.6 636.1 66.5" stroke-width="0.8"/><path d="M636.1 66.5Q636.4 64.8 635.2 63.4" stroke-width="0.6"/><path d="M635.2 63.4Q635.2 62.3 635.8 61.5" stroke-width="0.5"/><path d="M635.8 61.5Q636.1 60.5 635.6 59.5" stroke-width="0.3"/><path d="M635.6 59.5L635.6 58.3" stroke-width="0.6"/><path d="M635.6 59.5L636.5 58" stroke-width="0.6"/><path d="M635.6 59.5L635.7 57.4" stroke-width="0.6"/><path d="M635.2 63.4Q634.7 62.6 634.8 61.7" stroke-width="0.4"/><path d="M634.8 61.7Q634.7 60.8 633.4 60.4" stroke-width="0.3"/><path d="M633.4 60.4L633 58.7" stroke-width="0.6"/><path d="M633.4 60.4L633.1 58.6" stroke-width="0.6"/><path d="M633.4 60.4L632.2 59.3" stroke-width="0.6"/><path d="M635.8 69Q634.5 68 633.5 67.2" stroke-width="0.6"/><path d="M633.5 67.2Q632.6 66.4 631.7 66" stroke-width="0.4"/><path d="M631.7 66Q630.9 65.4 630 65.5" stroke-width="0.4"/><path d="M630 65.5Q629.1 65.2 629.3 63.4" stroke-width="0.3"/><path d="M629.3 63.4L627.9 62.8" stroke-width="0.6"/><path d="M629.3 63.4L628.5 62.6" stroke-width="0.6"/><path d="M629.3 63.4L628.4 61.8" stroke-width="0.6"/><path d="M638.4 76.8Q639.8 75.1 641.4 74" stroke-width="1.1"/><path d="M641.4 74Q642.5 73 642.2 71.1" stroke-width="0.7"/><path d="M642.2 71.1Q643.1 70 643.1 68.7" stroke-width="0.7"/><path d="M643.1 68.7Q643.6 67.5 646 68.1" stroke-width="0.5"/><path d="M646 68.1Q646.9 67.6 647.7 67.3" stroke-width="0.5"/><path d="M647.7 67.3Q648.6 67 649 66.1" stroke-width="0.3"/><path d="M649 66.1L650.4 65.7" stroke-width="0.6"/><path d="M649 66.1L650.8 65.8" stroke-width="0.6"/><path d="M649 66.1L650.1 65.2" stroke-width="0.6"/><path d="M642.2 71.1Q643.4 70.8 644.2 70" stroke-width="0.5"/><path d="M644.2 70Q645.2 69.5 646.4 70.6" stroke-width="0.4"/></g></g><g fill="none" stroke="#0C0A17" stroke-linecap="round"><g transform="translate(733.1 0) scale(-1 1)"><path d="M366.6 106.4Q366.8 101.9 369.1 98.7" stroke-width="2.4"/><path d="M369.1 98.7Q370.5 94.6 371.3 91.1" stroke-width="1.6"/><path d="M371.3 91.1Q372.9 88 373.2 85.1" stroke-width="1.6"/><path d="M373.2 85.1Q374.1 82.4 377.4 81.4" stroke-width="1.1"/><path d="M377.4 81.4Q379 79.4 380.1 77.7" stroke-width="1"/><path d="M380.1 77.7Q381.5 75.8 382.7 74.4" stroke-width="0.7"/><path d="M382.7 74.4Q384.1 73.1 384.9 71.8" stroke-width="0.6"/><path d="M384.9 71.8Q385.9 70.5 386.3 69.2" stroke-width="0.4"/><path d="M386.3 69.2L389 67.4" stroke-width="0.6"/><path d="M386.3 69.2L387.1 67.5" stroke-width="0.6"/><path d="M386.3 69.2L388.7 66.8" stroke-width="0.6"/><path d="M382.7 74.4Q383 73 382.5 71.8" stroke-width="0.5"/><path d="M382.5 71.8Q382.4 70.5 383.4 69.4" stroke-width="0.3"/><path d="M383.4 69.4L383.7 66.7" stroke-width="0.6"/><path d="M383.4 69.4L384.1 67.3" stroke-width="0.6"/><path d="M383.4 69.4L384.2 67.8" stroke-width="0.6"/><path d="M377.4 81.4Q377.1 79.3 376.6 77.6" stroke-width="0.7"/><path d="M376.6 77.6Q376.3 76.2 375.8 75" stroke-width="0.5"/><path d="M375.8 75Q375.2 73.6 374.8 72.3" stroke-width="0.5"/><path d="M374.8 72.3Q374.4 71.2 373.6 70.5" stroke-width="0.3"/><path d="M373.6 70.5L372.2 69.3" stroke-width="0.6"/><path d="M373.6 70.5L373.1 68.2" stroke-width="0.6"/><path d="M373.6 70.5L372.3 68.6" stroke-width="0.6"/><path d="M375.8 75Q375.1 74.1 374.5 73.5" stroke-width="0.4"/><path d="M374.5 73.5Q373.9 72.8 374 71.9" stroke-width="0.2"/><path d="M374 71.9L373.7 70.6" stroke-width="0.6"/><path d="M374 71.9L372.9 70.3" stroke-width="0.6"/><path d="M374 71.9L373.1 70.5" stroke-width="0.6"/><path d="M371.3 91.1Q372.9 89.4 374.9 88.9" stroke-width="1.2"/><path d="M374.9 88.9Q376.8 87.8 376 84.4" stroke-width="0.8"/><path d="M376 84.4Q377 83 377.6 81.7" stroke-width="0.7"/><path d="M377.6 81.7Q378.4 80.3 378.9 79.1" stroke-width="0.5"/><path d="M378.9 79.1Q379.4 77.9 380.6 77.4" stroke-width="0.5"/><path d="M380.6 77.4Q381.3 76.6 380.2 75" stroke-width="0.3"/><path d="M380.2 75L380.3 72.9" stroke-width="0.6"/><path d="M380.2 75L381.6 73.3" stroke-width="0.6"/><path d="M380.2 75L381 73.1" stroke-width="0.6"/><path d="M376 84.4Q377.2 83.8 378.2 83.3" stroke-width="0.5"/><path d="M378.2 83.3Q379.2 82.7 379.9 82" stroke-width="0.4"/><path d="M371.3 91.1Q370.2 89.1 369.2 87.4" stroke-width="1.1"/><path d="M369.2 87.4Q368.4 86 368.4 84.5" stroke-width="0.7"/><path d="M368.4 84.5Q368 83.1 368.1 81.8" stroke-width="0.7"/><path d="M368.1 81.8Q367.9 80.6 366.9 79.8" stroke-width="0.5"/><path d="M366.9 79.8Q366.7 78.7 366.8 77.7" stroke-width="0.5"/><path d="M366.8 77.7Q366.7 76.7 365.7 76.1" stroke-width="0.3"/><path d="M365.7 76.1L364.7 74.8" stroke-width="0.6"/><path d="M365.7 76.1L365.3 75" stroke-width="0.6"/><path d="M365.7 76.1L365.6 74.9" stroke-width="0.6"/><path d="M368.4 84.5Q368.9 83.4 369.1 82.4" stroke-width="0.6"/><path d="M369.1 82.4Q369.4 81.5 369.6 80.8" stroke-width="0.4"/></g></g><g fill="none" stroke="#0C0A17" stroke-linecap="round"><g transform="translate(1687.2 0) scale(-1 1)"><path d="M843.6 108.2Q843.8 105.6 843.8 103.5" stroke-width="2.4"/><path d="M843.8 103.5Q843.8 101.1 844.4 99.2" stroke-width="1.6"/><path d="M844.4 99.2Q844.9 97 846.2 95.4" stroke-width="1.5"/><path d="M846.2 95.4Q846.9 94 845.9 92.4" stroke-width="1"/><path d="M845.9 92.4Q846.3 90.9 845.7 89.6" stroke-width="1"/><path d="M845.7 89.6Q845.7 88.5 845.9 87.5" stroke-width="0.7"/><path d="M845.9 87.5Q845.9 86.5 846.1 85.6" stroke-width="0.6"/><path d="M846.1 85.6Q846.2 84.6 845.5 83.9" stroke-width="0.4"/><path d="M845.5 83.9L845.5 82.5" stroke-width="0.6"/><path d="M845.5 83.9L845.3 82" stroke-width="0.6"/><path d="M845.5 83.9L845.6 82.2" stroke-width="0.6"/><path d="M845.9 92.4Q846.7 91.9 847.3 91.5" stroke-width="0.8"/><path d="M847.3 91.5Q848.2 91 849.1 90.8" stroke-width="0.5"/><path d="M844.4 99.2Q845.3 97.8 846.2 96.8" stroke-width="1.2"/><path d="M846.2 96.8Q847 95.7 847 94.4" stroke-width="0.8"/><path d="M847 94.4Q847.6 93.4 848.4 92.9" stroke-width="0.7"/><path d="M848.4 92.9Q849.1 92 849.7 91.2" stroke-width="0.5"/><path d="M849.7 91.2Q850.2 90.6 850.5 90" stroke-width="0.5"/><path d="M850.5 90Q851 89.2 852.1 89.3" stroke-width="0.3"/><path d="M852.1 89.3L853 88.9" stroke-width="0.6"/><path d="M852.1 89.3L853.4 89" stroke-width="0.6"/><path d="M852.1 89.3L852.8 88.3" stroke-width="0.6"/><path d="M844.4 99.2Q845 98.4 845.6 97.7" stroke-width="1.1"/><path d="M845.6 97.7Q846.2 97 847 96.6" stroke-width="0.7"/></g></g><g fill="none" stroke="#0C0A17" stroke-linecap="round"><g transform="translate(1733.5 0) scale(-1 1)"><path d="M866.8 110.6Q866.9 107.2 868.2 104.6" stroke-width="2.4"/><path d="M868.2 104.6Q869 101.5 865.7 98.7" stroke-width="1.6"/><path d="M865.7 98.7Q865.7 96 864.2 94.1" stroke-width="1.5"/><path d="M864.2 94.1Q863.6 92.1 865.8 90.1" stroke-width="1"/><path d="M865.8 90.1Q865.7 88.5 864.7 87.3" stroke-width="0.9"/><path d="M864.7 87.3Q864.1 85.7 863.7 84.4" stroke-width="0.6"/><path d="M863.7 84.4Q863.2 83.1 862.9 82" stroke-width="0.6"/><path d="M862.9 82Q862.4 80.9 862.8 79.8" stroke-width="0.4"/><path d="M862.8 79.8L862.6 78.4" stroke-width="0.6"/><path d="M862.8 79.8L861.7 78.2" stroke-width="0.6"/><path d="M862.8 79.8L862.1 77.6" stroke-width="0.6"/><path d="M863.7 84.4Q862.8 83.7 862.1 83.1" stroke-width="0.4"/><path d="M862.1 83.1Q861.5 82.7 861.1 82.2" stroke-width="0.3"/><path d="M861.1 82.2L860 80.8" stroke-width="0.6"/><path d="M861.1 82.2L859.9 81.4" stroke-width="0.6"/><path d="M861.1 82.2L860 81" stroke-width="0.6"/><path d="M865.8 90.1Q864.9 89.3 864.1 88.7" stroke-width="0.7"/><path d="M864.1 88.7Q863 87.9 862 87.4" stroke-width="0.5"/><path d="M862 87.4Q861.3 86.8 860.5 86.7" stroke-width="0.4"/><path d="M860.5 86.7Q859.5 86.3 859.1 85.3" stroke-width="0.3"/><path d="M859.1 85.3L857.6 84.9" stroke-width="0.6"/><path d="M859.1 85.3L857.4 85" stroke-width="0.6"/><path d="M859.1 85.3L858.1 84.8" stroke-width="0.6"/><path d="M865.7 98.7Q866.8 97.4 866.7 95.8" stroke-width="1.1"/><path d="M866.7 95.8Q867.2 94.2 868.7 93.5" stroke-width="0.8"/><path d="M868.7 93.5Q869.4 92.2 869.3 90.9" stroke-width="0.7"/><path d="M869.3 90.9Q869.6 89.9 870.8 89.5" stroke-width="0.5"/><path d="M870.8 89.5Q871.3 88.7 871.7 88.1" stroke-width="0.4"/><path d="M871.7 88.1Q872.2 87.3 873 86.9" stroke-width="0.3"/><path d="M873 86.9L874.6 86" stroke-width="0.6"/><path d="M873 86.9L873.3 85.6" stroke-width="0.6"/><path d="M873 86.9L873.4 85.3" stroke-width="0.6"/><path d="M868.7 93.5Q869.6 93.3 870.4 93" stroke-width="0.6"/><path d="M870.4 93Q871.4 92.8 872.3 93" stroke-width="0.4"/></g></g><g fill="none" stroke="#0C0A17" stroke-linecap="round"><path d="M857.8 109.7Q857.3 106.2 855.3 103.8" stroke-width="2.4"/><path d="M855.3 103.8Q853.9 100.5 855.7 97" stroke-width="1.6"/><path d="M855.7 97Q855.2 94.8 855.6 92.9" stroke-width="1.6"/><path d="M855.6 92.9Q855.5 90.2 852 88.8" stroke-width="1.1"/><path d="M852 88.8Q851.2 86.9 851.7 85.2" stroke-width="1.1"/><path d="M851.7 85.2Q851.6 83.4 849.2 82.5" stroke-width="0.7"/><path d="M849.2 82.5Q848.6 81.2 848.1 80.2" stroke-width="0.7"/><path d="M848.1 80.2Q847.5 79 847.6 77.9" stroke-width="0.4"/><path d="M847.6 77.9L846.5 75.7" stroke-width="0.6"/><path d="M847.6 77.9L846.2 76.2" stroke-width="0.6"/><path d="M847.6 77.9L847.6 76.3" stroke-width="0.6"/><path d="M849.2 82.5Q849.3 81.5 849.9 80.7" stroke-width="0.6"/><path d="M849.9 80.7Q850.3 79.6 849.7 78.4" stroke-width="0.4"/><path d="M849.7 78.4L850.6 76.6" stroke-width="0.6"/><path d="M849.7 78.4L850.7 76.6" stroke-width="0.6"/><path d="M849.7 78.4L849.3 76.5" stroke-width="0.6"/><path d="M852 88.8Q850.8 87.9 850.4 86.6" stroke-width="0.8"/><path d="M850.4 86.6Q849.6 85.4 847.7 85.7" stroke-width="0.5"/><path d="M847.7 85.7Q846.9 85.2 846.6 84.4" stroke-width="0.5"/><path d="M846.6 84.4Q845.9 83.6 845.2 83.1" stroke-width="0.3"/><path d="M845.2 83.1L844.2 81.5" stroke-width="0.6"/><path d="M845.2 83.1L844.5 81.8" stroke-width="0.6"/><path d="M845.2 83.1L844.4 81.8" stroke-width="0.6"/><path d="M847.7 85.7Q846.7 85.6 845.9 85.8" stroke-width="0.4"/><path d="M845.9 85.8Q845.1 85.8 844.5 85.9" stroke-width="0.3"/><path d="M844.5 85.9L843.1 85.5" stroke-width="0.6"/><path d="M844.5 85.9L842.9 85.9" stroke-width="0.6"/><path d="M844.5 85.9L843 86.3" stroke-width="0.6"/><path d="M852 88.8Q850.8 88.2 850 87.5" stroke-width="0.7"/><path d="M850 87.5Q849.3 87 848.5 87" stroke-width="0.5"/><path d="M855.7 97Q854.3 95.4 853.4 93.9" stroke-width="1.2"/><path d="M853.4 93.9Q852.3 92.4 850.8 91.7" stroke-width="0.8"/><path d="M850.8 91.7Q850 90.6 849.1 89.9" stroke-width="0.8"/><path d="M849.1 89.9Q848.2 88.9 848.5 87.3" stroke-width="0.5"/><path d="M848.5 87.3Q848.1 86.4 848.5 85.6" stroke-width="0.5"/><path d="M848.5 85.6Q848.5 84.5 847.2 83.8" stroke-width="0.4"/><path d="M847.2 83.8L846.5 81.9" stroke-width="0.6"/><path d="M847.2 83.8L847.2 82.5" stroke-width="0.6"/><path d="M847.2 83.8L846.1 82.1" stroke-width="0.6"/><path d="M850.8 91.7Q850.7 90.6 851.3 89.7" stroke-width="0.6"/><path d="M851.3 89.7Q851.6 88.8 850.9 88" stroke-width="0.4"/></g><g fill="none" stroke="#0C0A17" stroke-linecap="round"><path d="M767.2 104Q767.1 100.6 768.8 98" stroke-width="2.4"/><path d="M768.8 98Q769.7 94.5 767.3 91.3" stroke-width="1.6"/><path d="M767.3 91.3Q767.6 89 768.1 87.1" stroke-width="1.5"/><path d="M768.1 87.1Q768.7 84.3 769.7 82.1" stroke-width="1"/><path d="M769.7 82.1Q770.4 80.1 772.2 79.1" stroke-width="0.9"/><path d="M772.2 79.1Q773.3 77.7 771.9 75.4" stroke-width="0.6"/><path d="M771.9 75.4Q772.5 74.2 772.3 72.9" stroke-width="0.6"/><path d="M772.3 72.9Q772.5 71.6 773.6 70.8" stroke-width="0.4"/><path d="M773.6 70.8L774.3 69.2" stroke-width="0.6"/><path d="M773.6 70.8L774.1 69.4" stroke-width="0.6"/><path d="M773.6 70.8L774.1 69.2" stroke-width="0.6"/><path d="M771.9 75.4Q773 74.8 773.6 73.9" stroke-width="0.4"/><path d="M773.6 73.9Q774.4 73.3 775.3 73" stroke-width="0.3"/><path d="M775.3 73L776.4 72.3" stroke-width="0.6"/><path d="M775.3 73L777 72.3" stroke-width="0.6"/><path d="M775.3 73L776.4 71.9" stroke-width="0.6"/><path d="M771.9 75.4Q772.8 74.9 773.7 75" stroke-width="0.4"/><path d="M773.7 75Q774.6 74.9 774.5 73" stroke-width="0.3"/><path d="M774.5 73L775.8 71.8" stroke-width="0.6"/><path d="M774.5 73L776.1 72.5" stroke-width="0.6"/><path d="M774.5 73L775.6 72.6" stroke-width="0.6"/><path d="M769.7 82.1Q771 81.4 771.8 80.6" stroke-width="0.8"/><path d="M771.8 80.6Q772.8 79.9 773.9 79.7" stroke-width="0.5"/><path d="M773.9 79.7Q774.9 79.2 775.2 78.1" stroke-width="0.5"/><path d="M775.2 78.1Q775.7 77.4 777.1 78" stroke-width="0.3"/><path d="M777.1 78L778.2 76.5" stroke-width="0.6"/><path d="M777.1 78L778.4 77.6" stroke-width="0.6"/><path d="M777.1 78L778.6 77.4" stroke-width="0.6"/><path d="M767.3 91.3Q765.9 89.6 764.5 88.4" stroke-width="1.1"/><path d="M764.5 88.4Q763.2 87 763.4 85" stroke-width="0.8"/><path d="M763.4 85Q762.4 84 761.8 82.9" stroke-width="0.8"/><path d="M761.8 82.9Q760.8 81.7 759.3 81.3" stroke-width="0.5"/><path d="M759.3 81.3Q758.3 80.5 757.5 79.8" stroke-width="0.5"/><path d="M757.5 79.8Q756.9 79.2 756.3 78.9" stroke-width="0.3"/><path d="M756.3 78.9L755 78.3" stroke-width="0.6"/><path d="M756.3 78.9L755 77.4" stroke-width="0.6"/><path d="M756.3 78.9L754.9 78" stroke-width="0.6"/><path d="M759.3 81.3Q758.4 81.2 757.9 80.5" stroke-width="0.4"/><path d="M757.9 80.5Q757 80.1 756 80.6" stroke-width="0.3"/><path d="M756 80.6L754.6 80.6" stroke-width="0.6"/><path d="M756 80.6L754.5 80.5" stroke-width="0.6"/><path d="M756 80.6L754.2 80.9" stroke-width="0.6"/><path d="M763.4 85Q763.5 84.1 763.9 83.4" stroke-width="0.6"/><path d="M763.9 83.4Q764.2 82.3 763.7 81.3" stroke-width="0.4"/></g><g fill="none" stroke="#0C0A17" stroke-linecap="round"><g transform="translate(718.3 0) scale(-1 1)"><path d="M359.2 106.9Q359.4 103.5 361.7 101.3" stroke-width="2.4"/><path d="M361.7 101.3Q363.4 97.6 359.2 93.3" stroke-width="1.6"/><path d="M359.2 93.3Q359.4 90.1 360.1 87.5" stroke-width="1.5"/><path d="M360.1 87.5Q360.5 85 358.1 83" stroke-width="1"/><path d="M358.1 83Q357.8 80.8 356.5 79.4" stroke-width="0.9"/><path d="M356.5 79.4Q355.7 77.7 357.1 75.8" stroke-width="0.6"/><path d="M357.1 75.8Q357.2 74.4 357.3 73.2" stroke-width="0.6"/><path d="M357.3 73.2Q357.4 71.9 357.2 70.8" stroke-width="0.4"/><path d="M357.2 70.8L358.2 68.6" stroke-width="0.6"/><path d="M357.2 70.8L357 68" stroke-width="0.6"/><path d="M357.2 70.8L358.1 68.5" stroke-width="0.6"/><path d="M357.1 75.8Q356.2 75.1 355.4 74.8" stroke-width="0.5"/><path d="M355.4 74.8Q354.5 74.3 354 73.6" stroke-width="0.3"/><path d="M354 73.6L353.1 72.2" stroke-width="0.6"/><path d="M354 73.6L352.9 72.3" stroke-width="0.6"/><path d="M354 73.6L352.7 72.2" stroke-width="0.6"/><path d="M358.1 83Q356.9 81.4 355.1 80.8" stroke-width="0.7"/><path d="M355.1 80.8Q354 80 353.8 78.5" stroke-width="0.5"/><path d="M353.8 78.5Q352.8 77.6 352.4 76.6" stroke-width="0.5"/><path d="M352.4 76.6Q351.7 75.8 350.1 76.4" stroke-width="0.3"/><path d="M350.1 76.4L349 75.5" stroke-width="0.6"/><path d="M350.1 76.4L348.7 75.8" stroke-width="0.6"/><path d="M350.1 76.4L348.7 76.3" stroke-width="0.6"/><path d="M353.8 78.5Q352.8 78.1 351.8 78.4" stroke-width="0.4"/><path d="M351.8 78.4Q351 78.4 350.3 77.8" stroke-width="0.3"/><path d="M350.3 77.8L348.8 76.9" stroke-width="0.6"/><path d="M350.3 77.8L348.7 77.8" stroke-width="0.6"/><path d="M350.3 77.8L348.9 76.9" stroke-width="0.6"/><path d="M359.2 93.3Q360.8 91.7 362.3 90.6" stroke-width="1.3"/><path d="M362.3 90.6Q363.6 89.4 363.8 87.7" stroke-width="0.9"/><path d="M363.8 87.7Q364.8 86.5 365.7 85.6" stroke-width="0.8"/><path d="M365.7 85.6Q366.5 84.7 366.7 83.6" stroke-width="0.6"/><path d="M366.7 83.6Q367.3 82.6 368.3 82.2" stroke-width="0.6"/><path d="M368.3 82.2Q369.1 81.6 369.3 80.8" stroke-width="0.4"/><path d="M369.3 80.8L371.2 80" stroke-width="0.6"/><path d="M369.3 80.8L370.2 79.9" stroke-width="0.6"/><path d="M369.3 80.8L370.1 79.9" stroke-width="0.6"/><path d="M363.8 87.7Q364.7 87.5 365.5 87.6" stroke-width="0.6"/><path d="M365.5 87.6Q366.6 87.6 367.4 87" stroke-width="0.4"/></g></g><g fill="none" stroke="#0C0A17" stroke-linecap="round"><path d="M551 82.9Q550.8 79.6 551.6 77" stroke-width="2.4"/><path d="M551.6 77Q551.9 74.6 551.9 72.5" stroke-width="1.6"/><path d="M551.9 72.5Q551.7 70.1 551 68.2" stroke-width="1.6"/><path d="M551 68.2Q550.6 66.3 549.9 64.8" stroke-width="1.1"/><path d="M549.9 64.8Q549.2 63.1 547.6 62.4" stroke-width="1"/><path d="M547.6 62.4Q546.6 61.3 548.3 59.1" stroke-width="0.7"/><path d="M548.3 59.1Q547.8 58 546.8 57.6" stroke-width="0.6"/><path d="M546.8 57.6Q546 56.7 547 55.1" stroke-width="0.4"/><path d="M547 55.1L546.5 54" stroke-width="0.6"/><path d="M547 55.1L546 53.1" stroke-width="0.6"/><path d="M547 55.1L547.1 53.7" stroke-width="0.6"/><path d="M548.3 59.1Q548.8 58.4 549 57.7" stroke-width="0.5"/><path d="M549 57.7Q549.4 56.8 550.6 56.7" stroke-width="0.3"/><path d="M550.6 56.7L551.7 56.2" stroke-width="0.6"/><path d="M550.6 56.7L551.9 55.6" stroke-width="0.6"/><path d="M550.6 56.7L551.3 55.4" stroke-width="0.6"/><path d="M549.9 64.8Q549.1 63.8 548.2 63.3" stroke-width="0.8"/><path d="M548.2 63.3Q547.1 62.4 546.7 61.1" stroke-width="0.5"/><path d="M546.7 61.1Q546.2 60.4 546.2 59.6" stroke-width="0.5"/><path d="M546.2 59.6Q545.8 58.7 544.5 58.5" stroke-width="0.3"/><path d="M544.5 58.5L543.4 57.7" stroke-width="0.6"/><path d="M544.5 58.5L543 57.4" stroke-width="0.6"/><path d="M544.5 58.5L543.7 57.2" stroke-width="0.6"/><path d="M549.9 64.8Q549.4 64.2 548.9 63.8" stroke-width="0.7"/><path d="M548.9 63.8Q548.2 63.1 547.4 62.7" stroke-width="0.5"/><path d="M551.9 72.5Q551.1 71.4 550.9 70.2" stroke-width="1.1"/><path d="M550.9 70.2Q550.3 68.7 548.5 68.2" stroke-width="0.7"/><path d="M548.5 68.2Q547.7 67.3 546.6 67.3" stroke-width="0.7"/><path d="M546.6 67.3Q545.7 66.9 545.7 65.4" stroke-width="0.5"/><path d="M548.5 68.2Q548.5 67.3 548.8 66.6" stroke-width="0.5"/><path d="M548.8 66.6Q548.9 65.8 548.5 65.1" stroke-width="0.3"/><path d="M551.9 72.5Q551.3 71.3 550.5 70.4" stroke-width="1.1"/><path d="M550.5 70.4Q549.8 69.5 550.4 68.1" stroke-width="0.7"/><path d="M550.4 68.1Q550.1 67.3 549.9 66.6" stroke-width="0.7"/><path d="M549.9 66.6Q549.6 65.7 549.2 65" stroke-width="0.5"/></g><g transform="translate(216 113.4) scale(1.1)" fill="#06050A"><path d="M0 0V-14L11 -22L22 -14V0Z"/><path d="M18 0V-26H26V0Z"/><path d="M17 -26L22 -31L27 -26Z"/><path d="M19.5 -31L22 -46L24.5 -31Z"/><rect x="21.4" y="-52" width="1.2" height="7"/><rect x="19.6" y="-50.4" width="4.8" height="1.1"/></g><path d="M138 124.9Q210 95.9 294 124.9Z" fill="#141127"/><rect x="0" y="79.8" width="900" height="84" fill="url(#mist)"/><path d="M0 210L0 175.2L6 174.9L12 174.6L18 174.1L24 173.6L30 173.1L36 172.5L42 171.9L48 171.3L54 170.7L60 170.2L66 169.6L72 169.1L78 168.7L84 168.4L90 168.1L96 167.9L102 167.9L108 167.9L114 168L120 168.2L126 168.4L132 168.8L138 169.3L144 169.8L150 170.4L156 171L162 171.6L168 172.3L174 173L180 173.7L186 174.4L192 175L198 175.6L204 176.2L210 176.7L216 177.2L222 177.6L228 177.9L234 178.2L240 178.4L246 178.6L252 178.7L258 178.7L264 178.7L270 178.7L276 178.6L282 178.5L288 178.5L294 178.4L300 178.3L306 178.3L312 178.3L318 178.3L324 178.4L330 178.5L336 178.6L342 178.8L348 179.1L354 179.4L360 179.7L366 180L372 180.4L378 180.8L384 181.2L390 181.6L396 181.9L402 182.3L408 182.5L414 182.8L420 182.9L426 183L432 182.9L438 182.8L444 182.5L450 182.2L456 181.7L462 181.1L468 180.4L474 179.6L480 178.7L486 177.7L492 176.6L498 175.4L504 174.2L510 172.9L516 171.6L522 170.2L528 168.9L534 167.5L540 166.2L546 165L552 163.7L558 162.6L564 161.5L570 160.5L576 159.6L582 158.8L588 158.1L594 157.5L600 157L606 156.6L612 156.3L618 156L624 155.9L630 155.8L636 155.7L642 155.7L648 155.8L654 155.8L660 155.9L666 156L672 156.1L678 156.1L684 156.1L690 156.1L696 156.1L702 156.1L708 156L714 155.8L720 155.7L726 155.5L732 155.3L738 155.1L744 154.8L750 154.6L756 154.4L762 154.2L768 154.1L774 154L780 153.9L786 153.9L792 154L798 154.2L804 154.4L810 154.7L816 155.1L822 155.6L828 156.2L834 156.8L840 157.5L846 158.3L852 159.1L858 159.9L864 160.8L870 161.7L876 162.5L882 163.4L888 164.2L894 165L900 165.8L900 210L0 210Z" fill="#06050A"/><g transform="translate(126 178) scale(1.5)" fill="#06050A" stroke="#06050A" stroke-linecap="round"><path d="M0 0Q30 -9 60 0L60 3Q30 -6 0 3Z" stroke="none"/><path d="M2 -5Q30 -14 58 -5" fill="none" stroke-width="1.3"/><path d="M4 -6.2V9" stroke-width="1.2"/><path d="M15 -10.8V1" stroke-width="1.2"/><path d="M30 -13V1" stroke-width="1.2"/><path d="M45 -10.8V1" stroke-width="1.2"/><path d="M56 -6.2V9" stroke-width="1.2"/></g><g stroke="#06050A" fill="none" stroke-linecap="round"><path d="M-59 159.8V167.3" stroke-width="1.6"/><path d="M-42 159.8V167.3" stroke-width="1.6"/><path d="M-25 159.8V167.3" stroke-width="1.6"/><path d="M-8 159.8V167.3" stroke-width="1.6"/><path d="M9 168.8V176.2" stroke-width="1.6"/><path d="M26 167.4V174.9" stroke-width="1.6"/><path d="M43 165.8V173.3" stroke-width="1.6"/><path d="M60 164.2V171.7" stroke-width="1.6"/><path d="M77 162.8V170.3" stroke-width="1.6"/><path d="M-59 159.8Q-50.5 160.7 -42 159.8Q-33.5 160.7 -25 159.8Q-16.5 160.7 -8 159.8Q0.5 165.2 9 168.8Q17.5 169 26 167.4Q34.5 167.5 43 165.8Q51.5 165.9 60 164.2Q68.5 164.4 77 162.8" stroke-width="1.2"/></g><g stroke="#06050A" fill="none" stroke-linecap="round"><path d="M173 166.9V174.4" stroke-width="1.6"/><path d="M190 168.8V176.3" stroke-width="1.6"/><path d="M207 170.4V177.9" stroke-width="1.6"/><path d="M173 166.9Q181.5 168.7 190 168.8Q198.5 170.5 207 170.4" stroke-width="1.2"/></g><g fill="none" stroke="#06050A" stroke-linecap="round"><path d="M313.2 181.3Q313.5 175.8 312.4 171.2" stroke-width="4.6"/><path d="M312.4 171.2Q311.9 164.6 314.6 159.5" stroke-width="3.1"/><path d="M314.6 159.5Q314.6 155.5 315.9 152.3" stroke-width="2.8"/><path d="M315.9 152.3Q316.7 148 312.4 144.6" stroke-width="1.9"/><path d="M312.4 144.6Q312 140.9 309.4 138.4" stroke-width="1.8"/><path d="M309.4 138.4Q308.2 136 309.9 133.3" stroke-width="1.2"/><path d="M309.9 133.3Q309.8 130.9 310.6 129" stroke-width="1.1"/><path d="M310.6 129Q310.9 126.8 309.6 125.1" stroke-width="0.7"/><path d="M309.6 125.1Q309.4 123.6 309.3 122.3" stroke-width="0.7"/><path d="M309.3 122.3Q309.1 120.7 308.7 119.5" stroke-width="0.5"/><path d="M308.7 119.5Q308.5 118.3 307.7 117.5" stroke-width="0.4"/><path d="M307.7 117.5Q307.2 116.5 307.6 115.5" stroke-width="0.3"/><path d="M307.6 115.5L306.6 114.3" stroke-width="0.6"/><path d="M307.6 115.5L306.7 113.3" stroke-width="0.6"/><path d="M307.6 115.5L307.2 114" stroke-width="0.6"/><path d="M309.6 125.1Q308.6 124.3 308.1 123.4" stroke-width="0.6"/><path d="M308.1 123.4Q307.4 122.5 306.2 122.3" stroke-width="0.4"/><path d="M306.2 122.3Q305.3 121.8 304.5 121.6" stroke-width="0.4"/><path d="M304.5 121.6Q303.8 121.3 303.3 120.8" stroke-width="0.3"/><path d="M303.3 120.8L302.1 120.4" stroke-width="0.6"/><path d="M303.3 120.8L302.3 120.5" stroke-width="0.6"/><path d="M303.3 120.8L302.2 120.6" stroke-width="0.6"/><path d="M309.6 125.1Q309.1 124.2 309.3 123.3" stroke-width="0.5"/><path d="M309.3 123.3Q309.2 122.4 308.2 122" stroke-width="0.3"/><path d="M309.9 133.3Q308.2 132.3 307.2 131" stroke-width="0.8"/><path d="M307.2 131Q305.8 129.8 303.6 131.1" stroke-width="0.6"/><path d="M303.6 131.1Q302.5 130.5 302.1 129.3" stroke-width="0.5"/><path d="M302.1 129.3Q301.1 128.2 299.3 128.5" stroke-width="0.4"/><path d="M299.3 128.5Q298.3 128 297.4 127.9" stroke-width="0.4"/><path d="M297.4 127.9Q296.6 127.6 296.3 126.6" stroke-width="0.2"/><path d="M296.3 126.6L295.3 126.1" stroke-width="0.6"/><path d="M296.3 126.6L295.3 126.2" stroke-width="0.6"/><path d="M296.3 126.6L295.5 125.3" stroke-width="0.6"/><path d="M303.6 131.1Q302.6 131.4 301.9 132.1" stroke-width="0.4"/><path d="M301.9 132.1Q300.9 132.7 299.6 132.3" stroke-width="0.3"/><path d="M312.4 144.6Q310.9 142.8 311 140.6" stroke-width="1.4"/><path d="M311 140.6Q310.2 138.3 308.3 137.2" stroke-width="0.9"/><path d="M308.3 137.2Q307.3 135.6 307.2 133.9" stroke-width="0.9"/><path d="M307.2 133.9Q306.6 132.4 304.6 132.1" stroke-width="0.6"/><path d="M304.6 132.1Q303.7 130.9 302.8 130.2" stroke-width="0.6"/><path d="M302.8 130.2Q302.1 129.4 301.4 129" stroke-width="0.4"/><path d="M301.4 129Q300.6 128.4 299.9 128" stroke-width="0.4"/><path d="M299.9 128Q299.3 127.6 298.9 127.1" stroke-width="0.2"/><path d="M298.9 127.1L297.8 126.8" stroke-width="0.6"/><path d="M298.9 127.1L297.8 126" stroke-width="0.6"/><path d="M298.9 127.1L297.5 126.7" stroke-width="0.6"/><path d="M304.6 132.1Q303.5 131.9 302.6 132" stroke-width="0.4"/><path d="M302.6 132Q301.5 131.9 300.7 132.2" stroke-width="0.3"/><path d="M308.3 137.2Q306.9 136.5 306.2 135.1" stroke-width="0.7"/><path d="M306.2 135.1Q305.4 134.2 303.7 134.8" stroke-width="0.5"/><path d="M303.7 134.8Q302.7 134.2 302 133.4" stroke-width="0.4"/><path d="M302 133.4Q301.2 132.9 300.3 132.9" stroke-width="0.3"/><path d="M308.3 137.2Q307.4 136.8 306.6 136.6" stroke-width="0.6"/><path d="M306.6 136.6Q305.6 136.3 305.3 135.2" stroke-width="0.4"/><path d="M312.4 144.6Q311 143.4 309.7 142.5" stroke-width="1.3"/><path d="M309.7 142.5Q308 141.1 306.6 140.1" stroke-width="0.9"/><path d="M306.6 140.1Q305.5 139 304.1 139" stroke-width="0.8"/><path d="M304.1 139Q302.8 138.4 302.8 136.4" stroke-width="0.5"/><path d="M302.8 136.4Q302 135.5 301.3 135" stroke-width="0.5"/><path d="M301.3 135Q300.5 134.2 299.7 133.7" stroke-width="0.3"/><path d="M302.8 136.4Q302.4 135.4 301.7 134.9" stroke-width="0.4"/><path d="M301.7 134.9Q301.2 134.2 301.5 133.4" stroke-width="0.2"/><path d="M306.6 140.1Q305.5 140.1 304.7 140.7" stroke-width="0.7"/><path d="M304.7 140.7Q303.6 141 302.5 140" stroke-width="0.5"/><path d="M314.6 159.5Q313.3 156.5 314.5 153.4" stroke-width="2.3"/><path d="M314.5 153.4Q314.4 150 310.3 148.3" stroke-width="1.6"/><path d="M310.3 148.3Q309.4 145.3 307.1 143.6" stroke-width="1.4"/><path d="M307.1 143.6Q305.9 141.9 306.7 139.7" stroke-width="1"/><path d="M306.7 139.7Q305.7 137.9 305.4 136.1" stroke-width="0.9"/><path d="M305.4 136.1Q304.9 134.5 304.3 133.3" stroke-width="0.6"/><path d="M304.3 133.3Q303.7 131.8 303.3 130.5" stroke-width="0.5"/><path d="M303.3 130.5Q302.8 129.2 301.8 128.6" stroke-width="0.4"/><path d="M304.3 133.3Q303.6 132.6 303 132.2" stroke-width="0.4"/><path d="M303 132.2Q302.2 131.5 301.5 131.1" stroke-width="0.3"/><path d="M306.7 139.7Q305.4 139.2 304.8 138.1" stroke-width="0.7"/><path d="M304.8 138.1Q303.8 137.3 302.2 138" stroke-width="0.5"/><path d="M302.2 138Q301.3 137.5 301 136.6" stroke-width="0.5"/><path d="M301 136.6Q300.4 135.8 299.3 135.8" stroke-width="0.3"/><path d="M306.7 139.7Q306.8 138.5 307.7 137.7" stroke-width="0.6"/><path d="M307.7 137.7Q308.2 136.6 307.3 135.4" stroke-width="0.4"/><path d="M307.3 135.4Q307.4 134.6 307.5 133.9" stroke-width="0.4"/><path d="M307.5 133.9Q307.7 133 307.3 132.3" stroke-width="0.3"/><path d="M310.3 148.3Q308.6 147.1 306.6 147.4" stroke-width="1.2"/><path d="M306.6 147.4Q304.5 146.9 303.6 144.8" stroke-width="0.8"/><path d="M303.6 144.8Q302.2 144.1 300.8 144.3" stroke-width="0.8"/><path d="M300.8 144.3Q299.3 144.1 298.4 143" stroke-width="0.6"/><path d="M298.4 143Q297.2 142.4 296.4 141.8" stroke-width="0.5"/><path d="M296.4 141.8Q295.5 141.2 294.6 141.1" stroke-width="0.4"/><path d="M294.6 141.1Q293.8 140.5 293.6 139.4" stroke-width="0.4"/><path d="M293.6 139.4Q293.2 138.8 291.6 140" stroke-width="0.2"/><path d="M291.6 140L290.7 139.6" stroke-width="0.6"/><path d="M291.6 140L290.4 139.9" stroke-width="0.6"/><path d="M291.6 140L290.1 140" stroke-width="0.6"/><path d="M303.6 144.8Q302.6 144.9 301.7 144.3" stroke-width="0.6"/><path d="M301.7 144.3Q300.5 144 299.5 145.8" stroke-width="0.4"/><path d="M299.5 145.8Q298.7 146.1 298.3 146.9" stroke-width="0.4"/><path d="M298.3 146.9Q297.7 147.5 296.3 146.6" stroke-width="0.3"/><path d="M303.6 144.8Q303 144 302.6 143.2" stroke-width="0.5"/><path d="M302.6 143.2Q302.2 142.5 301.6 142.1" stroke-width="0.4"/></g><g fill="none" stroke="#06050A" stroke-linecap="round"><g transform="translate(1556.9 0) scale(-1 1)"><path d="M778.5 156.9Q778.8 150.9 780.9 146.3" stroke-width="4.6"/><path d="M780.9 146.3Q782.4 139.6 778 134" stroke-width="3.1"/><path d="M778 134Q778.5 129.3 781.8 126.3" stroke-width="3.1"/><path d="M781.8 126.3Q783.8 122.3 777.1 117.7" stroke-width="2.1"/><path d="M777.1 117.7Q776.6 114.2 774.7 111.7" stroke-width="1.9"/><path d="M774.7 111.7Q773.3 108.4 775.1 105.2" stroke-width="1.3"/><path d="M775.1 105.2Q774.9 102.7 773.2 101" stroke-width="1.1"/><path d="M773.2 101Q772.2 98.7 774 96.1" stroke-width="0.8"/><path d="M774 96.1Q773.8 94 774.3 92.3" stroke-width="0.8"/><path d="M774.3 92.3Q774.4 90.8 773.3 89.7" stroke-width="0.5"/><path d="M773.3 89.7Q773.2 88.2 773.2 87" stroke-width="0.5"/><path d="M773.2 87Q773.1 85.7 773.4 84.8" stroke-width="0.3"/><path d="M773.4 84.8L774.1 83.1" stroke-width="0.6"/><path d="M773.4 84.8L773.4 82.3" stroke-width="0.6"/><path d="M773.4 84.8L774 82.4" stroke-width="0.6"/><path d="M773.3 89.7Q772.7 88.9 772.3 88.1" stroke-width="0.4"/><path d="M772.3 88.1Q771.7 87.1 770.8 86.7" stroke-width="0.3"/><path d="M770.8 86.7L769.5 85.1" stroke-width="0.6"/><path d="M770.8 86.7L769.2 85.2" stroke-width="0.6"/><path d="M770.8 86.7L770.4 85.5" stroke-width="0.6"/><path d="M774 96.1Q774.5 94.8 774.5 93.6" stroke-width="0.6"/><path d="M774.5 93.6Q774.8 92 775.1 90.7" stroke-width="0.4"/><path d="M775.1 90.7Q775.4 89.5 775.7 88.5" stroke-width="0.4"/><path d="M775.7 88.5Q775.9 87.6 776.6 87.1" stroke-width="0.2"/><path d="M776.6 87.1L777.3 85.9" stroke-width="0.6"/><path d="M776.6 87.1L777.1 85.6" stroke-width="0.6"/><path d="M776.6 87.1L777.1 85.1" stroke-width="0.6"/><path d="M775.1 105.2Q775.7 102.9 776.6 101.2" stroke-width="0.8"/><path d="M776.6 101.2Q777.3 99.3 777.4 97.7" stroke-width="0.6"/><path d="M777.4 97.7Q778 96 777.8 94.4" stroke-width="0.5"/><path d="M777.8 94.4Q777.9 93 779.4 92.3" stroke-width="0.3"/><path d="M777.4 97.7Q776.9 96.5 777.2 95.4" stroke-width="0.4"/><path d="M777.2 95.4Q777.1 94.3 775.1 94" stroke-width="0.3"/><path d="M775.1 105.2Q776 103.6 777.6 103.1" stroke-width="0.8"/><path d="M777.6 103.1Q778.6 102.2 777 99.9" stroke-width="0.6"/><path d="M777 99.9Q777.2 98.8 777.7 97.9" stroke-width="0.5"/><path d="M777.7 97.9Q778 96.8 778 95.9" stroke-width="0.4"/><path d="M777 99.9Q777.7 99.6 778.4 99.5" stroke-width="0.4"/><path d="M778.4 99.5Q779.2 99.3 779.6 98.4" stroke-width="0.3"/><path d="M777.1 117.7Q775.4 116 774.2 114.3" stroke-width="1.5"/><path d="M774.2 114.3Q772.7 112.5 770.3 112.5" stroke-width="1"/><path d="M770.3 112.5Q768.6 111.5 767 111.2" stroke-width="1"/><path d="M767 111.2Q765.6 110.6 764.8 109.6" stroke-width="0.7"/><path d="M764.8 109.6Q763.8 108.9 762.8 108.8" stroke-width="0.6"/><path d="M762.8 108.8Q761.6 108.4 761.4 106.8" stroke-width="0.4"/><path d="M761.4 106.8Q760.8 106 760.8 105.1" stroke-width="0.4"/><path d="M760.8 105.1Q760.6 104.3 759.1 104.5" stroke-width="0.3"/><path d="M759.1 104.5L757.9 103.3" stroke-width="0.6"/><path d="M759.1 104.5L757.9 103.3" stroke-width="0.6"/><path d="M759.1 104.5L757.7 103.8" stroke-width="0.6"/><path d="M764.8 109.6Q764.4 108.7 764.8 107.9" stroke-width="0.5"/><path d="M764.8 107.9Q764.8 106.8 763.2 106.3" stroke-width="0.3"/><path d="M770.3 112.5Q769.7 111.5 768.7 111.1" stroke-width="0.8"/><path d="M768.7 111.1Q767.8 110.2 768.4 108.6" stroke-width="0.6"/><path d="M768.4 108.6Q768.1 107.8 768.6 107" stroke-width="0.5"/><path d="M768.6 107Q768.7 106.1 767.2 105.5" stroke-width="0.4"/><path d="M778 134Q776.2 131.2 774.8 128.9" stroke-width="2.3"/><path d="M774.8 128.9Q772.7 125.5 772.1 122.4" stroke-width="1.6"/><path d="M772.1 122.4Q771.4 120 769.5 118.7" stroke-width="1.6"/><path d="M769.5 118.7Q767.7 116.3 768.3 113.3" stroke-width="1.1"/><path d="M768.3 113.3Q767.6 111.7 768 110.1" stroke-width="1"/><path d="M768 110.1Q767.7 107.8 764.8 107.1" stroke-width="0.7"/><path d="M764.8 107.1Q764.3 105.5 763.9 104.2" stroke-width="0.6"/><path d="M763.9 104.2Q763.6 103.1 763.5 102.2" stroke-width="0.4"/><path d="M763.5 102.2Q763.1 101.2 762.6 100.5" stroke-width="0.4"/><path d="M762.6 100.5Q762.1 99.6 762.1 98.6" stroke-width="0.3"/><path d="M762.1 98.6L761.2 97.8" stroke-width="0.6"/><path d="M762.1 98.6L762 97" stroke-width="0.6"/><path d="M762.1 98.6L762 97.2" stroke-width="0.6"/><path d="M764.8 107.1Q763.9 106.6 763.6 105.5" stroke-width="0.5"/><path d="M763.6 105.5Q762.8 104.6 760.9 106" stroke-width="0.4"/><path d="M768.3 113.3Q766.8 112.7 765.4 112.9" stroke-width="0.8"/><path d="M765.4 112.9Q764.2 112.7 763.6 111.5" stroke-width="0.6"/><path d="M763.6 111.5Q762.4 111.3 761.3 111.8" stroke-width="0.5"/><path d="M761.3 111.8Q760.4 111.9 759.7 110.8" stroke-width="0.4"/><path d="M763.6 111.5Q762.6 111.9 761.8 111.5" stroke-width="0.4"/><path d="M761.8 111.5Q761.1 111.6 760.7 112.5" stroke-width="0.3"/><path d="M772.1 122.4Q772 120.4 772.8 118.9" stroke-width="1.1"/><path d="M772.8 118.9Q773.2 116.7 772.8 115" stroke-width="0.8"/><path d="M772.8 115Q773.3 113.2 773.2 111.7" stroke-width="0.7"/><path d="M773.2 111.7Q773.3 110.4 774 109.6" stroke-width="0.5"/><path d="M774 109.6Q774 108.4 773.4 107.5" stroke-width="0.4"/><path d="M773.4 107.5Q773.1 106.3 773.2 105.4" stroke-width="0.3"/><path d="M774 109.6Q773.6 108.7 772.6 108.3" stroke-width="0.4"/><path d="M772.6 108.3Q772.1 107.8 772.7 106.7" stroke-width="0.2"/><path d="M772.8 115Q773.8 114.2 774 113" stroke-width="0.5"/><path d="M774 113Q774.6 112 776.6 112.9" stroke-width="0.4"/><path d="M772.1 122.4Q772.5 120.7 771.8 119.2" stroke-width="1"/><path d="M771.8 119.2Q771.6 117.8 774.5 117.3" stroke-width="0.7"/><path d="M774.5 117.3Q774.8 116 774.9 114.9" stroke-width="0.7"/><path d="M774.9 114.9Q775.1 114 775.7 113.5" stroke-width="0.4"/><path d="M775.7 113.5Q776 112.5 775.6 111.7" stroke-width="0.4"/><path d="M775.6 111.7Q775.6 111 776 110.5" stroke-width="0.3"/></g></g><g fill="none" stroke="#06050A" stroke-linecap="round"><g transform="translate(1127.6 0) scale(-1 1)"><path d="M563.8 164.5Q562.9 157 560.6 151.1" stroke-width="4.6"/><path d="M560.6 151.1Q558.7 143.3 563 136.7" stroke-width="3.1"/><path d="M563 136.7Q563.4 130.4 566.4 125.8" stroke-width="3"/><path d="M566.4 125.8Q568.1 120.2 567.2 115.4" stroke-width="2"/><path d="M567.2 115.4Q568.5 111.5 570.5 108.6" stroke-width="1.9"/><path d="M570.5 108.6Q572.6 104.5 575.1 101.9" stroke-width="1.3"/><path d="M575.1 101.9Q576.9 99.7 579.1 98.6" stroke-width="1.2"/><path d="M579.1 98.6Q581.8 96.4 582.8 93.8" stroke-width="0.8"/><path d="M582.8 93.8Q584.4 92.2 585.9 91.1" stroke-width="0.7"/><path d="M585.9 91.1Q587.9 89.4 588.8 87.6" stroke-width="0.5"/><path d="M588.8 87.6Q590.1 86.2 590.1 84.4" stroke-width="0.5"/><path d="M590.1 84.4Q590.7 83 591.9 82.3" stroke-width="0.3"/><path d="M591.9 82.3L592.7 80.4" stroke-width="0.6"/><path d="M591.9 82.3L593.1 79.7" stroke-width="0.6"/><path d="M591.9 82.3L593 79.8" stroke-width="0.6"/><path d="M588.8 87.6Q590.3 87.3 591.5 87.8" stroke-width="0.4"/><path d="M591.5 87.8Q592.8 87.9 593.8 86.5" stroke-width="0.3"/><path d="M593.8 86.5L595.6 86.7" stroke-width="0.6"/><path d="M593.8 86.5L595.1 85.6" stroke-width="0.6"/><path d="M593.8 86.5L596.1 85.6" stroke-width="0.6"/><path d="M582.8 93.8Q583 92 584.4 91" stroke-width="0.6"/><path d="M584.4 91Q585.1 89.7 584.4 88.2" stroke-width="0.4"/><path d="M584.4 88.2Q584.7 86.8 585.8 86" stroke-width="0.4"/><path d="M585.8 86Q586.3 85.2 585.5 84" stroke-width="0.3"/><path d="M585.5 84L586 82.5" stroke-width="0.6"/><path d="M585.5 84L585.5 81.6" stroke-width="0.6"/><path d="M585.5 84L585.4 82.6" stroke-width="0.6"/><path d="M575.1 101.9Q575.1 99.1 574.2 96.9" stroke-width="0.9"/><path d="M574.2 96.9Q573.9 94.6 575.8 92.9" stroke-width="0.6"/><path d="M575.8 92.9Q576.2 91.2 577.4 90.2" stroke-width="0.5"/><path d="M577.4 90.2Q578.5 88.5 576 86.1" stroke-width="0.4"/><path d="M575.8 92.9Q575.1 91.3 575.5 89.8" stroke-width="0.4"/><path d="M575.5 89.8Q575.5 88.6 574 88.1" stroke-width="0.3"/><path d="M575.1 101.9Q575.3 99.9 576.9 98.6" stroke-width="0.8"/><path d="M576.9 98.6Q577.7 97.2 574.8 95.4" stroke-width="0.6"/><path d="M574.8 95.4Q574.5 94.1 574 93.1" stroke-width="0.6"/><path d="M574 93.1Q573.6 91.8 574.4 90.6" stroke-width="0.4"/><path d="M574.4 90.6Q574.2 89.6 574.5 88.7" stroke-width="0.4"/><path d="M574.5 88.7Q574.5 87.8 574.3 87.1" stroke-width="0.3"/><path d="M574.3 87.1L574.2 85.4" stroke-width="0.6"/><path d="M574.3 87.1L574.7 86" stroke-width="0.6"/><path d="M574.3 87.1L574.5 86" stroke-width="0.6"/><path d="M574.8 95.4Q575.6 94.6 576.4 94.1" stroke-width="0.5"/><path d="M576.4 94.1Q577.2 93.6 577.6 93" stroke-width="0.3"/><path d="M567.2 115.4Q566.4 112.3 566.8 109.6" stroke-width="1.5"/><path d="M566.8 109.6Q566.6 106.3 564.7 104.1" stroke-width="1"/><path d="M564.7 104.1Q564.4 101.6 562.7 99.9" stroke-width="0.9"/><path d="M562.7 99.9Q561.8 98 565.1 95.8" stroke-width="0.6"/><path d="M565.1 95.8Q565.5 94 565 92.5" stroke-width="0.6"/><path d="M565 92.5Q564.9 91.1 566.3 90.2" stroke-width="0.4"/><path d="M566.3 90.2Q566.7 89.1 566.6 88.1" stroke-width="0.4"/><path d="M566.6 88.1Q566.7 87.1 568 86.6" stroke-width="0.3"/><path d="M568 86.6L568.1 84.6" stroke-width="0.6"/><path d="M568 86.6L568.4 84.8" stroke-width="0.6"/><path d="M568 86.6L568.1 85.2" stroke-width="0.6"/><path d="M565.1 95.8Q564.3 94.9 563.2 94.5" stroke-width="0.4"/><path d="M563.2 94.5Q562.4 93.9 562.3 92.7" stroke-width="0.3"/><path d="M564.7 104.1Q565.5 102.3 567.2 101.5" stroke-width="0.8"/><path d="M567.2 101.5Q568.2 100.4 566.7 98.3" stroke-width="0.5"/><path d="M566.7 98.3Q567.1 96.8 567.7 95.6" stroke-width="0.5"/><path d="M567.7 95.6Q568.1 94.6 568.6 93.9" stroke-width="0.3"/><path d="M566.7 98.3Q567.6 97.6 568.3 97.1" stroke-width="0.4"/><path d="M568.3 97.1Q569.1 96.6 569.6 96.1" stroke-width="0.3"/><path d="M566.7 98.3Q567.4 97.6 568.3 97.6" stroke-width="0.4"/><path d="M568.3 97.6Q569 97.4 568.9 96.3" stroke-width="0.2"/><path d="M563 136.7Q565.5 133 568.8 131.2" stroke-width="2.3"/><path d="M568.8 131.2Q571.5 128.6 568.9 123.4" stroke-width="1.5"/><path d="M568.9 123.4Q570.3 120 572.6 117.8" stroke-width="1.4"/><path d="M572.6 117.8Q574.1 115.6 575.1 113.9" stroke-width="0.9"/><path d="M575.1 113.9Q576.6 112.1 576.7 110" stroke-width="0.9"/><path d="M576.7 110Q577.6 107.7 579.8 106.8" stroke-width="0.6"/><path d="M579.8 106.8Q581.1 105 583 104.6" stroke-width="0.6"/><path d="M583 104.6Q584.2 103.7 583.8 101.7" stroke-width="0.4"/><path d="M583.8 101.7Q584.7 100.7 584.7 99.5" stroke-width="0.4"/><path d="M584.7 99.5Q585.2 98.1 588 99" stroke-width="0.2"/><path d="M588 99L590.1 98.6" stroke-width="0.6"/><path d="M588 99L589.3 98.3" stroke-width="0.6"/><path d="M588 99L590.3 98.5" stroke-width="0.6"/><path d="M579.8 106.8Q581.2 106.1 582.7 106.1" stroke-width="0.4"/><path d="M582.7 106.1Q583.9 105.8 584.6 104.8" stroke-width="0.3"/><path d="M575.1 113.9Q574.9 111.8 575.9 110.2" stroke-width="0.6"/><path d="M575.9 110.2Q576.3 108.6 573.5 107.4" stroke-width="0.4"/><path d="M573.5 107.4Q573.1 106.1 573 105.1" stroke-width="0.4"/><path d="M573 105.1Q572.7 103.6 572.3 102.6" stroke-width="0.3"/><path d="M568.9 123.4Q568.7 120.8 568 118.6" stroke-width="1.2"/><path d="M568 118.6Q567.6 116.7 569.3 115.1" stroke-width="0.8"/><path d="M569.3 115.1Q569.5 113.6 569.2 112.3" stroke-width="0.8"/><path d="M569.2 112.3Q569.2 110.4 569.6 109" stroke-width="0.5"/><path d="M569.6 109Q569.7 107.8 569.6 106.8" stroke-width="0.5"/><path d="M569.6 106.8Q569.6 105.6 570.5 104.8" stroke-width="0.3"/><path d="M569.6 109Q570.1 108.2 570.5 107.4" stroke-width="0.4"/><path d="M570.5 107.4Q570.9 106.6 571.1 105.9" stroke-width="0.3"/><path d="M569.3 115.1Q568.4 113.9 567.9 112.8" stroke-width="0.6"/><path d="M567.9 112.8Q567.3 111.8 567.2 111" stroke-width="0.4"/><path d="M567.2 111Q566.8 110 566.8 109.1" stroke-width="0.4"/><path d="M566.8 109.1Q566.6 108.2 565.8 107.8" stroke-width="0.2"/><path d="M563 136.7Q561.3 133.6 560.5 130.7" stroke-width="2.1"/><path d="M560.5 130.7Q558.9 126.9 554.2 126.1" stroke-width="1.4"/><path d="M554.2 126.1Q552.3 124.4 551.5 122.4" stroke-width="1.3"/><path d="M551.5 122.4Q549.8 120 547.6 118.8" stroke-width="0.9"/><path d="M547.6 118.8Q546.5 117.3 546.8 115.6" stroke-width="0.8"/><path d="M546.8 115.6Q546.2 113.5 544.6 112.3" stroke-width="0.6"/><path d="M544.6 112.3Q543.9 110.7 543.6 109.3" stroke-width="0.6"/><path d="M543.6 109.3Q543.3 108.1 541.4 108.1" stroke-width="0.4"/><path d="M541.4 108.1Q540.6 107.3 540.1 106.6" stroke-width="0.4"/><path d="M540.1 106.6Q539.4 105.7 538.4 105.5" stroke-width="0.2"/><path d="M538.4 105.5L536.8 104.9" stroke-width="0.6"/><path d="M538.4 105.5L537.1 104.6" stroke-width="0.6"/><path d="M538.4 105.5L537.3 104.8" stroke-width="0.6"/><path d="M544.6 112.3Q543.5 111.8 542.5 111.9" stroke-width="0.4"/><path d="M542.5 111.9Q541.3 111.7 540.6 110.6" stroke-width="0.3"/><path d="M547.6 118.8Q546.1 118.5 544.9 118.3" stroke-width="0.7"/><path d="M544.9 118.3Q543.2 118 541.8 117.7" stroke-width="0.4"/><path d="M541.8 117.7Q540.6 117.2 539.4 117.6" stroke-width="0.4"/><path d="M539.4 117.6Q538.3 117.6 537.7 116" stroke-width="0.3"/><path d="M554.2 126.1Q554.4 123.6 553.9 121.6" stroke-width="1.1"/><path d="M553.9 121.6Q553.8 119.9 553.9 118.7" stroke-width="0.8"/><path d="M553.9 118.7Q553.9 117 553.5 115.7" stroke-width="0.7"/><path d="M553.5 115.7Q553.3 114.2 553.1 113.1" stroke-width="0.5"/><path d="M553.1 113.1Q553.1 112.1 552.5 111.4" stroke-width="0.4"/><path d="M552.5 111.4Q552.1 110.3 552.2 109.3" stroke-width="0.3"/><path d="M553.9 118.7Q554.4 117.6 555.5 117.2" stroke-width="0.6"/><path d="M555.5 117.2Q556.1 116.5 555.5 115.2" stroke-width="0.4"/><path d="M555.5 115.2Q555.9 114.5 556.3 113.9" stroke-width="0.4"/><path d="M556.3 113.9Q556.7 113.2 556.9 112.6" stroke-width="0.3"/><path d="M553.9 118.7Q553.4 118 553.3 117.2" stroke-width="0.5"/><path d="M553.3 117.2Q553 116.5 552.5 116.1" stroke-width="0.3"/></g></g><g fill="none" stroke="#06050A" stroke-linecap="round"><g transform="translate(1080 0) scale(-1 1)"><path d="M540 169.2Q541.3 161.3 541.8 154.8" stroke-width="4.2"/><path d="M541.8 154.8Q542.7 147.4 548.7 144" stroke-width="2.9"/><path d="M548.7 144Q550.3 139 551.7 134.9" stroke-width="2.6"/><path d="M551.7 134.9Q553.7 129.1 557.1 126.1" stroke-width="1.8"/><path d="M557.1 126.1Q558.7 121.7 561.2 118.7" stroke-width="1.7"/><path d="M561.2 118.7Q562.7 115.9 564.9 114.9" stroke-width="1.2"/><path d="M564.9 114.9Q566.5 112.6 566.1 110" stroke-width="1.1"/><path d="M566.1 110Q566.9 107 569.8 106.1" stroke-width="0.7"/><path d="M569.8 106.1Q570.6 104.1 571.1 102.3" stroke-width="0.7"/><path d="M571.1 102.3Q571.7 100.6 572.6 99.8" stroke-width="0.5"/><path d="M572.6 99.8Q573.3 98.2 573.3 96.8" stroke-width="0.4"/><path d="M573.3 96.8Q573.6 95.5 575.9 95.8" stroke-width="0.3"/><path d="M575.9 95.8L577.4 94.4" stroke-width="0.6"/><path d="M575.9 95.8L576.7 93.9" stroke-width="0.6"/><path d="M575.9 95.8L576.6 93.2" stroke-width="0.6"/><path d="M572.6 99.8Q572.4 98.5 572.9 97.5" stroke-width="0.4"/><path d="M572.9 97.5Q573 96.6 572 96.1" stroke-width="0.2"/><path d="M572 96.1L571.5 94" stroke-width="0.6"/><path d="M572 96.1L571.6 94.9" stroke-width="0.6"/><path d="M572 96.1L571.9 94.1" stroke-width="0.6"/><path d="M569.8 106.1Q571.1 105.1 571.5 103.6" stroke-width="0.6"/><path d="M571.5 103.6Q572.7 102.1 574.1 101.5" stroke-width="0.4"/><path d="M574.1 101.5Q575 100.7 575.6 100" stroke-width="0.4"/><path d="M575.6 100Q576.6 99.1 577.7 98.9" stroke-width="0.2"/><path d="M577.7 98.9L579 98.2" stroke-width="0.6"/><path d="M577.7 98.9L578.9 97.9" stroke-width="0.6"/><path d="M577.7 98.9L579.3 97.1" stroke-width="0.6"/><path d="M564.9 114.9Q567.2 114.2 568.7 112.8" stroke-width="0.8"/><path d="M568.7 112.8Q570.8 111.6 573.2 112.5" stroke-width="0.6"/><path d="M573.2 112.5Q574.7 111.7 575.6 110.4" stroke-width="0.5"/><path d="M575.6 110.4Q576.9 109.4 578.5 109.7" stroke-width="0.4"/><path d="M573.2 112.5Q574.7 112.8 576 112.3" stroke-width="0.4"/><path d="M576 112.3Q577.3 112.2 578 114.8" stroke-width="0.3"/><path d="M557.1 126.1Q557 123.3 557.1 121" stroke-width="1.2"/><path d="M557.1 121Q557.1 118 556.8 116.2" stroke-width="0.8"/><path d="M556.8 116.2Q557.1 114.2 556.7 112.7" stroke-width="0.7"/><path d="M556.7 112.7Q556.6 110.5 556.6 109.2" stroke-width="0.5"/><path d="M556.6 109.2Q556.5 107.5 556.1 106.2" stroke-width="0.4"/><path d="M556.1 106.2Q555.8 104.9 557.3 104.1" stroke-width="0.3"/><path d="M556.6 109.2Q556.1 108.1 555.4 107.3" stroke-width="0.4"/><path d="M555.4 107.3Q554.8 106.5 554.5 105.8" stroke-width="0.3"/><path d="M556.8 116.2Q558.1 114.8 559.3 113.9" stroke-width="0.7"/><path d="M559.3 113.9Q560.5 112.8 560.9 111.7" stroke-width="0.4"/><path d="M560.9 111.7Q561.8 110.9 562.9 110.9" stroke-width="0.4"/><path d="M562.9 110.9Q564 110.4 563.8 108.7" stroke-width="0.3"/><path d="M548.7 144Q551.7 140.5 552.4 136.4" stroke-width="2"/><path d="M552.4 136.4Q554.3 132.5 561 134.2" stroke-width="1.3"/><path d="M561 134.2Q564.2 132.2 565.8 129.4" stroke-width="1.3"/><path d="M565.8 129.4Q567.7 127.5 571.5 129.7" stroke-width="0.9"/><path d="M571.5 129.7Q574 128.9 575.8 127.6" stroke-width="0.8"/><path d="M575.8 127.6Q577.5 126.8 579.3 127.3" stroke-width="0.6"/><path d="M579.3 127.3Q581 126.9 582.1 126.1" stroke-width="0.6"/><path d="M582.1 126.1Q583.8 125.5 585.3 125.9" stroke-width="0.4"/><path d="M585.3 125.9Q586.7 125.4 587.8 124.9" stroke-width="0.4"/><path d="M587.8 124.9Q588.7 124.5 589.7 125" stroke-width="0.2"/><path d="M589.7 125L591.1 124.5" stroke-width="0.6"/><path d="M589.7 125L591.5 123.5" stroke-width="0.6"/><path d="M589.7 125L591.4 123.6" stroke-width="0.6"/><path d="M579.3 127.3Q580.6 127.5 581.7 127.6" stroke-width="0.4"/><path d="M581.7 127.6Q582.7 127.7 583.4 128.4" stroke-width="0.3"/><path d="M579.3 127.3Q580 126.5 580.7 125.8" stroke-width="0.4"/><path d="M580.7 125.8Q581.4 125.1 582.2 124.9" stroke-width="0.3"/><path d="M571.5 129.7Q573.3 130.4 574.5 131.7" stroke-width="0.7"/><path d="M574.5 131.7Q575.8 132.6 577.8 131.7" stroke-width="0.5"/><path d="M577.8 131.7Q579.4 131.9 580.6 132.4" stroke-width="0.5"/><path d="M580.6 132.4Q581.7 132.7 582.8 132" stroke-width="0.3"/><path d="M577.8 131.7Q578.6 132.3 579.2 132.8" stroke-width="0.4"/><path d="M579.2 132.8Q580 133.5 580.4 134.6" stroke-width="0.2"/><path d="M561 134.2Q564.1 134.6 566.6 133.6" stroke-width="0.9"/><path d="M566.6 133.6Q569 133.4 571 135.2" stroke-width="0.6"/><path d="M571 135.2Q573.3 135.4 575.2 135.8" stroke-width="0.6"/><path d="M575.2 135.8Q576.9 136.1 578.3 136" stroke-width="0.4"/><path d="M578.3 136Q579.6 136.3 580.3 137.4" stroke-width="0.4"/><path d="M580.3 137.4Q581.6 138.3 583.3 137.5" stroke-width="0.3"/><path d="M571 135.2Q572.7 134.2 574 133.3" stroke-width="0.4"/><path d="M574 133.3Q575.2 132.6 576.2 132.2" stroke-width="0.3"/><path d="M571 135.2Q572.1 134.7 572.9 134.1" stroke-width="0.4"/><path d="M572.9 134.1Q574.1 133.4 575.4 133.7" stroke-width="0.3"/></g></g><g fill="none" stroke="#06050A" stroke-linecap="round"><path d="M648 158.8Q647.5 151 652.4 145.3" stroke-width="4.4"/><path d="M652.4 145.3Q655 137 653.1 130.1" stroke-width="3"/><path d="M653.1 130.1Q655 125 657.9 121.5" stroke-width="2.9"/><path d="M657.9 121.5Q660.8 116.4 663 112.8" stroke-width="2"/><path d="M663 112.8Q665 108.4 665.2 104.2" stroke-width="1.8"/><path d="M665.2 104.2Q666 100.8 670.7 100" stroke-width="1.2"/><path d="M670.7 100Q672.5 97.6 674 95.6" stroke-width="1.2"/><path d="M674 95.6Q675.8 93.3 677 91.6" stroke-width="0.8"/><path d="M677 91.6Q678 89.6 679 88.1" stroke-width="0.8"/><path d="M679 88.1Q680.1 86.3 680.8 84.9" stroke-width="0.5"/><path d="M680.8 84.9Q681.8 83.6 683.3 83.3" stroke-width="0.5"/><path d="M683.3 83.3Q684.8 82.3 684.6 80.1" stroke-width="0.3"/><path d="M684.6 80.1L687.1 78.7" stroke-width="0.6"/><path d="M684.6 80.1L686.3 78.6" stroke-width="0.6"/><path d="M684.6 80.1L686.5 77.6" stroke-width="0.6"/><path d="M680.8 84.9Q681.7 84.2 682.8 84.2" stroke-width="0.4"/><path d="M682.8 84.2Q683.8 83.8 683.9 82.5" stroke-width="0.3"/><path d="M683.9 82.5L685.2 80.7" stroke-width="0.6"/><path d="M683.9 82.5L684.9 81.5" stroke-width="0.6"/><path d="M683.9 82.5L685.3 81" stroke-width="0.6"/><path d="M677 91.6Q678.5 91.4 679.8 92.2" stroke-width="0.6"/><path d="M679.8 92.2Q681.5 92.5 682.9 90.5" stroke-width="0.4"/><path d="M682.9 90.5Q683.9 90.3 684.8 90.8" stroke-width="0.4"/><path d="M684.8 90.8Q686.1 90.9 686.8 89.1" stroke-width="0.3"/><path d="M686.8 89.1L689.1 89.1" stroke-width="0.6"/><path d="M686.8 89.1L688.3 88" stroke-width="0.6"/><path d="M686.8 89.1L689 88.3" stroke-width="0.6"/><path d="M670.7 100Q670.3 97.8 668.6 96.5" stroke-width="0.8"/><path d="M668.6 96.5Q667.4 94.6 669.5 92.2" stroke-width="0.6"/><path d="M669.5 92.2Q669.2 90.3 669.1 88.8" stroke-width="0.6"/><path d="M669.1 88.8Q668.9 87.4 669.1 86.3" stroke-width="0.4"/><path d="M669.5 92.2Q668.6 91.6 668 90.9" stroke-width="0.4"/><path d="M668 90.9Q667 90 665.8 90" stroke-width="0.3"/><path d="M669.5 92.2Q669 91.3 668.6 90.5" stroke-width="0.4"/><path d="M668.6 90.5Q668.1 89.5 668.1 88.7" stroke-width="0.3"/><path d="M663 112.8Q665.9 111.8 668.3 111.1" stroke-width="1.5"/><path d="M668.3 111.1Q671 110.2 673.2 109.8" stroke-width="1"/><path d="M673.2 109.8Q675.4 108.8 676.9 107.4" stroke-width="1"/><path d="M676.9 107.4Q678.6 106.3 681.1 108.2" stroke-width="0.7"/><path d="M681.1 108.2Q682.9 107.7 684.1 106.7" stroke-width="0.6"/><path d="M684.1 106.7Q685.3 106.1 686.5 106.3" stroke-width="0.4"/><path d="M686.5 106.3Q687.8 105.9 688.9 105.9" stroke-width="0.4"/><path d="M688.9 105.9Q689.9 105.7 690.7 105.6" stroke-width="0.2"/><path d="M690.7 105.6L692.6 105.6" stroke-width="0.6"/><path d="M690.7 105.6L692.3 105.9" stroke-width="0.6"/><path d="M690.7 105.6L692.7 104.5" stroke-width="0.6"/><path d="M681.1 108.2Q681.9 107.2 682.5 106.3" stroke-width="0.5"/><path d="M682.5 106.3Q683.2 105.4 683.9 104.7" stroke-width="0.3"/><path d="M673.2 109.8Q675 110 676.5 109.9" stroke-width="0.8"/><path d="M676.5 109.9Q678 109.9 679.2 110.5" stroke-width="0.5"/><path d="M679.2 110.5Q680.4 110.8 681.4 110.9" stroke-width="0.5"/><path d="M681.4 110.9Q682.5 111 683.1 112.1" stroke-width="0.4"/><path d="M679.2 110.5Q680.2 110.1 681.1 110.2" stroke-width="0.4"/><path d="M681.1 110.2Q681.9 110.1 681.8 108.5" stroke-width="0.3"/><path d="M653.1 130.1Q650.4 125.2 649.1 120.8" stroke-width="2.2"/><path d="M649.1 120.8Q647.5 117.1 646.5 114.4" stroke-width="1.5"/><path d="M646.5 114.4Q645.6 111.4 647.1 108.7" stroke-width="1.4"/><path d="M647.1 108.7Q647.5 105 644.2 102.5" stroke-width="0.9"/><path d="M644.2 102.5Q643.4 100 641.7 98.4" stroke-width="0.9"/><path d="M641.7 98.4Q640.6 96.5 640.4 94.9" stroke-width="0.6"/><path d="M640.4 94.9Q639.8 93.4 638.8 92.4" stroke-width="0.6"/><path d="M638.8 92.4Q637.8 90.9 637.5 89.6" stroke-width="0.4"/><path d="M640.4 94.9Q639.1 94.4 638.4 93.5" stroke-width="0.5"/><path d="M638.4 93.5Q637.2 92.6 636 92.4" stroke-width="0.3"/><path d="M644.2 102.5Q645 100.8 646.4 99.8" stroke-width="0.7"/><path d="M646.4 99.8Q647.7 98 646.7 95.6" stroke-width="0.5"/><path d="M646.7 95.6Q647.5 94.2 648.3 93.2" stroke-width="0.5"/><path d="M648.3 93.2Q649.1 92.1 649.3 91" stroke-width="0.3"/><path d="M644.2 102.5Q644.9 101.1 645.8 100.2" stroke-width="0.6"/><path d="M645.8 100.2Q646.6 98.9 646.5 97.6" stroke-width="0.4"/><path d="M646.5 97.6Q646.9 96.4 647.9 95.8" stroke-width="0.4"/><path d="M647.9 95.8Q648.6 95 647.8 93.7" stroke-width="0.3"/><path d="M646.5 114.4Q647.5 111.5 647.9 109" stroke-width="1.1"/><path d="M647.9 109Q648.5 106.6 650.8 105.6" stroke-width="0.8"/><path d="M650.8 105.6Q651.9 103.8 653.7 103.2" stroke-width="0.7"/><path d="M653.7 103.2Q655.3 101.9 652.9 98.7" stroke-width="0.5"/><path d="M652.9 98.7Q653.1 97.1 653.2 95.8" stroke-width="0.4"/><path d="M653.2 95.8Q653.3 94.5 653.5 93.7" stroke-width="0.3"/><path d="M650.8 105.6Q650.4 104 650.5 102.6" stroke-width="0.5"/><path d="M650.5 102.6Q650.4 101.4 649.7 100.7" stroke-width="0.4"/><path d="M650.8 105.6Q650.7 104.4 651 103.5" stroke-width="0.5"/><path d="M651 103.5Q651.1 102 650.9 101" stroke-width="0.3"/></g><g fill="none" stroke="#0C0A17" stroke-linecap="round"><path d="M414 103.2Q414.5 94.3 411.9 87.2" stroke-width="4.4"/><path d="M411.9 87.2Q411 80.7 418.3 75.5" stroke-width="3"/><path d="M418.3 75.5Q418.5 69.8 416.3 65.3" stroke-width="2.7"/><path d="M416.3 65.3Q415.4 60.3 417.1 55.9" stroke-width="1.8"/><path d="M417.1 55.9Q416.4 52.2 417.7 49.1" stroke-width="1.7"/><path d="M417.7 49.1Q418.1 45.2 412 42.9" stroke-width="1.2"/><path d="M412 42.9Q410.2 39.9 410.3 36.8" stroke-width="1.1"/><path d="M410.3 36.8Q409.6 34.5 406.9 33.5" stroke-width="0.8"/><path d="M406.9 33.5Q406.1 31.5 405.4 29.9" stroke-width="0.8"/><path d="M405.4 29.9Q404.7 28 404.3 26.4" stroke-width="0.5"/><path d="M404.3 26.4Q403.6 24.7 402.2 23.9" stroke-width="0.5"/><path d="M402.2 23.9Q401.4 23 403.1 21" stroke-width="0.3"/><path d="M403.1 21L403 18.6" stroke-width="0.6"/><path d="M403.1 21L403.1 19.2" stroke-width="0.6"/><path d="M403.1 21L403 18.8" stroke-width="0.6"/><path d="M404.3 26.4Q404.4 25.3 404.5 24.4" stroke-width="0.4"/><path d="M404.5 24.4Q404.6 23.1 404.7 22.1" stroke-width="0.2"/><path d="M404.7 22.1L404.8 20.6" stroke-width="0.6"/><path d="M404.7 22.1L404.5 20.6" stroke-width="0.6"/><path d="M404.7 22.1L404.7 20.8" stroke-width="0.6"/><path d="M406.9 33.5Q407.6 31.6 406.8 29.8" stroke-width="0.6"/><path d="M406.8 29.8Q406.7 28.4 409 27.5" stroke-width="0.4"/><path d="M409 27.5Q409.4 26.5 410.3 25.9" stroke-width="0.4"/><path d="M410.3 25.9Q411.1 25 410.8 23.5" stroke-width="0.3"/><path d="M410.8 23.5L411.9 22.3" stroke-width="0.6"/><path d="M410.8 23.5L411.6 22.3" stroke-width="0.6"/><path d="M410.8 23.5L412.2 22.2" stroke-width="0.6"/><path d="M412 42.9Q412.6 41.1 413.6 39.9" stroke-width="0.8"/><path d="M413.6 39.9Q414.7 37.9 414.2 35.7" stroke-width="0.5"/><path d="M414.2 35.7Q414.7 34.4 414.1 33.2" stroke-width="0.5"/><path d="M414.1 33.2Q414.1 31.6 415.7 30.5" stroke-width="0.3"/><path d="M414.2 35.7Q413.9 34.7 413.6 33.9" stroke-width="0.4"/><path d="M413.6 33.9Q413.4 32.9 413.2 32.1" stroke-width="0.3"/><path d="M417.1 55.9Q418.7 53.5 419 50.9" stroke-width="1.3"/><path d="M419 50.9Q420 48.3 421.2 46.3" stroke-width="0.9"/><path d="M421.2 46.3Q421.8 44.1 420.6 42.3" stroke-width="0.8"/><path d="M420.6 42.3Q420.3 40.2 422.9 38.6" stroke-width="0.6"/><path d="M422.9 38.6Q423.2 37.2 423.4 36.1" stroke-width="0.5"/><path d="M423.4 36.1Q423.7 34.4 424.9 33.4" stroke-width="0.4"/><path d="M422.9 38.6Q422.2 37.6 421.1 37.1" stroke-width="0.4"/><path d="M421.1 37.1Q420.4 36.6 420.8 35.3" stroke-width="0.3"/><path d="M421.2 46.3Q422.8 45.6 424.4 46.1" stroke-width="0.7"/><path d="M424.4 46.1Q426 46.1 427.1 44.8" stroke-width="0.5"/><path d="M427.1 44.8Q428.4 44.5 429.5 45" stroke-width="0.4"/><path d="M429.5 45Q430.7 45.1 431.5 43.6" stroke-width="0.3"/><path d="M418.3 75.5Q416.7 71.4 418.5 67.4" stroke-width="2.1"/><path d="M418.5 67.4Q418.6 64 412.1 62.6" stroke-width="1.4"/><path d="M412.1 62.6Q410.9 60.3 409.1 58.8" stroke-width="1.3"/><path d="M409.1 58.8Q407.4 56.7 408.8 53.4" stroke-width="0.9"/><path d="M408.8 53.4Q408.4 51.4 409.5 49.8" stroke-width="0.8"/><path d="M409.5 49.8Q409.9 47.7 406.7 46.2" stroke-width="0.5"/><path d="M406.7 46.2Q406.2 44.8 405.3 43.9" stroke-width="0.5"/><path d="M405.3 43.9Q404.4 42.4 404.8 40.8" stroke-width="0.4"/><path d="M406.7 46.2Q405.5 45.3 405 44.2" stroke-width="0.4"/><path d="M405 44.2Q404.3 43.4 403 43.6" stroke-width="0.3"/><path d="M408.8 53.4Q407.7 52.6 406.3 52.8" stroke-width="0.6"/><path d="M406.3 52.8Q404.9 52.5 404.8 50.1" stroke-width="0.4"/><path d="M404.8 50.1Q404.1 49.6 403.4 49.3" stroke-width="0.4"/><path d="M403.4 49.3Q402.5 48.7 402.1 47.8" stroke-width="0.3"/><path d="M412.1 62.6Q412.9 60.3 413.8 58.5" stroke-width="1.1"/><path d="M413.8 58.5Q414.7 56.4 416.2 55.1" stroke-width="0.7"/><path d="M416.2 55.1Q417.2 53.9 418.6 53.6" stroke-width="0.7"/><path d="M418.6 53.6Q420.2 52.6 419.6 50" stroke-width="0.5"/><path d="M419.6 50Q420.3 49 421.3 48.4" stroke-width="0.5"/><path d="M421.3 48.4Q422.1 47.6 421.7 46.1" stroke-width="0.3"/><path d="M416.2 55.1Q417.1 54.4 417.7 53.8" stroke-width="0.5"/><path d="M417.7 53.8Q418.7 52.9 419.4 52" stroke-width="0.3"/><path d="M418.3 75.5Q420.3 72.2 422 69.5" stroke-width="2"/><path d="M422 69.5Q423.6 66.9 423.3 63.9" stroke-width="1.3"/><path d="M423.3 63.9Q424.4 61.2 424.4 58.7" stroke-width="1.2"/><path d="M424.4 58.7Q424.8 56.6 427 55.5" stroke-width="0.8"/><path d="M427 55.5Q427.7 53.4 428.7 51.8" stroke-width="0.7"/><path d="M428.7 51.8Q429.4 50.5 430.2 49.5" stroke-width="0.5"/><path d="M430.2 49.5Q430.7 48.2 430.7 47.1" stroke-width="0.5"/><path d="M430.7 47.1Q431.1 45.6 431.8 44.5" stroke-width="0.3"/><path d="M430.2 49.5Q429.9 48.5 429.2 47.9" stroke-width="0.4"/><path d="M429.2 47.9Q428.6 47 428.7 45.9" stroke-width="0.2"/><path d="M427 55.5Q426.5 53.9 426.8 52.4" stroke-width="0.6"/><path d="M426.8 52.4Q426.7 51.1 425.6 50.3" stroke-width="0.4"/><path d="M425.6 50.3Q425.4 49.2 425.7 48.3" stroke-width="0.4"/><path d="M425.7 48.3Q425.7 47.3 424.8 46.4" stroke-width="0.3"/><path d="M423.3 63.9Q425 62.6 427 62.5" stroke-width="1"/><path d="M427 62.5Q428.6 62 429 59.9" stroke-width="0.7"/><path d="M429 59.9Q430.1 59.1 431.3 58.9" stroke-width="0.6"/><path d="M431.3 58.9Q432.7 58.3 433.5 56.9" stroke-width="0.4"/><path d="M433.5 56.9Q434.5 56.2 435.4 55.7" stroke-width="0.4"/><path d="M435.4 55.7Q436.2 55.1 436.3 54" stroke-width="0.3"/><path d="M429 59.9Q429.9 60 430.5 60.6" stroke-width="0.5"/><path d="M430.5 60.6Q431.5 61 432.6 59.7" stroke-width="0.3"/><path d="M429 59.9Q429.4 59 430.2 58.6" stroke-width="0.4"/><path d="M430.2 58.6Q430.8 57.9 430 56.8" stroke-width="0.3"/><path d="M423.3 63.9Q424.4 62.8 425.8 62.6" stroke-width="0.9"/><path d="M425.8 62.6Q427.4 61.8 428 60.2" stroke-width="0.6"/><path d="M428 60.2Q429.2 59.4 429.6 58.3" stroke-width="0.5"/><path d="M429.6 58.3Q430.3 57.4 431.5 57.5" stroke-width="0.4"/><path d="M428 60.2Q428.9 60 429.7 60.3" stroke-width="0.5"/><path d="M429.7 60.3Q430.5 60.3 431.2 59.9" stroke-width="0.3"/></g><g fill="none" stroke="#0C0A17" stroke-linecap="round"><g transform="translate(936 0) scale(-1 1)"><path d="M468 96.2Q467.1 86.8 461.1 80.5" stroke-width="4.4"/><path d="M461.1 80.5Q458.5 74.5 468.2 67.2" stroke-width="3"/><path d="M468.2 67.2Q467.7 61.5 468.6 56.8" stroke-width="2.9"/><path d="M468.6 56.8Q468.8 51.3 468.2 46.7" stroke-width="2"/><path d="M468.2 46.7Q468.7 42.3 471.6 39.4" stroke-width="1.8"/><path d="M471.6 39.4Q473 36.4 469 32.6" stroke-width="1.2"/><path d="M469 32.6Q469.3 30.1 470.2 28.1" stroke-width="1.2"/><path d="M470.2 28.1Q470.9 25.3 471 23" stroke-width="0.8"/><path d="M471 23Q471.3 21.1 472.8 19.9" stroke-width="0.7"/><path d="M472.8 19.9Q473.7 18.4 473.3 16.6" stroke-width="0.5"/><path d="M473.3 16.6Q473.8 15.3 473.5 14.1" stroke-width="0.5"/><path d="M473.5 14.1Q473.6 12.6 475.6 11.9" stroke-width="0.3"/><path d="M475.6 11.9L475.9 9.3" stroke-width="0.6"/><path d="M475.6 11.9L476.5 10.3" stroke-width="0.6"/><path d="M475.6 11.9L476.4 10.3" stroke-width="0.6"/><path d="M473.3 16.6Q472.9 15.6 472 15.2" stroke-width="0.4"/><path d="M472 15.2Q471.4 14.6 471.3 13.8" stroke-width="0.3"/><path d="M471.3 13.8L470 13" stroke-width="0.6"/><path d="M471.3 13.8L470 13" stroke-width="0.6"/><path d="M471.3 13.8L470.6 12.5" stroke-width="0.6"/><path d="M471 23Q472.4 21.7 473.4 20.7" stroke-width="0.5"/><path d="M473.4 20.7Q474.3 19.8 475.6 19.7" stroke-width="0.4"/><path d="M469 32.6Q467.9 30.9 466.3 30.2" stroke-width="0.9"/><path d="M466.3 30.2Q464.7 28.8 464.9 26.3" stroke-width="0.6"/><path d="M464.9 26.3Q463.9 25 464.2 23.4" stroke-width="0.5"/><path d="M464.2 23.4Q463.9 22.2 461.5 22.5" stroke-width="0.4"/><path d="M464.9 26.3Q463.7 25.7 463 24.7" stroke-width="0.4"/><path d="M463 24.7Q462.1 24 460.9 24" stroke-width="0.3"/><path d="M468.2 46.7Q466.2 44.8 464.4 43.4" stroke-width="1.6"/><path d="M464.4 43.4Q462.1 41.2 459.7 40" stroke-width="1.1"/><path d="M459.7 40Q457.8 38.8 455.8 38.6" stroke-width="1"/><path d="M455.8 38.6Q453.8 37.8 452.8 35.7" stroke-width="0.7"/><path d="M452.8 35.7Q451.6 34.8 450.6 34.1" stroke-width="0.6"/><path d="M450.6 34.1Q449.2 33.2 447.9 32.7" stroke-width="0.4"/><path d="M447.9 32.7Q447.1 32 446.1 31.9" stroke-width="0.4"/><path d="M446.1 31.9Q445.1 31.4 445 30" stroke-width="0.3"/><path d="M445 30L444.2 28.4" stroke-width="0.6"/><path d="M445 30L444.1 29.2" stroke-width="0.6"/><path d="M445 30L443.8 29.2" stroke-width="0.6"/><path d="M452.8 35.7Q451.5 36 450.5 36.4" stroke-width="0.5"/><path d="M450.5 36.4Q449.6 36.8 448.7 36.1" stroke-width="0.4"/><path d="M459.7 40Q458.2 39.8 457 39.3" stroke-width="0.8"/><path d="M457 39.3Q455.4 38.9 454.3 38" stroke-width="0.6"/><path d="M454.3 38Q453.3 37.3 452.8 36.3" stroke-width="0.5"/><path d="M452.8 36.3Q452 35.4 450.6 35.6" stroke-width="0.4"/><path d="M454.3 38Q453.9 37.1 453.5 36.4" stroke-width="0.4"/><path d="M453.5 36.4Q453.1 35.5 453.2 34.7" stroke-width="0.3"/><path d="M459.7 40Q458.2 39.7 457.3 38.7" stroke-width="0.7"/><path d="M457.3 38.7Q456.4 38.2 455.1 39.4" stroke-width="0.5"/><path d="M455.1 39.4Q454.2 39.3 453.6 38.9" stroke-width="0.5"/><path d="M453.6 38.9Q452.8 38.7 452.1 38.7" stroke-width="0.3"/><path d="M468.2 67.2Q470.7 63 474.7 61.2" stroke-width="2"/><path d="M474.7 61.2Q477.9 58.3 479.5 54.9" stroke-width="1.4"/><path d="M479.5 54.9Q481.7 51.6 483.5 48.9" stroke-width="1.3"/><path d="M483.5 48.9Q485.1 46.6 485.9 44.5" stroke-width="0.9"/><path d="M485.9 44.5Q487.1 42 488 40" stroke-width="0.8"/><path d="M488 40Q489 37.8 488.7 35.6" stroke-width="0.5"/><path d="M488.7 35.6Q489.5 34 490.1 32.6" stroke-width="0.5"/><path d="M490.1 32.6Q490.9 31 491.3 29.5" stroke-width="0.3"/><path d="M488.7 35.6Q489.9 35 490.4 33.9" stroke-width="0.4"/><path d="M490.4 33.9Q491.4 33 493 33.4" stroke-width="0.3"/><path d="M485.9 44.5Q486 42.8 486.7 41.6" stroke-width="0.7"/><path d="M486.7 41.6Q487.2 39.8 486.5 38.1" stroke-width="0.5"/><path d="M486.5 38.1Q486.8 36.7 486.2 35.6" stroke-width="0.4"/><path d="M486.2 35.6Q486.1 34.4 487.2 33.4" stroke-width="0.3"/><path d="M479.5 54.9Q479.2 52.2 478.8 50.1" stroke-width="0.9"/><path d="M478.8 50.1Q478.5 47.5 476.9 45.6" stroke-width="0.6"/><path d="M476.9 45.6Q476.2 43.9 476.4 42.2" stroke-width="0.6"/><path d="M476.4 42.2Q476.2 40.5 475 39.2" stroke-width="0.4"/><path d="M475 39.2Q474.3 37.7 473.4 36.6" stroke-width="0.4"/><path d="M473.4 36.6Q472.8 35.7 473.1 34.4" stroke-width="0.3"/><path d="M476.9 45.6Q475.8 44.9 474.9 44.2" stroke-width="0.5"/><path d="M474.9 44.2Q473.7 43.3 473.1 42.1" stroke-width="0.3"/><path d="M476.9 45.6Q477.1 44.2 477.6 43.2" stroke-width="0.4"/><path d="M477.6 43.2Q477.9 42.2 478 41.5" stroke-width="0.3"/></g></g><g fill="none" stroke="#0C0A17" stroke-linecap="round"><path d="M522 86.2Q522.8 79.5 527.8 75.3" stroke-width="4.2"/><path d="M527.8 75.3Q531.4 68.7 530.9 61.8" stroke-width="2.9"/><path d="M530.9 61.8Q533.4 57.7 536.4 55.1" stroke-width="2.8"/><path d="M536.4 55.1Q539.6 51.3 542.1 48" stroke-width="1.9"/><path d="M542.1 48Q544.6 44.6 545.3 41" stroke-width="1.8"/><path d="M545.3 41Q546.6 38.2 550.8 37.9" stroke-width="1.2"/><path d="M550.8 37.9Q552.7 36.1 554.3 34.7" stroke-width="1.2"/><path d="M554.3 34.7Q556.2 33 557.5 31.5" stroke-width="0.8"/><path d="M557.5 31.5Q558.7 29.9 559.8 28.8" stroke-width="0.7"/><path d="M559.8 28.8Q561 27.4 561.8 26.1" stroke-width="0.5"/><path d="M561.8 26.1Q562.9 25.2 564.2 25.1" stroke-width="0.5"/><path d="M564.2 25.1Q565.6 24.5 565.8 22.5" stroke-width="0.3"/><path d="M565.8 22.5L568.2 21.6" stroke-width="0.6"/><path d="M565.8 22.5L567.5 21.4" stroke-width="0.6"/><path d="M565.8 22.5L567.8 20.6" stroke-width="0.6"/><path d="M561.8 26.1Q562.7 25.7 563.6 25.8" stroke-width="0.4"/><path d="M563.6 25.8Q564.5 25.6 564.9 24.4" stroke-width="0.3"/><path d="M564.9 24.4L566.2 23.1" stroke-width="0.6"/><path d="M564.9 24.4L565.9 23.7" stroke-width="0.6"/><path d="M564.9 24.4L566.3 23.4" stroke-width="0.6"/><path d="M557.5 31.5Q558.9 31.5 559.8 32.4" stroke-width="0.5"/><path d="M559.8 32.4Q561.2 32.9 562.7 31.3" stroke-width="0.4"/><path d="M562.7 31.3Q563.6 31.2 564.3 31.8" stroke-width="0.4"/><path d="M564.3 31.8Q565.4 32.1 566.3 30.6" stroke-width="0.2"/><path d="M566.3 30.6L568.3 30.9" stroke-width="0.6"/><path d="M566.3 30.6L567.7 29.9" stroke-width="0.6"/><path d="M566.3 30.6L568.3 30.2" stroke-width="0.6"/><path d="M550.8 37.9Q550.8 35.9 549.5 34.6" stroke-width="0.8"/><path d="M549.5 34.6Q548.8 32.8 551 30.9" stroke-width="0.5"/><path d="M551 30.9Q551 29.2 551.2 27.9" stroke-width="0.5"/><path d="M551.2 27.9Q551.3 26.6 551.6 25.6" stroke-width="0.4"/><path d="M551 30.9Q550.4 30.2 549.9 29.5" stroke-width="0.4"/><path d="M549.9 29.5Q549.2 28.6 548.2 28.3" stroke-width="0.3"/><path d="M551 30.9Q550.7 30 550.5 29.2" stroke-width="0.4"/><path d="M550.5 29.2Q550.2 28.4 550.3 27.6" stroke-width="0.2"/><path d="M542.1 48Q544.8 47.6 546.9 47.4" stroke-width="1.4"/><path d="M546.9 47.4Q549.4 47.1 551.4 46.8" stroke-width="1"/><path d="M551.4 46.8Q553.4 46.2 554.9 45.3" stroke-width="0.9"/><path d="M554.9 45.3Q556.5 44.6 558.4 46.4" stroke-width="0.6"/><path d="M558.4 46.4Q560 46.2 561.2 45.6" stroke-width="0.6"/><path d="M561.2 45.6Q562.3 45.3 563.3 45.5" stroke-width="0.4"/><path d="M558.4 46.4Q559.2 45.7 560.2 45.6" stroke-width="0.4"/><path d="M560.2 45.6Q561.1 45.2 561.4 44.2" stroke-width="0.3"/><path d="M551.4 46.8Q552.8 45.6 554.5 45.6" stroke-width="0.7"/><path d="M554.5 45.6Q555.8 45.1 556 43.3" stroke-width="0.5"/><path d="M556 43.3Q556.9 42.4 557.7 41.9" stroke-width="0.5"/><path d="M557.7 41.9Q558.6 41.2 558.5 39.8" stroke-width="0.3"/><path d="M530.9 61.8Q530 57.3 531.8 53.4" stroke-width="2"/><path d="M531.8 53.4Q532.1 50.1 525 48.7" stroke-width="1.3"/><path d="M525 48.7Q524 46.1 524.9 43.7" stroke-width="1.3"/><path d="M524.9 43.7Q524.9 40.8 523 38.7" stroke-width="0.9"/><path d="M523 38.7Q522.2 36.6 522.1 34.7" stroke-width="0.9"/><path d="M522.1 34.7Q521.6 32.7 519.8 31.4" stroke-width="0.6"/><path d="M519.8 31.4Q519.2 29.7 518.5 28.2" stroke-width="0.6"/><path d="M518.5 28.2Q518 26.9 517.5 25.9" stroke-width="0.4"/><path d="M517.5 25.9Q517.2 24.5 516.7 23.5" stroke-width="0.4"/><path d="M516.7 23.5Q516.3 22.5 516.4 21.5" stroke-width="0.2"/><path d="M516.4 21.5L515.5 20.2" stroke-width="0.6"/><path d="M516.4 21.5L515.4 19.6" stroke-width="0.6"/><path d="M516.4 21.5L515.4 19.6" stroke-width="0.6"/><path d="M519.8 31.4Q518.7 30.6 517.8 29.8" stroke-width="0.4"/><path d="M517.8 29.8Q516.9 29 516.5 27.9" stroke-width="0.3"/><path d="M519.8 31.4Q519.1 30.8 518.5 30.2" stroke-width="0.4"/><path d="M518.5 30.2Q517.8 29.6 516.9 29.5" stroke-width="0.3"/><path d="M523 38.7Q523.6 37.1 523.2 35.5" stroke-width="0.6"/><path d="M523.2 35.5Q523.4 33.9 524.5 32.7" stroke-width="0.4"/><path d="M524.5 32.7Q524.9 31.5 524.6 30.5" stroke-width="0.4"/><path d="M524.6 30.5Q524.7 29.1 526.3 28.3" stroke-width="0.3"/><path d="M525 48.7Q522.6 47.8 521.1 46" stroke-width="0.9"/><path d="M521.1 46Q519.6 45 518.2 44.3" stroke-width="0.6"/><path d="M518.2 44.3Q516.8 43.5 516.1 42.3" stroke-width="0.6"/><path d="M516.1 42.3Q514.7 41.1 512.7 41.3" stroke-width="0.4"/><path d="M512.7 41.3Q511.7 40.5 511.2 39.5" stroke-width="0.4"/><path d="M511.2 39.5Q510.5 38.7 509.5 38.4" stroke-width="0.3"/><path d="M518.2 44.3Q516.9 44.3 515.8 44" stroke-width="0.5"/><path d="M515.8 44Q514.9 44 514.1 43.8" stroke-width="0.3"/></g><g transform="translate(460.7 183.6) rotate(-10) scale(1.4 1.6)" fill="#06050A"><path d="M0.4 0V-7.6Q0.4 -10.4 2.2 -10.4Q4 -10.4 4 -7.6V0Z"/></g><g transform="translate(402.9 183.7) rotate(-5.1) scale(1.8 2.1)" fill="#06050A"><path d="M0 0V-6.4Q0 -9.2 2.5 -9.2Q5 -9.2 5 -6.4V0Z"/></g><g transform="translate(434.5 183.8) rotate(3.9) scale(1.7 1.7)" fill="#06050A"><path d="M0.4 0V-7.6Q0.4 -10.4 2.2 -10.4Q4 -10.4 4 -7.6V0Z"/></g><g transform="translate(518.7 172.6) rotate(9.9) scale(2.4 2.1)" fill="#06050A"><path d="M0 0V-6.4Q0 -9.2 2.5 -9.2Q5 -9.2 5 -6.4V0Z"/></g><g transform="translate(490.7 178.3) rotate(-9.8) scale(1.9 1.5)" fill="#06050A"><path d="M0 0V-6.4Q0 -9.2 2.5 -9.2Q5 -9.2 5 -6.4V0Z"/></g><g transform="translate(9 166) scale(0.7 0.7)"><circle cx="151" cy="-166" r="36" fill="url(#ember)"/><path d="M81.0 -65.0C78.0 -65.5 78.7 -65.3 77.0 -64.0C75.3 -62.7 71.5 -59.0 71.0 -57.0C70.5 -55.0 74.5 -55.5 74.0 -52.0C73.5 -48.5 66.0 -41.7 68.0 -36.0C70.0 -30.3 82.3 -22.2 86.0 -18.0C89.7 -13.8 88.2 -12.8 90.0 -11.0C91.8 -9.2 95.8 -8.7 97.0 -7.0C98.2 -5.3 95.0 -2.2 97.0 -1.0C99.0 0.2 107.3 0.8 109.0 0.0C110.7 -0.8 111.7 -0.2 107.0 -6.0C102.3 -11.8 85.0 -29.0 81.0 -35.0C77.0 -41.0 80.7 -37.7 83.0 -42.0C85.3 -46.3 95.3 -57.2 95.0 -61.0C94.7 -64.8 84.0 -64.5 81.0 -65.0Z" fill="#06050A" fill-rule="evenodd"/><path d="M159.0 -183.0C157.0 -183.8 156.8 -180.8 154.0 -181.0C151.2 -181.2 144.7 -184.0 142.0 -184.0C139.3 -184.0 139.0 -183.7 138.0 -181.0C137.0 -178.3 135.0 -171.5 136.0 -168.0C137.0 -164.5 144.5 -163.3 144.0 -160.0C143.5 -156.7 136.8 -148.8 133.0 -148.0C129.2 -147.2 122.2 -153.5 121.0 -155.0C119.8 -156.5 126.5 -155.7 126.0 -157.0C125.5 -158.3 119.7 -162.3 118.0 -163.0C116.3 -163.7 116.3 -160.3 116.0 -161.0C115.7 -161.7 117.7 -165.3 116.0 -167.0C114.3 -168.7 113.5 -173.3 106.0 -171.0C98.5 -168.7 82.0 -155.7 71.0 -153.0C60.0 -150.3 48.3 -155.8 40.0 -155.0C31.7 -154.2 25.2 -150.8 21.0 -148.0C16.8 -145.2 16.3 -141.5 15.0 -138.0C13.7 -134.5 9.7 -126.5 13.0 -127.0C16.3 -127.5 26.2 -138.3 35.0 -141.0C43.8 -143.7 56.2 -139.3 66.0 -143.0C75.8 -146.7 88.0 -159.7 94.0 -163.0C100.0 -166.3 99.3 -163.8 102.0 -163.0C104.7 -162.2 111.5 -158.5 110.0 -158.0C108.5 -157.5 100.0 -162.8 93.0 -160.0C86.0 -157.2 76.2 -144.3 68.0 -141.0C59.8 -137.7 50.7 -141.0 44.0 -140.0C37.3 -139.0 28.7 -137.8 28.0 -135.0C27.3 -132.2 35.2 -124.2 40.0 -123.0C44.8 -121.8 55.0 -127.8 57.0 -128.0C59.0 -128.2 52.3 -126.0 52.0 -124.0C51.7 -122.0 53.2 -116.5 55.0 -116.0C56.8 -115.5 58.5 -119.8 63.0 -121.0C67.5 -122.2 77.0 -121.0 82.0 -123.0C87.0 -125.0 91.0 -129.8 93.0 -133.0C95.0 -136.2 93.3 -143.0 94.0 -142.0C94.7 -141.0 97.5 -131.3 97.0 -127.0C96.5 -122.7 92.7 -117.3 91.0 -116.0C89.3 -114.7 87.8 -120.2 87.0 -119.0C86.2 -117.8 88.5 -110.5 86.0 -109.0C83.5 -107.5 76.5 -110.8 72.0 -110.0C67.5 -109.2 63.8 -104.8 59.0 -104.0C54.2 -103.2 47.2 -105.5 43.0 -105.0C38.8 -104.5 35.8 -102.0 34.0 -101.0C32.2 -100.0 31.7 -99.3 32.0 -99.0C32.3 -98.7 37.2 -100.5 36.0 -99.0C34.8 -97.5 29.2 -91.8 25.0 -90.0C20.8 -88.2 12.0 -89.2 11.0 -88.0C10.0 -86.8 20.7 -83.8 19.0 -83.0C17.3 -82.2 2.8 -84.2 1.0 -83.0C-0.8 -81.8 5.2 -77.3 8.0 -76.0C10.8 -74.7 17.5 -75.7 18.0 -75.0C18.5 -74.3 11.8 -72.7 11.0 -72.0C10.2 -71.3 10.2 -70.7 13.0 -71.0C15.8 -71.3 24.2 -72.0 28.0 -74.0C31.8 -76.0 35.2 -83.0 36.0 -83.0C36.8 -83.0 32.3 -74.3 33.0 -74.0C33.7 -73.7 38.2 -77.8 40.0 -81.0C41.8 -84.2 41.8 -90.2 44.0 -93.0C46.2 -95.8 52.3 -99.2 53.0 -98.0C53.7 -96.8 49.3 -92.0 48.0 -86.0C46.7 -80.0 47.8 -67.5 45.0 -62.0C42.2 -56.5 34.5 -58.3 31.0 -53.0C27.5 -47.7 26.3 -35.5 24.0 -30.0C21.7 -24.5 19.5 -21.8 17.0 -20.0C14.5 -18.2 10.5 -20.8 9.0 -19.0C7.5 -17.2 5.2 -9.2 8.0 -9.0C10.8 -8.8 21.5 -12.8 26.0 -18.0C30.5 -23.2 32.0 -35.0 35.0 -40.0C38.0 -45.0 38.3 -44.8 44.0 -48.0C49.7 -51.2 63.0 -54.7 69.0 -59.0C75.0 -63.3 78.2 -72.5 80.0 -74.0C81.8 -75.5 76.0 -70.2 80.0 -68.0C84.0 -65.8 99.2 -57.7 104.0 -61.0C108.8 -64.3 107.5 -82.5 109.0 -88.0C110.5 -93.5 113.5 -98.8 113.0 -94.0C112.5 -89.2 105.3 -65.7 106.0 -59.0C106.7 -52.3 113.7 -54.5 117.0 -54.0C120.3 -53.5 125.3 -54.2 126.0 -56.0C126.7 -57.8 122.7 -64.8 121.0 -65.0C119.3 -65.2 117.3 -58.3 116.0 -57.0C114.7 -55.7 111.8 -53.8 113.0 -57.0C114.2 -60.2 121.3 -74.8 123.0 -76.0C124.7 -77.2 122.0 -67.2 123.0 -64.0C124.0 -60.8 126.7 -58.0 129.0 -57.0C131.3 -56.0 135.8 -56.2 137.0 -58.0C138.2 -59.8 135.5 -68.2 136.0 -68.0C136.5 -67.8 135.3 -60.3 140.0 -57.0C144.7 -53.7 159.2 -50.3 164.0 -48.0C168.8 -45.7 169.5 -45.7 169.0 -43.0C168.5 -40.3 163.3 -34.5 161.0 -32.0C158.7 -29.5 157.2 -28.0 155.0 -28.0C152.8 -28.0 150.3 -32.8 148.0 -32.0C145.7 -31.2 138.3 -24.3 141.0 -23.0C143.7 -21.7 157.8 -20.8 164.0 -24.0C170.2 -27.2 175.8 -37.8 178.0 -42.0C180.2 -46.2 181.2 -45.0 177.0 -49.0C172.8 -53.0 156.5 -62.8 153.0 -66.0C149.5 -69.2 149.8 -71.7 156.0 -68.0C162.2 -64.3 183.5 -50.7 190.0 -44.0C196.5 -37.3 193.5 -31.2 195.0 -28.0C196.5 -24.8 198.7 -26.7 199.0 -25.0C199.3 -23.3 196.3 -20.0 197.0 -18.0C197.7 -16.0 201.0 -13.8 203.0 -13.0C205.0 -12.2 210.8 -6.0 209.0 -13.0C207.2 -20.0 198.0 -45.8 192.0 -55.0C186.0 -64.2 176.8 -66.0 173.0 -68.0C169.2 -70.0 168.5 -64.8 169.0 -67.0C169.5 -69.2 175.0 -77.5 176.0 -81.0C177.0 -84.5 175.7 -87.3 175.0 -88.0C174.3 -88.7 172.7 -85.0 172.0 -85.0C171.3 -85.0 169.8 -84.7 171.0 -88.0C172.2 -91.3 173.7 -101.7 179.0 -105.0C184.3 -108.3 198.3 -108.5 203.0 -108.0C207.7 -107.5 205.7 -103.0 207.0 -102.0C208.3 -101.0 209.3 -101.8 211.0 -102.0C212.7 -102.2 215.5 -101.8 217.0 -103.0C218.5 -104.2 222.5 -102.5 220.0 -109.0C217.5 -115.5 204.5 -134.8 202.0 -142.0C199.5 -149.2 205.3 -151.0 205.0 -152.0C204.7 -153.0 201.0 -147.5 200.0 -148.0C199.0 -148.5 200.5 -155.0 199.0 -155.0C197.5 -155.0 194.0 -148.3 191.0 -148.0C188.0 -147.7 183.3 -152.3 181.0 -153.0C178.7 -153.7 177.0 -152.7 177.0 -152.0C177.0 -151.3 183.0 -149.0 181.0 -149.0C179.0 -149.0 167.0 -152.3 165.0 -152.0C163.0 -151.7 170.7 -148.0 169.0 -147.0C167.3 -146.0 157.7 -146.5 155.0 -146.0C152.3 -145.5 151.8 -144.5 153.0 -144.0C154.2 -143.5 162.5 -143.8 162.0 -143.0C161.5 -142.2 152.3 -140.0 150.0 -139.0C147.7 -138.0 147.3 -137.3 148.0 -137.0C148.7 -136.7 153.8 -137.7 154.0 -137.0C154.2 -136.3 151.2 -133.7 149.0 -133.0C146.8 -132.3 141.3 -133.7 141.0 -133.0C140.7 -132.3 147.0 -130.3 147.0 -129.0C147.0 -127.7 143.0 -124.5 141.0 -125.0C139.0 -125.5 139.2 -129.8 135.0 -132.0C130.8 -134.2 119.5 -138.7 116.0 -138.0C112.5 -137.3 112.3 -129.7 114.0 -128.0C115.7 -126.3 121.8 -129.5 126.0 -128.0C130.2 -126.5 138.0 -121.3 139.0 -119.0C140.0 -116.7 133.0 -113.8 132.0 -114.0C131.0 -114.2 133.5 -119.0 133.0 -120.0C132.5 -121.0 130.7 -121.3 129.0 -120.0C127.3 -118.7 125.2 -113.3 123.0 -112.0C120.8 -110.7 119.0 -113.5 116.0 -112.0C113.0 -110.5 108.5 -104.3 105.0 -103.0C101.5 -101.7 91.7 -101.5 95.0 -104.0C98.3 -106.5 122.0 -114.7 125.0 -118.0C128.0 -121.3 114.2 -122.7 113.0 -124.0C111.8 -125.3 119.5 -125.0 118.0 -126.0C116.5 -127.0 107.7 -127.2 104.0 -130.0C100.3 -132.8 95.2 -142.8 96.0 -143.0C96.8 -143.2 106.2 -131.8 109.0 -131.0C111.8 -130.2 113.5 -136.2 113.0 -138.0C112.5 -139.8 106.8 -140.0 106.0 -142.0C105.2 -144.0 106.7 -150.3 108.0 -150.0C109.3 -149.7 112.0 -141.8 114.0 -140.0C116.0 -138.2 118.8 -137.2 120.0 -139.0C121.2 -140.8 120.5 -150.3 121.0 -151.0C121.5 -151.7 120.7 -145.0 123.0 -143.0C125.3 -141.0 132.3 -139.0 135.0 -139.0C137.7 -139.0 138.7 -141.7 139.0 -143.0C139.3 -144.3 136.5 -146.8 137.0 -147.0C137.5 -147.2 140.0 -142.3 142.0 -144.0C144.0 -145.7 145.3 -153.5 149.0 -157.0C152.7 -160.5 161.2 -161.8 164.0 -165.0C166.8 -168.2 166.8 -173.0 166.0 -176.0C165.2 -179.0 161.0 -182.2 159.0 -183.0ZM98.0 -118.0C94.0 -114.0 75.0 -94.0 70.0 -88.0C65.0 -82.0 67.7 -82.7 68.0 -82.0C68.3 -81.3 66.8 -78.8 72.0 -84.0C77.2 -89.2 94.3 -107.7 99.0 -113.0C103.7 -118.3 100.7 -116.3 100.0 -116.0C99.3 -115.7 96.0 -111.7 95.0 -111.0C94.0 -110.3 93.5 -110.8 94.0 -112.0C94.5 -113.2 102.0 -122.0 98.0 -118.0ZM186.0 -132.0C185.5 -131.2 184.2 -128.5 184.0 -126.0C183.8 -123.5 185.5 -119.5 185.0 -117.0C184.5 -114.5 178.8 -112.0 181.0 -111.0C183.2 -110.0 195.8 -110.5 198.0 -111.0C200.2 -111.5 195.5 -113.3 194.0 -114.0C192.5 -114.7 190.5 -114.2 189.0 -115.0C187.5 -115.8 185.7 -117.2 185.0 -119.0C184.3 -120.8 184.7 -124.0 185.0 -126.0C185.3 -128.0 186.8 -130.0 187.0 -131.0C187.2 -132.0 186.5 -132.8 186.0 -132.0ZM122.0 -110.0C122.0 -109.7 127.8 -102.7 129.0 -100.0C130.2 -97.3 129.5 -95.7 129.0 -94.0C128.5 -92.3 127.7 -90.3 126.0 -90.0C124.3 -89.7 119.7 -92.0 119.0 -92.0C118.3 -92.0 120.8 -90.3 122.0 -90.0C123.2 -89.7 125.2 -90.3 126.0 -90.0C126.8 -89.7 128.5 -91.7 127.0 -88.0C125.5 -84.3 117.8 -69.5 117.0 -68.0C116.2 -66.5 120.5 -76.5 122.0 -79.0C123.5 -81.5 124.7 -80.3 126.0 -83.0C127.3 -85.7 129.5 -91.8 130.0 -95.0C130.5 -98.2 130.3 -99.5 129.0 -102.0C127.7 -104.5 122.0 -110.3 122.0 -110.0ZM137.0 -104.0C136.3 -104.2 150.3 -97.2 155.0 -94.0C159.7 -90.8 163.3 -86.2 165.0 -85.0C166.7 -83.8 166.0 -85.7 165.0 -87.0C164.0 -88.3 163.7 -90.2 159.0 -93.0C154.3 -95.8 137.7 -103.8 137.0 -104.0ZM87.0 -96.0C87.0 -93.8 84.7 -86.3 88.0 -84.0C91.3 -81.7 106.8 -81.8 107.0 -82.0C107.2 -82.2 92.2 -82.5 89.0 -85.0C85.8 -87.5 88.3 -95.2 88.0 -97.0C87.7 -98.8 87.0 -98.2 87.0 -96.0ZM133.0 -111.0C132.8 -111.2 133.7 -95.5 133.0 -91.0C132.3 -86.5 128.8 -84.2 129.0 -84.0C129.2 -83.8 133.3 -85.5 134.0 -90.0C134.7 -94.5 133.2 -110.8 133.0 -111.0ZM190.0 -132.0C191.7 -129.3 201.7 -116.0 202.0 -116.0C202.3 -116.0 194.0 -129.3 192.0 -132.0C190.0 -134.7 188.3 -134.7 190.0 -132.0ZM92.0 -156.0C91.8 -154.8 91.7 -151.5 92.0 -150.0C92.3 -148.5 92.3 -147.3 94.0 -147.0C95.7 -146.7 99.8 -147.2 102.0 -148.0C104.2 -148.8 106.2 -151.0 107.0 -152.0C107.8 -153.0 107.5 -154.3 107.0 -154.0C106.5 -153.7 105.2 -151.0 104.0 -150.0C102.8 -149.0 101.7 -148.3 100.0 -148.0C98.3 -147.7 95.3 -147.2 94.0 -148.0C92.7 -148.8 92.2 -151.5 92.0 -153.0C91.8 -154.5 93.0 -156.5 93.0 -157.0C93.0 -157.5 92.2 -157.2 92.0 -156.0ZM176.0 -141.0C176.5 -141.5 170.0 -138.3 167.0 -136.0C164.0 -133.7 158.5 -127.5 158.0 -127.0C157.5 -126.5 161.0 -130.7 164.0 -133.0C167.0 -135.3 175.5 -140.5 176.0 -141.0ZM108.0 -127.0C107.0 -126.3 102.8 -121.3 103.0 -121.0C103.2 -120.7 108.2 -124.0 109.0 -125.0C109.8 -126.0 109.0 -127.7 108.0 -127.0ZM168.0 -85.0C167.5 -84.5 166.8 -81.8 167.0 -81.0C167.2 -80.2 168.5 -79.5 169.0 -80.0C169.5 -80.5 170.2 -83.2 170.0 -84.0C169.8 -84.8 168.5 -85.5 168.0 -85.0ZM199.0 -142.0C197.8 -141.8 194.2 -140.7 193.0 -140.0C191.8 -139.3 190.8 -137.8 192.0 -138.0C193.2 -138.2 198.8 -140.3 200.0 -141.0C201.2 -141.7 200.2 -142.2 199.0 -142.0ZM167.0 -76.0C166.5 -75.3 164.0 -67.8 164.0 -67.0C164.0 -66.2 166.5 -69.5 167.0 -71.0C167.5 -72.5 167.5 -76.7 167.0 -76.0ZM104.0 -168.0C103.5 -168.2 105.7 -168.2 107.0 -167.0C108.3 -165.8 111.5 -161.2 112.0 -161.0C112.5 -160.8 111.3 -164.8 110.0 -166.0C108.7 -167.2 104.5 -167.8 104.0 -168.0ZM205.0 -114.0C204.2 -114.0 202.0 -113.0 202.0 -113.0C202.0 -113.0 204.2 -114.2 205.0 -114.0C205.8 -113.8 207.2 -112.8 207.0 -112.0C206.8 -111.2 204.0 -109.3 204.0 -109.0C204.0 -108.7 206.5 -109.3 207.0 -110.0C207.5 -110.7 207.3 -112.3 207.0 -113.0C206.7 -113.7 205.8 -114.0 205.0 -114.0Z" fill="#06050A" fill-rule="evenodd"/><path d="M151 -180.5C146 -184 138 -183 134.5 -177C130.5 -170 130.5 -160 135 -153.5C139 -148 147 -146.5 151 -147C155 -146.5 163 -148 167 -153.5C171.5 -160 171.5 -170 167.5 -177C164 -183 156 -184 151 -180.5ZM149.5 -180C149 -184.5 151.5 -187.5 155 -188C153 -186 152.5 -183.5 153.5 -180.8Z" fill="#F09A3E"/><path d="M143.5 -181.5C140 -172 140 -160 144 -150" fill="none" stroke="#06050A" stroke-width="1.5" stroke-linecap="round"/><path d="M158.5 -181.5C162 -172 162 -160 158 -150" fill="none" stroke="#06050A" stroke-width="1.5" stroke-linecap="round"/></g></svg>
