<svg xmlns="http://www.w3.org/2000/svg" width="1920" height="760" viewBox="0 0 1920 760"><defs><radialGradient id="moon" cx="0.42" cy="0.4" r="0.62"><stop offset="0" stop-color="#F2DCA8"/><stop offset="0.75" stop-color="#F2DCA8"/><stop offset="1" stop-color="#DDB06A"/></radialGradient><radialGradient id="halo"><stop offset="0" stop-color="#F2DCA8" stop-opacity="0.26"/><stop offset="0.35" stop-color="#F2DCA8" stop-opacity="0.08"/><stop offset="1" stop-color="#F2DCA8" stop-opacity="0"/></radialGradient><radialGradient id="ember"><stop offset="0" stop-color="#F09A3E" stop-opacity="0.55"/><stop offset="1" stop-color="#F09A3E" stop-opacity="0"/></radialGradient><linearGradient id="mist" x1="0" y1="0" x2="0" y2="1"><stop offset="0" stop-color="#B9B3D6" stop-opacity="0"/><stop offset="0.55" stop-color="#B9B3D6" stop-opacity="0.07"/><stop offset="1" stop-color="#B9B3D6" stop-opacity="0"/></linearGradient></defs><circle cx="1536" cy="210" r="268.8" fill="url(#halo)"/><circle cx="1536" cy="210" r="64" fill="url(#moon)"/><ellipse cx="1516.8" cy="197.2" rx="17.9" ry="14" fill="#DDB06A" fill-opacity="0.1"/><ellipse cx="1545.6" cy="187.6" rx="11.5" ry="9.6" fill="#DDB06A" fill-opacity="0.1"/><ellipse cx="1552" cy="219.6" rx="15.4" ry="13.6" fill="#DDB06A" fill-opacity="0.1"/><ellipse cx="1529.6" cy="232.4" rx="10.2" ry="8.1" fill="#DDB06A" fill-opacity="0.1"/><ellipse cx="1509.1" cy="221.5" rx="7.7" ry="7.3" fill="#DDB06A" fill-opacity="0.1"/><g fill="none" stroke="#06050A" stroke-linecap="round"><path d="M-14 471.2Q7.6 433.5 40.8 414.2" stroke-width="22"/><path d="M40.8 414.2Q74.5 379.3 74.2 335.9" stroke-width="15"/><path d="M74.2 335.9Q95.3 304 92.2 268.8" stroke-width="13.7"/><path d="M92.2 268.8Q100.7 237.5 169.5 254.9" stroke-width="9.3"/><path d="M169.5 254.9Q187.8 235 208.9 225.6" stroke-width="9.2"/><path d="M208.9 225.6Q226 212.9 217.9 185" stroke-width="6.2"/><path d="M217.9 185Q228.9 171.6 234 157.9" stroke-width="5.9"/><path d="M234 157.9Q243.1 142.6 258.9 138.6" stroke-width="4"/><path d="M258.9 138.6Q268 129.1 271.4 118.2" stroke-width="3.6"/><path d="M271.4 118.2Q277.1 108.9 285.3 105.3" stroke-width="2.5"/><path d="M285.3 105.3Q290.2 97.4 297.5 93.6" stroke-width="2.4"/><path d="M297.5 93.6Q303 88.3 297.2 78.2" stroke-width="1.6"/><path d="M297.2 78.2Q300.5 71.9 303.1 66.8" stroke-width="1.6"/><path d="M303.1 66.8Q305.5 62.2 309.3 60.4" stroke-width="1.1"/><path d="M309.3 60.4Q311.2 56.2 310.5 52.1" stroke-width="1"/><path d="M310.5 52.1Q311.1 47.6 315.7 45.6" stroke-width="0.7"/><path d="M309.3 60.4Q312.2 59.2 315 59.6" stroke-width="0.8"/><path d="M315 59.6Q318.5 59.1 320.9 57.5" stroke-width="0.6"/><path d="M320.9 57.5L326.4 56.6" stroke-width="0.6"/><path d="M320.9 57.5L326.7 56.1" stroke-width="0.6"/><path d="M320.9 57.5L325.2 56.7" stroke-width="0.6"/><path d="M297.2 78.2Q295.6 73.6 293.4 70.2" stroke-width="1.1"/><path d="M293.4 70.2Q291.4 65.9 291.1 62.6" stroke-width="0.7"/><path d="M291.1 62.6Q290.2 59.4 287.6 57.6" stroke-width="0.7"/><path d="M287.6 57.6Q285.4 54.4 285 51.4" stroke-width="0.5"/><path d="M285 51.4L280.2 47.8" stroke-width="0.6"/><path d="M285 51.4L281.4 47.1" stroke-width="0.6"/><path d="M285 51.4L282.7 47" stroke-width="0.6"/><path d="M291.1 62.6Q288.9 60.7 286.4 60.1" stroke-width="0.6"/><path d="M286.4 60.1Q284.2 58.9 282.7 57.7" stroke-width="0.4"/><path d="M282.7 57.7L279.3 54.2" stroke-width="0.6"/><path d="M282.7 57.7L278.7 56.3" stroke-width="0.6"/><path d="M282.7 57.7L278.8 54.1" stroke-width="0.6"/><path d="M291.1 62.6Q289.6 61.5 288.2 60.9" stroke-width="0.5"/><path d="M288.2 60.9Q286.4 59.9 284.8 59.5" stroke-width="0.3"/><path d="M284.8 59.5L282.4 56.6" stroke-width="0.6"/><path d="M284.8 59.5L281.9 59.1" stroke-width="0.6"/><path d="M284.8 59.5L282.3 58.6" stroke-width="0.6"/><path d="M297.2 78.2Q297 74.6 295.9 71.7" stroke-width="1.1"/><path d="M295.9 71.7Q295.2 68.1 294.1 65.7" stroke-width="0.7"/><path d="M294.1 65.7L294.1 59.3" stroke-width="0.6"/><path d="M294.1 65.7L291.4 61.5" stroke-width="0.6"/><path d="M294.1 65.7L291.8 58.9" stroke-width="0.6"/><path d="M285.3 105.3Q286.4 97 285.5 90" stroke-width="2"/><path d="M285.5 90Q285.6 84.3 284.7 80.7" stroke-width="1.3"/><path d="M284.7 80.7Q284.9 75.1 287.6 70.9" stroke-width="1.3"/><path d="M287.6 70.9Q288.8 66.7 287.7 63.4" stroke-width="0.9"/><path d="M287.7 63.4Q288.2 59.9 288 57" stroke-width="0.8"/><path d="M288 57Q288.1 53.4 291.1 51.4" stroke-width="0.5"/><path d="M291.1 51.4L292.1 47.5" stroke-width="0.6"/><path d="M291.1 51.4L293.4 44.8" stroke-width="0.6"/><path d="M291.1 51.4L292.4 45.4" stroke-width="0.6"/><path d="M287.7 63.4Q290.1 62 292.4 61.4" stroke-width="0.7"/><path d="M292.4 61.4Q294.9 60.4 296.8 59.6" stroke-width="0.4"/><path d="M296.8 59.6L300.5 57.9" stroke-width="0.6"/><path d="M296.8 59.6L301.9 57.9" stroke-width="0.6"/><path d="M296.8 59.6L299.6 56.6" stroke-width="0.6"/><path d="M284.7 80.7Q287.5 78 290.5 76.6" stroke-width="1"/><path d="M290.5 76.6Q293.2 74.7 292.8 70.8" stroke-width="0.7"/><path d="M292.8 70.8L294.5 65.7" stroke-width="0.6"/><path d="M292.8 70.8L299.2 67.5" stroke-width="0.6"/><path d="M292.8 70.8L294.8 67.2" stroke-width="0.6"/><path d="M284.7 80.7Q286.9 77.5 289.8 75.8" stroke-width="0.9"/><path d="M289.8 75.8Q291.9 73.9 292.8 72" stroke-width="0.6"/><path d="M292.8 72L296 66.4" stroke-width="0.6"/><path d="M292.8 72L295.4 68.6" stroke-width="0.6"/><path d="M292.8 72L295.9 68.4" stroke-width="0.6"/><path d="M285.3 105.3Q291.3 103.9 294.5 98.8" stroke-width="1.6"/><path d="M294.5 98.8Q298.6 95.9 304.8 100.6" stroke-width="1.1"/><path d="M304.8 100.6Q309.2 99.3 312 96.3" stroke-width="1.1"/><path d="M312 96.3Q315.4 94.3 320 97.7" stroke-width="0.7"/><path d="M320 97.7Q323.2 97.5 325.8 98.9" stroke-width="0.7"/><path d="M325.8 98.9Q328.3 99.4 330.6 97.5" stroke-width="0.5"/><path d="M330.6 97.5L334.4 95.6" stroke-width="0.6"/><path d="M330.6 97.5L336.2 97.5" stroke-width="0.6"/><path d="M330.6 97.5L335.9 96.5" stroke-width="0.6"/><path d="M320 97.7Q321.5 96.1 323.2 95.3" stroke-width="0.6"/><path d="M323.2 95.3Q325.2 93.8 326.2 92.2" stroke-width="0.4"/><path d="M326.2 92.2L328 88.7" stroke-width="0.6"/><path d="M326.2 92.2L329.5 90.2" stroke-width="0.6"/><path d="M326.2 92.2L329.9 90.3" stroke-width="0.6"/><path d="M304.8 100.6Q307 97.8 309.5 96.1" stroke-width="0.9"/><path d="M309.5 96.1Q311.9 93.8 311.1 90.2" stroke-width="0.6"/><path d="M311.1 90.2L314.2 85.4" stroke-width="0.6"/><path d="M311.1 90.2L313 86.1" stroke-width="0.6"/><path d="M311.1 90.2L312.6 86.1" stroke-width="0.6"/><path d="M258.9 138.6Q259.6 127.4 262 118.4" stroke-width="3"/><path d="M262 118.4Q263.4 109.3 256.4 102.9" stroke-width="2"/><path d="M256.4 102.9Q254.8 93.7 253.1 86.2" stroke-width="1.9"/><path d="M253.1 86.2Q251.8 79.7 249.2 76" stroke-width="1.3"/><path d="M249.2 76Q247.6 70.8 248.2 66.2" stroke-width="1.2"/><path d="M248.2 66.2Q247.6 59.8 244.5 55.8" stroke-width="0.8"/><path d="M244.5 55.8Q243.3 51.4 240.4 48.6" stroke-width="0.8"/><path d="M240.4 48.6Q238.2 44.7 239 41" stroke-width="0.6"/><path d="M244.5 55.8Q242.1 53.5 239.1 53.1" stroke-width="0.7"/><path d="M239.1 53.1Q236.4 51.8 236.8 47.8" stroke-width="0.4"/><path d="M236.8 47.8L232.9 43.8" stroke-width="0.6"/><path d="M236.8 47.8L235 43.3" stroke-width="0.6"/><path d="M236.8 47.8L234.4 43.2" stroke-width="0.6"/><path d="M249.2 76Q245.7 73.6 241.8 74" stroke-width="0.9"/><path d="M241.8 74Q237.2 72.7 234.3 69.8" stroke-width="0.6"/><path d="M234.3 69.8Q230.8 68 228.5 65.5" stroke-width="0.5"/><path d="M228.5 65.5Q226.2 63.7 223.2 64.4" stroke-width="0.4"/><path d="M223.2 64.4L217.3 63.4" stroke-width="0.6"/><path d="M223.2 64.4L218.2 60.6" stroke-width="0.6"/><path d="M223.2 64.4L218.6 61.7" stroke-width="0.6"/><path d="M234.3 69.8Q231.5 70.1 229.4 71.1" stroke-width="0.4"/><path d="M229.4 71.1Q227.1 71.7 225 71.6" stroke-width="0.3"/><path d="M225 71.6L221.3 71.4" stroke-width="0.6"/><path d="M225 71.6L221.9 70.7" stroke-width="0.6"/><path d="M225 71.6L221.5 71.3" stroke-width="0.6"/><path d="M249.2 76Q250.7 72.7 251.1 69.8" stroke-width="0.9"/><path d="M251.1 69.8Q251.9 67.1 256.1 67.1" stroke-width="0.6"/><path d="M256.1 67.1L257.9 63.4" stroke-width="0.6"/><path d="M256.1 67.1L259 64.8" stroke-width="0.6"/><path d="M256.1 67.1L259.3 63.9" stroke-width="0.6"/><path d="M256.4 102.9Q259.2 97.8 263.2 94.8" stroke-width="1.5"/><path d="M263.2 94.8Q267 90.3 266.7 85.2" stroke-width="1"/><path d="M266.7 85.2Q268.5 80.4 268.8 76.2" stroke-width="1"/><path d="M268.8 76.2Q269.5 72.7 272.7 71.3" stroke-width="0.7"/><path d="M272.7 71.3Q273.5 68.4 273.7 65.8" stroke-width="0.6"/><path d="M273.7 65.8Q274.2 62.7 277 61.2" stroke-width="0.4"/><path d="M277 61.2L280.4 56.1" stroke-width="0.6"/><path d="M277 61.2L279.2 57.4" stroke-width="0.6"/><path d="M277 61.2L277.9 57.1" stroke-width="0.6"/><path d="M272.7 71.3Q272.5 68.3 272 65.8" stroke-width="0.5"/><path d="M272 65.8Q271.8 63.8 273.8 62.5" stroke-width="0.3"/><path d="M273.8 62.5L272.4 58.3" stroke-width="0.6"/><path d="M273.8 62.5L275.1 58.3" stroke-width="0.6"/><path d="M273.8 62.5L275.6 59.2" stroke-width="0.6"/><path d="M266.7 85.2Q269.7 83.6 271.3 81.1" stroke-width="0.7"/><path d="M271.3 81.1Q273.1 79.3 275 78.7" stroke-width="0.5"/><path d="M275 78.7L277.3 73.8" stroke-width="0.6"/><path d="M275 78.7L279.1 76.6" stroke-width="0.6"/><path d="M275 78.7L277.7 75.8" stroke-width="0.6"/><path d="M217.9 185Q217.3 171 226.2 160.9" stroke-width="4.9"/><path d="M226.2 160.9Q230.8 147.8 212.6 136.6" stroke-width="3.3"/><path d="M212.6 136.6Q213.5 124.2 219.4 115" stroke-width="3.2"/><path d="M219.4 115Q222.1 106.4 218.9 99.6" stroke-width="2.2"/><path d="M218.9 99.6Q221.5 91 222 83.6" stroke-width="2.2"/><path d="M222 83.6Q223.3 76.5 226.5 72.3" stroke-width="1.5"/><path d="M226.5 72.3Q227.8 66.8 226.2 62" stroke-width="1.4"/><path d="M226.2 62Q226 55.3 236.2 53" stroke-width="1"/><path d="M236.2 53Q238 48.1 239 44" stroke-width="0.9"/><path d="M239 44Q240.3 39.9 242 37.5" stroke-width="0.6"/><path d="M236.2 53Q235.1 49.7 233.3 47.4" stroke-width="0.7"/><path d="M233.3 47.4Q232 45 234.8 42.3" stroke-width="0.5"/><path d="M234.8 42.3L233.5 38.1" stroke-width="0.6"/><path d="M234.8 42.3L232.3 36.9" stroke-width="0.6"/><path d="M234.8 42.3L233.7 37" stroke-width="0.6"/><path d="M236.2 53Q235.7 50.1 235.4 47.7" stroke-width="0.6"/><path d="M235.4 47.7Q235 44.9 233.3 43.3" stroke-width="0.4"/><path d="M233.3 43.3L233.4 39.5" stroke-width="0.6"/><path d="M233.3 43.3L231.4 39.9" stroke-width="0.6"/><path d="M233.3 43.3L231.7 39.9" stroke-width="0.6"/><path d="M226.5 72.3Q230.3 69 233.1 66.1" stroke-width="1.2"/><path d="M233.1 66.1Q236.5 62.9 239.1 60.8" stroke-width="0.8"/><path d="M239.1 60.8Q242.4 58.5 245.4 57" stroke-width="0.7"/><path d="M245.4 57Q248 55.5 250.2 54.9" stroke-width="0.5"/><path d="M250.2 54.9L253.6 50.9" stroke-width="0.6"/><path d="M250.2 54.9L254.3 51.1" stroke-width="0.6"/><path d="M250.2 54.9L253.6 52.5" stroke-width="0.6"/><path d="M239.1 60.8Q240.1 57.9 239.9 55.2" stroke-width="0.5"/><path d="M239.9 55.2Q240.2 52.8 242 51.7" stroke-width="0.4"/><path d="M242 51.7L244.1 48.2" stroke-width="0.6"/><path d="M242 51.7L243.2 47.1" stroke-width="0.6"/><path d="M242 51.7L242.2 46.5" stroke-width="0.6"/><path d="M218.9 99.6Q217.5 94.6 219 90.1" stroke-width="1.6"/><path d="M219 90.1Q219 84.2 217.7 80.3" stroke-width="1.1"/><path d="M217.7 80.3Q217.9 76.7 219.6 74" stroke-width="1"/><path d="M219.6 74Q220.8 70.1 216.6 66.8" stroke-width="0.6"/><path d="M216.6 66.8Q216.3 64.1 218 62" stroke-width="0.6"/><path d="M218 62Q218.8 59.2 214.2 57.1" stroke-width="0.4"/><path d="M214.2 57.1L211.4 52.3" stroke-width="0.6"/><path d="M214.2 57.1L211.9 52.5" stroke-width="0.6"/><path d="M214.2 57.1L213.7 51.5" stroke-width="0.6"/><path d="M216.6 66.8Q217.7 65.1 217.9 63.4" stroke-width="0.5"/><path d="M217.9 63.4Q218.6 61.3 219.5 60.1" stroke-width="0.3"/><path d="M219.5 60.1L221.2 57.3" stroke-width="0.6"/><path d="M219.5 60.1L220.2 56.5" stroke-width="0.6"/><path d="M219.5 60.1L220.8 57.6" stroke-width="0.6"/><path d="M216.6 66.8Q215.7 65.1 214 64.6" stroke-width="0.4"/><path d="M214 64.6Q212.8 63.5 213.3 61.6" stroke-width="0.3"/><path d="M213.3 61.6L211.7 59.5" stroke-width="0.6"/><path d="M213.3 61.6L212.8 58.3" stroke-width="0.6"/><path d="M213.3 61.6L210.9 59.3" stroke-width="0.6"/><path d="M217.7 80.3Q219.8 77.8 221.2 75.4" stroke-width="0.9"/><path d="M221.2 75.4Q223 72.9 225.5 72.3" stroke-width="0.6"/><path d="M225.5 72.3L228.5 68.8" stroke-width="0.6"/><path d="M225.5 72.3L228.7 70.4" stroke-width="0.6"/><path d="M225.5 72.3L228.8 67.6" stroke-width="0.6"/><path d="M212.6 136.6Q208.3 129 205.7 122.3" stroke-width="2.7"/><path d="M205.7 122.3Q202.5 115.5 200.6 110.7" stroke-width="1.8"/><path d="M200.6 110.7Q197.9 105.1 198.7 99.6" stroke-width="1.7"/><path d="M198.7 99.6Q197.8 93.9 188.2 93.8" stroke-width="1.1"/><path d="M188.2 93.8Q186 89.6 186.5 85.5" stroke-width="1.1"/><path d="M186.5 85.5Q185.6 80.9 182.4 78.6" stroke-width="0.7"/><path d="M182.4 78.6Q180.7 75.6 179.2 73.2" stroke-width="0.6"/><path d="M179.2 73.2Q177.6 70.7 176.5 69" stroke-width="0.4"/><path d="M176.5 69L176.2 65.4" stroke-width="0.6"/><path d="M176.5 69L174.2 64.9" stroke-width="0.6"/><path d="M176.5 69L173.5 65.3" stroke-width="0.6"/><path d="M182.4 78.6Q183.2 76.2 185.1 74.8" stroke-width="0.5"/><path d="M185.1 74.8Q186.3 73.1 184.2 70.6" stroke-width="0.3"/><path d="M184.2 70.6L184.1 67.4" stroke-width="0.6"/><path d="M184.2 70.6L184 67.8" stroke-width="0.6"/><path d="M184.2 70.6L184.8 66.5" stroke-width="0.6"/><path d="M188.2 93.8Q184.4 93.1 181.2 93.8" stroke-width="0.8"/><path d="M181.2 93.8Q177.6 93.8 174.7 94.4" stroke-width="0.5"/><path d="M174.7 94.4L167.8 94.4" stroke-width="0.6"/><path d="M174.7 94.4L171 96.2" stroke-width="0.6"/><path d="M174.7 94.4L168.6 92.3" stroke-width="0.6"/><path d="M200.6 110.7Q202 106.4 204 103.2" stroke-width="1.4"/><path d="M204 103.2Q206.1 98.6 204.4 94.5" stroke-width="0.9"/><path d="M204.4 94.5Q205.5 91.5 207.6 89.8" stroke-width="0.9"/><path d="M207.6 89.8Q209.7 86.8 207.5 83" stroke-width="0.6"/><path d="M207.5 83L210.3 77.3" stroke-width="0.6"/><path d="M207.5 83L207.6 76.7" stroke-width="0.6"/><path d="M207.5 83L207.2 77.9" stroke-width="0.6"/><path d="M204.4 94.5Q203.4 91.3 204.3 88.4" stroke-width="0.6"/><path d="M204.3 88.4Q204.3 86.1 201.3 85.1" stroke-width="0.4"/><path d="M201.3 85.1L197.5 81" stroke-width="0.6"/><path d="M201.3 85.1L199 81.9" stroke-width="0.6"/><path d="M201.3 85.1L199.8 81.2" stroke-width="0.6"/><path d="M212.6 136.6Q207.4 131.3 202.8 127.4" stroke-width="2.2"/><path d="M202.8 127.4Q198.2 123.2 193.9 121.3" stroke-width="1.5"/><path d="M193.9 121.3Q189.8 118.4 185.3 118.1" stroke-width="1.5"/><path d="M185.3 118.1Q180.8 116.4 177.9 114" stroke-width="1"/><path d="M177.9 114Q174.7 112.5 173 109.8" stroke-width="1"/><path d="M173 109.8Q170.3 107.4 165.7 109.8" stroke-width="0.7"/><path d="M165.7 109.8L160.9 107.5" stroke-width="0.6"/><path d="M165.7 109.8L160.5 109" stroke-width="0.6"/><path d="M165.7 109.8L160.3 106" stroke-width="0.6"/><path d="M177.9 114Q176.1 111.4 176.3 108.5" stroke-width="0.7"/><path d="M176.3 108.5Q175.6 106.2 171.9 106.3" stroke-width="0.5"/><path d="M171.9 106.3L169 102.7" stroke-width="0.6"/><path d="M171.9 106.3L169.5 102.2" stroke-width="0.6"/><path d="M171.9 106.3L168.6 102" stroke-width="0.6"/><path d="M177.9 114Q176.6 112.2 176.8 110.1" stroke-width="0.7"/><path d="M176.8 110.1Q176.3 108.2 175.3 107.1" stroke-width="0.5"/><path d="M175.3 107.1L174.3 103.8" stroke-width="0.6"/><path d="M175.3 107.1L175.5 103.6" stroke-width="0.6"/><path d="M175.3 107.1L175.4 103.3" stroke-width="0.6"/><path d="M193.9 121.3Q189.4 121.2 186 123" stroke-width="1.2"/><path d="M186 123Q182.9 123.7 180.1 122.8" stroke-width="0.8"/><path d="M180.1 122.8Q177.1 122.9 174.9 121.7" stroke-width="0.8"/><path d="M174.9 121.7Q172.4 121.2 170.2 123.5" stroke-width="0.5"/><path d="M170.2 123.5L167 124.8" stroke-width="0.6"/><path d="M170.2 123.5L166.6 121.9" stroke-width="0.6"/><path d="M170.2 123.5L165 122.3" stroke-width="0.6"/><path d="M180.1 122.8Q178 122 176.2 121.7" stroke-width="0.5"/><path d="M176.2 121.7Q173.8 121.1 172 120.5" stroke-width="0.4"/><path d="M172 120.5L170 118.6" stroke-width="0.6"/><path d="M172 120.5L167.9 119.6" stroke-width="0.6"/><path d="M172 120.5L167.5 119.9" stroke-width="0.6"/><path d="M193.9 121.3Q190.5 120.9 188.2 118.4" stroke-width="1"/><path d="M188.2 118.4Q185.6 117.1 182.5 119.5" stroke-width="0.7"/><path d="M182.5 119.5Q180.2 119.2 178.4 120.2" stroke-width="0.7"/><path d="M178.4 120.2Q175.9 120.7 173.8 118.8" stroke-width="0.4"/><path d="M173.8 118.8L169.6 117.6" stroke-width="0.6"/><path d="M173.8 118.8L169.8 118.8" stroke-width="0.6"/><path d="M173.8 118.8L169.5 119.5" stroke-width="0.6"/><path d="M182.5 119.5Q181 120.7 180.3 122.2" stroke-width="0.5"/><path d="M180.3 122.2Q179.1 123.6 176.4 122.9" stroke-width="0.4"/><path d="M176.4 122.9L173 123.4" stroke-width="0.6"/><path d="M176.4 122.9L174.6 124.8" stroke-width="0.6"/><path d="M176.4 122.9L174.8 124.3" stroke-width="0.6"/><path d="M169.5 254.9Q176.8 236.5 180.8 220.8" stroke-width="7.2"/><path d="M180.8 220.8Q186.2 204.4 201.1 198.2" stroke-width="4.9"/><path d="M201.1 198.2Q208.9 187.4 207.7 174.9" stroke-width="4.7"/><path d="M207.7 174.9Q211.9 160.2 224.2 153.7" stroke-width="3.2"/><path d="M224.2 153.7Q228.5 144.4 230.9 136.4" stroke-width="3.1"/><path d="M230.9 136.4Q234.6 126.7 237.5 120.2" stroke-width="2.1"/><path d="M237.5 120.2Q239.2 111.9 238.5 104.8" stroke-width="2"/><path d="M238.5 104.8Q239 97.3 239.4 92.3" stroke-width="1.3"/><path d="M239.4 92.3Q239.6 86.6 242.7 82.5" stroke-width="1.3"/><path d="M242.7 82.5Q244.8 76.4 241.1 71.1" stroke-width="0.9"/><path d="M241.1 71.1Q241.9 66.1 241.5 61.9" stroke-width="0.8"/><path d="M241.5 61.9Q241.7 57.6 243.6 54.9" stroke-width="0.5"/><path d="M241.1 71.1Q238.9 68.3 236.6 66.4" stroke-width="0.6"/><path d="M236.6 66.4Q234.6 64.4 232.7 63.6" stroke-width="0.4"/><path d="M232.7 63.6L229 60.8" stroke-width="0.6"/><path d="M232.7 63.6L230.1 60.7" stroke-width="0.6"/><path d="M232.7 63.6L228.4 61" stroke-width="0.6"/><path d="M239.4 92.3Q236.9 88.2 233.9 85.5" stroke-width="1"/><path d="M233.9 85.5Q231.7 82.8 232.6 79.6" stroke-width="0.7"/><path d="M232.6 79.6Q230.4 76.7 229.8 73.6" stroke-width="0.6"/><path d="M229.8 73.6Q228.8 71.4 225.2 71.7" stroke-width="0.4"/><path d="M225.2 71.7L221.1 68.7" stroke-width="0.6"/><path d="M225.2 71.7L222.1 69" stroke-width="0.6"/><path d="M225.2 71.7L221.4 68.1" stroke-width="0.6"/><path d="M232.6 79.6Q230.5 78.5 228.5 78.7" stroke-width="0.5"/><path d="M228.5 78.7Q226.1 78.2 225.2 75.7" stroke-width="0.3"/><path d="M225.2 75.7L222.4 74.6" stroke-width="0.6"/><path d="M225.2 75.7L222.3 74.6" stroke-width="0.6"/><path d="M225.2 75.7L222.6 73.6" stroke-width="0.6"/><path d="M239.4 92.3Q241.9 89.8 242.6 86.7" stroke-width="0.9"/><path d="M242.6 86.7Q244.1 84 246.6 83.2" stroke-width="0.6"/><path d="M246.6 83.2L251.5 78.7" stroke-width="0.6"/><path d="M246.6 83.2L251.1 80.8" stroke-width="0.6"/><path d="M246.6 83.2L249.4 77.6" stroke-width="0.6"/><path d="M237.5 120.2Q242.2 116.2 245 111.9" stroke-width="1.7"/><path d="M245 111.9Q248.8 107.7 255.1 108.7" stroke-width="1.1"/><path d="M255.1 108.7Q258.9 106.6 261.8 104.5" stroke-width="1.1"/><path d="M261.8 104.5Q265.8 102 270.3 103" stroke-width="0.7"/><path d="M270.3 103Q273.9 101.9 276.2 99.5" stroke-width="0.7"/><path d="M276.2 99.5Q278.7 97.9 280.9 97.4" stroke-width="0.5"/><path d="M280.9 97.4L284.4 96" stroke-width="0.6"/><path d="M280.9 97.4L286.4 96.2" stroke-width="0.6"/><path d="M280.9 97.4L286.4 95.7" stroke-width="0.6"/><path d="M270.3 103Q271.3 100.2 273.3 98.5" stroke-width="0.6"/><path d="M273.3 98.5Q274.5 96.8 273.7 94.9" stroke-width="0.4"/><path d="M273.7 94.9L275.1 90.4" stroke-width="0.6"/><path d="M273.7 94.9L275.5 90.6" stroke-width="0.6"/><path d="M273.7 94.9L276.2 92.4" stroke-width="0.6"/><path d="M255.1 108.7Q255.5 105.7 256.1 103.4" stroke-width="0.9"/><path d="M256.1 103.4Q256.8 99.8 258.7 97.7" stroke-width="0.6"/><path d="M258.7 97.7L262.1 94" stroke-width="0.6"/><path d="M258.7 97.7L260.7 94.3" stroke-width="0.6"/><path d="M258.7 97.7L259.9 92.1" stroke-width="0.6"/><path d="M255.1 108.7Q257.8 108.4 260.1 109.3" stroke-width="0.8"/><path d="M260.1 109.3Q262.6 109.7 264.7 107.6" stroke-width="0.5"/><path d="M264.7 107.6L268.7 105.1" stroke-width="0.6"/><path d="M264.7 107.6L268.4 108.2" stroke-width="0.6"/><path d="M264.7 107.6L267.9 107.5" stroke-width="0.6"/><path d="M224.2 153.7Q231.9 147.5 233.6 138.5" stroke-width="2.6"/><path d="M233.6 138.5Q237.5 132 250.6 137.5" stroke-width="1.7"/><path d="M250.6 137.5Q256 135.2 260.3 133.1" stroke-width="1.6"/><path d="M260.3 133.1Q266.4 130.4 270 126.6" stroke-width="1.1"/><path d="M270 126.6Q273.8 124.4 275.9 121.2" stroke-width="1.1"/><path d="M275.9 121.2Q279.4 117.9 283.6 117.4" stroke-width="0.8"/><path d="M283.6 117.4Q286.8 115 288.1 111.6" stroke-width="0.7"/><path d="M288.1 111.6Q290 109.2 294.4 110.8" stroke-width="0.5"/><path d="M294.4 110.8L299.7 106.5" stroke-width="0.6"/><path d="M294.4 110.8L299.3 105.7" stroke-width="0.6"/><path d="M294.4 110.8L299.6 109.1" stroke-width="0.6"/><path d="M283.6 117.4Q286.8 118.1 289.5 116.6" stroke-width="0.5"/><path d="M289.5 116.6Q291.7 116.2 293.2 120.9" stroke-width="0.3"/><path d="M293.2 120.9L298.5 122.3" stroke-width="0.6"/><path d="M293.2 120.9L297 123.6" stroke-width="0.6"/><path d="M293.2 120.9L298.4 120.9" stroke-width="0.6"/><path d="M270 126.6Q273.4 127.5 275.1 130.5" stroke-width="0.8"/><path d="M275.1 130.5Q277.4 132.2 281 130.7" stroke-width="0.6"/><path d="M281 130.7L287.1 130.3" stroke-width="0.6"/><path d="M281 130.7L285.5 130.7" stroke-width="0.6"/><path d="M281 130.7L286.1 133.3" stroke-width="0.6"/><path d="M250.6 137.5Q255.6 137.3 259.6 137.7" stroke-width="1.2"/><path d="M259.6 137.7Q264.1 137.8 267.6 139.6" stroke-width="0.8"/><path d="M267.6 139.6Q271.1 139.7 273.7 141.2" stroke-width="0.8"/><path d="M273.7 141.2Q276.9 142.1 280 140.4" stroke-width="0.5"/><path d="M280 140.4L284 140.6" stroke-width="0.6"/><path d="M280 140.4L285.6 140.3" stroke-width="0.6"/><path d="M280 140.4L284 140" stroke-width="0.6"/><path d="M267.6 139.6Q269.6 137.9 271.2 136.4" stroke-width="0.6"/><path d="M271.2 136.4Q273.1 134.7 274.5 133.8" stroke-width="0.4"/><path d="M274.5 133.8L277.9 131.7" stroke-width="0.6"/><path d="M274.5 133.8L277.9 131.3" stroke-width="0.6"/><path d="M274.5 133.8L278.2 132.7" stroke-width="0.6"/><path d="M201.1 198.2Q210.6 192.3 220.9 193.7" stroke-width="3.3"/><path d="M220.9 193.7Q228.2 192 231.2 183.7" stroke-width="2.3"/><path d="M231.2 183.7Q237.7 178.4 245.6 178.6" stroke-width="2"/><path d="M245.6 178.6Q251.4 176.5 250.6 166.8" stroke-width="1.4"/><path d="M250.6 166.8Q253.9 162.8 256.6 159.5" stroke-width="1.3"/><path d="M256.6 159.5Q259.8 155.6 264 154.6" stroke-width="0.9"/><path d="M264 154.6Q267.3 151.8 271 150.9" stroke-width="0.8"/><path d="M271 150.9Q273.9 149.4 275.3 147.1" stroke-width="0.5"/><path d="M275.3 147.1L281.4 143.8" stroke-width="0.6"/><path d="M275.3 147.1L281.9 143.9" stroke-width="0.6"/><path d="M275.3 147.1L280.7 145.3" stroke-width="0.6"/><path d="M264 154.6Q264.1 152 266.1 150.3" stroke-width="0.6"/><path d="M266.1 150.3Q267.3 147.8 262.9 145.3" stroke-width="0.4"/><path d="M262.9 145.3L261.4 142.4" stroke-width="0.6"/><path d="M262.9 145.3L261 141.9" stroke-width="0.6"/><path d="M262.9 145.3L262.9 140" stroke-width="0.6"/><path d="M250.6 166.8Q251.8 162 249.7 157.9" stroke-width="1"/><path d="M249.7 157.9Q249.3 154 253.2 151.5" stroke-width="0.7"/><path d="M253.2 151.5Q253.8 148.3 252.3 145.6" stroke-width="0.7"/><path d="M252.3 145.6Q251.7 142.4 255.5 140.4" stroke-width="0.5"/><path d="M255.5 140.4L254.4 134.8" stroke-width="0.6"/><path d="M255.5 140.4L256.4 134.7" stroke-width="0.6"/><path d="M255.5 140.4L256.3 136.6" stroke-width="0.6"/><path d="M253.2 151.5Q252.3 149.1 252.2 147" stroke-width="0.5"/><path d="M252.2 147Q251.8 145 250.2 144.2" stroke-width="0.3"/><path d="M250.2 144.2L248.9 140.3" stroke-width="0.6"/><path d="M250.2 144.2L249.3 140.7" stroke-width="0.6"/><path d="M250.2 144.2L250.1 141.6" stroke-width="0.6"/><path d="M253.2 151.5Q254.7 149.9 256.4 149.2" stroke-width="0.5"/><path d="M256.4 149.2Q257.8 148.1 258 146.5" stroke-width="0.3"/><path d="M258 146.5L258.9 144.2" stroke-width="0.6"/><path d="M258 146.5L260.4 143.5" stroke-width="0.6"/><path d="M258 146.5L259 142.8" stroke-width="0.6"/><path d="M231.2 183.7Q235.9 184.3 239.5 185.9" stroke-width="1.5"/><path d="M239.5 185.9Q244.7 187.2 249.4 185.4" stroke-width="1"/><path d="M249.4 185.4Q252.6 185.5 255.1 186.4" stroke-width="1"/><path d="M255.1 186.4Q258.8 187.1 261.8 188.1" stroke-width="0.7"/><path d="M261.8 188.1Q264.8 188.7 267.3 187.9" stroke-width="0.6"/><path d="M267.3 187.9Q269.4 187.8 271.1 189.5" stroke-width="0.4"/><path d="M271.1 189.5L275.4 188.4" stroke-width="0.6"/><path d="M271.1 189.5L275.8 190.1" stroke-width="0.6"/><path d="M271.1 189.5L274.4 190.6" stroke-width="0.6"/><path d="M261.8 188.1Q263 190 263.7 191.7" stroke-width="0.5"/><path d="M263.7 191.7Q264.5 193.3 265.6 194.6" stroke-width="0.4"/><path d="M265.6 194.6L268.3 196.5" stroke-width="0.6"/><path d="M265.6 194.6L267.4 196.2" stroke-width="0.6"/><path d="M265.6 194.6L267.9 196.8" stroke-width="0.6"/><path d="M249.4 185.4Q251.8 184.3 253.4 182.6" stroke-width="0.8"/><path d="M253.4 182.6Q255.9 180.8 258.3 180.2" stroke-width="0.5"/><path d="M258.3 180.2Q260.3 179.2 261.9 178.1" stroke-width="0.5"/><path d="M261.9 178.1Q263.7 177.1 265.2 176.6" stroke-width="0.3"/><path d="M265.2 176.6L268.6 176" stroke-width="0.6"/><path d="M265.2 176.6L268.1 173.7" stroke-width="0.6"/><path d="M265.2 176.6L267.2 173.6" stroke-width="0.6"/><path d="M258.3 180.2Q259.9 180 261.1 179.4" stroke-width="0.4"/><path d="M261.1 179.4Q262.8 179 264.3 179.1" stroke-width="0.2"/><path d="M264.3 179.1L266.7 177.9" stroke-width="0.6"/><path d="M264.3 179.1L266.2 178.4" stroke-width="0.6"/><path d="M264.3 179.1L266.1 178.2" stroke-width="0.6"/><path d="M258.3 180.2Q258.8 178.8 258.7 177.6" stroke-width="0.4"/><path d="M258.7 177.6Q258.9 176.4 258.8 175.6" stroke-width="0.2"/><path d="M258.8 175.6L259.1 174" stroke-width="0.6"/><path d="M258.8 175.6L258.5 173.8" stroke-width="0.6"/><path d="M258.8 175.6L259.1 174.1" stroke-width="0.6"/><path d="M74.2 335.9Q71.8 303.7 74.9 277.3" stroke-width="11.3"/><path d="M74.9 277.3Q75.1 255.8 64.4 242.6" stroke-width="7.7"/><path d="M64.4 242.6Q64.4 222.9 59.7 207.2" stroke-width="7"/><path d="M59.7 207.2Q57.1 188.2 66 174.9" stroke-width="4.7"/><path d="M66 174.9Q67 160.4 62.7 148.6" stroke-width="4.6"/><path d="M62.7 148.6Q61 135.3 71.4 126.2" stroke-width="3.1"/><path d="M71.4 126.2Q71 114.4 72.6 104.8" stroke-width="3.1"/><path d="M72.6 104.8Q73 96.4 76 91.2" stroke-width="2.1"/><path d="M76 91.2Q77.4 84.1 80.8 79" stroke-width="2.1"/><path d="M80.8 79Q83.5 72.2 82.6 66.7" stroke-width="1.4"/><path d="M82.6 66.7Q83.1 61.2 80 57.1" stroke-width="1.3"/><path d="M80 57.1Q78.5 51.7 86 47.7" stroke-width="0.9"/><path d="M86 47.7Q86.1 43.7 83.7 40.8" stroke-width="0.8"/><path d="M83.7 40.8Q82.6 37.4 86.3 34.5" stroke-width="0.6"/><path d="M86.3 34.5L86.9 29" stroke-width="0.6"/><path d="M86.3 34.5L84.4 29.4" stroke-width="0.6"/><path d="M86.3 34.5L88.5 29.6" stroke-width="0.6"/><path d="M86 47.7Q84.9 44.7 82.1 43.3" stroke-width="0.6"/><path d="M82.1 43.3Q80 40.9 80.9 37.6" stroke-width="0.4"/><path d="M80.9 37.6L78 32.1" stroke-width="0.6"/><path d="M80.9 37.6L79.1 31.6" stroke-width="0.6"/><path d="M80.9 37.6L80.3 32.2" stroke-width="0.6"/><path d="M82.6 66.7Q81.3 62.5 82.6 58.8" stroke-width="1"/><path d="M82.6 58.8Q82.5 55 81.8 52.5" stroke-width="0.7"/><path d="M81.8 52.5Q81 49.2 81.2 46.3" stroke-width="0.6"/><path d="M81.2 46.3Q81 44 80.9 42.5" stroke-width="0.4"/><path d="M80.9 42.5L79.4 37.9" stroke-width="0.6"/><path d="M80.9 42.5L80.9 36.8" stroke-width="0.6"/><path d="M80.9 42.5L81.5 38.4" stroke-width="0.6"/><path d="M81.8 52.5Q80.5 50.2 78.6 49" stroke-width="0.5"/><path d="M78.6 49Q77.3 47.5 78.1 45.4" stroke-width="0.4"/><path d="M78.1 45.4L75.2 42.7" stroke-width="0.6"/><path d="M78.1 45.4L76.4 42.9" stroke-width="0.6"/><path d="M78.1 45.4L75.6 41.9" stroke-width="0.6"/><path d="M82.6 66.7Q81.1 63.6 80.8 60.6" stroke-width="0.9"/><path d="M80.8 60.6Q80 58 76.3 57.8" stroke-width="0.6"/><path d="M76.3 57.8L72.9 52.8" stroke-width="0.6"/><path d="M76.3 57.8L75.3 52.1" stroke-width="0.6"/><path d="M76.3 57.8L74.9 52.3" stroke-width="0.6"/><path d="M76 91.2Q73.7 85.2 74.2 79.6" stroke-width="1.7"/><path d="M74.2 79.6Q73.4 74.6 70.1 72" stroke-width="1.2"/><path d="M70.1 72Q68.1 67.9 67.7 64.1" stroke-width="1.1"/><path d="M67.7 64.1Q66.5 60.4 61.9 59.7" stroke-width="0.7"/><path d="M61.9 59.7Q60.7 57 61.5 54.4" stroke-width="0.7"/><path d="M61.5 54.4Q61.2 51.5 56 51.4" stroke-width="0.5"/><path d="M56 51.4L53.6 47.7" stroke-width="0.6"/><path d="M56 51.4L51.9 47.3" stroke-width="0.6"/><path d="M56 51.4L54.7 47.3" stroke-width="0.6"/><path d="M61.9 59.7Q59.8 58.8 59 56.7" stroke-width="0.6"/><path d="M59 56.7Q57.3 55 53.7 57.9" stroke-width="0.4"/><path d="M53.7 57.9L50.6 58.3" stroke-width="0.6"/><path d="M53.7 57.9L50.6 55.5" stroke-width="0.6"/><path d="M53.7 57.9L49.2 57.9" stroke-width="0.6"/><path d="M61.9 59.7Q62.3 58 63.7 57.1" stroke-width="0.5"/><path d="M63.7 57.1Q64.8 55.4 62.5 53.1" stroke-width="0.3"/><path d="M62.5 53.1L62.9 50.9" stroke-width="0.6"/><path d="M62.5 53.1L63.7 49.6" stroke-width="0.6"/><path d="M62.5 53.1L62.7 50.8" stroke-width="0.6"/><path d="M70.1 72Q71.1 69.1 71.4 66.5" stroke-width="0.9"/><path d="M71.4 66.5Q72.3 62.9 72.6 60.4" stroke-width="0.6"/><path d="M72.6 60.4L74.3 54.9" stroke-width="0.6"/><path d="M72.6 60.4L72.6 56.7" stroke-width="0.6"/><path d="M72.6 60.4L71.6 54.4" stroke-width="0.6"/><path d="M71.4 126.2Q65.8 119.2 58.3 116.5" stroke-width="2.2"/><path d="M58.3 116.5Q52.8 112.4 49.1 109.1" stroke-width="1.5"/><path d="M49.1 109.1Q43.9 105.3 40.4 101.3" stroke-width="1.4"/><path d="M40.4 101.3Q36.1 97.5 32.2 95.6" stroke-width="1"/><path d="M32.2 95.6Q28.8 92.4 27.1 88.8" stroke-width="0.9"/><path d="M27.1 88.8Q24.2 84.9 19.1 85" stroke-width="0.6"/><path d="M19.1 85Q15.9 82.6 15.4 78.8" stroke-width="0.6"/><path d="M15.4 78.8Q13.9 76.3 9.6 77.3" stroke-width="0.4"/><path d="M9.6 77.3L5.2 73.2" stroke-width="0.6"/><path d="M9.6 77.3L7 74.6" stroke-width="0.6"/><path d="M9.6 77.3L6 74.5" stroke-width="0.6"/><path d="M19.1 85Q18.3 82.4 17.5 80.2" stroke-width="0.5"/><path d="M17.5 80.2Q16.8 78 14.8 77.2" stroke-width="0.3"/><path d="M14.8 77.2L14.1 74.3" stroke-width="0.6"/><path d="M14.8 77.2L13.5 74.7" stroke-width="0.6"/><path d="M14.8 77.2L12 74.5" stroke-width="0.6"/><path d="M32.2 95.6Q28.6 95.7 25.6 95.2" stroke-width="0.8"/><path d="M25.6 95.2Q23.1 95 20.9 95.6" stroke-width="0.5"/><path d="M20.9 95.6L17.1 96" stroke-width="0.6"/><path d="M20.9 95.6L16.9 94.5" stroke-width="0.6"/><path d="M20.9 95.6L16.9 93.9" stroke-width="0.6"/><path d="M49.1 109.1Q48.3 105.5 49.4 102.4" stroke-width="1.2"/><path d="M49.4 102.4Q49.6 98.1 44.7 95.7" stroke-width="0.8"/><path d="M44.7 95.7Q44.3 92.6 43.1 90.1" stroke-width="0.8"/><path d="M43.1 90.1Q42.5 87.8 43.4 86" stroke-width="0.5"/><path d="M43.4 86L42.1 82" stroke-width="0.6"/><path d="M43.4 86L41.8 81.6" stroke-width="0.6"/><path d="M43.4 86L41.3 82.4" stroke-width="0.6"/><path d="M44.7 95.7Q45.1 93.7 46.5 92.4" stroke-width="0.6"/><path d="M46.5 92.4Q47.6 90.5 44.3 88.3" stroke-width="0.4"/><path d="M44.3 88.3L45.2 84.5" stroke-width="0.6"/><path d="M44.3 88.3L45.6 85.1" stroke-width="0.6"/><path d="M44.3 88.3L44 85.4" stroke-width="0.6"/><path d="M44.7 95.7Q44.9 93.7 45.2 92.1" stroke-width="0.5"/><path d="M45.2 92.1Q45.5 90.5 45.1 89.3" stroke-width="0.4"/><path d="M45.1 89.3L44.7 87.4" stroke-width="0.6"/><path d="M45.1 89.3L45.1 86" stroke-width="0.6"/><path d="M45.1 89.3L44.8 86.6" stroke-width="0.6"/><path d="M49.1 109.1Q45.7 108.4 42.8 108.9" stroke-width="1"/><path d="M42.8 108.9Q39 108.8 36.1 106.9" stroke-width="0.7"/><path d="M36.1 106.9Q33.5 106.1 31.9 104.4" stroke-width="0.6"/><path d="M31.9 104.4Q29.4 103 26.9 103.2" stroke-width="0.4"/><path d="M26.9 103.2L23.1 101.8" stroke-width="0.6"/><path d="M26.9 103.2L22.1 101.9" stroke-width="0.6"/><path d="M26.9 103.2L22.6 102.3" stroke-width="0.6"/><path d="M36.1 106.9Q34.3 108.1 33.9 110.1" stroke-width="0.4"/><path d="M33.9 110.1Q32.9 111.5 30.1 110.8" stroke-width="0.3"/><path d="M30.1 110.8L26.5 111.3" stroke-width="0.6"/><path d="M30.1 110.8L27.4 112.3" stroke-width="0.6"/><path d="M30.1 110.8L26.6 112.4" stroke-width="0.6"/><path d="M36.1 106.9Q35.3 105.7 34.2 105" stroke-width="0.4"/><path d="M34.2 105Q33.1 103.9 33.2 102.4" stroke-width="0.3"/><path d="M33.2 102.4L31.8 101.2" stroke-width="0.6"/><path d="M33.2 102.4L32.1 100.9" stroke-width="0.6"/><path d="M33.2 102.4L32 101" stroke-width="0.6"/><path d="M71.4 126.2Q76.1 119.7 81.6 115.7" stroke-width="2.1"/><path d="M81.6 115.7Q85.4 111.8 85.8 107.4" stroke-width="1.4"/><path d="M85.8 107.4Q89.2 104 93 102.3" stroke-width="1.3"/><path d="M93 102.3Q97 99.5 97.9 95.2" stroke-width="0.9"/><path d="M97.9 95.2Q101.3 92.6 104.2 90.5" stroke-width="0.8"/><path d="M104.2 90.5Q106.6 88.7 108.2 87.1" stroke-width="0.6"/><path d="M108.2 87.1L113 85.7" stroke-width="0.6"/><path d="M108.2 87.1L115.1 85" stroke-width="0.6"/><path d="M108.2 87.1L112.1 82.2" stroke-width="0.6"/><path d="M97.9 95.2Q100.4 94.2 102.9 94.7" stroke-width="0.6"/><path d="M102.9 94.7Q105.1 94.5 106.1 91.7" stroke-width="0.4"/><path d="M106.1 91.7L108.9 88.7" stroke-width="0.6"/><path d="M106.1 91.7L108.6 90.4" stroke-width="0.6"/><path d="M106.1 91.7L110.9 90.4" stroke-width="0.6"/><path d="M97.9 95.2Q99.9 94.5 101.1 93.1" stroke-width="0.6"/><path d="M101.1 93.1Q102.7 92.1 104.9 93.6" stroke-width="0.4"/><path d="M104.9 93.6L107.3 91.9" stroke-width="0.6"/><path d="M104.9 93.6L108.4 92.8" stroke-width="0.6"/><path d="M104.9 93.6L107.8 93.1" stroke-width="0.6"/><path d="M85.8 107.4Q86.6 103.6 87 100.4" stroke-width="1"/><path d="M87 100.4Q87.6 96.5 90.2 94.3" stroke-width="0.7"/><path d="M90.2 94.3Q91.6 91.7 91.6 89" stroke-width="0.6"/><path d="M91.6 89Q92.3 86 96.6 85.6" stroke-width="0.4"/><path d="M96.6 85.6L97.7 79.8" stroke-width="0.6"/><path d="M96.6 85.6L101.4 82.7" stroke-width="0.6"/><path d="M96.6 85.6L99.8 82" stroke-width="0.6"/><path d="M90.2 94.3Q92.4 93.3 94.3 92.8" stroke-width="0.5"/><path d="M94.3 92.8Q96.5 92 98.3 92.1" stroke-width="0.4"/><path d="M98.3 92.1L102.4 90.6" stroke-width="0.6"/><path d="M98.3 92.1L101.1 91.4" stroke-width="0.6"/><path d="M98.3 92.1L101.3 91.4" stroke-width="0.6"/><path d="M90.2 94.3Q91.7 93.2 92.5 91.8" stroke-width="0.4"/><path d="M92.5 91.8Q93.6 90.6 94.9 90.3" stroke-width="0.3"/><path d="M94.9 90.3L97.7 88.9" stroke-width="0.6"/><path d="M94.9 90.3L96.8 89" stroke-width="0.6"/><path d="M94.9 90.3L96.5 89.2" stroke-width="0.6"/><path d="M66 174.9Q73.9 165.2 80.3 157.3" stroke-width="3.2"/><path d="M80.3 157.3Q87.3 148.6 90.4 141.2" stroke-width="2.1"/><path d="M90.4 141.2Q94.4 134.2 99.6 129.7" stroke-width="2"/><path d="M99.6 129.7Q105.1 122.8 105.7 115.7" stroke-width="1.4"/><path d="M105.7 115.7Q109.6 111 112.8 107.2" stroke-width="1.3"/><path d="M112.8 107.2Q116.6 102.6 121.4 101.3" stroke-width="0.9"/><path d="M121.4 101.3Q124.8 98.6 125.3 94.5" stroke-width="0.9"/><path d="M125.3 94.5Q127.7 90.5 131.8 89.4" stroke-width="0.6"/><path d="M131.8 89.4Q133.8 87.3 134.3 84.8" stroke-width="0.5"/><path d="M134.3 84.8Q136 81.8 140.1 82" stroke-width="0.4"/><path d="M140.1 82L144.8 79.2" stroke-width="0.6"/><path d="M140.1 82L144.6 79.2" stroke-width="0.6"/><path d="M140.1 82L145.6 80.2" stroke-width="0.6"/><path d="M131.8 89.4Q134.1 88.5 135.4 86.6" stroke-width="0.4"/><path d="M135.4 86.6Q137.3 85 139.9 85.6" stroke-width="0.3"/><path d="M139.9 85.6L143.6 84.2" stroke-width="0.6"/><path d="M139.9 85.6L143.8 85.1" stroke-width="0.6"/><path d="M139.9 85.6L143.1 82.8" stroke-width="0.6"/><path d="M121.4 101.3Q124.5 101.4 127 100.3" stroke-width="0.7"/><path d="M127 100.3Q130.4 99.7 133.3 100.1" stroke-width="0.5"/><path d="M133.3 100.1L137.6 100.1" stroke-width="0.6"/><path d="M133.3 100.1L137.8 100.8" stroke-width="0.6"/><path d="M133.3 100.1L139.4 99.9" stroke-width="0.6"/><path d="M105.7 115.7Q106.2 110.8 106.6 106.8" stroke-width="1.1"/><path d="M106.6 106.8Q107.1 102.1 110.1 99.5" stroke-width="0.7"/><path d="M110.1 99.5Q111.5 95.9 114.4 94" stroke-width="0.7"/><path d="M114.4 94Q116.2 91.8 113.1 88.2" stroke-width="0.5"/><path d="M113.1 88.2L113.1 84" stroke-width="0.6"/><path d="M113.1 88.2L112.8 81.7" stroke-width="0.6"/><path d="M113.1 88.2L115.8 85" stroke-width="0.6"/><path d="M110.1 99.5Q108.6 96.8 106.5 95.3" stroke-width="0.5"/><path d="M106.5 95.3Q104.8 93.5 106.3 90.6" stroke-width="0.3"/><path d="M106.3 90.6L104.1 86.1" stroke-width="0.6"/><path d="M106.3 90.6L104 87.7" stroke-width="0.6"/><path d="M106.3 90.6L104.5 87.2" stroke-width="0.6"/><path d="M90.4 141.2Q91.8 133.3 92.2 126.7" stroke-width="1.4"/><path d="M92.2 126.7Q92.9 120.9 98.7 118.4" stroke-width="1"/><path d="M98.7 118.4Q101 113.9 104.5 111.2" stroke-width="0.9"/><path d="M104.5 111.2Q107.7 107.2 109.4 103.9" stroke-width="0.6"/><path d="M109.4 103.9Q112.3 100.8 116.4 100.6" stroke-width="0.6"/><path d="M116.4 100.6Q119.6 99 118.3 93.5" stroke-width="0.4"/><path d="M118.3 93.5Q120.2 91.5 121.1 89.3" stroke-width="0.4"/><path d="M121.1 89.3Q122.5 87.1 125.6 87.5" stroke-width="0.2"/><path d="M125.6 87.5L128.8 85.7" stroke-width="0.6"/><path d="M125.6 87.5L128.7 86.6" stroke-width="0.6"/><path d="M125.6 87.5L129.1 84.9" stroke-width="0.6"/><path d="M109.4 103.9Q113 103.5 115.8 102.4" stroke-width="0.4"/><path d="M115.8 102.4Q118.2 101.8 120.5 104" stroke-width="0.3"/><path d="M120.5 104L126.4 104.3" stroke-width="0.6"/><path d="M120.5 104L123.6 102.3" stroke-width="0.6"/><path d="M120.5 104L124.1 105.2" stroke-width="0.6"/><path d="M109.4 103.9Q109.2 102 108.8 100.4" stroke-width="0.4"/><path d="M108.8 100.4Q108.4 98.1 108.4 96.4" stroke-width="0.3"/><path d="M108.4 96.4L107 92.7" stroke-width="0.6"/><path d="M108.4 96.4L107.3 93.6" stroke-width="0.6"/><path d="M108.4 96.4L108.5 93.3" stroke-width="0.6"/><path d="M98.7 118.4Q102 115.9 104.6 113.8" stroke-width="0.7"/><path d="M104.6 113.8Q107.6 111.6 108.8 109" stroke-width="0.5"/><path d="M108.8 109Q111.3 106.7 113.1 104.6" stroke-width="0.4"/><path d="M113.1 104.6Q114.8 102.9 115.9 101.6" stroke-width="0.3"/><path d="M115.9 101.6L119 98.1" stroke-width="0.6"/><path d="M115.9 101.6L119.2 98.3" stroke-width="0.6"/><path d="M115.9 101.6L119 99.4" stroke-width="0.6"/><path d="M108.8 109Q111.1 109.1 112.9 108.3" stroke-width="0.4"/><path d="M112.9 108.3Q115.4 107.9 117.4 110.7" stroke-width="0.2"/><path d="M117.4 110.7L121.2 110.1" stroke-width="0.6"/><path d="M117.4 110.7L121.6 112.6" stroke-width="0.6"/><path d="M117.4 110.7L121.2 113.3" stroke-width="0.6"/><path d="M98.7 118.4Q101.1 116.6 102 114" stroke-width="0.6"/><path d="M102 114Q103.8 111.7 107.3 112.3" stroke-width="0.4"/><path d="M107.3 112.3Q109.5 110.9 111.3 109.8" stroke-width="0.4"/><path d="M111.3 109.8Q112.7 108.8 113.6 107.8" stroke-width="0.3"/><path d="M113.6 107.8L117 106.9" stroke-width="0.6"/><path d="M113.6 107.8L115.1 105.4" stroke-width="0.6"/><path d="M113.6 107.8L116.8 107" stroke-width="0.6"/><path d="M64.4 242.6Q56.3 231.4 51.3 221.2" stroke-width="6.2"/><path d="M51.3 221.2Q42.8 207.6 34.8 199.3" stroke-width="4.2"/><path d="M34.8 199.3Q29.5 189 19.7 184.7" stroke-width="3.9"/><path d="M19.7 184.7Q12.7 177.9 14.9 167.6" stroke-width="2.7"/><path d="M14.9 167.6Q10.8 161.7 6.3 157.6" stroke-width="2.4"/><path d="M6.3 157.6Q1.5 152.1 3.2 144.9" stroke-width="1.6"/><path d="M3.2 144.9Q1.3 139.1 -2.8 135.5" stroke-width="1.5"/><path d="M-2.8 135.5Q-5.2 131.7 -5.1 128.3" stroke-width="1"/><path d="M-5.1 128.3Q-6.8 124.8 -9.6 122.8" stroke-width="0.9"/><path d="M-9.6 122.8Q-11.8 120 -11 116.6" stroke-width="0.6"/><path d="M-11 116.6L-12.6 112.1" stroke-width="0.6"/><path d="M-11 116.6L-12.7 109.5" stroke-width="0.6"/><path d="M-11 116.6L-14.1 112.6" stroke-width="0.6"/><path d="M-5.1 128.3Q-7.2 126.7 -7.9 124.4" stroke-width="0.7"/><path d="M-7.9 124.4Q-9.7 121.9 -13.2 122" stroke-width="0.5"/><path d="M-13.2 122L-16 120" stroke-width="0.6"/><path d="M-13.2 122L-15.5 117.6" stroke-width="0.6"/><path d="M-13.2 122L-15.4 119.4" stroke-width="0.6"/><path d="M3.2 144.9Q3.3 140.6 0.8 137.5" stroke-width="1.2"/><path d="M0.8 137.5Q-0.3 133.8 0.7 130.9" stroke-width="0.8"/><path d="M0.7 130.9Q-0.2 128.1 1 125.5" stroke-width="0.7"/><path d="M1 125.5Q1.2 122.9 -2.4 121.7" stroke-width="0.5"/><path d="M-2.4 121.7L-2.9 117.7" stroke-width="0.6"/><path d="M-2.4 121.7L-3.3 117.1" stroke-width="0.6"/><path d="M-2.4 121.7L-3 118.5" stroke-width="0.6"/><path d="M0.7 130.9Q-0.7 129.5 -1.9 128.4" stroke-width="0.6"/><path d="M-1.9 128.4Q-3.6 126.7 -4.9 125.5" stroke-width="0.4"/><path d="M-4.9 125.5L-7.8 123" stroke-width="0.6"/><path d="M-4.9 125.5L-7.9 124.2" stroke-width="0.6"/><path d="M-4.9 125.5L-7.2 124" stroke-width="0.6"/><path d="M14.9 167.6Q8.7 165.8 4.1 163" stroke-width="1.8"/><path d="M4.1 163Q-0.4 161.1 -5.4 164.6" stroke-width="1.2"/><path d="M-5.4 164.6Q-9.4 164.5 -12.4 166.3" stroke-width="1.1"/><path d="M-12.4 166.3Q-16.4 167.2 -19.9 167.3" stroke-width="0.7"/><path d="M-19.9 167.3Q-22.6 167.8 -24.9 167.6" stroke-width="0.7"/><path d="M-24.9 167.6Q-27.8 167.8 -30.1 168" stroke-width="0.5"/><path d="M-30.1 168L-34 168.7" stroke-width="0.6"/><path d="M-30.1 168L-35 170.5" stroke-width="0.6"/><path d="M-30.1 168L-35.2 166.1" stroke-width="0.6"/><path d="M-19.9 167.3Q-21.4 168.9 -22 170.8" stroke-width="0.6"/><path d="M-22 170.8Q-23 172.4 -24.6 173.5" stroke-width="0.4"/><path d="M-24.6 173.5L-25.9 177.1" stroke-width="0.6"/><path d="M-24.6 173.5L-26.7 175.7" stroke-width="0.6"/><path d="M-24.6 173.5L-25.5 176.6" stroke-width="0.6"/><path d="M-5.4 164.6Q-7.9 166 -9.9 167.4" stroke-width="0.8"/><path d="M-9.9 167.4Q-12.6 169.1 -14.3 171.8" stroke-width="0.6"/><path d="M-14.3 171.8Q-16.4 173.3 -17.1 175.5" stroke-width="0.5"/><path d="M-17.1 175.5Q-18.3 177.2 -21.8 175.8" stroke-width="0.4"/><path d="M-21.8 175.8L-24.3 178.7" stroke-width="0.6"/><path d="M-21.8 175.8L-24.7 176" stroke-width="0.6"/><path d="M-21.8 175.8L-23.9 178" stroke-width="0.6"/><path d="M-14.3 171.8Q-14.8 173.5 -15 175" stroke-width="0.4"/><path d="M-15 175Q-15.3 176.3 -15.6 177.6" stroke-width="0.2"/><path d="M-15.6 177.6L-16.2 180" stroke-width="0.6"/><path d="M-15.6 177.6L-15.6 179.4" stroke-width="0.6"/><path d="M-15.6 177.6L-15.3 180.7" stroke-width="0.6"/><path d="M-5.4 164.6Q-7.4 162.5 -9.5 161.4" stroke-width="0.8"/><path d="M-9.5 161.4Q-11.2 160.1 -10.4 157.4" stroke-width="0.5"/><path d="M-10.4 157.4Q-11.2 155.6 -11.3 153.8" stroke-width="0.5"/><path d="M-11.3 153.8Q-11.6 152.4 -13.8 152.2" stroke-width="0.4"/><path d="M-13.8 152.2L-15.2 150.1" stroke-width="0.6"/><path d="M-13.8 152.2L-15.7 149.8" stroke-width="0.6"/><path d="M-13.8 152.2L-15.2 150.5" stroke-width="0.6"/><path d="M-10.4 157.4Q-10.1 155.8 -10.3 154.4" stroke-width="0.4"/><path d="M-10.3 154.4Q-10.3 153 -8.9 152.3" stroke-width="0.3"/><path d="M-8.9 152.3L-7.5 150.1" stroke-width="0.6"/><path d="M-8.9 152.3L-9.1 150.6" stroke-width="0.6"/><path d="M-8.9 152.3L-7.7 150.1" stroke-width="0.6"/><path d="M14.9 167.6Q14.8 162.6 17.6 159" stroke-width="1.8"/><path d="M17.6 159Q19 154.2 17.7 150.4" stroke-width="1.2"/><path d="M17.7 150.4Q18.5 146.1 20.4 143" stroke-width="1.1"/><path d="M20.4 143Q21.5 139.9 21.7 137.8" stroke-width="0.7"/><path d="M21.7 137.8Q22.1 135.2 22 133.1" stroke-width="0.7"/><path d="M22 133.1Q22.1 130.2 24.5 128.6" stroke-width="0.5"/><path d="M24.5 128.6L27 125.2" stroke-width="0.6"/><path d="M24.5 128.6L24.8 125.3" stroke-width="0.6"/><path d="M24.5 128.6L26.6 124.3" stroke-width="0.6"/><path d="M21.7 137.8Q23.7 136.7 24.8 134.9" stroke-width="0.5"/><path d="M24.8 134.9Q26.2 133.6 28.9 135.2" stroke-width="0.3"/><path d="M28.9 135.2L32.4 132.9" stroke-width="0.6"/><path d="M28.9 135.2L31.4 133.1" stroke-width="0.6"/><path d="M28.9 135.2L31.5 135.3" stroke-width="0.6"/><path d="M17.7 150.4Q15.9 148 14.3 146" stroke-width="0.8"/><path d="M14.3 146Q12.6 143.7 11.7 141.9" stroke-width="0.6"/><path d="M11.7 141.9Q10.2 140.2 9.2 138.6" stroke-width="0.5"/><path d="M9.2 138.6Q8.2 137.2 5.9 137.7" stroke-width="0.4"/><path d="M5.9 137.7L3.7 135.6" stroke-width="0.6"/><path d="M5.9 137.7L3.4 134.9" stroke-width="0.6"/><path d="M5.9 137.7L2.3 136.3" stroke-width="0.6"/><path d="M11.7 141.9Q10.1 141.2 9.2 139.7" stroke-width="0.4"/><path d="M9.2 139.7Q7.9 138.6 6.4 138.6" stroke-width="0.3"/><path d="M6.4 138.6L5 136.6" stroke-width="0.6"/><path d="M6.4 138.6L3 138" stroke-width="0.6"/><path d="M6.4 138.6L4.6 137.4" stroke-width="0.6"/><path d="M11.7 141.9Q11.7 140.5 12.1 139.3" stroke-width="0.4"/><path d="M12.1 139.3Q12.3 137.9 11.8 136.9" stroke-width="0.2"/><path d="M11.8 136.9L11.5 134.4" stroke-width="0.6"/><path d="M11.8 136.9L12 134.3" stroke-width="0.6"/><path d="M11.8 136.9L12.7 134.9" stroke-width="0.6"/><path d="M34.8 199.3Q33.9 191.3 30.3 185.3" stroke-width="3.1"/><path d="M30.3 185.3Q27.8 177.5 27.7 171.8" stroke-width="2.1"/><path d="M27.7 171.8Q26.1 166 26.3 160.9" stroke-width="1.9"/><path d="M26.3 160.9Q25.5 154.5 17.4 152.5" stroke-width="1.3"/><path d="M17.4 152.5Q14.8 148.2 10.6 146.3" stroke-width="1.2"/><path d="M10.6 146.3Q7.4 143.5 10.7 137.5" stroke-width="0.8"/><path d="M10.7 137.5Q9.3 134.9 9 132.4" stroke-width="0.8"/><path d="M9 132.4Q7.9 129.1 3.3 128.8" stroke-width="0.5"/><path d="M3.3 128.8L0.8 125" stroke-width="0.6"/><path d="M3.3 128.8L0.2 126.8" stroke-width="0.6"/><path d="M3.3 128.8L-0.8 124.4" stroke-width="0.6"/><path d="M10.7 137.5Q8.4 136.5 7.1 134.8" stroke-width="0.6"/><path d="M7.1 134.8Q5.1 133.3 2.1 135" stroke-width="0.4"/><path d="M2.1 135L-0.8 134.3" stroke-width="0.6"/><path d="M2.1 135L-1.6 131.8" stroke-width="0.6"/><path d="M2.1 135L-0.7 134.4" stroke-width="0.6"/><path d="M17.4 152.5Q17.6 149.4 19.9 147.5" stroke-width="0.9"/><path d="M19.9 147.5Q21.3 144.6 19.7 141.7" stroke-width="0.6"/><path d="M19.7 141.7Q20.2 139.6 22 138.6" stroke-width="0.6"/><path d="M22 138.6Q23.5 136.7 23.5 134.8" stroke-width="0.4"/><path d="M23.5 134.8L24.5 131.9" stroke-width="0.6"/><path d="M23.5 134.8L26.4 131.7" stroke-width="0.6"/><path d="M23.5 134.8L25.4 132.6" stroke-width="0.6"/><path d="M19.7 141.7Q19 140.2 19.2 138.8" stroke-width="0.4"/><path d="M19.2 138.8Q19 137.2 17.3 136.6" stroke-width="0.3"/><path d="M17.3 136.6L15 134.5" stroke-width="0.6"/><path d="M17.3 136.6L16 135" stroke-width="0.6"/><path d="M17.3 136.6L16.9 134.1" stroke-width="0.6"/><path d="M27.7 171.8Q23.7 169.6 19.7 169.6" stroke-width="1.5"/><path d="M19.7 169.6Q16 168.6 14.9 164.1" stroke-width="1"/><path d="M14.9 164.1Q12.7 162.2 11.9 159.6" stroke-width="1"/><path d="M11.9 159.6Q10 156.8 6.2 157" stroke-width="0.7"/><path d="M6.2 157Q4.3 155.6 3.7 153.5" stroke-width="0.6"/><path d="M3.7 153.5Q2.5 151.7 -0.2 152.1" stroke-width="0.4"/><path d="M-0.2 152.1L-2.8 148.8" stroke-width="0.6"/><path d="M-0.2 152.1L-2.4 150.3" stroke-width="0.6"/><path d="M-0.2 152.1L-2.4 149.8" stroke-width="0.6"/><path d="M6.2 157Q5.7 154.8 6.1 152.9" stroke-width="0.5"/><path d="M6.1 152.9Q6 151.3 3.9 150.7" stroke-width="0.3"/><path d="M3.9 150.7L3.1 148.1" stroke-width="0.6"/><path d="M3.9 150.7L2 147.9" stroke-width="0.6"/><path d="M3.9 150.7L2 148.1" stroke-width="0.6"/><path d="M6.2 157Q4.6 156.4 3.3 155.9" stroke-width="0.4"/><path d="M3.3 155.9Q2.2 155.5 1.1 156.1" stroke-width="0.3"/><path d="M1.1 156.1L-0.9 156.4" stroke-width="0.6"/><path d="M1.1 156.1L-0.9 154.5" stroke-width="0.6"/><path d="M1.1 156.1L-1.2 156.6" stroke-width="0.6"/><path d="M14.9 164.1Q13.9 161.6 12.4 159.8" stroke-width="0.7"/><path d="M12.4 159.8Q11.3 158 13 155.9" stroke-width="0.5"/><path d="M13 155.9Q12.5 154 11.2 152.7" stroke-width="0.5"/><path d="M11.2 152.7Q10.5 151.4 10.6 150.3" stroke-width="0.3"/><path d="M10.6 150.3L8.9 148.5" stroke-width="0.6"/><path d="M10.6 150.3L10.2 148.3" stroke-width="0.6"/><path d="M10.6 150.3L10.6 147.5" stroke-width="0.6"/></g><g fill="none" stroke="#06050A" stroke-linecap="round"><path d="M1930 501.6Q1910.5 464.1 1908 428" stroke-width="20"/><path d="M1908 428Q1896.2 388.4 1883.5 363" stroke-width="13.6"/><path d="M1883.5 363Q1867.9 330.9 1864.3 301.1" stroke-width="12.8"/><path d="M1864.3 301.1Q1856 274.7 1836.8 262.5" stroke-width="8.7"/><path d="M1836.8 262.5Q1827.4 236.6 1826.2 213.6" stroke-width="8"/><path d="M1826.2 213.6Q1822.2 194.8 1814.8 183.8" stroke-width="5.4"/><path d="M1814.8 183.8Q1812.4 166 1820.6 151.6" stroke-width="4.9"/><path d="M1820.6 151.6Q1823.7 134.8 1808.9 122.9" stroke-width="3.3"/><path d="M1808.9 122.9Q1809.3 107.4 1799.9 96.3" stroke-width="3.1"/><path d="M1799.9 96.3Q1796.3 85.5 1809.6 76.1" stroke-width="2.1"/><path d="M1809.6 76.1Q1811 65.7 1810.9 57.1" stroke-width="1.9"/><path d="M1810.9 57.1Q1811.6 47.1 1812 40.3" stroke-width="1.3"/><path d="M1812 40.3Q1812.5 31.4 1814.6 24.2" stroke-width="1.2"/><path d="M1814.6 24.2Q1815.6 17.7 1809.7 13.3" stroke-width="0.8"/><path d="M1809.7 13.3Q1808.8 8.2 1806 4.6" stroke-width="0.8"/><path d="M1806 4.6Q1803.8 -0.7 1804.7 -5" stroke-width="0.6"/><path d="M1809.7 13.3Q1805.7 10 1801.4 8.9" stroke-width="0.6"/><path d="M1801.4 8.9Q1798.3 7.3 1796.3 5.6" stroke-width="0.4"/><path d="M1812 40.3Q1815.6 36.3 1818.1 32.5" stroke-width="0.9"/><path d="M1818.1 32.5Q1822.1 27.3 1826.6 24.8" stroke-width="0.6"/><path d="M1826.6 24.8Q1829.6 20.6 1832.9 17.8" stroke-width="0.6"/><path d="M1832.9 17.8Q1835.7 14.8 1836.8 12" stroke-width="0.4"/><path d="M1826.6 24.8Q1829.5 23.9 1831.8 22.7" stroke-width="0.4"/><path d="M1831.8 22.7Q1834.7 21.5 1837.4 22" stroke-width="0.3"/><path d="M1837.4 22L1842.2 19.8" stroke-width="0.6"/><path d="M1837.4 22L1843.2 21.4" stroke-width="0.6"/><path d="M1837.4 22L1843.1 22.7" stroke-width="0.6"/><path d="M1809.6 76.1Q1814.3 70.6 1818.5 66.4" stroke-width="1.4"/><path d="M1818.5 66.4Q1823.2 61.3 1825.4 56.7" stroke-width="1"/><path d="M1825.4 56.7Q1828.7 51.8 1834.3 50.6" stroke-width="0.9"/><path d="M1834.3 50.6Q1838.2 48 1835 40.6" stroke-width="0.6"/><path d="M1835 40.6Q1836.4 36.2 1839.4 33.6" stroke-width="0.6"/><path d="M1839.4 33.6Q1841.4 30.5 1836.4 26.3" stroke-width="0.4"/><path d="M1835 40.6Q1838.2 39.3 1841.2 39.4" stroke-width="0.5"/><path d="M1841.2 39.4Q1843.5 39 1845.1 37.7" stroke-width="0.3"/><path d="M1845.1 37.7L1849.4 38.1" stroke-width="0.6"/><path d="M1845.1 37.7L1849 34.7" stroke-width="0.6"/><path d="M1845.1 37.7L1849.5 35.2" stroke-width="0.6"/><path d="M1825.4 56.7Q1825.5 52.5 1826.8 49.2" stroke-width="0.7"/><path d="M1826.8 49.2Q1827.4 45.7 1824 43.3" stroke-width="0.5"/><path d="M1824 43.3L1825 36.8" stroke-width="0.6"/><path d="M1824 43.3L1821.1 36.6" stroke-width="0.6"/><path d="M1824 43.3L1823.1 36.2" stroke-width="0.6"/><path d="M1808.9 122.9Q1815.1 115.2 1816.8 106.8" stroke-width="2.5"/><path d="M1816.8 106.8Q1820.3 99.6 1833.6 103" stroke-width="1.7"/><path d="M1833.6 103Q1839.2 98.2 1846.2 98.5" stroke-width="1.6"/><path d="M1846.2 98.5Q1851.3 96.7 1847.5 85.4" stroke-width="1.1"/><path d="M1847.5 85.4Q1850 80.9 1851.7 77" stroke-width="1"/><path d="M1851.7 77Q1853.6 73.1 1853.3 69.9" stroke-width="0.7"/><path d="M1853.3 69.9Q1853.9 66.9 1854.4 64.4" stroke-width="0.6"/><path d="M1854.4 64.4Q1855.1 60.9 1856.9 58.9" stroke-width="0.4"/><path d="M1856.9 58.9L1858.6 55.2" stroke-width="0.6"/><path d="M1856.9 58.9L1858.8 54.1" stroke-width="0.6"/><path d="M1856.9 58.9L1857.3 54.2" stroke-width="0.6"/><path d="M1853.3 69.9Q1855.7 68.5 1858.3 69.3" stroke-width="0.5"/><path d="M1858.3 69.3Q1861.2 69 1863.3 67.6" stroke-width="0.3"/><path d="M1863.3 67.6L1868 68.4" stroke-width="0.6"/><path d="M1863.3 67.6L1868.1 65" stroke-width="0.6"/><path d="M1863.3 67.6L1868.3 68.1" stroke-width="0.6"/><path d="M1847.5 85.4Q1851.3 85 1854.3 84.1" stroke-width="0.8"/><path d="M1854.3 84.1Q1857.6 83.5 1860.4 86.1" stroke-width="0.5"/><path d="M1860.4 86.1L1865.3 88.6" stroke-width="0.6"/><path d="M1860.4 86.1L1867 85.9" stroke-width="0.6"/><path d="M1860.4 86.1L1865 87.8" stroke-width="0.6"/><path d="M1833.6 103Q1839 103.2 1843.2 105.5" stroke-width="1.2"/><path d="M1843.2 105.5Q1848.1 106.8 1852.5 106.4" stroke-width="0.8"/><path d="M1852.5 106.4Q1855.9 106.3 1858.6 107.9" stroke-width="0.8"/><path d="M1858.6 107.9Q1862.5 108.8 1866.1 106.6" stroke-width="0.5"/><path d="M1866.1 106.6L1871.9 105" stroke-width="0.6"/><path d="M1866.1 106.6L1871 104.9" stroke-width="0.6"/><path d="M1866.1 106.6L1871.2 106.7" stroke-width="0.6"/><path d="M1852.5 106.4Q1855 107.9 1856.2 110.2" stroke-width="0.6"/><path d="M1856.2 110.2Q1858.4 112.5 1861.8 112.8" stroke-width="0.4"/><path d="M1861.8 112.8L1866.9 114" stroke-width="0.6"/><path d="M1861.8 112.8L1864.6 116.4" stroke-width="0.6"/><path d="M1861.8 112.8L1866.4 114.8" stroke-width="0.6"/><path d="M1814.8 183.8Q1819.4 173.1 1829.8 168.8" stroke-width="3.8"/><path d="M1829.8 168.8Q1839.1 159.5 1830 143" stroke-width="2.6"/><path d="M1830 143Q1833.2 134.6 1838.8 129.1" stroke-width="2.4"/><path d="M1838.8 129.1Q1844.3 120.5 1845.6 113.2" stroke-width="1.6"/><path d="M1845.6 113.2Q1848.1 106.6 1847.6 100.6" stroke-width="1.6"/><path d="M1847.6 100.6Q1848.7 93.5 1857 90.9" stroke-width="1.1"/><path d="M1857 90.9Q1858.8 85.5 1861.1 81.4" stroke-width="1"/><path d="M1861.1 81.4Q1863 76.8 1861.1 72.8" stroke-width="0.7"/><path d="M1861.1 72.8Q1861.4 68.6 1862.6 65.4" stroke-width="0.6"/><path d="M1862.6 65.4Q1863.3 61.9 1862.9 59.5" stroke-width="0.4"/><path d="M1862.9 59.5L1862.2 54.7" stroke-width="0.6"/><path d="M1862.9 59.5L1862.2 52.5" stroke-width="0.6"/><path d="M1862.9 59.5L1861.7 53.9" stroke-width="0.6"/><path d="M1861.1 72.8Q1863.9 70.8 1866.4 69.5" stroke-width="0.5"/><path d="M1866.4 69.5Q1869 67.8 1870.7 66.2" stroke-width="0.3"/><path d="M1870.7 66.2L1875.2 64.3" stroke-width="0.6"/><path d="M1870.7 66.2L1875.8 62.1" stroke-width="0.6"/><path d="M1870.7 66.2L1874.5 62.2" stroke-width="0.6"/><path d="M1857 90.9Q1859.9 88.9 1860.6 85.7" stroke-width="0.7"/><path d="M1860.6 85.7Q1862.7 82.5 1868.8 85.3" stroke-width="0.5"/><path d="M1868.8 85.3L1874.8 85.1" stroke-width="0.6"/><path d="M1868.8 85.3L1873.3 82.6" stroke-width="0.6"/><path d="M1868.8 85.3L1872.9 81.8" stroke-width="0.6"/><path d="M1845.6 113.2Q1850.2 109.5 1852.7 105.3" stroke-width="1.2"/><path d="M1852.7 105.3Q1856.6 100.9 1860.6 98.9" stroke-width="0.8"/><path d="M1860.6 98.9Q1863.1 95.7 1864.5 92.6" stroke-width="0.7"/><path d="M1864.5 92.6Q1866.7 89 1869.3 87.2" stroke-width="0.5"/><path d="M1869.3 87.2Q1871.2 84.7 1873.8 83.5" stroke-width="0.5"/><path d="M1873.8 83.5Q1876 81.8 1875.6 78.8" stroke-width="0.3"/><path d="M1875.6 78.8L1877.9 74.6" stroke-width="0.6"/><path d="M1875.6 78.8L1877.2 73.7" stroke-width="0.6"/><path d="M1875.6 78.8L1878.3 74.4" stroke-width="0.6"/><path d="M1860.6 98.9Q1861.6 95.7 1861 92.8" stroke-width="0.6"/><path d="M1861 92.8Q1861.2 90 1863.2 88.4" stroke-width="0.4"/><path d="M1863.2 88.4L1865.2 83.9" stroke-width="0.6"/><path d="M1863.2 88.4L1862.3 82.4" stroke-width="0.6"/><path d="M1863.2 88.4L1863.9 82.4" stroke-width="0.6"/><path d="M1845.6 113.2Q1849.8 111.3 1853.7 111.9" stroke-width="1.1"/><path d="M1853.7 111.9Q1858.1 111.3 1860.8 108.1" stroke-width="0.7"/><path d="M1860.8 108.1Q1864.1 106.3 1866.8 105" stroke-width="0.7"/><path d="M1866.8 105Q1869.1 103.8 1870 101.7" stroke-width="0.5"/><path d="M1870 101.7L1872.5 99.2" stroke-width="0.6"/><path d="M1870 101.7L1873 99.9" stroke-width="0.6"/><path d="M1870 101.7L1873.3 98.5" stroke-width="0.6"/><path d="M1860.8 108.1Q1863 109.2 1865 109.8" stroke-width="0.6"/><path d="M1865 109.8Q1867.1 110.7 1869.1 110.9" stroke-width="0.4"/><path d="M1869.1 110.9L1873.6 111" stroke-width="0.6"/><path d="M1869.1 110.9L1873 112.6" stroke-width="0.6"/><path d="M1869.1 110.9L1871.7 110.5" stroke-width="0.6"/><path d="M1860.8 108.1Q1862.5 108.9 1864.1 108.2" stroke-width="0.5"/><path d="M1864.1 108.2Q1865.9 108.2 1866.5 111.7" stroke-width="0.3"/><path d="M1866.5 111.7L1870.1 112.3" stroke-width="0.6"/><path d="M1866.5 111.7L1868.8 113.7" stroke-width="0.6"/><path d="M1866.5 111.7L1868.1 113.4" stroke-width="0.6"/><path d="M1830 143Q1826.3 135.6 1820.3 131.4" stroke-width="1.8"/><path d="M1820.3 131.4Q1816.3 126.5 1817.4 120.6" stroke-width="1.2"/><path d="M1817.4 120.6Q1814 115.6 1814.4 109.9" stroke-width="1.1"/><path d="M1814.4 109.9Q1813.2 105.7 1805.9 106.1" stroke-width="0.7"/><path d="M1805.9 106.1Q1803.8 102.3 1800.5 100.4" stroke-width="0.7"/><path d="M1800.5 100.4Q1798.3 98 1799.8 94.3" stroke-width="0.5"/><path d="M1799.8 94.3L1799.1 87.2" stroke-width="0.6"/><path d="M1799.8 94.3L1797.5 87.9" stroke-width="0.6"/><path d="M1799.8 94.3L1797.8 88.8" stroke-width="0.6"/><path d="M1805.9 106.1Q1805.7 103.4 1804.4 101.3" stroke-width="0.5"/><path d="M1804.4 101.3Q1803.7 98.9 1806.1 96.8" stroke-width="0.4"/><path d="M1806.1 96.8L1805 92.6" stroke-width="0.6"/><path d="M1806.1 96.8L1807.8 93" stroke-width="0.6"/><path d="M1806.1 96.8L1807 92.3" stroke-width="0.6"/><path d="M1817.4 120.6Q1818.7 116.4 1820.6 113.3" stroke-width="0.8"/><path d="M1820.6 113.3Q1822.2 109.5 1819 105.7" stroke-width="0.6"/><path d="M1819 105.7Q1819.8 102.3 1820.3 99.4" stroke-width="0.5"/><path d="M1820.3 99.4Q1820.8 96.9 1822.5 95.6" stroke-width="0.3"/><path d="M1822.5 95.6L1823.5 90.5" stroke-width="0.6"/><path d="M1822.5 95.6L1822.1 91.4" stroke-width="0.6"/><path d="M1822.5 95.6L1824.8 91.4" stroke-width="0.6"/><path d="M1819 105.7Q1820.9 103.8 1823.2 103.1" stroke-width="0.4"/><path d="M1823.2 103.1Q1824.8 102.2 1824.6 99.9" stroke-width="0.3"/><path d="M1824.6 99.9L1827.6 98.2" stroke-width="0.6"/><path d="M1824.6 99.9L1827.5 97.8" stroke-width="0.6"/><path d="M1824.6 99.9L1826.2 96.5" stroke-width="0.6"/><path d="M1819 105.7Q1820.7 104 1822.2 102.7" stroke-width="0.4"/><path d="M1822.2 102.7Q1823.4 101.5 1824.8 101.2" stroke-width="0.3"/><path d="M1824.8 101.2L1826.6 99.1" stroke-width="0.6"/><path d="M1824.8 101.2L1827 98.6" stroke-width="0.6"/><path d="M1824.8 101.2L1827 99.5" stroke-width="0.6"/><path d="M1836.8 262.5Q1838.4 243.9 1845 229.7" stroke-width="6.8"/><path d="M1845 229.7Q1849.8 210.9 1841.7 196.3" stroke-width="4.6"/><path d="M1841.7 196.3Q1844.3 181.4 1840.9 168.8" stroke-width="4.4"/><path d="M1840.9 168.8Q1840.5 157.6 1842.7 150.4" stroke-width="3"/><path d="M1842.7 150.4Q1840.9 140 1842.3 131.3" stroke-width="2.7"/><path d="M1842.3 131.3Q1842.1 121.9 1834.4 116.7" stroke-width="1.8"/><path d="M1834.4 116.7Q1833.3 108.6 1832 102" stroke-width="1.7"/><path d="M1832 102Q1830.9 95.1 1828.8 90.7" stroke-width="1.1"/><path d="M1828.8 90.7Q1828.4 84.9 1831 80.4" stroke-width="1.1"/><path d="M1831 80.4Q1832 75.7 1825.6 72.4" stroke-width="0.7"/><path d="M1825.6 72.4Q1824.5 69.1 1822.1 67.2" stroke-width="0.7"/><path d="M1822.1 67.2Q1819.9 63.9 1823.3 59.7" stroke-width="0.5"/><path d="M1823.3 59.7L1822.5 52.8" stroke-width="0.6"/><path d="M1823.3 59.7L1823.5 54.8" stroke-width="0.6"/><path d="M1823.3 59.7L1823.7 55.2" stroke-width="0.6"/><path d="M1825.6 72.4Q1826.6 69.6 1825.6 66.9" stroke-width="0.6"/><path d="M1825.6 66.9Q1825.6 64 1828.6 62.4" stroke-width="0.4"/><path d="M1828.6 62.4L1827.9 57.9" stroke-width="0.6"/><path d="M1828.6 62.4L1828.5 57.7" stroke-width="0.6"/><path d="M1828.6 62.4L1830.4 58.6" stroke-width="0.6"/><path d="M1825.6 72.4Q1824.4 70.6 1823.6 69" stroke-width="0.5"/><path d="M1823.6 69Q1822.3 66.8 1819.9 66.2" stroke-width="0.3"/><path d="M1819.9 66.2L1818.4 63.3" stroke-width="0.6"/><path d="M1819.9 66.2L1818.7 62.1" stroke-width="0.6"/><path d="M1819.9 66.2L1817.8 64.5" stroke-width="0.6"/><path d="M1828.8 90.7Q1831.1 87 1833.1 84.1" stroke-width="0.8"/><path d="M1833.1 84.1Q1835.8 80.1 1838.6 78" stroke-width="0.6"/><path d="M1838.6 78Q1841.4 75.2 1843.2 72.4" stroke-width="0.5"/><path d="M1843.2 72.4Q1844.9 70.4 1848.5 71.5" stroke-width="0.3"/><path d="M1848.5 71.5L1851.7 67.5" stroke-width="0.6"/><path d="M1848.5 71.5L1853 70" stroke-width="0.6"/><path d="M1848.5 71.5L1852.9 70.7" stroke-width="0.6"/><path d="M1838.6 78Q1840.9 76.7 1842.7 75.3" stroke-width="0.4"/><path d="M1842.7 75.3Q1845 73.8 1846.8 72.7" stroke-width="0.3"/><path d="M1846.8 72.7L1850.6 69.4" stroke-width="0.6"/><path d="M1846.8 72.7L1849.2 68.7" stroke-width="0.6"/><path d="M1846.8 72.7L1851.6 70" stroke-width="0.6"/><path d="M1838.6 78Q1838.5 75.3 1838.6 73.2" stroke-width="0.4"/><path d="M1838.6 73.2Q1838.6 71.4 1837.2 70.4" stroke-width="0.3"/><path d="M1837.2 70.4L1837 66.9" stroke-width="0.6"/><path d="M1837.2 70.4L1837.2 67.6" stroke-width="0.6"/><path d="M1837.2 70.4L1835.8 66.6" stroke-width="0.6"/><path d="M1834.4 116.7Q1837.9 111.1 1842.8 108.1" stroke-width="1.5"/><path d="M1842.8 108.1Q1846.8 104.1 1848 99.8" stroke-width="1"/><path d="M1848 99.8Q1849.9 96.1 1853.7 94.7" stroke-width="1"/><path d="M1853.7 94.7Q1857.5 91.4 1854.5 85.1" stroke-width="0.7"/><path d="M1854.5 85.1Q1855.8 82.4 1856.2 80" stroke-width="0.6"/><path d="M1856.2 80Q1857.3 76.6 1860.4 75.3" stroke-width="0.4"/><path d="M1860.4 75.3L1863.4 70.7" stroke-width="0.6"/><path d="M1860.4 75.3L1862.1 71.5" stroke-width="0.6"/><path d="M1860.4 75.3L1861 70.7" stroke-width="0.6"/><path d="M1854.5 85.1Q1854.3 82.1 1854.6 79.7" stroke-width="0.5"/><path d="M1854.6 79.7Q1854.6 77.5 1853.1 76.2" stroke-width="0.4"/><path d="M1853.1 76.2L1851.4 72.1" stroke-width="0.6"/><path d="M1853.1 76.2L1851.5 73.7" stroke-width="0.6"/><path d="M1853.1 76.2L1853.3 72.1" stroke-width="0.6"/><path d="M1848 99.8Q1851 98.2 1852.7 95.7" stroke-width="0.7"/><path d="M1852.7 95.7Q1855.4 93.3 1859.5 94.5" stroke-width="0.4"/><path d="M1859.5 94.5L1863.8 90.8" stroke-width="0.6"/><path d="M1859.5 94.5L1863.6 92.3" stroke-width="0.6"/><path d="M1859.5 94.5L1865.3 93.4" stroke-width="0.6"/><path d="M1842.7 150.4Q1836.8 144.2 1836.5 136" stroke-width="2"/><path d="M1836.5 136Q1834.1 130.5 1825.5 131.2" stroke-width="1.4"/><path d="M1825.5 131.2Q1822.4 127.5 1818.8 125.4" stroke-width="1.3"/><path d="M1818.8 125.4Q1814.3 121.5 1811.5 118.3" stroke-width="0.9"/><path d="M1811.5 118.3Q1808.3 114.8 1805.5 112.2" stroke-width="0.9"/><path d="M1805.5 112.2Q1803.3 109.9 1803.2 107.2" stroke-width="0.6"/><path d="M1803.2 107.2Q1802 104.6 1800 102.9" stroke-width="0.5"/><path d="M1800 102.9Q1798.2 100.3 1797.1 98.4" stroke-width="0.4"/><path d="M1797.1 98.4L1793.1 94.9" stroke-width="0.6"/><path d="M1797.1 98.4L1794.4 95.9" stroke-width="0.6"/><path d="M1797.1 98.4L1793.6 94" stroke-width="0.6"/><path d="M1803.2 107.2Q1801 106.7 1799.3 106.3" stroke-width="0.4"/><path d="M1799.3 106.3Q1796.7 105.7 1794.4 106.8" stroke-width="0.3"/><path d="M1794.4 106.8L1791 106.8" stroke-width="0.6"/><path d="M1794.4 106.8L1790.3 105.4" stroke-width="0.6"/><path d="M1794.4 106.8L1790.5 105.3" stroke-width="0.6"/><path d="M1803.2 107.2Q1801.4 106.9 1800.3 105.7" stroke-width="0.4"/><path d="M1800.3 105.7Q1798.8 104.8 1797.1 105.3" stroke-width="0.3"/><path d="M1797.1 105.3L1793.9 104.7" stroke-width="0.6"/><path d="M1797.1 105.3L1794.2 105.5" stroke-width="0.6"/><path d="M1797.1 105.3L1794.3 105.3" stroke-width="0.6"/><path d="M1811.5 118.3Q1808.1 117.8 1805.3 118.1" stroke-width="0.7"/><path d="M1805.3 118.1Q1802.7 118 1800.5 118.7" stroke-width="0.5"/><path d="M1800.5 118.7L1795.2 119" stroke-width="0.6"/><path d="M1800.5 118.7L1795.4 117.6" stroke-width="0.6"/><path d="M1800.5 118.7L1797 119" stroke-width="0.6"/><path d="M1811.5 118.3Q1810.8 115.8 1808.8 114.6" stroke-width="0.6"/><path d="M1808.8 114.6Q1807.4 112.6 1809 110" stroke-width="0.4"/><path d="M1809 110L1807.4 105.8" stroke-width="0.6"/><path d="M1809 110L1808.2 106.7" stroke-width="0.6"/><path d="M1809 110L1808.1 105.5" stroke-width="0.6"/><path d="M1825.5 131.2Q1824.7 127.1 1823.1 124" stroke-width="1"/><path d="M1823.1 124Q1821.6 119.6 1824.1 115.8" stroke-width="0.7"/><path d="M1824.1 115.8Q1824.2 112.4 1826.5 110" stroke-width="0.6"/><path d="M1826.5 110Q1827.5 107.4 1825.2 105" stroke-width="0.4"/><path d="M1825.2 105L1826.2 99.6" stroke-width="0.6"/><path d="M1825.2 105L1826 101" stroke-width="0.6"/><path d="M1825.2 105L1827.3 99.3" stroke-width="0.6"/><path d="M1824.1 115.8Q1822.3 113.8 1821.3 111.9" stroke-width="0.5"/><path d="M1821.3 111.9Q1820.1 110.2 1818.9 109.4" stroke-width="0.3"/><path d="M1818.9 109.4L1817.8 105.5" stroke-width="0.6"/><path d="M1818.9 109.4L1817.3 106.1" stroke-width="0.6"/><path d="M1818.9 109.4L1817.3 106.6" stroke-width="0.6"/><path d="M1824.1 115.8Q1825 113.9 1824.2 112" stroke-width="0.5"/><path d="M1824.2 112Q1824.2 110.4 1827.8 110.6" stroke-width="0.3"/><path d="M1827.8 110.6L1829.7 109.1" stroke-width="0.6"/><path d="M1827.8 110.6L1830 107.9" stroke-width="0.6"/><path d="M1827.8 110.6L1828.8 108.7" stroke-width="0.6"/><path d="M1841.7 196.3Q1848.9 189 1858.2 187.5" stroke-width="3.7"/><path d="M1858.2 187.5Q1866.6 182.9 1870.1 175.5" stroke-width="2.5"/><path d="M1870.1 175.5Q1877 170.9 1879 163.3" stroke-width="2.4"/><path d="M1879 163.3Q1882.9 158.1 1894.7 165.9" stroke-width="1.6"/><path d="M1894.7 165.9Q1900.2 164.4 1904 161.4" stroke-width="1.6"/><path d="M1904 161.4Q1908.4 159.3 1913.4 162.2" stroke-width="1.1"/><path d="M1913.4 162.2Q1917.4 160.4 1920.6 158.8" stroke-width="1"/><path d="M1920.6 158.8Q1923.7 157.4 1926.4 157.1" stroke-width="0.7"/><path d="M1926.4 157.1Q1929.1 155.6 1931.7 155.2" stroke-width="0.6"/><path d="M1931.7 155.2Q1933.9 154.5 1935.5 153.6" stroke-width="0.4"/><path d="M1935.5 153.6L1938.9 149.7" stroke-width="0.6"/><path d="M1935.5 153.6L1940.2 153.1" stroke-width="0.6"/><path d="M1935.5 153.6L1938.5 152.5" stroke-width="0.6"/><path d="M1926.4 157.1Q1928.7 157.5 1930.7 156.8" stroke-width="0.5"/><path d="M1930.7 156.8Q1932.6 156.7 1934.2 157.3" stroke-width="0.4"/><path d="M1934.2 157.3L1938.2 156.8" stroke-width="0.6"/><path d="M1934.2 157.3L1937.3 158.5" stroke-width="0.6"/><path d="M1934.2 157.3L1937 158.2" stroke-width="0.6"/><path d="M1913.4 162.2Q1915.1 159.2 1915.8 156.4" stroke-width="0.7"/><path d="M1915.8 156.4Q1916.7 154.1 1917.8 152.8" stroke-width="0.5"/><path d="M1917.8 152.8L1919.5 149.2" stroke-width="0.6"/><path d="M1917.8 152.8L1920.4 148.6" stroke-width="0.6"/><path d="M1917.8 152.8L1920.4 149.3" stroke-width="0.6"/><path d="M1894.7 165.9Q1898.4 167.1 1901.7 166.7" stroke-width="1.3"/><path d="M1901.7 166.7Q1905.2 167 1907.8 169.6" stroke-width="0.9"/><path d="M1907.8 169.6Q1910.6 170.9 1912.3 172.9" stroke-width="0.8"/><path d="M1912.3 172.9Q1914.2 174.2 1916.7 174.1" stroke-width="0.5"/><path d="M1916.7 174.1L1919.9 178.1" stroke-width="0.6"/><path d="M1916.7 174.1L1920.7 177.1" stroke-width="0.6"/><path d="M1916.7 174.1L1920.9 176.6" stroke-width="0.6"/><path d="M1907.8 169.6Q1909.5 171.3 1909.6 173.4" stroke-width="0.7"/><path d="M1909.6 173.4Q1910.5 175.3 1913.5 175.5" stroke-width="0.5"/><path d="M1913.5 175.5L1916.1 176.8" stroke-width="0.6"/><path d="M1913.5 175.5L1916 177" stroke-width="0.6"/><path d="M1913.5 175.5L1915.8 178" stroke-width="0.6"/><path d="M1894.7 165.9Q1896.3 163 1897.3 160.5" stroke-width="1.1"/><path d="M1897.3 160.5Q1899.1 157 1899.1 154.1" stroke-width="0.7"/><path d="M1899.1 154.1Q1899.6 151.6 1900.2 149.6" stroke-width="0.7"/><path d="M1900.2 149.6Q1900.8 147.2 1902.2 145.9" stroke-width="0.5"/><path d="M1902.2 145.9L1902.6 141.7" stroke-width="0.6"/><path d="M1902.2 145.9L1904 143.5" stroke-width="0.6"/><path d="M1902.2 145.9L1904.3 143" stroke-width="0.6"/><path d="M1899.1 154.1Q1898.8 151.8 1898.8 149.9" stroke-width="0.5"/><path d="M1898.8 149.9Q1898.6 147.9 1897.1 146.8" stroke-width="0.4"/><path d="M1897.1 146.8L1895.6 143.1" stroke-width="0.6"/><path d="M1897.1 146.8L1895.4 144.2" stroke-width="0.6"/><path d="M1897.1 146.8L1897.2 144.3" stroke-width="0.6"/><path d="M1870.1 175.5Q1876 175.1 1880.2 171.6" stroke-width="1.8"/><path d="M1880.2 171.6Q1884.7 169.8 1889.4 179.8" stroke-width="1.2"/><path d="M1889.4 179.8Q1893.5 181.1 1896.4 183.3" stroke-width="1.1"/><path d="M1896.4 183.3Q1899.9 185.1 1903.3 185.9" stroke-width="0.8"/><path d="M1903.3 185.9Q1906.8 186.7 1908.7 189.6" stroke-width="0.7"/><path d="M1908.7 189.6Q1910.8 191 1913.7 189.9" stroke-width="0.5"/><path d="M1913.7 189.9L1918.3 191.1" stroke-width="0.6"/><path d="M1913.7 189.9L1917.9 190.3" stroke-width="0.6"/><path d="M1913.7 189.9L1917 192.1" stroke-width="0.6"/><path d="M1903.3 185.9Q1905.4 185.8 1906.9 184.6" stroke-width="0.5"/><path d="M1906.9 184.6Q1909.1 183.8 1911.2 187.8" stroke-width="0.4"/><path d="M1911.2 187.8L1914.4 187.9" stroke-width="0.6"/><path d="M1911.2 187.8L1914.6 187.6" stroke-width="0.6"/><path d="M1911.2 187.8L1914.7 190.2" stroke-width="0.6"/><path d="M1889.4 179.8Q1891.6 182.1 1893.5 183.9" stroke-width="0.8"/><path d="M1893.5 183.9Q1895.2 185.6 1895.4 188.4" stroke-width="0.6"/><path d="M1895.4 188.4Q1896.7 189.9 1897.9 191" stroke-width="0.5"/><path d="M1897.9 191Q1899.3 192.4 1899.2 194.8" stroke-width="0.4"/><path d="M1899.2 194.8L1900.9 196.4" stroke-width="0.6"/><path d="M1899.2 194.8L1900.7 196.6" stroke-width="0.6"/><path d="M1899.2 194.8L1899.7 197.2" stroke-width="0.6"/><path d="M1895.4 188.4Q1895.6 189.9 1895.4 191.1" stroke-width="0.4"/><path d="M1895.4 191.1Q1895.3 192.7 1895.8 194.3" stroke-width="0.3"/><path d="M1895.8 194.3L1895 196.6" stroke-width="0.6"/><path d="M1895.8 194.3L1895.4 197.2" stroke-width="0.6"/><path d="M1895.8 194.3L1896.9 197.1" stroke-width="0.6"/><path d="M1870.1 175.5Q1871.8 170.9 1872.1 166.9" stroke-width="1.7"/><path d="M1872.1 166.9Q1873.2 162 1874.6 158.8" stroke-width="1.1"/><path d="M1874.6 158.8Q1875.6 154.6 1876.3 151.1" stroke-width="1.1"/><path d="M1876.3 151.1Q1877 148.2 1879.7 147" stroke-width="0.8"/><path d="M1879.7 147Q1880.2 144.5 1879.4 142.4" stroke-width="0.7"/><path d="M1879.4 142.4Q1879.3 140 1880.2 138.3" stroke-width="0.5"/><path d="M1880.2 138.3L1880 134.9" stroke-width="0.6"/><path d="M1880.2 138.3L1880.6 133.8" stroke-width="0.6"/><path d="M1880.2 138.3L1881.2 135.6" stroke-width="0.6"/><path d="M1879.7 147Q1882.1 146.1 1883.4 144.1" stroke-width="0.5"/><path d="M1883.4 144.1Q1884.9 143 1887.3 144.7" stroke-width="0.3"/><path d="M1887.3 144.7L1890.3 144.1" stroke-width="0.6"/><path d="M1887.3 144.7L1889.7 143.8" stroke-width="0.6"/><path d="M1887.3 144.7L1889.6 143.3" stroke-width="0.6"/><path d="M1874.6 158.8Q1877.3 156.5 1877.9 153.3" stroke-width="0.8"/><path d="M1877.9 153.3Q1879.1 151.2 1882.1 151.5" stroke-width="0.5"/><path d="M1882.1 151.5Q1883.5 149.9 1883.5 148" stroke-width="0.5"/><path d="M1883.5 148Q1884.4 146 1886.7 145.6" stroke-width="0.3"/><path d="M1886.7 145.6L1889.1 143.9" stroke-width="0.6"/><path d="M1886.7 145.6L1887.8 143.4" stroke-width="0.6"/><path d="M1886.7 145.6L1887.6 143.2" stroke-width="0.6"/><path d="M1882.1 151.5Q1882.5 149.9 1883 148.7" stroke-width="0.4"/><path d="M1883 148.7Q1883.6 146.9 1884.8 146.1" stroke-width="0.3"/><path d="M1884.8 146.1L1887.4 144" stroke-width="0.6"/><path d="M1884.8 146.1L1886.3 144.7" stroke-width="0.6"/><path d="M1884.8 146.1L1885.9 144" stroke-width="0.6"/><path d="M1883.5 363Q1866.8 352 1848.2 354.2" stroke-width="10.4"/><path d="M1848.2 354.2Q1825.9 348.7 1822.7 317" stroke-width="7.1"/><path d="M1822.7 317Q1811.7 304.2 1795.4 302.9" stroke-width="6.6"/><path d="M1795.4 302.9Q1783.5 296.7 1779.1 285.6" stroke-width="4.5"/><path d="M1779.1 285.6Q1770.1 280.5 1762.8 276.2" stroke-width="4.1"/><path d="M1762.8 276.2Q1752.6 270.4 1745 265.8" stroke-width="2.8"/><path d="M1745 265.8Q1738.5 260.7 1731.4 259.6" stroke-width="2.6"/><path d="M1731.4 259.6Q1723.8 256.2 1720.1 250.1" stroke-width="1.8"/><path d="M1720.1 250.1Q1714.8 246.9 1709.8 245.6" stroke-width="1.7"/><path d="M1709.8 245.6Q1704.8 243.5 1701.8 240.4" stroke-width="1.2"/><path d="M1701.8 240.4Q1698 237.9 1696.4 234.1" stroke-width="1.1"/><path d="M1696.4 234.1Q1694.1 231.4 1690.3 231.8" stroke-width="0.7"/><path d="M1690.3 231.8Q1687.9 229.9 1685.2 229.7" stroke-width="0.6"/><path d="M1685.2 229.7Q1682.3 228.5 1683.5 223.5" stroke-width="0.4"/><path d="M1683.5 223.5L1680.8 218.5" stroke-width="0.6"/><path d="M1683.5 223.5L1680.4 219.2" stroke-width="0.6"/><path d="M1683.5 223.5L1681.6 219.5" stroke-width="0.6"/><path d="M1690.3 231.8Q1690.1 229.1 1688.3 227.4" stroke-width="0.5"/><path d="M1688.3 227.4Q1687.6 225.7 1691 224" stroke-width="0.4"/><path d="M1691 224L1691.3 221.4" stroke-width="0.6"/><path d="M1691 224L1689.8 220.6" stroke-width="0.6"/><path d="M1691 224L1692.3 221.1" stroke-width="0.6"/><path d="M1701.8 240.4Q1700.1 237.5 1700.9 234.3" stroke-width="0.9"/><path d="M1700.9 234.3Q1700.3 230.9 1697.7 229.1" stroke-width="0.6"/><path d="M1697.7 229.1L1696.8 225.2" stroke-width="0.6"/><path d="M1697.7 229.1L1695.2 222.7" stroke-width="0.6"/><path d="M1697.7 229.1L1693.6 223.9" stroke-width="0.6"/><path d="M1720.1 250.1Q1714.8 251.1 1710.3 249.7" stroke-width="1.4"/><path d="M1710.3 249.7Q1706.1 249.5 1702.6 250.2" stroke-width="0.9"/><path d="M1702.6 250.2Q1699.3 250.6 1697.3 253.1" stroke-width="0.9"/><path d="M1697.3 253.1Q1694 255 1690.6 255.5" stroke-width="0.6"/><path d="M1690.6 255.5L1685.9 258.1" stroke-width="0.6"/><path d="M1690.6 255.5L1686.6 256.4" stroke-width="0.6"/><path d="M1690.6 255.5L1685.5 258.8" stroke-width="0.6"/><path d="M1702.6 250.2Q1700.3 248.5 1698.2 247.2" stroke-width="0.7"/><path d="M1698.2 247.2Q1696.1 245.8 1694.6 244.6" stroke-width="0.5"/><path d="M1694.6 244.6L1692.2 240" stroke-width="0.6"/><path d="M1694.6 244.6L1690.5 241.1" stroke-width="0.6"/><path d="M1694.6 244.6L1691.9 240.6" stroke-width="0.6"/><path d="M1702.6 250.2Q1701.2 251.5 1699.5 251.6" stroke-width="0.6"/><path d="M1699.5 251.6Q1697.3 252.5 1696.4 254.9" stroke-width="0.4"/><path d="M1696.4 254.9L1693.9 255.5" stroke-width="0.6"/><path d="M1696.4 254.9L1693.5 256.9" stroke-width="0.6"/><path d="M1696.4 254.9L1693.7 257.1" stroke-width="0.6"/><path d="M1720.1 250.1Q1719 246.6 1717.1 244.2" stroke-width="1.2"/><path d="M1717.1 244.2Q1715.6 241.2 1715.6 238.7" stroke-width="0.8"/><path d="M1715.6 238.7Q1714.4 236.2 1713.5 234.2" stroke-width="0.8"/><path d="M1713.5 234.2Q1712.5 232.1 1710.5 231.4" stroke-width="0.5"/><path d="M1710.5 231.4L1706.7 228.4" stroke-width="0.6"/><path d="M1710.5 231.4L1708.7 228.7" stroke-width="0.6"/><path d="M1710.5 231.4L1709.4 227.4" stroke-width="0.6"/><path d="M1715.6 238.7Q1714.1 237.3 1714 235.4" stroke-width="0.6"/><path d="M1714 235.4Q1713.3 233.8 1710.4 234.5" stroke-width="0.4"/><path d="M1710.4 234.5L1709.1 231.6" stroke-width="0.6"/><path d="M1710.4 234.5L1708.5 233.6" stroke-width="0.6"/><path d="M1710.4 234.5L1707.6 233.1" stroke-width="0.6"/><path d="M1745 265.8Q1743 258.1 1737.1 253.8" stroke-width="2.2"/><path d="M1737.1 253.8Q1734.1 249.2 1736.2 244.1" stroke-width="1.5"/><path d="M1736.2 244.1Q1734.4 240 1730.7 238" stroke-width="1.3"/><path d="M1730.7 238Q1727.7 234.6 1728.2 230.4" stroke-width="0.9"/><path d="M1728.2 230.4Q1726.9 227.4 1724.3 225.9" stroke-width="0.9"/><path d="M1724.3 225.9Q1722.1 223.4 1722.4 220.3" stroke-width="0.6"/><path d="M1722.4 220.3L1718.8 216.9" stroke-width="0.6"/><path d="M1722.4 220.3L1719.2 215.4" stroke-width="0.6"/><path d="M1722.4 220.3L1722 214.7" stroke-width="0.6"/><path d="M1728.2 230.4Q1728.5 227.9 1727.9 225.9" stroke-width="0.6"/><path d="M1727.9 225.9Q1727.8 223.1 1729.4 221.1" stroke-width="0.4"/><path d="M1729.4 221.1L1730.9 216.9" stroke-width="0.6"/><path d="M1729.4 221.1L1730.7 216.1" stroke-width="0.6"/><path d="M1729.4 221.1L1728.5 216.1" stroke-width="0.6"/><path d="M1728.2 230.4Q1725.9 229.5 1724.7 227.5" stroke-width="0.6"/><path d="M1724.7 227.5Q1723.3 226.3 1720.5 228.7" stroke-width="0.4"/><path d="M1720.5 228.7L1716.9 228.4" stroke-width="0.6"/><path d="M1720.5 228.7L1716.7 227.2" stroke-width="0.6"/><path d="M1720.5 228.7L1717.7 228.9" stroke-width="0.6"/><path d="M1736.2 244.1Q1732.3 241.6 1730.9 237.6" stroke-width="1.1"/><path d="M1730.9 237.6Q1728.9 235 1724.8 235.8" stroke-width="0.7"/><path d="M1724.8 235.8Q1722.2 234.4 1721.1 231.9" stroke-width="0.7"/><path d="M1721.1 231.9Q1719.3 230 1715.2 233.2" stroke-width="0.5"/><path d="M1715.2 233.2L1711.3 231.1" stroke-width="0.6"/><path d="M1715.2 233.2L1711.5 232.3" stroke-width="0.6"/><path d="M1715.2 233.2L1710.9 232.2" stroke-width="0.6"/><path d="M1724.8 235.8Q1722.5 235.8 1720.8 234.4" stroke-width="0.5"/><path d="M1720.8 234.4Q1719.1 233.8 1717.2 235.9" stroke-width="0.3"/><path d="M1717.2 235.9L1713.8 235.4" stroke-width="0.6"/><path d="M1717.2 235.9L1713.8 235.3" stroke-width="0.6"/><path d="M1717.2 235.9L1715 236.6" stroke-width="0.6"/><path d="M1779.1 285.6Q1778.2 275.1 1778.1 266.4" stroke-width="3.3"/><path d="M1778.1 266.4Q1777.6 258.2 1772.6 253.4" stroke-width="2.2"/><path d="M1772.6 253.4Q1770.8 245.9 1772.3 239.4" stroke-width="2.1"/><path d="M1772.3 239.4Q1772.1 232.9 1767.7 229.1" stroke-width="1.4"/><path d="M1767.7 229.1Q1767 223.6 1765.2 219.2" stroke-width="1.4"/><path d="M1765.2 219.2Q1764.2 215.1 1768.2 211.9" stroke-width="1"/><path d="M1768.2 211.9Q1767.7 207.8 1769.5 204.5" stroke-width="0.9"/><path d="M1769.5 204.5Q1770 201.7 1766.8 199.9" stroke-width="0.6"/><path d="M1766.8 199.9L1767.9 194.7" stroke-width="0.6"/><path d="M1766.8 199.9L1764.4 194.4" stroke-width="0.6"/><path d="M1766.8 199.9L1768.1 193.5" stroke-width="0.6"/><path d="M1768.2 211.9Q1770.2 209.9 1770.7 207.5" stroke-width="0.7"/><path d="M1770.7 207.5Q1772.2 204.8 1776 205.2" stroke-width="0.5"/><path d="M1776 205.2L1778.4 202.4" stroke-width="0.6"/><path d="M1776 205.2L1779.7 203.8" stroke-width="0.6"/><path d="M1776 205.2L1779 202" stroke-width="0.6"/><path d="M1767.7 229.1Q1769.5 225.3 1769.9 221.8" stroke-width="1"/><path d="M1769.9 221.8Q1770.8 219 1772.2 217.4" stroke-width="0.7"/><path d="M1772.2 217.4Q1773.5 215.3 1775.9 214.7" stroke-width="0.6"/><path d="M1775.9 214.7Q1777.8 213.2 1777.6 210.4" stroke-width="0.4"/><path d="M1777.6 210.4L1780 208" stroke-width="0.6"/><path d="M1777.6 210.4L1778.4 206.1" stroke-width="0.6"/><path d="M1777.6 210.4L1780.7 208.1" stroke-width="0.6"/><path d="M1772.2 217.4Q1773.9 216.1 1774.7 214.5" stroke-width="0.5"/><path d="M1774.7 214.5Q1776.2 212.7 1779.3 213.8" stroke-width="0.4"/><path d="M1779.3 213.8L1783 213.2" stroke-width="0.6"/><path d="M1779.3 213.8L1781.7 212.1" stroke-width="0.6"/><path d="M1779.3 213.8L1781.6 212.3" stroke-width="0.6"/><path d="M1772.6 253.4Q1775.3 248.5 1774.1 243.4" stroke-width="1.8"/><path d="M1774.1 243.4Q1774.9 237.5 1778.3 234.1" stroke-width="1.2"/><path d="M1778.3 234.1Q1779.2 229.5 1778 225.6" stroke-width="1.1"/><path d="M1778 225.6Q1777.8 222.3 1782.8 220.8" stroke-width="0.7"/><path d="M1782.8 220.8Q1784 218.4 1786.1 217.2" stroke-width="0.7"/><path d="M1786.1 217.2Q1788 215 1788.1 212.6" stroke-width="0.5"/><path d="M1788.1 212.6L1789 209.4" stroke-width="0.6"/><path d="M1788.1 212.6L1788.9 208.7" stroke-width="0.6"/><path d="M1788.1 212.6L1791.7 208.6" stroke-width="0.6"/><path d="M1782.8 220.8Q1784.6 219.5 1785.1 217.5" stroke-width="0.6"/><path d="M1785.1 217.5Q1786.2 215.9 1789.2 217.2" stroke-width="0.4"/><path d="M1789.2 217.2L1791.9 215.5" stroke-width="0.6"/><path d="M1789.2 217.2L1791.5 214.5" stroke-width="0.6"/><path d="M1789.2 217.2L1791.4 216.1" stroke-width="0.6"/><path d="M1782.8 220.8Q1782.4 219 1783 217.3" stroke-width="0.5"/><path d="M1783 217.3Q1783.1 215.6 1782.2 214.4" stroke-width="0.3"/><path d="M1782.2 214.4L1782.5 211.9" stroke-width="0.6"/><path d="M1782.2 214.4L1782.2 212.2" stroke-width="0.6"/><path d="M1782.2 214.4L1783.1 211.3" stroke-width="0.6"/><path d="M1778.3 234.1Q1781.4 232.6 1784.3 232.5" stroke-width="0.9"/><path d="M1784.3 232.5Q1786.6 231.9 1786.9 228.4" stroke-width="0.6"/><path d="M1786.9 228.4Q1788.3 227 1790 226.6" stroke-width="0.6"/><path d="M1790 226.6Q1792 225.5 1793.2 224.2" stroke-width="0.4"/><path d="M1793.2 224.2L1795.9 222.6" stroke-width="0.6"/><path d="M1793.2 224.2L1796.3 222.9" stroke-width="0.6"/><path d="M1793.2 224.2L1797.1 223" stroke-width="0.6"/><path d="M1786.9 228.4Q1787.5 226.6 1788.6 225.5" stroke-width="0.4"/><path d="M1788.6 225.5Q1789.4 224.1 1789.2 222.8" stroke-width="0.3"/><path d="M1789.2 222.8L1789.2 220.3" stroke-width="0.6"/><path d="M1789.2 222.8L1790.3 220.8" stroke-width="0.6"/><path d="M1789.2 222.8L1790.6 220.6" stroke-width="0.6"/><path d="M1786.9 228.4Q1788.2 228.2 1789.2 227.6" stroke-width="0.4"/><path d="M1789.2 227.6Q1790.4 227.2 1791.7 227.9" stroke-width="0.3"/><path d="M1791.7 227.9L1793.7 226.8" stroke-width="0.6"/><path d="M1791.7 227.9L1793.7 226.8" stroke-width="0.6"/><path d="M1791.7 227.9L1793.8 227.1" stroke-width="0.6"/><path d="M1778.3 234.1Q1777.9 231.5 1777.9 229.2" stroke-width="0.8"/><path d="M1777.9 229.2Q1777.8 226.9 1776.6 225.5" stroke-width="0.6"/><path d="M1776.6 225.5Q1776.4 223.3 1776.1 221.5" stroke-width="0.5"/><path d="M1776.1 221.5Q1775.9 220 1776.3 219" stroke-width="0.4"/><path d="M1776.3 219L1775.3 216.6" stroke-width="0.6"/><path d="M1776.3 219L1775.4 216.4" stroke-width="0.6"/><path d="M1776.3 219L1777.2 216.7" stroke-width="0.6"/><path d="M1776.6 225.5Q1775.9 224.4 1775.1 223.5" stroke-width="0.4"/><path d="M1775.1 223.5Q1774.4 222.5 1774.5 221.4" stroke-width="0.3"/><path d="M1774.5 221.4L1774.2 220.1" stroke-width="0.6"/><path d="M1774.5 221.4L1772.9 220" stroke-width="0.6"/><path d="M1774.5 221.4L1773.4 220.3" stroke-width="0.6"/><path d="M1822.7 317Q1810 313.5 1800.2 308.7" stroke-width="4.8"/><path d="M1800.2 308.7Q1790.1 304.9 1780.5 307.5" stroke-width="3.2"/><path d="M1780.5 307.5Q1771.9 305 1764.2 309" stroke-width="3"/><path d="M1764.2 309Q1756.7 309.7 1751.6 300.3" stroke-width="2"/><path d="M1751.6 300.3Q1745 298.4 1741.8 292.7" stroke-width="2"/><path d="M1741.8 292.7Q1738.2 289.9 1734 290.2" stroke-width="1.4"/><path d="M1734 290.2Q1730.6 288.2 1726.8 289.1" stroke-width="1.2"/><path d="M1726.8 289.1Q1723 288.6 1722.2 282.7" stroke-width="0.8"/><path d="M1722.2 282.7Q1719.5 281.3 1718.4 278.8" stroke-width="0.8"/><path d="M1718.4 278.8Q1716.7 277.1 1713.2 279.2" stroke-width="0.6"/><path d="M1713.2 279.2L1709.8 278.7" stroke-width="0.6"/><path d="M1713.2 279.2L1710.7 277.1" stroke-width="0.6"/><path d="M1713.2 279.2L1710.9 276.8" stroke-width="0.6"/><path d="M1722.2 282.7Q1721.5 280.7 1720.7 279.1" stroke-width="0.6"/><path d="M1720.7 279.1Q1719.7 276.7 1719.2 275" stroke-width="0.4"/><path d="M1719.2 275L1716.3 272" stroke-width="0.6"/><path d="M1719.2 275L1717.1 272.8" stroke-width="0.6"/><path d="M1719.2 275L1717.6 271" stroke-width="0.6"/><path d="M1734 290.2Q1730.3 290.6 1727.5 289" stroke-width="0.9"/><path d="M1727.5 289Q1724.8 288.4 1722.5 292" stroke-width="0.6"/><path d="M1722.5 292Q1720 292.7 1718.7 294.9" stroke-width="0.6"/><path d="M1718.7 294.9Q1717 296.2 1714.8 296.4" stroke-width="0.4"/><path d="M1714.8 296.4L1712.4 298.5" stroke-width="0.6"/><path d="M1714.8 296.4L1711.2 297.1" stroke-width="0.6"/><path d="M1714.8 296.4L1712.4 298.4" stroke-width="0.6"/><path d="M1722.5 292Q1721.4 291 1721.1 289.7" stroke-width="0.5"/><path d="M1721.1 289.7Q1720.2 288.3 1717.6 289.2" stroke-width="0.3"/><path d="M1717.6 289.2L1715.9 288.8" stroke-width="0.6"/><path d="M1717.6 289.2L1716 287.9" stroke-width="0.6"/><path d="M1717.6 289.2L1715.8 286.7" stroke-width="0.6"/><path d="M1751.6 300.3Q1748.2 297.4 1747.7 293.2" stroke-width="1.4"/><path d="M1747.7 293.2Q1745.2 288.9 1738.5 289.9" stroke-width="0.9"/><path d="M1738.5 289.9Q1736.3 287.3 1736.5 284" stroke-width="0.8"/><path d="M1736.5 284Q1735.4 280.7 1731.2 280.1" stroke-width="0.6"/><path d="M1731.2 280.1Q1730.2 278.2 1729.5 276.5" stroke-width="0.5"/><path d="M1729.5 276.5Q1728.4 274.1 1728.1 272.3" stroke-width="0.3"/><path d="M1728.1 272.3L1726.2 270.2" stroke-width="0.6"/><path d="M1728.1 272.3L1725.1 269.1" stroke-width="0.6"/><path d="M1728.1 272.3L1726.6 269.6" stroke-width="0.6"/><path d="M1731.2 280.1Q1728.7 279.9 1726.7 279.7" stroke-width="0.4"/><path d="M1726.7 279.7Q1725 279.5 1723.9 278.3" stroke-width="0.3"/><path d="M1723.9 278.3L1719.9 277.3" stroke-width="0.6"/><path d="M1723.9 278.3L1720.8 278.6" stroke-width="0.6"/><path d="M1723.9 278.3L1720.9 277.6" stroke-width="0.6"/><path d="M1738.5 289.9Q1738.2 287.2 1736.7 285.2" stroke-width="0.7"/><path d="M1736.7 285.2Q1735.9 282.9 1737.6 280.8" stroke-width="0.5"/><path d="M1737.6 280.8Q1737.6 279.1 1736.9 277.8" stroke-width="0.5"/><path d="M1736.9 277.8Q1736.4 276 1737.3 274.6" stroke-width="0.3"/><path d="M1737.3 274.6L1736.7 272.3" stroke-width="0.6"/><path d="M1737.3 274.6L1737.3 271.8" stroke-width="0.6"/><path d="M1737.3 274.6L1737.2 272.6" stroke-width="0.6"/><path d="M1780.5 307.5Q1774.5 309.4 1771.4 314.5" stroke-width="2.6"/><path d="M1771.4 314.5Q1765.5 319.1 1756.3 314.8" stroke-width="1.7"/><path d="M1756.3 314.8Q1751.3 316.4 1746.8 314" stroke-width="1.7"/><path d="M1746.8 314Q1741.6 313.6 1737.8 320.2" stroke-width="1.2"/><path d="M1737.8 320.2Q1733.6 321.8 1730.4 323.7" stroke-width="1.1"/><path d="M1730.4 323.7Q1727.5 325.1 1724.6 325.6" stroke-width="0.7"/><path d="M1724.6 325.6Q1721.8 326.4 1719.5 325.2" stroke-width="0.7"/><path d="M1719.5 325.2Q1716.7 325 1714.8 329.1" stroke-width="0.5"/><path d="M1714.8 329.1L1709.9 329.9" stroke-width="0.6"/><path d="M1714.8 329.1L1709.5 329.8" stroke-width="0.6"/><path d="M1714.8 329.1L1711.2 331.8" stroke-width="0.6"/><path d="M1724.6 325.6Q1723.1 327.2 1721.7 328.3" stroke-width="0.5"/><path d="M1721.7 328.3Q1720.3 329.6 1718.8 330.5" stroke-width="0.3"/><path d="M1718.8 330.5L1716.1 332.7" stroke-width="0.6"/><path d="M1718.8 330.5L1717.6 332.6" stroke-width="0.6"/><path d="M1718.8 330.5L1716 332.9" stroke-width="0.6"/><path d="M1737.8 320.2Q1736.1 323.1 1733.1 324" stroke-width="0.9"/><path d="M1733.1 324Q1731.3 325.4 1731.6 328.7" stroke-width="0.6"/><path d="M1731.6 328.7Q1730.4 330.5 1728.5 331.1" stroke-width="0.6"/><path d="M1728.5 331.1Q1727 332.2 1729.2 335.9" stroke-width="0.4"/><path d="M1729.2 335.9L1726.9 338.5" stroke-width="0.6"/><path d="M1729.2 335.9L1729.1 338.1" stroke-width="0.6"/><path d="M1729.2 335.9L1727.7 338" stroke-width="0.6"/><path d="M1731.6 328.7Q1729.8 329.3 1728.9 330.6" stroke-width="0.4"/><path d="M1728.9 330.6Q1727.8 331.4 1726.1 330.5" stroke-width="0.3"/><path d="M1726.1 330.5L1724.3 331.1" stroke-width="0.6"/><path d="M1726.1 330.5L1723.8 331.6" stroke-width="0.6"/><path d="M1726.1 330.5L1723.3 330.8" stroke-width="0.6"/><path d="M1756.3 314.8Q1753.6 317.4 1750.5 318.5" stroke-width="1.3"/><path d="M1750.5 318.5Q1747.6 320.2 1746 323.2" stroke-width="0.9"/><path d="M1746 323.2Q1743.8 325.3 1743.6 328.2" stroke-width="0.9"/><path d="M1743.6 328.2Q1742.5 330.3 1738 329.2" stroke-width="0.6"/><path d="M1738 329.2Q1736.1 330.3 1734.6 331.4" stroke-width="0.5"/><path d="M1734.6 331.4Q1733 332.4 1731 332.5" stroke-width="0.4"/><path d="M1731 332.5L1727.7 334.8" stroke-width="0.6"/><path d="M1731 332.5L1727.9 333.7" stroke-width="0.6"/><path d="M1731 332.5L1728.4 332.6" stroke-width="0.6"/><path d="M1738 329.2Q1737.4 330.8 1736.5 331.9" stroke-width="0.4"/><path d="M1736.5 331.9Q1735.8 333.2 1735.8 334.7" stroke-width="0.3"/><path d="M1735.8 334.7L1734.5 337.4" stroke-width="0.6"/><path d="M1735.8 334.7L1734.7 337.2" stroke-width="0.6"/><path d="M1735.8 334.7L1734.3 337.3" stroke-width="0.6"/><path d="M1738 329.2Q1737.8 330.3 1736.9 330.9" stroke-width="0.4"/><path d="M1736.9 330.9Q1736.4 331.8 1737.1 333.3" stroke-width="0.3"/><path d="M1737.1 333.3L1736.5 335.1" stroke-width="0.6"/><path d="M1737.1 333.3L1736.7 335.1" stroke-width="0.6"/><path d="M1737.1 333.3L1736.5 334.8" stroke-width="0.6"/><path d="M1746 323.2Q1744 323.5 1742.4 322.9" stroke-width="0.6"/><path d="M1742.4 322.9Q1740 322.7 1738.1 324" stroke-width="0.4"/><path d="M1738.1 324Q1736.5 323.9 1735.2 324.6" stroke-width="0.4"/><path d="M1735.2 324.6Q1733.5 324.9 1732 324.6" stroke-width="0.3"/><path d="M1732 324.6L1730 324.6" stroke-width="0.6"/><path d="M1732 324.6L1728.9 324.3" stroke-width="0.6"/><path d="M1732 324.6L1729.6 323.8" stroke-width="0.6"/></g><path d="M0 -3.4C2.2 -1.6 2.2 1.6 0 3.4C-2.2 1.6 -2.2 -1.6 0 -3.4Z" fill="#C2893E" fill-opacity="0.4" transform="translate(321.9 558) rotate(348.4) scale(1.2)"/><path d="M0 -3.4C2.2 -1.6 2.2 1.6 0 3.4C-2.2 1.6 -2.2 -1.6 0 -3.4Z" fill="#8A4A26" fill-opacity="0.3" transform="translate(202.1 488.9) rotate(201.9) scale(0.8)"/><path d="M0 -3.4C2.2 -1.6 2.2 1.6 0 3.4C-2.2 1.6 -2.2 -1.6 0 -3.4Z" fill="#8A4A26" fill-opacity="0.4" transform="translate(1681 571.6) rotate(129.6) scale(1.1)"/><path d="M0 -3.4C2.2 -1.6 2.2 1.6 0 3.4C-2.2 1.6 -2.2 -1.6 0 -3.4Z" fill="#9C5A2A" fill-opacity="0.4" transform="translate(38.6 187.6) rotate(108.5) scale(0.9)"/><path d="M0 -3.4C2.2 -1.6 2.2 1.6 0 3.4C-2.2 1.6 -2.2 -1.6 0 -3.4Z" fill="#C2893E" fill-opacity="0.4" transform="translate(292.3 122) rotate(181.2) scale(1.3)"/><path d="M0 -3.4C2.2 -1.6 2.2 1.6 0 3.4C-2.2 1.6 -2.2 -1.6 0 -3.4Z" fill="#9C5A2A" fill-opacity="0.3" transform="translate(475.1 373.9) rotate(142.2) scale(0.8)"/><path d="M0 -3.4C2.2 -1.6 2.2 1.6 0 3.4C-2.2 1.6 -2.2 -1.6 0 -3.4Z" fill="#C2893E" fill-opacity="0.3" transform="translate(471.1 410.6) rotate(215) scale(1.1)"/><path d="M0 -3.4C2.2 -1.6 2.2 1.6 0 3.4C-2.2 1.6 -2.2 -1.6 0 -3.4Z" fill="#B5652E" fill-opacity="0.3" transform="translate(138.6 514.7) rotate(160.4) scale(1.1)"/><path d="M0 -3.4C2.2 -1.6 2.2 1.6 0 3.4C-2.2 1.6 -2.2 -1.6 0 -3.4Z" fill="#B5652E" fill-opacity="0.4" transform="translate(1123.3 308.2) rotate(337.5) scale(0.9)"/><path d="M0 -3.4C2.2 -1.6 2.2 1.6 0 3.4C-2.2 1.6 -2.2 -1.6 0 -3.4Z" fill="#8A4A26" fill-opacity="0.3" transform="translate(1800.6 371.5) rotate(217.3) scale(1.3)"/><path d="M0 -3.4C2.2 -1.6 2.2 1.6 0 3.4C-2.2 1.6 -2.2 -1.6 0 -3.4Z" fill="#9C5A2A" fill-opacity="0.4" transform="translate(1876.9 505.8) rotate(236.3) scale(0.8)"/><path d="M0 -3.4C2.2 -1.6 2.2 1.6 0 3.4C-2.2 1.6 -2.2 -1.6 0 -3.4Z" fill="#9C5A2A" fill-opacity="0.4" transform="translate(622.8 456.2) rotate(293.7) scale(1.2)"/><path d="M0 -3.4C2.2 -1.6 2.2 1.6 0 3.4C-2.2 1.6 -2.2 -1.6 0 -3.4Z" fill="#9C5A2A" fill-opacity="0.4" transform="translate(84.8 377.2) rotate(52.5) scale(0.9)"/><path d="M0 -3.4C2.2 -1.6 2.2 1.6 0 3.4C-2.2 1.6 -2.2 -1.6 0 -3.4Z" fill="#9C5A2A" fill-opacity="0.4" transform="translate(809.4 206.8) rotate(283.6) scale(0.9)"/><path d="M0 -3.4C2.2 -1.6 2.2 1.6 0 3.4C-2.2 1.6 -2.2 -1.6 0 -3.4Z" fill="#B5652E" fill-opacity="0.4" transform="translate(1517.3 160.5) rotate(340.7) scale(1.3)"/><path d="M0 -3.4C2.2 -1.6 2.2 1.6 0 3.4C-2.2 1.6 -2.2 -1.6 0 -3.4Z" fill="#B5652E" fill-opacity="0.4" transform="translate(1586.9 413) rotate(47.4) scale(0.8)"/><path d="M0 -3.4C2.2 -1.6 2.2 1.6 0 3.4C-2.2 1.6 -2.2 -1.6 0 -3.4Z" fill="#8A4A26" fill-opacity="0.4" transform="translate(109.6 580.5) rotate(359.7) scale(0.9)"/><path d="M0 -3.4C2.2 -1.6 2.2 1.6 0 3.4C-2.2 1.6 -2.2 -1.6 0 -3.4Z" fill="#8A4A26" fill-opacity="0.4" transform="translate(655.7 588.9) rotate(275.5) scale(1)"/><path d="M0 -3.4C2.2 -1.6 2.2 1.6 0 3.4C-2.2 1.6 -2.2 -1.6 0 -3.4Z" fill="#B5652E" fill-opacity="0.4" transform="translate(1272.5 159.5) rotate(212.4) scale(1)"/><path d="M0 -3.4C2.2 -1.6 2.2 1.6 0 3.4C-2.2 1.6 -2.2 -1.6 0 -3.4Z" fill="#8A4A26" fill-opacity="0.4" transform="translate(1769.6 509.7) rotate(237.4) scale(1.2)"/><path d="M0 -3.4C2.2 -1.6 2.2 1.6 0 3.4C-2.2 1.6 -2.2 -1.6 0 -3.4Z" fill="#9C5A2A" fill-opacity="0.3" transform="translate(1222.6 519.6) rotate(352.5) scale(0.8)"/><path d="M0 -3.4C2.2 -1.6 2.2 1.6 0 3.4C-2.2 1.6 -2.2 -1.6 0 -3.4Z" fill="#9C5A2A" fill-opacity="0.4" transform="translate(60.3 328) rotate(97.1) scale(0.9)"/><path d="M0 -3.4C2.2 -1.6 2.2 1.6 0 3.4C-2.2 1.6 -2.2 -1.6 0 -3.4Z" fill="#8A4A26" fill-opacity="0.4" transform="translate(1280.1 293.2) rotate(271) scale(1.2)"/><path d="M0 -3.4C2.2 -1.6 2.2 1.6 0 3.4C-2.2 1.6 -2.2 -1.6 0 -3.4Z" fill="#B5652E" fill-opacity="0.3" transform="translate(103.6 195.8) rotate(292.6) scale(1.2)"/><path d="M0 -3.4C2.2 -1.6 2.2 1.6 0 3.4C-2.2 1.6 -2.2 -1.6 0 -3.4Z" fill="#C2893E" fill-opacity="0.4" transform="translate(514.4 369.7) rotate(286.4) scale(1)"/><path d="M0 -3.4C2.2 -1.6 2.2 1.6 0 3.4C-2.2 1.6 -2.2 -1.6 0 -3.4Z" fill="#8A4A26" fill-opacity="0.4" transform="translate(751.7 173.4) rotate(287.7) scale(0.8)"/><path d="M0 -3.4C2.2 -1.6 2.2 1.6 0 3.4C-2.2 1.6 -2.2 -1.6 0 -3.4Z" fill="#C2893E" fill-opacity="0.3" transform="translate(134.9 561.1) rotate(72.5) scale(0.9)"/><path d="M0 -3.4C2.2 -1.6 2.2 1.6 0 3.4C-2.2 1.6 -2.2 -1.6 0 -3.4Z" fill="#9C5A2A" fill-opacity="0.4" transform="translate(1630.6 470.9) rotate(92.8) scale(0.9)"/><path d="M0 -3.4C2.2 -1.6 2.2 1.6 0 3.4C-2.2 1.6 -2.2 -1.6 0 -3.4Z" fill="#9C5A2A" fill-opacity="0.4" transform="translate(92.3 385) rotate(100) scale(1.2)"/><path d="M0 -3.4C2.2 -1.6 2.2 1.6 0 3.4C-2.2 1.6 -2.2 -1.6 0 -3.4Z" fill="#C2893E" fill-opacity="0.3" transform="translate(1915.7 427.1) rotate(50.4) scale(1.1)"/></svg>
