<svg xmlns="http://www.w3.org/2000/svg" width="360" height="170" viewBox="0 0 360 170"><defs><radialGradient id="moon" cx="0.42" cy="0.4" r="0.62"><stop offset="0" stop-color="#F2DCA8"/><stop offset="0.75" stop-color="#F2DCA8"/><stop offset="1" stop-color="#DDB06A"/></radialGradient><radialGradient id="halo"><stop offset="0" stop-color="#F2DCA8" stop-opacity="0.26"/><stop offset="0.35" stop-color="#F2DCA8" stop-opacity="0.08"/><stop offset="1" stop-color="#F2DCA8" stop-opacity="0"/></radialGradient><radialGradient id="ember"><stop offset="0" stop-color="#F09A3E" stop-opacity="0.55"/><stop offset="1" stop-color="#F09A3E" stop-opacity="0"/></radialGradient><linearGradient id="mist" x1="0" y1="0" x2="0" y2="1"><stop offset="0" stop-color="#B9B3D6" stop-opacity="0"/><stop offset="0.55" stop-color="#B9B3D6" stop-opacity="0.07"/><stop offset="1" stop-color="#B9B3D6" stop-opacity="0"/></linearGradient></defs><path d="M0 170L0 93L6 91.7L12 90.4L18 89.1L24 88.2L30 87.6L36 87.7L42 88.3L48 89.4L54 90.9L60 92.7L66 94.5L72 96L78 97.2L84 97.8L90 97.8L96 97.2L102 96L108 94.4L114 92.6L120 90.7L126 88.8L132 87.2L138 85.9L144 84.9L150 84L156 83.3L162 82.5L168 81.5L174 80.2L180 78.6L186 76.7L192 74.4L198 72.1L204 69.8L210 67.8L216 66.2L222 65.3L228 65.1L234 65.6L240 66.9L246 68.7L252 71L258 73.4L264 75.7L270 77.9L276 79.6L282 80.9L288 81.8L294 82.2L300 82.4L306 82.5L312 82.7L318 83L324 83.6L330 84.5L336 85.6L342 86.9L348 88.2L354 89.3L360 90.2L360 170L0 170Z" fill="#141127"/><g transform="translate(252 63.5) scale(0.8)" fill="#06050A"><path d="M0 0V-14L11 -22L22 -14V0Z"/><path d="M18 0V-26H26V0Z"/><path d="M17 -26L22 -31L27 -26Z"/><path d="M19.5 -31L22 -46L24.5 -31Z"/><rect x="21.4" y="-52" width="1.2" height="7"/><rect x="19.6" y="-50.4" width="4.8" height="1.1"/></g><path d="M174 75Q246 46 330 75Z" fill="#141127"/><rect x="0" y="64.6" width="360" height="68" fill="url(#mist)"/><path d="M0 170L0 141.9L6 141.2L12 140.1L18 138.9L24 137.7L30 136.8L36 136.1L42 135.9L48 136.1L54 136.8L60 137.9L66 139.2L72 140.6L78 141.9L84 143.1L90 143.9L96 144.4L102 144.7L108 144.6L114 144.5L120 144.4L126 144.3L132 144.5L138 144.9L144 145.5L150 146.2L156 147L162 147.7L168 148.1L174 148L180 147.5L186 146.4L192 144.7L198 142.5L204 140L210 137.3L216 134.6L222 132.1L228 130L234 128.3L240 127.1L246 126.4L252 126.1L258 126.1L264 126.2L270 126.4L276 126.4L282 126.3L288 126L294 125.6L300 125.2L306 124.8L312 124.6L318 124.7L324 125.3L330 126.2L336 127.5L342 129.1L348 130.9L354 132.6L360 134.2L360 170L0 170Z" fill="#06050A"/><g transform="translate(230.4 133.1) scale(1.1)" fill="#06050A" stroke="#06050A" stroke-linecap="round"><path d="M0 0Q30 -9 60 0L60 3Q30 -6 0 3Z" stroke="none"/><path d="M2 -5Q30 -14 58 -5" fill="none" stroke-width="1.3"/><path d="M4 -6.2V9" stroke-width="1.2"/><path d="M15 -10.8V1" stroke-width="1.2"/><path d="M30 -13V1" stroke-width="1.2"/><path d="M45 -10.8V1" stroke-width="1.2"/><path d="M56 -6.2V9" stroke-width="1.2"/></g><g stroke="#06050A" fill="none" stroke-linecap="round"><path d="M151.4 140.4V147.9" stroke-width="1.6"/><path d="M168.4 142.1V149.6" stroke-width="1.6"/><path d="M185.4 140.5V148" stroke-width="1.6"/><path d="M151.4 140.4Q159.9 142.1 168.4 142.1Q176.9 142.2 185.4 140.5" stroke-width="1.2"/></g><g fill="none" stroke="#06050A" stroke-linecap="round"><g transform="translate(536.8 0) scale(-1 1)"><path d="M268.4 129.3Q269.4 122 269.8 115.9" stroke-width="4.2"/><path d="M269.8 115.9Q270.5 109.1 275.9 105.5" stroke-width="2.9"/><path d="M275.9 105.5Q277.4 100.8 278.6 97" stroke-width="2.6"/><path d="M278.6 97Q280.4 91.6 283.5 88.6" stroke-width="1.8"/><path d="M283.5 88.6Q284.8 84.5 287.1 81.6" stroke-width="1.7"/><path d="M287.1 81.6Q288.4 79 290.4 77.9" stroke-width="1.2"/><path d="M290.4 77.9Q291.9 75.8 291.5 73.3" stroke-width="1.1"/><path d="M291.5 73.3Q292.1 70.6 294.8 69.5" stroke-width="0.7"/><path d="M294.8 69.5Q295.5 67.6 296 66" stroke-width="0.7"/><path d="M296 66Q296.5 64.4 297.3 63.5" stroke-width="0.5"/><path d="M297.3 63.5Q297.9 62.1 297.9 60.7" stroke-width="0.4"/><path d="M297.9 60.7Q298.2 59.6 300.3 59.7" stroke-width="0.3"/><path d="M300.3 59.7L301.7 58.4" stroke-width="0.6"/><path d="M300.3 59.7L301 58" stroke-width="0.6"/><path d="M300.3 59.7L300.9 57.3" stroke-width="0.6"/><path d="M297.3 63.5Q297.1 62.4 297.5 61.4" stroke-width="0.4"/><path d="M297.5 61.4Q297.6 60.6 296.6 60.1" stroke-width="0.2"/><path d="M296.6 60.1L296.2 58.1" stroke-width="0.6"/><path d="M296.6 60.1L296.3 59" stroke-width="0.6"/><path d="M296.6 60.1L296.5 58.3" stroke-width="0.6"/><path d="M294.8 69.5Q296 68.6 296.4 67.2" stroke-width="0.6"/><path d="M296.4 67.2Q297.4 65.7 298.7 65.1" stroke-width="0.4"/><path d="M298.7 65.1Q299.5 64.4 300.1 63.7" stroke-width="0.4"/><path d="M300.1 63.7Q301 62.8 302 62.6" stroke-width="0.2"/><path d="M302 62.6L303.2 61.9" stroke-width="0.6"/><path d="M302 62.6L303.1 61.6" stroke-width="0.6"/><path d="M302 62.6L303.4 60.9" stroke-width="0.6"/><path d="M290.4 77.9Q292.5 77.2 293.9 75.9" stroke-width="0.8"/><path d="M293.9 75.9Q295.9 74.7 298.1 75.4" stroke-width="0.6"/><path d="M298.1 75.4Q299.5 74.6 300.3 73.5" stroke-width="0.5"/><path d="M300.3 73.5Q301.4 72.5 302.9 72.7" stroke-width="0.4"/><path d="M298.1 75.4Q299.5 75.6 300.7 75.2" stroke-width="0.4"/><path d="M300.7 75.2Q301.9 75.1 302.6 77.4" stroke-width="0.3"/><path d="M283.5 88.6Q283.3 86 283.3 83.8" stroke-width="1.2"/><path d="M283.3 83.8Q283.2 81.1 283 79.2" stroke-width="0.8"/><path d="M283 79.2Q283.2 77.5 282.8 76" stroke-width="0.7"/><path d="M282.8 76Q282.6 74 282.7 72.7" stroke-width="0.5"/><path d="M282.7 72.7Q282.5 71.2 282.1 70" stroke-width="0.4"/><path d="M282.1 70Q281.8 68.8 283.2 67.9" stroke-width="0.3"/><path d="M282.7 72.7Q282.2 71.7 281.5 71" stroke-width="0.4"/><path d="M281.5 71Q280.9 70.2 280.7 69.6" stroke-width="0.3"/><path d="M283 79.2Q284.1 78 285.2 77.1" stroke-width="0.7"/><path d="M285.2 77.1Q286.3 76 286.7 75" stroke-width="0.4"/><path d="M286.7 75Q287.5 74.2 288.5 74.2" stroke-width="0.4"/><path d="M288.5 74.2Q289.5 73.7 289.3 72.1" stroke-width="0.3"/><path d="M275.9 105.5Q278.7 102.2 279.2 98.4" stroke-width="2"/><path d="M279.2 98.4Q280.9 94.8 287.2 96.1" stroke-width="1.3"/><path d="M287.2 96.1Q290.2 94.2 291.6 91.5" stroke-width="1.3"/><path d="M291.6 91.5Q293.3 89.7 296.8 91.6" stroke-width="0.9"/><path d="M296.8 91.6Q299.1 90.8 300.8 89.6" stroke-width="0.8"/><path d="M300.8 89.6Q302.4 88.7 304 89.1" stroke-width="0.6"/><path d="M304 89.1Q305.6 88.8 306.7 88" stroke-width="0.6"/><path d="M306.7 88Q308.2 87.3 309.6 87.7" stroke-width="0.4"/><path d="M309.6 87.7Q310.9 87.1 311.9 86.7" stroke-width="0.4"/><path d="M311.9 86.7Q312.8 86.3 313.6 86.7" stroke-width="0.2"/><path d="M313.6 86.7L314.9 86.2" stroke-width="0.6"/><path d="M313.6 86.7L315.3 85.2" stroke-width="0.6"/><path d="M313.6 86.7L315.2 85.4" stroke-width="0.6"/><path d="M304 89.1Q305.3 89.3 306.3 89.3" stroke-width="0.4"/><path d="M306.3 89.3Q307.2 89.4 307.9 90" stroke-width="0.3"/><path d="M304 89.1Q304.7 88.3 305.3 87.7" stroke-width="0.4"/><path d="M305.3 87.7Q306 87 306.7 86.8" stroke-width="0.3"/><path d="M296.8 91.6Q298.6 92.2 299.6 93.4" stroke-width="0.7"/><path d="M299.6 93.4Q300.9 94.2 302.8 93.3" stroke-width="0.5"/><path d="M302.8 93.3Q304.2 93.4 305.4 93.9" stroke-width="0.5"/><path d="M305.4 93.9Q306.4 94.1 307.4 93.4" stroke-width="0.3"/><path d="M302.8 93.3Q303.5 93.8 304 94.2" stroke-width="0.4"/><path d="M304 94.2Q304.8 94.9 305.2 95.8" stroke-width="0.2"/><path d="M287.2 96.1Q290.1 96.3 292.4 95.4" stroke-width="0.9"/><path d="M292.4 95.4Q294.6 95.1 296.5 96.7" stroke-width="0.6"/><path d="M296.5 96.7Q298.7 96.9 300.4 97.2" stroke-width="0.6"/><path d="M300.4 97.2Q302 97.4 303.3 97.3" stroke-width="0.4"/><path d="M303.3 97.3Q304.5 97.5 305.2 98.5" stroke-width="0.4"/><path d="M305.2 98.5Q306.3 99.3 307.9 98.5" stroke-width="0.3"/><path d="M296.5 96.7Q298 95.7 299.2 94.9" stroke-width="0.4"/><path d="M299.2 94.9Q300.3 94.2 301.2 93.8" stroke-width="0.3"/><path d="M296.5 96.7Q297.5 96.2 298.2 95.6" stroke-width="0.4"/><path d="M298.2 95.6Q299.3 94.9 300.5 95.2" stroke-width="0.3"/></g></g><g fill="none" stroke="#06050A" stroke-linecap="round"><path d="M345 133Q344.5 126.8 348.3 122.1" stroke-width="4"/><path d="M348.3 122.1Q350.3 115.5 348.6 110.7" stroke-width="2.7"/><path d="M348.6 110.7Q350.1 106.6 352.3 103.7" stroke-width="2.7"/><path d="M352.3 103.7Q354.5 99.6 356.2 97.2" stroke-width="1.8"/><path d="M356.2 97.2Q357.8 93.6 357.8 90.3" stroke-width="1.7"/><path d="M357.8 90.3Q358.5 87.5 362.2 87.2" stroke-width="1.1"/><path d="M362.2 87.2Q363.6 85.2 364.8 83.6" stroke-width="1.1"/><path d="M364.8 83.6Q366.1 81.8 367.1 80.7" stroke-width="0.8"/><path d="M367.1 80.7Q367.9 79 368.7 77.8" stroke-width="0.7"/><path d="M368.7 77.8Q369.5 76.3 370 75.4" stroke-width="0.5"/><path d="M370 75.4L372.5 73" stroke-width="0.6"/><path d="M370 75.4L371.6 72.3" stroke-width="0.6"/><path d="M370 75.4L370.1 73.3" stroke-width="0.6"/><path d="M367.1 80.7Q367.3 79.4 367 78.3" stroke-width="0.6"/><path d="M367 78.3Q367 76.8 368.5 76.1" stroke-width="0.4"/><path d="M368.5 76.1L368.3 74.5" stroke-width="0.6"/><path d="M368.5 76.1L369.1 73.6" stroke-width="0.6"/><path d="M368.5 76.1L369.1 74.2" stroke-width="0.6"/><path d="M362.2 87.2Q362.2 85.1 361.7 83.3" stroke-width="0.8"/><path d="M361.7 83.3Q361.5 81.8 362.2 80.9" stroke-width="0.5"/><path d="M362.2 80.9Q362.1 79.7 362.7 78.8" stroke-width="0.5"/><path d="M362.7 78.8Q363.1 77.4 361.4 76.5" stroke-width="0.3"/><path d="M361.4 76.5L361.1 74.6" stroke-width="0.6"/><path d="M361.4 76.5L361.8 73.9" stroke-width="0.6"/><path d="M361.4 76.5L361.5 74.7" stroke-width="0.6"/><path d="M362.2 80.9Q361.7 80 361.4 79.2" stroke-width="0.4"/><path d="M361.4 79.2Q360.9 78.1 361.2 77.2" stroke-width="0.3"/><path d="M361.2 77.2L359.9 75.5" stroke-width="0.6"/><path d="M361.2 77.2L360.8 75.6" stroke-width="0.6"/><path d="M361.2 77.2L361.2 75.4" stroke-width="0.6"/><path d="M356.2 97.2Q358.3 95.6 359.8 93.9" stroke-width="1.4"/><path d="M359.8 93.9Q361.4 92.4 363.4 92.6" stroke-width="0.9"/><path d="M363.4 92.6Q364.7 91.8 366.1 91.7" stroke-width="0.9"/><path d="M366.1 91.7Q367.9 91 368.9 89.9" stroke-width="0.6"/><path d="M368.9 89.9Q370.2 89.3 371.3 88.8" stroke-width="0.6"/><path d="M371.3 88.8Q372.2 88.4 372.7 87.9" stroke-width="0.4"/><path d="M372.7 87.9L374.6 86.4" stroke-width="0.6"/><path d="M372.7 87.9L374.3 87.3" stroke-width="0.6"/><path d="M372.7 87.9L374.3 86.6" stroke-width="0.6"/><path d="M368.9 89.9Q369.9 90.1 370.5 90.8" stroke-width="0.4"/><path d="M370.5 90.8Q371.1 91.1 372.1 90.1" stroke-width="0.3"/><path d="M372.1 90.1L373.3 90.2" stroke-width="0.6"/><path d="M372.1 90.1L373 90.5" stroke-width="0.6"/><path d="M372.1 90.1L373.2 89.7" stroke-width="0.6"/><path d="M363.4 92.6Q364.8 92.7 365.9 93.3" stroke-width="0.7"/><path d="M365.9 93.3Q367.4 93.7 368.6 94.1" stroke-width="0.5"/><path d="M368.6 94.1Q369.7 94.4 370.6 94.8" stroke-width="0.4"/><path d="M370.6 94.8Q371.6 95.2 372.5 95.9" stroke-width="0.3"/><path d="M372.5 95.9L374.3 96.1" stroke-width="0.6"/><path d="M372.5 95.9L373.7 96.4" stroke-width="0.6"/><path d="M372.5 95.9L374.1 96.5" stroke-width="0.6"/><path d="M348.6 110.7Q351.1 107.9 354.8 107.8" stroke-width="1.9"/><path d="M354.8 107.8Q357.6 106.5 359.2 105" stroke-width="1.3"/><path d="M359.2 105Q361.5 103.9 362.9 102.1" stroke-width="1.2"/><path d="M362.9 102.1Q364.5 100.8 367.3 103.1" stroke-width="0.8"/><path d="M367.3 103.1Q369.1 102.5 370.2 101.3" stroke-width="0.8"/><path d="M370.2 101.3Q371.7 100.4 373.5 101.1" stroke-width="0.5"/><path d="M373.5 101.1Q374.8 100.6 376 100.3" stroke-width="0.5"/><path d="M376 100.3Q377.2 99.8 378.1 99.5" stroke-width="0.3"/><path d="M378.1 99.5L380.2 98.6" stroke-width="0.6"/><path d="M378.1 99.5L379.9 98.6" stroke-width="0.6"/><path d="M378.1 99.5L380.9 99.4" stroke-width="0.6"/><path d="M373.5 101.1Q374.2 100.3 375.2 100.1" stroke-width="0.4"/><path d="M375.2 100.1Q375.8 99.7 375.9 99.2" stroke-width="0.3"/><path d="M375.9 99.2L377.1 98.4" stroke-width="0.6"/><path d="M375.9 99.2L376.5 97.9" stroke-width="0.6"/><path d="M375.9 99.2L377.1 98" stroke-width="0.6"/><path d="M367.3 103.1Q368.6 103.7 369.9 103.6" stroke-width="0.7"/><path d="M369.9 103.6Q371.1 103.8 371.5 105.9" stroke-width="0.4"/><path d="M371.5 105.9Q372.3 106.6 373.2 106.8" stroke-width="0.4"/><path d="M373.2 106.8Q374 107.3 374.1 108.7" stroke-width="0.3"/><path d="M374.1 108.7L375.2 110.1" stroke-width="0.6"/><path d="M374.1 108.7L374.9 109.8" stroke-width="0.6"/><path d="M374.1 108.7L374.8 110" stroke-width="0.6"/><path d="M359.2 105Q360.4 102.9 361.8 101.4" stroke-width="0.9"/><path d="M361.8 101.4Q362.8 100 362.1 98.5" stroke-width="0.6"/><path d="M362.1 98.5Q363.1 97.1 363.7 95.7" stroke-width="0.6"/><path d="M363.7 95.7Q364.4 94.6 365.5 94.3" stroke-width="0.4"/><path d="M365.5 94.3Q366.3 93.4 366.9 92.5" stroke-width="0.4"/><path d="M366.9 92.5Q367.5 91.7 368.6 91.9" stroke-width="0.3"/><path d="M368.6 91.9L369.7 90.7" stroke-width="0.6"/><path d="M368.6 91.9L370.2 91.5" stroke-width="0.6"/><path d="M368.6 91.9L369.7 91.2" stroke-width="0.6"/><path d="M362.1 98.5Q362.1 97.4 361.6 96.5" stroke-width="0.4"/><path d="M361.6 96.5Q361.3 95.2 361.8 94.4" stroke-width="0.3"/></g><g fill="none" stroke="#0C0A17" stroke-linecap="round"><g transform="translate(672 0) scale(-1 1)"><path d="M336 87.6Q335.6 83.2 335.2 79.6" stroke-width="3"/><path d="M335.2 79.6Q334.7 74.7 335.7 70.6" stroke-width="2"/><path d="M335.7 70.6Q334.9 67.1 335.9 64.1" stroke-width="1.9"/><path d="M335.9 64.1Q336 61 333.1 58.7" stroke-width="1.3"/><path d="M333.1 58.7Q332.7 56 331.1 54.3" stroke-width="1.2"/><path d="M331.1 54.3Q330.3 52.4 331.2 50.4" stroke-width="0.8"/><path d="M331.2 50.4Q330.6 48.9 329.9 47.8" stroke-width="0.7"/><path d="M329.9 47.8Q329.1 46.1 328 45" stroke-width="0.5"/><path d="M328 45Q327.5 43.8 328 42.6" stroke-width="0.5"/><path d="M328 42.6Q328 41.4 325.1 41.3" stroke-width="0.3"/><path d="M325.1 41.3L323.7 40.4" stroke-width="0.6"/><path d="M325.1 41.3L324.3 40" stroke-width="0.6"/><path d="M325.1 41.3L324.5 40" stroke-width="0.6"/><path d="M328 45Q327.2 44.5 326.7 44.1" stroke-width="0.4"/><path d="M326.7 44.1Q325.8 43.5 324.9 43.3" stroke-width="0.2"/><path d="M324.9 43.3L323.5 42.1" stroke-width="0.6"/><path d="M324.9 43.3L324 42" stroke-width="0.6"/><path d="M324.9 43.3L323.7 42.8" stroke-width="0.6"/><path d="M331.2 50.4Q331.8 49.4 332.2 48.6" stroke-width="0.6"/><path d="M332.2 48.6Q332.8 47.4 333.3 46.5" stroke-width="0.4"/><path d="M333.3 46.5Q333.9 45.6 334 44.8" stroke-width="0.4"/><path d="M334 44.8Q334.3 44 335 43.7" stroke-width="0.3"/><path d="M335 43.7L335.3 42.3" stroke-width="0.6"/><path d="M335 43.7L335.4 42.2" stroke-width="0.6"/><path d="M335 43.7L335.2 42.5" stroke-width="0.6"/><path d="M333.1 58.7Q334.2 57.2 334.3 55.5" stroke-width="0.9"/><path d="M334.3 55.5Q335.1 53.4 338.5 53.6" stroke-width="0.6"/><path d="M338.5 53.6Q339.6 52.3 340 50.9" stroke-width="0.6"/><path d="M340 50.9Q340.7 49.7 341.1 48.5" stroke-width="0.4"/><path d="M341.1 48.5Q342 47.5 341.8 46.1" stroke-width="0.4"/><path d="M341.8 46.1Q342.1 45.1 344 45.2" stroke-width="0.2"/><path d="M344 45.2L345.2 44.2" stroke-width="0.6"/><path d="M344 45.2L345.2 43.9" stroke-width="0.6"/><path d="M344 45.2L345.2 44.1" stroke-width="0.6"/><path d="M338.5 53.6Q338.8 52.5 339.4 51.7" stroke-width="0.5"/><path d="M339.4 51.7Q339.9 50.7 339.5 49.5" stroke-width="0.3"/><path d="M335.7 70.6Q333.5 68.6 332 66.7" stroke-width="1.5"/><path d="M332 66.7Q330.2 64.8 328.9 63.2" stroke-width="1"/><path d="M328.9 63.2Q327.2 61.7 325.9 60.2" stroke-width="1"/><path d="M325.9 60.2Q324.8 59 324.1 57.8" stroke-width="0.7"/><path d="M324.1 57.8Q323.3 56.6 322.7 55.6" stroke-width="0.7"/><path d="M322.7 55.6Q321.9 54.3 320.8 53.4" stroke-width="0.4"/><path d="M320.8 53.4Q320.1 52.6 319.8 51.8" stroke-width="0.4"/><path d="M319.8 51.8Q319.2 50.8 318.3 50.3" stroke-width="0.3"/><path d="M318.3 50.3L317.2 48.8" stroke-width="0.6"/><path d="M318.3 50.3L317.4 49.3" stroke-width="0.6"/><path d="M318.3 50.3L317.3 49.2" stroke-width="0.6"/><path d="M324.1 57.8Q323 57.7 322.1 58.4" stroke-width="0.5"/><path d="M322.1 58.4Q320.9 58.7 319.7 57.4" stroke-width="0.3"/><path d="M324.1 57.8Q323.2 57.5 322.4 57.2" stroke-width="0.4"/><path d="M322.4 57.2Q321.5 57 320.6 57.1" stroke-width="0.3"/><path d="M328.9 63.2Q328.8 61.6 329.9 60.5" stroke-width="0.8"/><path d="M329.9 60.5Q330.5 59 329.1 57.4" stroke-width="0.5"/><path d="M329.1 57.4Q329.2 56.3 329.1 55.4" stroke-width="0.5"/><path d="M329.1 55.4Q329.2 54.2 329 53.3" stroke-width="0.3"/><path d="M329.1 57.4Q328.4 56.7 328 56" stroke-width="0.4"/><path d="M328 56Q327.6 55.4 327 55.1" stroke-width="0.2"/><path d="M335.7 70.6Q337.1 69 337.9 67.4" stroke-width="1.4"/><path d="M337.9 67.4Q339.2 65.4 340.7 64.1" stroke-width="0.9"/><path d="M340.7 64.1Q341.8 63 343.3 62.9" stroke-width="0.8"/><path d="M343.3 62.9Q344.9 62 345.4 60" stroke-width="0.6"/><path d="M345.4 60Q346.2 59.1 346.6 58.2" stroke-width="0.5"/><path d="M346.6 58.2Q347.2 57.1 347.8 56.3" stroke-width="0.4"/><path d="M345.4 60Q345.5 59 345.8 58.1" stroke-width="0.4"/><path d="M345.8 58.1Q346 57.2 345.7 56.4" stroke-width="0.3"/><path d="M340.7 64.1Q340.8 62.9 340.2 61.9" stroke-width="0.7"/><path d="M340.2 61.9Q339.9 60.5 339.9 59.4" stroke-width="0.5"/><path d="M339.9 59.4Q339.6 58.3 338.7 57.8" stroke-width="0.4"/><path d="M338.7 57.8Q338.3 57.2 339.1 56.2" stroke-width="0.3"/></g></g><g transform="translate(347.1 132.1) rotate(0.1) scale(1.7)" fill="#06050A"><path d="M0 0V-6.4Q0 -9.2 2.5 -9.2Q5 -9.2 5 -6.4V0Z"/></g><g transform="translate(313.8 126.1) rotate(-0.1) scale(1.9)" fill="#06050A"><path d="M0.4 0V-7.6Q0.4 -10.4 2.2 -10.4Q4 -10.4 4 -7.6V0Z"/></g><g transform="translate(291.6 127.3) rotate(0) scale(1.8)" fill="#06050A"><path d="M0.4 0V-7.6Q0.4 -10.4 2.2 -10.4Q4 -10.4 4 -7.6V0Z"/></g><g transform="translate(274.5 127.9) rotate(0.2) scale(1.8)" fill="#06050A"><path d="M0.4 0V-7.6Q0.4 -10.4 2.2 -10.4Q4 -10.4 4 -7.6V0Z"/></g><g transform="translate(329 127.5) rotate(-0.2) scale(2.1)" fill="#06050A"><path d="M0.4 0V-7.6Q0.4 -10.4 2.2 -10.4Q4 -10.4 4 -7.6V0Z"/></g><g transform="translate(28.8 141.9) scale(0.6 0.6)"><circle cx="151" cy="-166" r="36" fill="url(#ember)"/><path d="M81.0 -65.0C78.0 -65.5 78.7 -65.3 77.0 -64.0C75.3 -62.7 71.5 -59.0 71.0 -57.0C70.5 -55.0 74.5 -55.5 74.0 -52.0C73.5 -48.5 66.0 -41.7 68.0 -36.0C70.0 -30.3 82.3 -22.2 86.0 -18.0C89.7 -13.8 88.2 -12.8 90.0 -11.0C91.8 -9.2 95.8 -8.7 97.0 -7.0C98.2 -5.3 95.0 -2.2 97.0 -1.0C99.0 0.2 107.3 0.8 109.0 0.0C110.7 -0.8 111.7 -0.2 107.0 -6.0C102.3 -11.8 85.0 -29.0 81.0 -35.0C77.0 -41.0 80.7 -37.7 83.0 -42.0C85.3 -46.3 95.3 -57.2 95.0 -61.0C94.7 -64.8 84.0 -64.5 81.0 -65.0Z" fill="#06050A" fill-rule="evenodd"/><path d="M159.0 -183.0C157.0 -183.8 156.8 -180.8 154.0 -181.0C151.2 -181.2 144.7 -184.0 142.0 -184.0C139.3 -184.0 139.0 -183.7 138.0 -181.0C137.0 -178.3 135.0 -171.5 136.0 -168.0C137.0 -164.5 144.5 -163.3 144.0 -160.0C143.5 -156.7 136.8 -148.8 133.0 -148.0C129.2 -147.2 122.2 -153.5 121.0 -155.0C119.8 -156.5 126.5 -155.7 126.0 -157.0C125.5 -158.3 119.7 -162.3 118.0 -163.0C116.3 -163.7 116.3 -160.3 116.0 -161.0C115.7 -161.7 117.7 -165.3 116.0 -167.0C114.3 -168.7 113.5 -173.3 106.0 -171.0C98.5 -168.7 82.0 -155.7 71.0 -153.0C60.0 -150.3 48.3 -155.8 40.0 -155.0C31.7 -154.2 25.2 -150.8 21.0 -148.0C16.8 -145.2 16.3 -141.5 15.0 -138.0C13.7 -134.5 9.7 -126.5 13.0 -127.0C16.3 -127.5 26.2 -138.3 35.0 -141.0C43.8 -143.7 56.2 -139.3 66.0 -143.0C75.8 -146.7 88.0 -159.7 94.0 -163.0C100.0 -166.3 99.3 -163.8 102.0 -163.0C104.7 -162.2 111.5 -158.5 110.0 -158.0C108.5 -157.5 100.0 -162.8 93.0 -160.0C86.0 -157.2 76.2 -144.3 68.0 -141.0C59.8 -137.7 50.7 -141.0 44.0 -140.0C37.3 -139.0 28.7 -137.8 28.0 -135.0C27.3 -132.2 35.2 -124.2 40.0 -123.0C44.8 -121.8 55.0 -127.8 57.0 -128.0C59.0 -128.2 52.3 -126.0 52.0 -124.0C51.7 -122.0 53.2 -116.5 55.0 -116.0C56.8 -115.5 58.5 -119.8 63.0 -121.0C67.5 -122.2 77.0 -121.0 82.0 -123.0C87.0 -125.0 91.0 -129.8 93.0 -133.0C95.0 -136.2 93.3 -143.0 94.0 -142.0C94.7 -141.0 97.5 -131.3 97.0 -127.0C96.5 -122.7 92.7 -117.3 91.0 -116.0C89.3 -114.7 87.8 -120.2 87.0 -119.0C86.2 -117.8 88.5 -110.5 86.0 -109.0C83.5 -107.5 76.5 -110.8 72.0 -110.0C67.5 -109.2 63.8 -104.8 59.0 -104.0C54.2 -103.2 47.2 -105.5 43.0 -105.0C38.8 -104.5 35.8 -102.0 34.0 -101.0C32.2 -100.0 31.7 -99.3 32.0 -99.0C32.3 -98.7 37.2 -100.5 36.0 -99.0C34.8 -97.5 29.2 -91.8 25.0 -90.0C20.8 -88.2 12.0 -89.2 11.0 -88.0C10.0 -86.8 20.7 -83.8 19.0 -83.0C17.3 -82.2 2.8 -84.2 1.0 -83.0C-0.8 -81.8 5.2 -77.3 8.0 -76.0C10.8 -74.7 17.5 -75.7 18.0 -75.0C18.5 -74.3 11.8 -72.7 11.0 -72.0C10.2 -71.3 10.2 -70.7 13.0 -71.0C15.8 -71.3 24.2 -72.0 28.0 -74.0C31.8 -76.0 35.2 -83.0 36.0 -83.0C36.8 -83.0 32.3 -74.3 33.0 -74.0C33.7 -73.7 38.2 -77.8 40.0 -81.0C41.8 -84.2 41.8 -90.2 44.0 -93.0C46.2 -95.8 52.3 -99.2 53.0 -98.0C53.7 -96.8 49.3 -92.0 48.0 -86.0C46.7 -80.0 47.8 -67.5 45.0 -62.0C42.2 -56.5 34.5 -58.3 31.0 -53.0C27.5 -47.7 26.3 -35.5 24.0 -30.0C21.7 -24.5 19.5 -21.8 17.0 -20.0C14.5 -18.2 10.5 -20.8 9.0 -19.0C7.5 -17.2 5.2 -9.2 8.0 -9.0C10.8 -8.8 21.5 -12.8 26.0 -18.0C30.5 -23.2 32.0 -35.0 35.0 -40.0C38.0 -45.0 38.3 -44.8 44.0 -48.0C49.7 -51.2 63.0 -54.7 69.0 -59.0C75.0 -63.3 78.2 -72.5 80.0 -74.0C81.8 -75.5 76.0 -70.2 80.0 -68.0C84.0 -65.8 99.2 -57.7 104.0 -61.0C108.8 -64.3 107.5 -82.5 109.0 -88.0C110.5 -93.5 113.5 -98.8 113.0 -94.0C112.5 -89.2 105.3 -65.7 106.0 -59.0C106.7 -52.3 113.7 -54.5 117.0 -54.0C120.3 -53.5 125.3 -54.2 126.0 -56.0C126.7 -57.8 122.7 -64.8 121.0 -65.0C119.3 -65.2 117.3 -58.3 116.0 -57.0C114.7 -55.7 111.8 -53.8 113.0 -57.0C114.2 -60.2 121.3 -74.8 123.0 -76.0C124.7 -77.2 122.0 -67.2 123.0 -64.0C124.0 -60.8 126.7 -58.0 129.0 -57.0C131.3 -56.0 135.8 -56.2 137.0 -58.0C138.2 -59.8 135.5 -68.2 136.0 -68.0C136.5 -67.8 135.3 -60.3 140.0 -57.0C144.7 -53.7 159.2 -50.3 164.0 -48.0C168.8 -45.7 169.5 -45.7 169.0 -43.0C168.5 -40.3 163.3 -34.5 161.0 -32.0C158.7 -29.5 157.2 -28.0 155.0 -28.0C152.8 -28.0 150.3 -32.8 148.0 -32.0C145.7 -31.2 138.3 -24.3 141.0 -23.0C143.7 -21.7 157.8 -20.8 164.0 -24.0C170.2 -27.2 175.8 -37.8 178.0 -42.0C180.2 -46.2 181.2 -45.0 177.0 -49.0C172.8 -53.0 156.5 -62.8 153.0 -66.0C149.5 -69.2 149.8 -71.7 156.0 -68.0C162.2 -64.3 183.5 -50.7 190.0 -44.0C196.5 -37.3 193.5 -31.2 195.0 -28.0C196.5 -24.8 198.7 -26.7 199.0 -25.0C199.3 -23.3 196.3 -20.0 197.0 -18.0C197.7 -16.0 201.0 -13.8 203.0 -13.0C205.0 -12.2 210.8 -6.0 209.0 -13.0C207.2 -20.0 198.0 -45.8 192.0 -55.0C186.0 -64.2 176.8 -66.0 173.0 -68.0C169.2 -70.0 168.5 -64.8 169.0 -67.0C169.5 -69.2 175.0 -77.5 176.0 -81.0C177.0 -84.5 175.7 -87.3 175.0 -88.0C174.3 -88.7 172.7 -85.0 172.0 -85.0C171.3 -85.0 169.8 -84.7 171.0 -88.0C172.2 -91.3 173.7 -101.7 179.0 -105.0C184.3 -108.3 198.3 -108.5 203.0 -108.0C207.7 -107.5 205.7 -103.0 207.0 -102.0C208.3 -101.0 209.3 -101.8 211.0 -102.0C212.7 -102.2 215.5 -101.8 217.0 -103.0C218.5 -104.2 222.5 -102.5 220.0 -109.0C217.5 -115.5 204.5 -134.8 202.0 -142.0C199.5 -149.2 205.3 -151.0 205.0 -152.0C204.7 -153.0 201.0 -147.5 200.0 -148.0C199.0 -148.5 200.5 -155.0 199.0 -155.0C197.5 -155.0 194.0 -148.3 191.0 -148.0C188.0 -147.7 183.3 -152.3 181.0 -153.0C178.7 -153.7 177.0 -152.7 177.0 -152.0C177.0 -151.3 183.0 -149.0 181.0 -149.0C179.0 -149.0 167.0 -152.3 165.0 -152.0C163.0 -151.7 170.7 -148.0 169.0 -147.0C167.3 -146.0 157.7 -146.5 155.0 -146.0C152.3 -145.5 151.8 -144.5 153.0 -144.0C154.2 -143.5 162.5 -143.8 162.0 -143.0C161.5 -142.2 152.3 -140.0 150.0 -139.0C147.7 -138.0 147.3 -137.3 148.0 -137.0C148.7 -136.7 153.8 -137.7 154.0 -137.0C154.2 -136.3 151.2 -133.7 149.0 -133.0C146.8 -132.3 141.3 -133.7 141.0 -133.0C140.7 -132.3 147.0 -130.3 147.0 -129.0C147.0 -127.7 143.0 -124.5 141.0 -125.0C139.0 -125.5 139.2 -129.8 135.0 -132.0C130.8 -134.2 119.5 -138.7 116.0 -138.0C112.5 -137.3 112.3 -129.7 114.0 -128.0C115.7 -126.3 121.8 -129.5 126.0 -128.0C130.2 -126.5 138.0 -121.3 139.0 -119.0C140.0 -116.7 133.0 -113.8 132.0 -114.0C131.0 -114.2 133.5 -119.0 133.0 -120.0C132.5 -121.0 130.7 -121.3 129.0 -120.0C127.3 -118.7 125.2 -113.3 123.0 -112.0C120.8 -110.7 119.0 -113.5 116.0 -112.0C113.0 -110.5 108.5 -104.3 105.0 -103.0C101.5 -101.7 91.7 -101.5 95.0 -104.0C98.3 -106.5 122.0 -114.7 125.0 -118.0C128.0 -121.3 114.2 -122.7 113.0 -124.0C111.8 -125.3 119.5 -125.0 118.0 -126.0C116.5 -127.0 107.7 -127.2 104.0 -130.0C100.3 -132.8 95.2 -142.8 96.0 -143.0C96.8 -143.2 106.2 -131.8 109.0 -131.0C111.8 -130.2 113.5 -136.2 113.0 -138.0C112.5 -139.8 106.8 -140.0 106.0 -142.0C105.2 -144.0 106.7 -150.3 108.0 -150.0C109.3 -149.7 112.0 -141.8 114.0 -140.0C116.0 -138.2 118.8 -137.2 120.0 -139.0C121.2 -140.8 120.5 -150.3 121.0 -151.0C121.5 -151.7 120.7 -145.0 123.0 -143.0C125.3 -141.0 132.3 -139.0 135.0 -139.0C137.7 -139.0 138.7 -141.7 139.0 -143.0C139.3 -144.3 136.5 -146.8 137.0 -147.0C137.5 -147.2 140.0 -142.3 142.0 -144.0C144.0 -145.7 145.3 -153.5 149.0 -157.0C152.7 -160.5 161.2 -161.8 164.0 -165.0C166.8 -168.2 166.8 -173.0 166.0 -176.0C165.2 -179.0 161.0 -182.2 159.0 -183.0ZM98.0 -118.0C94.0 -114.0 75.0 -94.0 70.0 -88.0C65.0 -82.0 67.7 -82.7 68.0 -82.0C68.3 -81.3 66.8 -78.8 72.0 -84.0C77.2 -89.2 94.3 -107.7 99.0 -113.0C103.7 -118.3 100.7 -116.3 100.0 -116.0C99.3 -115.7 96.0 -111.7 95.0 -111.0C94.0 -110.3 93.5 -110.8 94.0 -112.0C94.5 -113.2 102.0 -122.0 98.0 -118.0ZM186.0 -132.0C185.5 -131.2 184.2 -128.5 184.0 -126.0C183.8 -123.5 185.5 -119.5 185.0 -117.0C184.5 -114.5 178.8 -112.0 181.0 -111.0C183.2 -110.0 195.8 -110.5 198.0 -111.0C200.2 -111.5 195.5 -113.3 194.0 -114.0C192.5 -114.7 190.5 -114.2 189.0 -115.0C187.5 -115.8 185.7 -117.2 185.0 -119.0C184.3 -120.8 184.7 -124.0 185.0 -126.0C185.3 -128.0 186.8 -130.0 187.0 -131.0C187.2 -132.0 186.5 -132.8 186.0 -132.0ZM122.0 -110.0C122.0 -109.7 127.8 -102.7 129.0 -100.0C130.2 -97.3 129.5 -95.7 129.0 -94.0C128.5 -92.3 127.7 -90.3 126.0 -90.0C124.3 -89.7 119.7 -92.0 119.0 -92.0C118.3 -92.0 120.8 -90.3 122.0 -90.0C123.2 -89.7 125.2 -90.3 126.0 -90.0C126.8 -89.7 128.5 -91.7 127.0 -88.0C125.5 -84.3 117.8 -69.5 117.0 -68.0C116.2 -66.5 120.5 -76.5 122.0 -79.0C123.5 -81.5 124.7 -80.3 126.0 -83.0C127.3 -85.7 129.5 -91.8 130.0 -95.0C130.5 -98.2 130.3 -99.5 129.0 -102.0C127.7 -104.5 122.0 -110.3 122.0 -110.0ZM137.0 -104.0C136.3 -104.2 150.3 -97.2 155.0 -94.0C159.7 -90.8 163.3 -86.2 165.0 -85.0C166.7 -83.8 166.0 -85.7 165.0 -87.0C164.0 -88.3 163.7 -90.2 159.0 -93.0C154.3 -95.8 137.7 -103.8 137.0 -104.0ZM87.0 -96.0C87.0 -93.8 84.7 -86.3 88.0 -84.0C91.3 -81.7 106.8 -81.8 107.0 -82.0C107.2 -82.2 92.2 -82.5 89.0 -85.0C85.8 -87.5 88.3 -95.2 88.0 -97.0C87.7 -98.8 87.0 -98.2 87.0 -96.0ZM133.0 -111.0C132.8 -111.2 133.7 -95.5 133.0 -91.0C132.3 -86.5 128.8 -84.2 129.0 -84.0C129.2 -83.8 133.3 -85.5 134.0 -90.0C134.7 -94.5 133.2 -110.8 133.0 -111.0ZM190.0 -132.0C191.7 -129.3 201.7 -116.0 202.0 -116.0C202.3 -116.0 194.0 -129.3 192.0 -132.0C190.0 -134.7 188.3 -134.7 190.0 -132.0ZM92.0 -156.0C91.8 -154.8 91.7 -151.5 92.0 -150.0C92.3 -148.5 92.3 -147.3 94.0 -147.0C95.7 -146.7 99.8 -147.2 102.0 -148.0C104.2 -148.8 106.2 -151.0 107.0 -152.0C107.8 -153.0 107.5 -154.3 107.0 -154.0C106.5 -153.7 105.2 -151.0 104.0 -150.0C102.8 -149.0 101.7 -148.3 100.0 -148.0C98.3 -147.7 95.3 -147.2 94.0 -148.0C92.7 -148.8 92.2 -151.5 92.0 -153.0C91.8 -154.5 93.0 -156.5 93.0 -157.0C93.0 -157.5 92.2 -157.2 92.0 -156.0ZM176.0 -141.0C176.5 -141.5 170.0 -138.3 167.0 -136.0C164.0 -133.7 158.5 -127.5 158.0 -127.0C157.5 -126.5 161.0 -130.7 164.0 -133.0C167.0 -135.3 175.5 -140.5 176.0 -141.0ZM108.0 -127.0C107.0 -126.3 102.8 -121.3 103.0 -121.0C103.2 -120.7 108.2 -124.0 109.0 -125.0C109.8 -126.0 109.0 -127.7 108.0 -127.0ZM168.0 -85.0C167.5 -84.5 166.8 -81.8 167.0 -81.0C167.2 -80.2 168.5 -79.5 169.0 -80.0C169.5 -80.5 170.2 -83.2 170.0 -84.0C169.8 -84.8 168.5 -85.5 168.0 -85.0ZM199.0 -142.0C197.8 -141.8 194.2 -140.7 193.0 -140.0C191.8 -139.3 190.8 -137.8 192.0 -138.0C193.2 -138.2 198.8 -140.3 200.0 -141.0C201.2 -141.7 200.2 -142.2 199.0 -142.0ZM167.0 -76.0C166.5 -75.3 164.0 -67.8 164.0 -67.0C164.0 -66.2 166.5 -69.5 167.0 -71.0C167.5 -72.5 167.5 -76.7 167.0 -76.0ZM104.0 -168.0C103.5 -168.2 105.7 -168.2 107.0 -167.0C108.3 -165.8 111.5 -161.2 112.0 -161.0C112.5 -160.8 111.3 -164.8 110.0 -166.0C108.7 -167.2 104.5 -167.8 104.0 -168.0ZM205.0 -114.0C204.2 -114.0 202.0 -113.0 202.0 -113.0C202.0 -113.0 204.2 -114.2 205.0 -114.0C205.8 -113.8 207.2 -112.8 207.0 -112.0C206.8 -111.2 204.0 -109.3 204.0 -109.0C204.0 -108.7 206.5 -109.3 207.0 -110.0C207.5 -110.7 207.3 -112.3 207.0 -113.0C206.7 -113.7 205.8 -114.0 205.0 -114.0Z" fill="#06050A" fill-rule="evenodd"/><path d="M151 -180.5C146 -184 138 -183 134.5 -177C130.5 -170 130.5 -160 135 -153.5C139 -148 147 -146.5 151 -147C155 -146.5 163 -148 167 -153.5C171.5 -160 171.5 -170 167.5 -177C164 -183 156 -184 151 -180.5ZM149.5 -180C149 -184.5 151.5 -187.5 155 -188C153 -186 152.5 -183.5 153.5 -180.8Z" fill="#F09A3E"/><path d="M143.5 -181.5C140 -172 140 -160 144 -150" fill="none" stroke="#06050A" stroke-width="1.5" stroke-linecap="round"/><path d="M158.5 -181.5C162 -172 162 -160 158 -150" fill="none" stroke="#06050A" stroke-width="1.5" stroke-linecap="round"/></g></svg>
