<svg xmlns="http://www.w3.org/2000/svg" width="28.0" height="28.0" viewBox="0 0 28.0 28.0"><rect width="28.0" height="28.0" fill="#0B1A14"/><rect x="0.40" y="0.40" width="2.70" height="2.70" rx="0.3" fill="#24503F"/><rect x="3.90" y="0.40" width="2.70" height="2.70" rx="0.3" fill="#21483A"/><rect x="7.40" y="0.40" width="2.70" height="2.70" rx="0.3" fill="#1C3F33"/><rect x="10.90" y="0.40" width="2.70" height="2.70" rx="0.3" fill="#1A3B30"/><rect x="14.40" y="0.40" width="2.70" height="2.70" rx="0.3" fill="#1C3F33"/><rect x="17.90" y="0.40" width="2.70" height="2.70" rx="0.3" fill="#24503F"/><rect x="21.40" y="0.40" width="2.70" height="2.70" rx="0.3" fill="#24503F"/><rect x="24.90" y="0.40" width="2.70" height="2.70" rx="0.3" fill="#183A2E"/><rect x="0.40" y="3.90" width="2.70" height="2.70" rx="0.3" fill="#1C3F33"/><rect x="3.90" y="3.90" width="2.70" height="2.70" rx="0.3" fill="#24503F"/><rect x="7.40" y="3.90" width="2.70" height="2.70" rx="0.3" fill="#1C3F33"/><rect x="10.90" y="3.90" width="2.70" height="2.70" rx="0.3" fill="#21483A"/><rect x="14.40" y="3.90" width="2.70" height="2.70" rx="0.3" fill="#21483A"/><rect x="17.90" y="3.90" width="2.70" height="2.70" rx="0.3" fill="#1A3B30"/><rect x="21.40" y="3.90" width="2.70" height="2.70" rx="0.3" fill="#1C3F33"/><rect x="24.90" y="3.90" width="2.70" height="2.70" rx="0.3" fill="#1C3F33"/><rect x="0.40" y="7.40" width="2.70" height="2.70" rx="0.3" fill="#21483A"/><rect x="3.90" y="7.40" width="2.70" height="2.70" rx="0.3" fill="#1C3F33"/><rect x="7.40" y="7.40" width="2.70" height="2.70" rx="0.3" fill="#21483A"/><rect x="10.90" y="7.40" width="2.70" height="2.70" rx="0.3" fill="#1A3B30"/><rect x="14.40" y="7.40" width="2.70" height="2.70" rx="0.3" fill="#1A3B30"/><rect x="17.90" y="7.40" width="2.70" height="2.70" rx="0.3" fill="#183A2E"/><rect x="21.40" y="7.40" width="2.70" height="2.70" rx="0.3" fill="#21483A"/><rect x="24.90" y="7.40" width="2.70" height="2.70" rx="0.3" fill="#24503F"/><rect x="0.40" y="10.90" width="2.70" height="2.70" rx="0.3" fill="#1A3B30"/><rect x="3.90" y="10.90" width="2.70" height="2.70" rx="0.3" fill="#24503F"/><rect x="7.40" y="10.90" width="2.70" height="2.70" rx="0.3" fill="#21483A"/><rect x="10.90" y="10.90" width="2.70" height="2.70" rx="0.3" fill="#1A3B30"/><rect x="14.40" y="10.90" width="2.70" height="2.70" rx="0.3" fill="#1A3B30"/><rect x="17.90" y="10.90" width="2.70" height="2.70" rx="0.3" fill="#21483A"/><rect x="21.40" y="10.90" width="2.70" height="2.70" rx="0.3" fill="#1C3F33"/><rect x="24.90" y="10.90" width="2.70" height="2.70" rx="0.3" fill="#183A2E"/><rect x="0.40" y="14.40" width="2.70" height="2.70" rx="0.3" fill="#21483A"/><rect x="3.90" y="14.40" width="2.70" height="2.70" rx="0.3" fill="#1A3B30"/><rect x="7.40" y="14.40" width="2.70" height="2.70" rx="0.3" fill="#21483A"/><rect x="10.90" y="14.40" width="2.70" height="2.70" rx="0.3" fill="#1A3B30"/><rect x="14.40" y="14.40" width="2.70" height="2.70" rx="0.3" fill="#1A3B30"/><rect x="17.90" y="14.40" width="2.70" height="2.70" rx="0.3" fill="#24503F"/><rect x="21.40" y="14.40" width="2.70" height="2.70" rx="0.3" fill="#183A2E"/><rect x="24.90" y="14.40" width="2.70" height="2.70" rx="0.3" fill="#183A2E"/><rect x="0.40" y="17.90" width="2.70" height="2.70" rx="0.3" fill="#21483A"/><rect x="3.90" y="17.90" width="2.70" height="2.70" rx="0.3" fill="#1A3B30"/><rect x="7.40" y="17.90" width="2.70" height="2.70" rx="0.3" fill="#24503F"/><rect x="10.90" y="17.90" width="2.70" height="2.70" rx="0.3" fill="#1A3B30"/><rect x="14.40" y="17.90" width="2.70" height="2.70" rx="0.3" fill="#21483A"/><rect x="17.90" y="17.90" width="2.70" height="2.70" rx="0.3" fill="#1A3B30"/><rect x="21.40" y="17.90" width="2.70" height="2.70" rx="0.3" fill="#183A2E"/><rect x="24.90" y="17.90" width="2.70" height="2.70" rx="0.3" fill="#1C3F33"/><rect x="0.40" y="21.40" width="2.70" height="2.70" rx="0.3" fill="#24503F"/><rect x="3.90" y="21.40" width="2.70" height="2.70" rx="0.3" fill="#21483A"/><rect x="7.40" y="21.40" width="2.70" height="2.70" rx="0.3" fill="#21483A"/><rect x="10.90" y="21.40" width="2.70" height="2.70" rx="0.3" fill="#24503F"/><rect x="14.40" y="21.40" width="2.70" height="2.70" rx="0.3" fill="#1A3B30"/><rect x="17.90" y="21.40" width="2.70" height="2.70" rx="0.3" fill="#183A2E"/><rect x="21.40" y="21.40" width="2.70" height="2.70" rx="0.3" fill="#1C3F33"/><rect x="24.90" y="21.40" width="2.70" height="2.70" rx="0.3" fill="#24503F"/><rect x="0.40" y="24.90" width="2.70" height="2.70" rx="0.3" fill="#183A2E"/><rect x="3.90" y="24.90" width="2.70" height="2.70" rx="0.3" fill="#1C3F33"/><rect x="7.40" y="24.90" width="2.70" height="2.70" rx="0.3" fill="#1C3F33"/><rect x="10.90" y="24.90" width="2.70" height="2.70" rx="0.3" fill="#183A2E"/><rect x="14.40" y="24.90" width="2.70" height="2.70" rx="0.3" fill="#24503F"/><rect x="17.90" y="24.90" width="2.70" height="2.70" rx="0.3" fill="#1C3F33"/><rect x="21.40" y="24.90" width="2.70" height="2.70" rx="0.3" fill="#1A3B30"/><rect x="24.90" y="24.90" width="2.70" height="2.70" rx="0.3" fill="#1C3F33"/></svg>
