<svg xmlns="http://www.w3.org/2000/svg" width="28.0" height="28.0" viewBox="0 0 28.0 28.0"><rect width="28.0" height="28.0" fill="#0E1438"/><rect x="0.40" y="0.40" width="2.70" height="2.70" rx="0.3" fill="#283890"/><rect x="3.90" y="0.40" width="2.70" height="2.70" rx="0.3" fill="#2F5E73"/><rect x="7.40" y="0.40" width="2.70" height="2.70" rx="0.3" fill="#1B2768"/><rect x="10.90" y="0.40" width="2.70" height="2.70" rx="0.3" fill="#1E2B72"/><rect x="14.40" y="0.40" width="2.70" height="2.70" rx="0.3" fill="#283890"/><rect x="17.90" y="0.40" width="2.70" height="2.70" rx="0.3" fill="#1B2768"/><rect x="21.40" y="0.40" width="2.70" height="2.70" rx="0.3" fill="#2F5E73"/><rect x="24.90" y="0.40" width="2.70" height="2.70" rx="0.3" fill="#2F5E73"/><rect x="0.40" y="3.90" width="2.70" height="2.70" rx="0.3" fill="#1B2768"/><rect x="3.90" y="3.90" width="2.70" height="2.70" rx="0.3" fill="#283890"/><rect x="7.40" y="3.90" width="2.70" height="2.70" rx="0.3" fill="#2C3C96"/><rect x="10.90" y="3.90" width="2.70" height="2.70" rx="0.3" fill="#1E2B72"/><rect x="14.40" y="3.90" width="2.70" height="2.70" rx="0.3" fill="#1B2768"/><rect x="17.90" y="3.90" width="2.70" height="2.70" rx="0.3" fill="#2C3C96"/><rect x="21.40" y="3.90" width="2.70" height="2.70" rx="0.3" fill="#1B2768"/><rect x="24.90" y="3.90" width="2.70" height="2.70" rx="0.3" fill="#1B2768"/><rect x="0.40" y="7.40" width="2.70" height="2.70" rx="0.3" fill="#22307F"/><rect x="3.90" y="7.40" width="2.70" height="2.70" rx="0.3" fill="#2F5E73"/><rect x="7.40" y="7.40" width="2.70" height="2.70" rx="0.3" fill="#1B2768"/><rect x="10.90" y="7.40" width="2.70" height="2.70" rx="0.3" fill="#1B2768"/><rect x="14.40" y="7.40" width="2.70" height="2.70" rx="0.3" fill="#1B2768"/><rect x="17.90" y="7.40" width="2.70" height="2.70" rx="0.3" fill="#2F5E73"/><rect x="21.40" y="7.40" width="2.70" height="2.70" rx="0.3" fill="#1B2768"/><rect x="24.90" y="7.40" width="2.70" height="2.70" rx="0.3" fill="#283890"/><rect x="0.40" y="10.90" width="2.70" height="2.70" rx="0.3" fill="#2F5E73"/><rect x="3.90" y="10.90" width="2.70" height="2.70" rx="0.3" fill="#2C3C96"/><rect x="7.40" y="10.90" width="2.70" height="2.70" rx="0.3" fill="#2C3C96"/><rect x="10.90" y="10.90" width="2.70" height="2.70" rx="0.3" fill="#283890"/><rect x="14.40" y="10.90" width="2.70" height="2.70" rx="0.3" fill="#1B2768"/><rect x="17.90" y="10.90" width="2.70" height="2.70" rx="0.3" fill="#283890"/><rect x="21.40" y="10.90" width="2.70" height="2.70" rx="0.3" fill="#22307F"/><rect x="24.90" y="10.90" width="2.70" height="2.70" rx="0.3" fill="#22307F"/><rect x="0.40" y="14.40" width="2.70" height="2.70" rx="0.3" fill="#2F5E73"/><rect x="3.90" y="14.40" width="2.70" height="2.70" rx="0.3" fill="#283890"/><rect x="7.40" y="14.40" width="2.70" height="2.70" rx="0.3" fill="#1B2768"/><rect x="10.90" y="14.40" width="2.70" height="2.70" rx="0.3" fill="#1B2768"/><rect x="14.40" y="14.40" width="2.70" height="2.70" rx="0.3" fill="#2C3C96"/><rect x="17.90" y="14.40" width="2.70" height="2.70" rx="0.3" fill="#1B2768"/><rect x="21.40" y="14.40" width="2.70" height="2.70" rx="0.3" fill="#283890"/><rect x="24.90" y="14.40" width="2.70" height="2.70" rx="0.3" fill="#2F5E73"/><rect x="0.40" y="17.90" width="2.70" height="2.70" rx="0.3" fill="#1B2768"/><rect x="3.90" y="17.90" width="2.70" height="2.70" rx="0.3" fill="#1B2768"/><rect x="7.40" y="17.90" width="2.70" height="2.70" rx="0.3" fill="#283890"/><rect x="10.90" y="17.90" width="2.70" height="2.70" rx="0.3" fill="#2C3C96"/><rect x="14.40" y="17.90" width="2.70" height="2.70" rx="0.3" fill="#1B2768"/><rect x="17.90" y="17.90" width="2.70" height="2.70" rx="0.3" fill="#2C3C96"/><rect x="21.40" y="17.90" width="2.70" height="2.70" rx="0.3" fill="#2F5E73"/><rect x="24.90" y="17.90" width="2.70" height="2.70" rx="0.3" fill="#2C3C96"/><rect x="0.40" y="21.40" width="2.70" height="2.70" rx="0.3" fill="#2F5E73"/><rect x="3.90" y="21.40" width="2.70" height="2.70" rx="0.3" fill="#22307F"/><rect x="7.40" y="21.40" width="2.70" height="2.70" rx="0.3" fill="#283890"/><rect x="10.90" y="21.40" width="2.70" height="2.70" rx="0.3" fill="#1B2768"/><rect x="14.40" y="21.40" width="2.70" height="2.70" rx="0.3" fill="#22307F"/><rect x="17.90" y="21.40" width="2.70" height="2.70" rx="0.3" fill="#1E2B72"/><rect x="21.40" y="21.40" width="2.70" height="2.70" rx="0.3" fill="#2C3C96"/><rect x="24.90" y="21.40" width="2.70" height="2.70" rx="0.3" fill="#2F5E73"/><rect x="0.40" y="24.90" width="2.70" height="2.70" rx="0.3" fill="#283890"/><rect x="3.90" y="24.90" width="2.70" height="2.70" rx="0.3" fill="#1B2768"/><rect x="7.40" y="24.90" width="2.70" height="2.70" rx="0.3" fill="#2C3C96"/><rect x="10.90" y="24.90" width="2.70" height="2.70" rx="0.3" fill="#2F5E73"/><rect x="14.40" y="24.90" width="2.70" height="2.70" rx="0.3" fill="#1B2768"/><rect x="17.90" y="24.90" width="2.70" height="2.70" rx="0.3" fill="#2C3C96"/><rect x="21.40" y="24.90" width="2.70" height="2.70" rx="0.3" fill="#2C3C96"/><rect x="24.90" y="24.90" width="2.70" height="2.70" rx="0.3" fill="#283890"/></svg>
