<svg xmlns="http://www.w3.org/2000/svg" width="28.0" height="28.0" viewBox="0 0 28.0 28.0"><rect width="28.0" height="28.0" fill="#0A1015"/><rect x="0.40" y="0.40" width="2.70" height="2.70" rx="0.3" fill="#17232C"/><rect x="3.90" y="0.40" width="2.70" height="2.70" rx="0.3" fill="#1A2830"/><rect x="7.40" y="0.40" width="2.70" height="2.70" rx="0.3" fill="#1A2830"/><rect x="10.90" y="0.40" width="2.70" height="2.70" rx="0.3" fill="#17232C"/><rect x="14.40" y="0.40" width="2.70" height="2.70" rx="0.3" fill="#1C2B33"/><rect x="17.90" y="0.40" width="2.70" height="2.70" rx="0.3" fill="#1A2830"/><rect x="21.40" y="0.40" width="2.70" height="2.70" rx="0.3" fill="#1C2B33"/><rect x="24.90" y="0.40" width="2.70" height="2.70" rx="0.3" fill="#121B22"/><rect x="0.40" y="3.90" width="2.70" height="2.70" rx="0.3" fill="#1A2830"/><rect x="3.90" y="3.90" width="2.70" height="2.70" rx="0.3" fill="#101A21"/><rect x="7.40" y="3.90" width="2.70" height="2.70" rx="0.3" fill="#141E26"/><rect x="10.90" y="3.90" width="2.70" height="2.70" rx="0.3" fill="#101A21"/><rect x="14.40" y="3.90" width="2.70" height="2.70" rx="0.3" fill="#141E26"/><rect x="17.90" y="3.90" width="2.70" height="2.70" rx="0.3" fill="#141E26"/><rect x="21.40" y="3.90" width="2.70" height="2.70" rx="0.3" fill="#1C2B33"/><rect x="24.90" y="3.90" width="2.70" height="2.70" rx="0.3" fill="#1A2830"/><rect x="0.40" y="7.40" width="2.70" height="2.70" rx="0.3" fill="#121B22"/><rect x="3.90" y="7.40" width="2.70" height="2.70" rx="0.3" fill="#141E26"/><rect x="7.40" y="7.40" width="2.70" height="2.70" rx="0.3" fill="#1C2B33"/><rect x="10.90" y="7.40" width="2.70" height="2.70" rx="0.3" fill="#1C2B33"/><rect x="14.40" y="7.40" width="2.70" height="2.70" rx="0.3" fill="#17232C"/><rect x="17.90" y="7.40" width="2.70" height="2.70" rx="0.3" fill="#121B22"/><rect x="21.40" y="7.40" width="2.70" height="2.70" rx="0.3" fill="#17232C"/><rect x="24.90" y="7.40" width="2.70" height="2.70" rx="0.3" fill="#121B22"/><rect x="0.40" y="10.90" width="2.70" height="2.70" rx="0.3" fill="#17232C"/><rect x="3.90" y="10.90" width="2.70" height="2.70" rx="0.3" fill="#17232C"/><rect x="7.40" y="10.90" width="2.70" height="2.70" rx="0.3" fill="#17232C"/><rect x="10.90" y="10.90" width="2.70" height="2.70" rx="0.3" fill="#17232C"/><rect x="14.40" y="10.90" width="2.70" height="2.70" rx="0.3" fill="#121B22"/><rect x="17.90" y="10.90" width="2.70" height="2.70" rx="0.3" fill="#121B22"/><rect x="21.40" y="10.90" width="2.70" height="2.70" rx="0.3" fill="#1C2B33"/><rect x="24.90" y="10.90" width="2.70" height="2.70" rx="0.3" fill="#1A2830"/><rect x="0.40" y="14.40" width="2.70" height="2.70" rx="0.3" fill="#17232C"/><rect x="3.90" y="14.40" width="2.70" height="2.70" rx="0.3" fill="#1A2830"/><rect x="7.40" y="14.40" width="2.70" height="2.70" rx="0.3" fill="#1A2830"/><rect x="10.90" y="14.40" width="2.70" height="2.70" rx="0.3" fill="#101A21"/><rect x="14.40" y="14.40" width="2.70" height="2.70" rx="0.3" fill="#121B22"/><rect x="17.90" y="14.40" width="2.70" height="2.70" rx="0.3" fill="#1A2830"/><rect x="21.40" y="14.40" width="2.70" height="2.70" rx="0.3" fill="#17232C"/><rect x="24.90" y="14.40" width="2.70" height="2.70" rx="0.3" fill="#1C2B33"/><rect x="0.40" y="17.90" width="2.70" height="2.70" rx="0.3" fill="#1C2B33"/><rect x="3.90" y="17.90" width="2.70" height="2.70" rx="0.3" fill="#141E26"/><rect x="7.40" y="17.90" width="2.70" height="2.70" rx="0.3" fill="#17232C"/><rect x="10.90" y="17.90" width="2.70" height="2.70" rx="0.3" fill="#141E26"/><rect x="14.40" y="17.90" width="2.70" height="2.70" rx="0.3" fill="#101A21"/><rect x="17.90" y="17.90" width="2.70" height="2.70" rx="0.3" fill="#1A2830"/><rect x="21.40" y="17.90" width="2.70" height="2.70" rx="0.3" fill="#17232C"/><rect x="24.90" y="17.90" width="2.70" height="2.70" rx="0.3" fill="#101A21"/><rect x="0.40" y="21.40" width="2.70" height="2.70" rx="0.3" fill="#17232C"/><rect x="3.90" y="21.40" width="2.70" height="2.70" rx="0.3" fill="#17232C"/><rect x="7.40" y="21.40" width="2.70" height="2.70" rx="0.3" fill="#17232C"/><rect x="10.90" y="21.40" width="2.70" height="2.70" rx="0.3" fill="#141E26"/><rect x="14.40" y="21.40" width="2.70" height="2.70" rx="0.3" fill="#1C2B33"/><rect x="17.90" y="21.40" width="2.70" height="2.70" rx="0.3" fill="#17232C"/><rect x="21.40" y="21.40" width="2.70" height="2.70" rx="0.3" fill="#1A2830"/><rect x="24.90" y="21.40" width="2.70" height="2.70" rx="0.3" fill="#1C2B33"/><rect x="0.40" y="24.90" width="2.70" height="2.70" rx="0.3" fill="#1A2830"/><rect x="3.90" y="24.90" width="2.70" height="2.70" rx="0.3" fill="#17232C"/><rect x="7.40" y="24.90" width="2.70" height="2.70" rx="0.3" fill="#101A21"/><rect x="10.90" y="24.90" width="2.70" height="2.70" rx="0.3" fill="#101A21"/><rect x="14.40" y="24.90" width="2.70" height="2.70" rx="0.3" fill="#141E26"/><rect x="17.90" y="24.90" width="2.70" height="2.70" rx="0.3" fill="#101A21"/><rect x="21.40" y="24.90" width="2.70" height="2.70" rx="0.3" fill="#17232C"/><rect x="24.90" y="24.90" width="2.70" height="2.70" rx="0.3" fill="#1C2B33"/></svg>
